<svg width="24" height="24" viewBox="0 0 24 24" fill="none" xmlns="http://www.w3.org/2000/svg">
<path d="M9 17C8.20435 17 7.44129 16.6839 6.87868 16.1213C6.31607 15.5587 6 14.7956 6 14V10C6 9.20435 6.31607 8.44129 6.87868 7.87868C7.44129 7.31607 8.20435 7 9 7C9.79565 7 10.5587 7.31607 11.1213 7.87868C11.6839 8.44129 12 9.20435 12 10V14C12 14.7956 11.6839 15.5587 11.1213 16.1213C10.5587 16.6839 9.79565 17 9 17V17ZM9 9C8.73478 9 8.48043 9.10536 8.29289 9.29289C8.10536 9.48043 8 9.73478 8 10V14C8 14.2652 8.10536 14.5196 8.29289 14.7071C8.48043 14.8946 8.73478 15 9 15C9.26522 15 9.51957 14.8946 9.70711 14.7071C9.89464 14.5196 10 14.2652 10 14V10C10 9.73478 9.89464 9.48043 9.70711 9.29289C9.51957 9.10536 9.26522 9 9 9ZM16.91 14.5L17.71 13.71C17.8032 13.6168 17.8772 13.5061 17.9277 13.3842C17.9781 13.2624 18.0041 13.1319 18.0041 13C18.0041 12.8681 17.9781 12.7376 17.9277 12.6158C17.8772 12.4939 17.8032 12.3832 17.71 12.29C17.6168 12.1968 17.5061 12.1228 17.3842 12.0723C17.2624 12.0219 17.1319 11.9959 17 11.9959C16.8681 11.9959 16.7376 12.0219 16.6158 12.0723C16.4939 12.1228 16.3832 12.1968 16.29 12.29L15.5 13.09L14.71 12.29C14.5217 12.1017 14.2663 11.9959 14 11.9959C13.7337 11.9959 13.4783 12.1017 13.29 12.29C13.1017 12.4783 12.9959 12.7337 12.9959 13C12.9959 13.2663 13.1017 13.5217 13.29 13.71L14.09 14.5L13.29 15.29C13.1963 15.383 13.1219 15.4936 13.0711 15.6154C13.0203 15.7373 12.9942 15.868 12.9942 16C12.9942 16.132 13.0203 16.2627 13.0711 16.3846C13.1219 16.5064 13.1963 16.617 13.29 16.71C13.383 16.8037 13.4936 16.8781 13.6154 16.9289C13.7373 16.9797 13.868 17.0058 14 17.0058C14.132 17.0058 14.2627 16.9797 14.3846 16.9289C14.5064 16.8781 14.617 16.8037 14.71 16.71L15.5 15.91L16.29 16.71C16.383 16.8037 16.4936 16.8781 16.6154 16.9289C16.7373 16.9797 16.868 17.0058 17 17.0058C17.132 17.0058 17.2627 16.9797 17.3846 16.9289C17.5064 16.8781 17.617 16.8037 17.71 16.71C17.8037 16.617 17.8781 16.5064 17.9289 16.3846C17.9797 16.2627 18.0058 16.132 18.0058 16C18.0058 15.868 17.9797 15.7373 17.9289 15.6154C17.8781 15.4936 17.8037 15.383 17.71 15.29L16.91 14.5ZM18 22H6C4.93913 22 3.92172 21.5786 3.17157 20.8284C2.42143 20.0783 2 19.0609 2 18V6C2 4.93913 2.42143 3.92172 3.17157 3.17157C3.92172 2.42143 4.93913 2 6 2H18C19.0609 2 20.0783 2.42143 20.8284 3.17157C21.5786 3.92172 22 4.93913 22 6V18C22 19.0609 21.5786 20.0783 20.8284 20.8284C20.0783 21.5786 19.0609 22 18 22ZM6 4C5.46957 4 4.96086 4.21071 4.58579 4.58579C4.21071 4.96086 4 5.46957 4 6V18C4 18.5304 4.21071 19.0391 4.58579 19.4142C4.96086 19.7893 5.46957 20 6 20H18C18.5304 20 19.0391 19.7893 19.4142 19.4142C19.7893 19.0391 20 18.5304 20 18V6C20 5.46957 19.7893 4.96086 19.4142 4.58579C19.0391 4.21071 18.5304 4 18 4H6Z" fill="#122138"/>
</svg>
