<svg height="330" viewBox="0 0 330 330" width="330" xmlns="http://www.w3.org/2000/svg"><g fill="none" fill-rule="evenodd"><circle cx="164.912047" cy="164.912047" fill="#000" r="164.912047"/><g fill="#fff" transform="matrix(.70710678 .70710678 -.70710678 .70710678 164.912026 24.979451)"><path d="m20.5676823 0h54.7642576c11.3592172 0 20.5676822 9.20846501 20.5676822 20.5676823v54.7642576c0 11.3592172-9.208465 20.5676822-20.5676822 20.5676822h-54.7642576c-11.35921729 0-20.5676823-9.208465-20.5676823-20.5676822v-54.7642576c0-11.35921729 9.20846501-20.5676823 20.5676823-20.5676823zm27.3821288 65.9309902c9.930731 0 17.9811791-8.0504481 17.9811791-17.9811791 0-9.9307311-8.0504481-17.9811792-17.9811791-17.9811792-9.9307311 0-17.9811792 8.0504481-17.9811792 17.9811792 0 9.930731 8.0504481 17.9811791 17.9811792 17.9811791z"/><path d="m122.460048 7.71386383c-7.099511 0-12.854802 5.75529067-12.854802 12.85480137v54.7642577c0 7.0995107 5.755291 12.8548014 12.854802 12.8548014h54.764257c7.099511 0 12.854802-5.7552907 12.854802-12.8548014v-54.7642577c0-7.0995107-5.755291-12.85480137-12.854802-12.85480137zm0-7.71288085h54.764257c11.359218 0 20.567683 9.20846501 20.567683 20.56768222v54.7642577c0 11.3592172-9.208465 20.5676822-20.567683 20.5676822h-54.764257c-11.359217 0-20.567682-9.208465-20.567682-20.5676822v-54.7642577c0-11.35921721 9.208465-20.56768222 20.567682-20.56768222z" fill-rule="nonzero"/><circle cx="149.842177" cy="47.950794" r="17.981179"/><path d="m20.5676823 101.893349h54.7642576c11.3592172 0 20.5676822 9.208465 20.5676822 20.567682v54.764257c0 11.359218-9.208465 20.567683-20.5676822 20.567683h-54.7642576c-11.35921729 0-20.5676823-9.208465-20.5676823-20.567683v-54.764257c0-11.359217 9.20846501-20.567682 20.5676823-20.567682zm27.3821288 65.93099c9.930731 0 17.9811791-8.050448 17.9811791-17.981179s-8.0504481-17.98118-17.9811791-17.98118c-9.9307311 0-17.9811792 8.050449-17.9811792 17.98118s8.0504481 17.981179 17.9811792 17.981179z"/><path d="m122.461031 101.893349h54.764257c11.359218 0 20.567683 9.208465 20.567683 20.567682v54.764257c0 11.359218-9.208465 20.567683-20.567683 20.567683h-54.764257c-11.359217 0-20.567682-9.208465-20.567682-20.567683v-54.764257c0-11.359217 9.208465-20.567682 20.567682-20.567682zm27.382129 65.93099c9.930731 0 17.981179-8.050448 17.981179-17.981179s-8.050448-17.98118-17.981179-17.98118-17.98118 8.050449-17.98118 17.98118 8.050449 17.981179 17.98118 17.981179z"/></g></g></svg>