<svg width="24" height="24" viewBox="0 0 24 24" fill="none" xmlns="http://www.w3.org/2000/svg">
<path d="M7.71 16.71L11 13.41L11.29 13.71C11.383 13.8038 11.4936 13.8781 11.6154 13.9289C11.7373 13.9797 11.868 14.0058 12 14.0058C12.132 14.0058 12.2627 13.9797 12.3846 13.9289C12.5064 13.8781 12.617 13.8038 12.71 13.71C12.8037 13.6171 12.8781 13.5065 12.9289 13.3846C12.9797 13.2627 13.0058 13.132 13.0058 13C13.0058 12.868 12.9797 12.7373 12.9289 12.6154C12.8781 12.4936 12.8037 12.383 12.71 12.29L12.41 12L13.5 10.91L14.29 11.71C14.4783 11.8983 14.7337 12.0041 15 12.0041C15.2663 12.0041 15.5217 11.8983 15.71 11.71C15.8983 11.5217 16.0041 11.2663 16.0041 11C16.0041 10.7337 15.8983 10.4783 15.71 10.29L14.21 8.79003C14.117 8.6963 14.0064 8.6219 13.8846 8.57114C13.7627 8.52037 13.632 8.49423 13.5 8.49423C13.368 8.49423 13.2373 8.52037 13.1154 8.57114C12.9936 8.6219 12.883 8.6963 12.79 8.79003L6.29 15.29C5.88692 15.0986 5.44622 14.9996 5 15C4.40666 15 3.82664 15.176 3.33329 15.5056C2.83994 15.8353 2.45543 16.3038 2.22836 16.852C2.0013 17.4002 1.94189 18.0034 2.05765 18.5853C2.1734 19.1672 2.45912 19.7018 2.87868 20.1213C3.29824 20.5409 3.83279 20.8266 4.41473 20.9424C4.99667 21.0581 5.59987 20.9987 6.14805 20.7717C6.69623 20.5446 7.16477 20.1601 7.49441 19.6667C7.82405 19.1734 8 18.5934 8 18C7.99735 17.553 7.89485 17.1123 7.7 16.71H7.71ZM5 19C4.80222 19 4.60888 18.9414 4.44443 18.8315C4.27998 18.7216 4.15181 18.5654 4.07612 18.3827C4.00043 18.2 3.98063 17.9989 4.01922 17.8049C4.0578 17.611 4.15304 17.4328 4.29289 17.2929C4.43275 17.1531 4.61093 17.0578 4.80491 17.0192C4.99889 16.9807 5.19996 17.0005 5.38268 17.0761C5.56541 17.1518 5.72159 17.28 5.83147 17.4445C5.94135 17.6089 6 17.8022 6 18C6 18.2652 5.89464 18.5196 5.70711 18.7071C5.51957 18.8947 5.26522 19 5 19ZM22 7.00003V17C22 17.5305 21.7893 18.0392 21.4142 18.4142C21.0391 18.7893 20.5304 19 20 19H10C9.73478 19 9.48043 18.8947 9.29289 18.7071C9.10536 18.5196 9 18.2652 9 18C9 17.7348 9.10536 17.4805 9.29289 17.2929C9.48043 17.1054 9.73478 17 10 17H20V7.00003H12.4C12.2191 6.99954 12.0417 6.95 11.8867 6.85666C11.7318 6.76333 11.605 6.62971 11.52 6.47003L10.73 5.00003H6V13C6 13.2652 5.89464 13.5196 5.70711 13.7071C5.51957 13.8947 5.26522 14 5 14C4.73478 14 4.48043 13.8947 4.29289 13.7071C4.10536 13.5196 4 13.2652 4 13V5.00003C4 4.46959 4.21072 3.96089 4.58579 3.58581C4.96086 3.21074 5.46957 3.00003 6 3.00003H11.33C11.5126 2.99869 11.6921 3.04738 11.849 3.14081C12.0059 3.23424 12.1342 3.36885 12.22 3.53003L13 5.00003H20C20.5304 5.00003 21.0391 5.21074 21.4142 5.58581C21.7893 5.96089 22 6.46959 22 7.00003Z" fill="#122138"/>
</svg>
