<svg height="331" viewBox="0 0 317 331" width="317" xmlns="http://www.w3.org/2000/svg"><g fill="none"><path d="m300 229-19.236515 65-37.763485-10.321212z" fill="#bbb" stroke="#bbb"/><path d="m243 284 36.423237-50.165706 20.576763-4.834294z" fill="#bbb" stroke="#bbb"/><path d="m272 179.716489 28 49.43535-20.356546 4.848161zm0 0 18.016713-12.716489 9.983287 62.151839z" fill="#ddd"/><g stroke="#000"><path d="m249 142.560976 52-21.560976-2.584337 11.810976zm47.771084 4.439024-47.771084-4.439024 49.415663-9.75z" fill="#000"/><path d="m296.851563 146.862549-6.162465 20.137451-41.689098-24.501718zm10.042111-20.883168-8.893674 6.797251 2.620458-11.776632zm-10.893674 21.168385 1.667564-14.147766 7.067295 5.848797z" fill="#000"/><path d="m290.501771 167 6.249114-20.478271 6.249115 5.149239zm.490661.10791-55.199707-18.124512 13.185058-7.429199z" fill="#000"/><path d="m261.963379 80.3129883-12.963379 62.1394477-13 6.547564z" fill="#000"/><path d="m301 121.351733-52.632812 21.870435 13.257324-62.7104492z" fill="#000"/><path d="m262 81.2691652 55-6.2691652-16.001953 46.375z" fill="#000"/></g><path d="m290.681641 166.88501-18.78614 13.11499-36.597894-31.319336z" fill="#ddd"/><path d="m313.882812 31.1132812 3.117188 44.0527344-55.251953 6.3930664z" fill="#000" stroke="#000"/><path d="m314 31-109.473877 80.583008-1.526123-54.8431867z" fill="#bbb" stroke="#bbb"/><path d="m122 50 81.574427 6.4313725 1.539587 54.3728265z" fill="#ddd"/><path d="m236.105263 149-31.105263-39.12761 57-28.87239z" fill="#000" stroke="#000"/><path d="m235.673406 149 37.028742 31.192871-51.99707 5.354004z" fill="#bbb" stroke="#bbb"/><path d="m220.5 186.560059-15.5-76.560059 31 38.993711z" fill="#bbb" stroke="#bbb"/><path d="m261.821661 81.9235353-56.821661 29.0764647 109-80z" fill="#000" stroke="#000"/><path d="m122.280899 283.05679 25.719101 26.94321-35-32z" fill="#c0ad9e"/><path d="m243 284 12.077922-46.524487 24.47408-3.458667z" fill="#999" stroke="#999"/><path d="m18 153 45-47-39.1961131 41.391597z" fill="#e2761b"/><path d="m279.638916 234.052734-24.746582 3.739258 17.357916-57.339781zm-74.764041-123.496945-43.572573-1.424842-39.302302-59.130947z" fill="#ddd"/><path d="m272.860352 178.466309-17.824463 59.936767-1.605225-29.201538z" fill="#aaa" stroke="#aaa"/><path d="m221 185.534946 51-5.534946-17.92535 29z" fill="#999" stroke="#999"/><path d="m161 109 44.040527.762451 15.959473 76.237549z" fill="#ddd"/><path d="m162.666504 110.812012-118.7885743-110.812012 78.8085933 49.7369804zm-40.061035 188.071777-102.1972659 32.116211-20.4082031-78.772461z" fill="#bbb" stroke="#bbb"/><path d="m33 172 38.6265329-30 32.3734671 7.441253z" fill="#000" stroke="#000"/><path d="m104 150-32-7.512513 17.1344743-71.487487z" fill="#000" stroke="#000"/><path d="m24 147.169713 48-5.169713-38.5897858 30z" fill="#000" stroke="#000"/><path d="m254 209-19.942446-10.126246-13.057554-13.873754z" fill="#999" stroke="#999"/><path d="m24.0253906 147.559082-4.2890625-19.928955 52.8867188 14.405029z" fill="#000" stroke="#000"/><path d="m229.504639 222.02832 4.38623-23.409424 20.12793 10.323975z" fill="#000"/><path d="m255 237-25-15.459155 23.676012-12.540845z" fill="#ddd"/><path d="m72.0783081 142.372253-51.8948568-12.616497-4.1834513-15.104104zm17.367981-71.742126-17.3741455 71.763428-56.0721436-27.741903zm-.4462891.369873 72 38.037037-57.226456 40.962963z" fill="#000" stroke="#000"/><path d="m102.939453 149.790527 58.507324-41.671875 25.553223 78.881348zm84.060547 37.209473-79.785645-2.01123-3.908203-35.155762z" fill="#bbb" stroke="#bbb"/><path d="m32.0712891 171.77832 71.8452149-22.475097 3.510028 36.037203zm188.9287109 14.03627-34.490344 1.18541-25.492863-78z" fill="#ddd"/><path d="m234 198.617391-4.09697 22.382609-8.90303-36z" fill="#999" stroke="#999"/><path d="m44 0 117 109-72.302002-37.7990723z" fill="#000" stroke="#000"/><path d="m0 252.468262 98.902832-4.780762 24.019043 51.744141z" fill="#bbb" stroke="#bbb"/><path d="m122.545455 299-23.545455-50.616192 49-2.383808z" fill="#999" stroke="#999"/><path d="m230.672711 221.514124 25.349518 15.502825 9.308093 30.519672zm-122.562152-36.858757-108.110559 67.943503 33.6414156-80.59887zm-9.0816032 63.830509-99.0289558 4.112994 108.110559-67.943503zm122.7200932-63.355932 6.580053 24.221618-32.127442 1.838135zm-25.606227 26.180359-8.903863-24.993919 34.51009-1.18644z" fill="#bbb" stroke="#bbb"/><path d="m148.453925 309.720812-26.453925-10.720812 92 16z" fill="#fbfbfb"/><path d="m33.5405273 171.776367-15.5405273-19.176998 6.121582-6.08057z" fill="#000" stroke="#000"/><path d="m225.334473 302.741699-10.885743 12.975098-92.44873-16.716797z" fill="#fff"/><path d="m230.497559 275.182129-108.497559 23.817871 25.263158-53z" fill="#bbb" stroke="#bbb"/><path d="m122 299.011173 102.425587-22.771838 5.574413-1.239335-4.973684 28z" fill="#fff"/><path d="m16.5367115 114.898062-3.4248951-61.2100737 76.6743164 17.1274414zm7.6361401 32.258676-10.5441029-9.847555 7.073423-7.285594z" fill="#000" stroke="#000"/><path d="m169 202.545455 17.879395-16.601607-2.450824 39.056152z" fill="#999" stroke="#999"/><path d="m186 187-16.607178 16.094971-26.392822 12.905029z" fill="#999" stroke="#999"/><path d="m264.222892 266.476346-34.222892-44.476346z" fill="#bbb" stroke="#bbb"/><path d="m143.636727 216-35.636727-31 79 1.677835z" fill="#999" stroke="#999"/><path d="m184 225 2.960205-39.374268 9.342774 25.484131z" fill="#aaa" stroke="#aaa"/><path d="m10 119.968586 6.6492537-5.968586 4.3507463 15z" fill="#000" stroke="#000"/><path d="m185.06543 225.883789-42.587647-9.848144 26.325306-14.035645z" fill="#000"/><path d="m89 71-76-17.2145251 31.0444674-53.7854749z" fill="#000" stroke="#000"/><path d="m214.661621 314.608398 4.661621 12.239258-71.17334-17.509277z" fill="#fbfbfb"/><path d="m146.878378 247-3.878378-31 41 9.323907z" fill="#ddd"/><path d="m108 185 36.087824 30.460746 3.198797 30.968453z" fill="#aaa" stroke="#aaa"/><path d="m196.127808 211.066406 31.948238-1.958089 36.923954 57.891683zm-88.054614-26.066406 39.527566 61.618956-48.8556428 1.9787z" fill="#ddd"/><path d="m196.217929 211 38.782071 59-51.592773-44.90625z" fill="#aaa" stroke="#aaa"/><path d="m183.709229 224.863281 51.777587 45.142578-6.52832 5.543457z" fill="#bbb" stroke="#bbb"/><path d="m229.403226 275-82.403226-28.444444 36.877016-21.491358zm35.662021-7.961548-30.054505 3.340332-39.855469-61.039429z" fill="#ddd"/><path d="m272.00824 294.410675-12.651292 25.952288-41.010899 6.637037zm-52.45105 32.87204-5.55719-12.134567 11.11438-12.2043z" fill="#fbfbfb"/><path d="m225.051514 302.968872 7.75769-3.070435-13.809204 27.101563zm-6.051514 24.031128 13.710693-27.149536 39.320984-5.434876z" fill="#fbfbfb"/><path d="m265.13369 267 9.84922 5.750488-29.98291 3.249512z" fill="#000"/><path d="m244.534709 276.545455-9.534709-6.204546 30.137085-3.291471zm-3.388368 4.693181 35.853659-4.375-4.963867 17.610485z" fill="#000"/><path d="m272.066265 294.415274-39.391566 5.513127 8.692771-19.138425zm-39.207622 5.441049-7.858643 3.143677 4.64389-28.003265zm-3.212021-24.8647 5.612414-4.991623 9.475904 6.143198zm45.173568-2.37944 2.189209 4.28302-36.517578 4.459777z" fill="#000"/><path d="m241.280029 281.16687 2.987061-5.354004 30.609131-3.162964zm-11.638275-6.179932 11.768548 6.105281-8.674956 18.907781z" fill="#000"/><path d="m244.553223 276.001831-3.206665 5.344727-11.693268-6.350068z" fill="#000"/></g></svg>