<svg height="832" viewBox="0 0 832 832" width="832" xmlns="http://www.w3.org/2000/svg"><path d="m764.560113 405.346164-146.017133 90.49434v-39.732554h-121.28402l215.547074-133.585626zm12.061558 19.302528 54.707946 87.551015-511.517722 319.631747-55.887118-89.438085 308.750303-191.348468h45.8679v-28.426701zm-524.758452 298.442149-51.754079-82.82384 143.964311-89.2221h185.394478zm328.403269-612.676128 55.249436 88.41758-116.927889 72.466237h-197.91561zm-12.061558-19.3025282-290.739655 180.1863452h-62.588615v38.78939l-159.368621 98.768947-55.32789085-88.543135 511.51772185-319.63174658zm-500.6353329 337.0472092 147.3070629-91.293777v29.369864h150.52587l-145.013711 89.872469h-5.110369v3.167159l-92.459417 57.301865zm633.1748789-124.939597-82.603286 51.193511v-83.114778h-56.346005l85.782297-53.16371zm-512.696894 317.744676-53.166991-85.084971 80.397859-49.826696v64.992095h85.587851zm266.004227-164.856523h-190.455841l145.013711-89.872469h190.455845z"/></svg>