<svg width="24" height="24" viewBox="0 0 24 24" fill="none" xmlns="http://www.w3.org/2000/svg">
<path d="M16 9.59003L18 11.59L19.59 10L17.59 8.00003L19.59 6.00003L18 4.41003L10.65 11.76C9.60853 11.1091 8.36397 10.8643 7.15358 11.0722C5.94319 11.2801 4.85165 11.9262 4.08708 12.8873C3.32252 13.8484 2.93842 15.0572 3.00801 16.2834C3.07761 17.5095 3.59604 18.6671 4.46444 19.5356C5.33285 20.404 6.49049 20.9224 7.71663 20.992C8.94277 21.0616 10.1516 20.6775 11.1127 19.9129C12.0738 19.1484 12.7199 18.0568 12.9278 16.8464C13.1357 15.636 12.8909 14.3915 12.24 13.35L16 9.59003ZM14.64 13.78C15.14 15.276 15.1201 16.8971 14.5835 18.3804C14.0468 19.8637 13.025 21.1223 11.6835 21.9521C10.3421 22.7819 8.75966 23.1343 7.19283 22.9522C5.626 22.7701 4.16661 22.0641 3.05124 20.9488C1.93587 19.8334 1.2299 18.374 1.0478 16.8072C0.865686 15.2403 1.21811 13.6579 2.04793 12.3165C2.87774 10.975 4.13631 9.95315 5.6196 9.41653C7.10289 8.87991 8.72395 8.86 10.22 9.36003L18 1.59003L22.41 6.00003L20.41 8.00003L22.41 10L18 14.41L16 12.41L14.64 13.78Z" fill="#122138"/>
<path d="M8.58 22L6.29 19.71C6.19732 19.6166 6.12399 19.5057 6.07423 19.3839C6.02446 19.2621 5.99924 19.1316 6 19V17.41L5.58 17H5.5C5.20333 17 4.91332 16.912 4.66665 16.7472C4.41997 16.5824 4.22771 16.3481 4.11418 16.074C4.00065 15.7999 3.97094 15.4983 4.02882 15.2074C4.0867 14.9164 4.22956 14.6491 4.43934 14.4393C4.64912 14.2296 4.91639 14.0867 5.20737 14.0288C5.49834 13.9709 5.79994 14.0006 6.07403 14.1142C6.34812 14.2277 6.58238 14.42 6.74721 14.6666C6.91203 14.9133 7 15.2033 7 15.5C7 15.5 7 15.55 7 15.58L7.72 16.29C7.90353 16.4803 8.0042 16.7356 8 17V18.59L10.71 21.29L8.58 22ZM13.58 18.16L12 16.58C12 16.58 12 16.53 12 16.5C12 16.2033 11.912 15.9133 11.7472 15.6666C11.5824 15.42 11.3481 15.2277 11.074 15.1142C10.7999 15.0006 10.4983 14.9709 10.2074 15.0288C9.91639 15.0867 9.64912 15.2296 9.43934 15.4393C9.22956 15.6491 9.0867 15.9164 9.02882 16.2074C8.97095 16.4983 9.00065 16.7999 9.11418 17.074C9.22771 17.3481 9.41997 17.5824 9.66665 17.7472C9.91332 17.912 10.2033 18 10.5 18H10.58L12.44 19.87L13.58 18.16Z" fill="#122138"/>
</svg>
