<svg height="252" viewBox="0 0 217.19 252" width="217.19" xmlns="http://www.w3.org/2000/svg" xmlns:xlink="http://www.w3.org/1999/xlink"><clipPath id="a"><path d="m0 0h21000v29700h-21000z"/></clipPath><g clip-path="url(#a)" transform="matrix(.03542311 0 0 .03542311 -244.40864 -399.82064)"><path d="m6900 13921h6114v4480h-6114z" fill="none"/><path d="m12880 15423c256 0 61 638 61 638-9 29-20 53-35 79-4 8-8 14-13 22-402 602-2104 1772-2705 2173-7 5-14 9-22 14-60 35-120 51-189 51-70 0-130-16-190-51-8-5-15-9-22-14-600-401-2303-1571-2705-2173-4-8-8-14-12-21-22-37-35-71-45-112-95-400-117-879-96-1372l48-735s1690 1634 5925 1501z"/><path d="m7033 11287h5998v3839h-5998z" fill="none"/><path d="m13029 14494c-77-1049-318-2109-437-2592-9-37-21-67-40-99-35-61-79-105-140-140-47-27-91-42-145-49-587-70-1493-327-2283-327h-12c-789 0-1694 256-2281 327-55 7-100 22-147 49-61 36-105 80-141 141-19 33-31 63-40 99-83 335-223 944-327 1635-2 12-3 23-3 36 0 45 10 84 33 123 20 34 43 59 76 81 345 234 1322 801 2711 1122 1021 236 2057 283 2745 153 62-12 113-31 168-62 84-49 145-109 193-194 49-84 71-167 71-265 0-13 0-24-1-38zm-2621-1387c-21 19-36 39-51 64-25 43-36 86-36 136v5 687c0 32-8 58-23 86-16 27-35 46-62 62-28 15-54 23-86 23h-235c-32 0-58-8-85-23-27-16-47-35-62-62-16-28-23-54-23-86v-692c-1-50-13-92-38-136-16-28-34-49-58-70-46-42-79-84-110-138-53-91-77-180-77-285s24-194 77-285c52-91 118-156 209-209s180-76 285-76 194 23 285 76 156 118 209 209c52 91 76 180 76 285s-24 194-76 285c-33 57-68 101-118 144z"/></g></svg>