<svg width="24" height="24" viewBox="0 0 24 24" fill="none" xmlns="http://www.w3.org/2000/svg">
<path d="M12.0006 22C9.38317 22.0813 6.80927 21.3168 4.66057 19.82L4.59057 19.77C3.9356 19.2997 3.35856 18.7294 2.88057 18.08C2.29168 17.1915 1.98495 16.1458 2.00057 15.08C2.00633 13.8856 2.39932 12.7254 3.12056 11.7733C3.84179 10.8213 4.85236 10.1289 6.00057 9.8L6.21057 9.75C6.34188 9.7077 6.48052 9.69303 6.61778 9.70691C6.75504 9.72078 6.88794 9.76291 7.00813 9.83064C7.12832 9.89837 7.23319 9.99024 7.31615 10.1005C7.39912 10.2107 7.45838 10.3369 7.4902 10.4711C7.52203 10.6054 7.52574 10.7447 7.5011 10.8805C7.47646 11.0162 7.424 11.1454 7.34701 11.2599C7.27003 11.3743 7.17019 11.4716 7.05378 11.5457C6.93736 11.6197 6.80689 11.6688 6.67057 11.69H6.53057C5.79342 11.9025 5.14653 12.3514 4.68941 12.9675C4.23229 13.5836 3.99026 14.3329 4.00057 15.1C3.99154 15.7724 4.17924 16.4328 4.54057 17C4.88144 17.4372 5.28202 17.8243 5.73057 18.15H5.79057C7.60858 19.4167 9.78573 20.0653 12.0006 20C14.2111 20.0791 16.3873 19.4367 18.2006 18.17L18.3506 18.07C18.7669 17.7648 19.1403 17.4049 19.4606 17C19.9354 16.2609 20.1148 15.3702 19.9634 14.5049C19.8119 13.6396 19.3406 12.8629 18.643 12.329C17.9454 11.7951 17.0725 11.543 16.1977 11.6229C15.3228 11.7027 14.51 12.1086 13.9206 12.76L13.6406 13.11L13.5106 13.24C13.0888 13.5974 12.5534 13.7924 12.0006 13.79C11.7354 13.79 11.481 13.6846 11.2935 13.4971C11.1059 13.3096 11.0006 13.0552 11.0006 12.79C11.0006 12.5248 11.1059 12.2704 11.2935 12.0829C11.481 11.8954 11.7354 11.79 12.0006 11.79C12.0565 11.8025 12.1146 11.8025 12.1706 11.79L12.4106 11.49C13.1506 10.6667 14.1219 10.0859 15.1974 9.82347C16.2729 9.56109 17.4026 9.62937 18.4386 10.0194C19.4747 10.4094 20.3689 11.103 21.0045 12.0094C21.64 12.9159 21.9871 13.993 22.0006 15.1C22.0131 16.1625 21.7141 17.2055 21.1406 18.1C20.6849 18.7302 20.1351 19.2866 19.5106 19.75L19.3506 19.86C17.1958 21.348 14.6173 22.0987 12.0006 22ZM12.0706 6.75C11.6391 6.26921 11.4005 5.64598 11.4006 5C11.4006 4.73478 11.2952 4.48043 11.1077 4.29289C10.9201 4.10536 10.6658 4 10.4006 4C10.1354 4 9.881 4.10536 9.69346 4.29289C9.50592 4.48043 9.40057 4.73478 9.40057 5C9.39774 6.21149 9.87193 7.3754 10.7206 8.24L9.16057 10C8.78866 10.3715 8.49363 10.8126 8.29233 11.2982C8.09103 11.7838 7.98742 12.3043 7.98742 12.83C7.98742 13.3557 8.09103 13.8762 8.29233 14.3618C8.49363 14.8474 8.78866 15.2885 9.16057 15.66C9.25381 15.7526 9.36437 15.8259 9.48594 15.8757C9.60751 15.9256 9.73771 15.951 9.8691 15.9506C10.0005 15.9501 10.1305 15.9238 10.2517 15.873C10.3729 15.8223 10.483 15.7482 10.5756 15.655C10.6681 15.5618 10.7415 15.4512 10.7913 15.3296C10.8412 15.2081 10.8666 15.0779 10.8661 14.9465C10.8657 14.8151 10.8393 14.6851 10.7886 14.5638C10.7379 14.4426 10.6638 14.3326 10.5706 14.24C10.3801 14.0537 10.2287 13.8313 10.1254 13.5857C10.022 13.3402 9.96882 13.0764 9.96882 12.81C9.96882 12.5436 10.022 12.2798 10.1254 12.0343C10.2287 11.7887 10.3801 11.5663 10.5706 11.38L15.4806 6C15.8258 5.6205 16.0119 5.12288 16.0006 4.61V3C16.0006 2.73478 15.8952 2.48043 15.7077 2.29289C15.5201 2.10536 15.2658 2 15.0006 2C14.7354 2 14.481 2.10536 14.2935 2.29289C14.1059 2.48043 14.0006 2.73478 14.0006 3V4.61L12.0706 6.75Z" fill="#1F2F47"/>
</svg>
