<svg width="24" height="24" viewBox="0 0 24 24" fill="none" xmlns="http://www.w3.org/2000/svg">
<path fill-rule="evenodd" clip-rule="evenodd" d="M7.23968 8.99153L7.0753 9.02129C6.5948 9.10828 6.12366 9.20809 5.77537 9.32131C5.59983 9.37836 5.46763 9.43505 5.3831 9.48863C5.33447 9.51946 5.31614 9.53966 5.31 9.54769V19.239C5.31016 19.241 5.31062 19.2457 5.31177 19.2523C5.31416 19.2661 5.31926 19.2868 5.32982 19.31C5.34924 19.3528 5.39003 19.4118 5.48833 19.4537C6.57883 19.8952 10.8715 21.4146 11.8626 21.7643L11.8654 21.7653C11.9244 21.7872 11.9545 21.7951 11.9693 21.7981C11.9788 21.8 11.981 21.8 11.9911 21.8H11.9926C12.0123 21.8 12.0132 21.7998 12.0177 21.7988L12.0187 21.7986C12.0312 21.7959 12.0573 21.7885 12.1198 21.7653L12.1226 21.7643C13.1141 21.4144 17.4188 19.8947 18.5084 19.4535C18.5929 19.4181 18.6323 19.3636 18.6532 19.3186C18.6642 19.2947 18.67 19.273 18.673 19.2581C18.6742 19.2523 18.6749 19.2478 18.6752 19.2449V9.54654C18.6696 9.53873 18.6518 9.51797 18.6023 9.48586C18.5192 9.43181 18.3888 9.37433 18.2153 9.31678C17.8711 9.20259 17.4034 9.10285 16.9233 9.02169L16.7566 8.99351V6.96301C16.7699 4.33125 14.6264 2.20001 12.0037 2.20001C9.37051 2.20001 7.23968 4.33085 7.23968 6.96402V8.99153ZM14.7978 8.79816L14.5838 8.78313C12.7798 8.65644 11.2415 8.65643 9.42625 8.78314L9.21232 8.79807V6.96679C9.21232 6.11659 9.46964 5.41263 9.96131 4.92095C10.453 4.42929 11.1562 4.17266 12.0037 4.17266C12.8526 4.17266 13.5565 4.43002 14.0485 4.92199C14.5405 5.41396 14.7978 6.1179 14.7978 6.96679V8.79816ZM11.7386 19.22L11.7425 19.2216L11.7619 19.2288C11.7779 19.2347 11.8 19.2427 11.8241 19.2508C11.8477 19.2587 11.8754 19.2675 11.902 19.2745C11.9225 19.2799 11.9632 19.2903 12.0037 19.2903C12.0386 19.2903 12.0755 19.2827 12.0952 19.2784C12.1204 19.273 12.1473 19.2661 12.1707 19.2598C12.1944 19.2534 12.2164 19.2471 12.2323 19.2424L12.2516 19.2366L12.2571 19.235L12.2586 19.2345L12.2681 19.2313L12.8582 19.0184C13.2127 18.8903 13.6862 18.7193 14.1623 18.5471C14.6384 18.3749 15.117 18.2016 15.4817 18.069C15.8175 17.947 16.07 17.8548 16.1228 17.8335C16.143 17.8254 16.1708 17.8142 16.1966 17.7996C16.2247 17.7837 16.2609 17.7584 16.2903 17.7166C16.3431 17.6416 16.3428 17.5541 16.3427 17.5146L16.3427 17.5094V11.4518C16.3427 11.303 16.2317 11.214 16.162 11.1709C16.0825 11.1218 15.9791 11.0833 15.8661 11.0513C15.6371 10.9864 15.3167 10.9338 14.9355 10.8921C14.1701 10.8083 13.1246 10.7646 11.9926 10.7646C10.861 10.7646 9.81565 10.8055 9.05309 10.8865C8.67348 10.9268 8.35487 10.9779 8.12861 11.0419C8.01725 11.0734 7.91431 11.1118 7.83579 11.1617C7.76724 11.2054 7.65861 11.297 7.6647 11.446L7.6647 17.5005C7.66469 17.5424 7.66465 17.6294 7.71953 17.7054C7.76696 17.7711 7.83965 17.8029 7.87068 17.8165C7.87305 17.8175 7.87517 17.8184 7.87702 17.8193C7.90593 17.8322 8.16881 17.9282 8.52568 18.058C8.89037 18.1905 9.36902 18.3638 9.84506 18.536C10.3211 18.7082 10.7947 18.8793 11.1492 19.0073L11.7365 19.2193L11.7386 19.22Z" fill="#1F2F47"/>
</svg>
