<svg height="258" viewBox="0 0 156 258" width="156" xmlns="http://www.w3.org/2000/svg"><path d="m78.1255028 0c-31.0933226 0-56.2566372 28.6428571-56.2566372 64.0357143v24c-10.9187449 2.25-21.8688656 5.25-21.8688656 9.1428571v125.2499996s0 3.464286 3.41995173 5.107143c12.39340307 5.714286 61.15124697 25.357143 72.35237327 29.857143 1.4432824.607143 1.8511666.607143 2.227675.607143.533387 0 .7843926 0 2.227675-.607143 11.2011263-4.5 60.084473-24.142857 72.477876-29.857143 3.168946-1.5 3.294449-4.964285 3.294449-4.964285v-125.3928576c0-3.8928571-10.793242-7.0357143-21.743363-9.1428571v-24c.156879-35.3928572-25.163314-64.0357143-56.1311342-64.0357143zm0 30.6071429c18.3234111 0 29.3990342 12.6071428 29.3990342 33.4642857v20.8571428c-20.5510857-1.6428571-38.0901042-1.6428571-58.7666931 0v-20.8571428c0-20.8928572 11.0756235-33.4642857 29.3676589-33.4642857zm-.1255028 85.0357141c25.571199 0 47.03218 2.25 47.03218 6.285714v78.142858c0 1.214285-.125503 1.357142-1.066774 1.785714-.909895.464286-43.6122282 18-43.6122282 18s-1.7256637.607143-2.227675.607143c-.533387 0-2.227675-.75-2.227675-.75s-42.702333-17.535715-43.6122284-18c-.9098955-.464286-1.066774-.607143-1.066774-1.785715v-78.142857c-.2510056-4.035714 21.2099759-6.142857 46.7811746-6.142857z"/></svg>