<svg width="24" height="24" viewBox="0 0 24 24" fill="none" xmlns="http://www.w3.org/2000/svg">
<path d="M4.5 6.25H19.5C20.0304 6.25 20.5391 6.46071 20.9142 6.83579C21.2893 7.21086 21.5 7.71957 21.5 8.25V11.25C21.5 11.5152 21.3946 11.7696 21.2071 11.9571C21.0196 12.1446 20.7652 12.25 20.5 12.25C20.2348 12.25 19.9804 12.1446 19.7929 11.9571C19.6054 11.7696 19.5 11.5152 19.5 11.25V8.25H4.5V19.25H19.5V17.25C19.5 16.9848 19.6054 16.7304 19.7929 16.5429C19.9804 16.3554 20.2348 16.25 20.5 16.25C20.7652 16.25 21.0196 16.3554 21.2071 16.5429C21.3946 16.7304 21.5 16.9848 21.5 17.25V19.25C21.5 19.7804 21.2893 20.2891 20.9142 20.6642C20.5391 21.0393 20.0304 21.25 19.5 21.25H4.5C3.96957 21.25 3.46086 21.0393 3.08579 20.6642C2.71071 20.2891 2.5 19.7804 2.5 19.25V5.75C2.5 4.95435 2.81607 4.19129 3.37868 3.62868C3.94129 3.06607 4.70435 2.75 5.5 2.75H18.5C18.7652 2.75 19.0196 2.85536 19.2071 3.04289C19.3946 3.23043 19.5 3.48478 19.5 3.75C19.5 4.01522 19.3946 4.26957 19.2071 4.45711C19.0196 4.64464 18.7652 4.75 18.5 4.75H5.5C5.23478 4.75 4.98043 4.85536 4.79289 5.04289C4.60536 5.23043 4.5 5.48478 4.5 5.75V6.25ZM22.5 14.25C22.5 13.9848 22.3946 13.7304 22.2071 13.5429C22.0196 13.3554 21.7652 13.25 21.5 13.25H15.5C15.2348 13.25 14.9804 13.3554 14.7929 13.5429C14.6054 13.7304 14.5 13.9848 14.5 14.25C14.5 14.5152 14.6054 14.7696 14.7929 14.9571C14.9804 15.1446 15.2348 15.25 15.5 15.25H21.5C21.7652 15.25 22.0196 15.1446 22.2071 14.9571C22.3946 14.7696 22.5 14.5152 22.5 14.25Z" fill="#1F2F47"/>
</svg>
