<svg height="130" width="650" xmlns="http://www.w3.org/2000/svg"><path d="m38 121.800003h-27c-2.1-.5-3.4-1.900002-3.7-4.100006l6.8-2.5h22.1l1.799999 6.600006zm-30.5-5.800003 2.2-21.300003 1.8-1.599998 4.4 4.900002-1.599999 15.5-6.8 2.5zm11.299999-45-1.599998 15.5-5.500001 4.900002-1.4-1.599998 2.2-21.300003 6.299999 2.5zm22.200001-1.599998h-22l-6.3-2.5c.8-2.200005 2.3-3.5 4.500001-4.100002h26.899998l-3.099998 6.600002zm-2.799999 19.599998 2.899998 3.300003-3.599998 3.299995h-21.4l-2.900001-3.299995 3.7-3.300003z" fill="#52cacb"/><path d="m61.599998 69.400002-6.299999-2.5c.799999-2.200005 2.299999-3.5 4.5-4.100002h26.100002c2.099998.5 3.400002 1.899998 3.699997 4.100002l-6.799995 2.5zm8 23.699997 2.900002 3.300003-2.199997 21.299995c-.800003 2.200005-2.300003 3.5-4.5 4.100006l-1.800003-6.5 2-18.800003 3.599998-3.400002zm-2.699997-4.900002 1.799995-17.199997h6.5l-1.799995 17.199997-3.700005 3.300003z" fill="#52cacb"/><path d="m101 98-1.800003 17.199997-3.099998 6.5c-2.099998-.5-3.400002-1.899994-3.699997-4.099998l2.400002-22.900002 1.799995-1.599998 4.400002 4.900002zm-4.400002-5.699997-1.400002-1.600006 2.400002-22.899994c.800003-2.200005 2.300003-3.5 4.5-4.100002l1.800003 6.499996-1.800003 17.200005-5.5 4.900002zm26.599998-3.300003 2.900002 3.300003-3.599998 3.299995h-21.300003l-2.899994-3.299995 3.699997-3.300003h21.199997zm4.5 4.099998 1.5 1.599998-2.399994 22.900002c-.800003 2.200005-2.300003 3.5-4.5 4.099998l-1.800003-6.5 1.800003-17.199997 5.399994-4.900002zm-4.199997-6.5 1.800003-17.199997 3.099991-6.5c2.100006.5 3.400009 1.900002 3.700012 4.099998l-2.400009 22.900002-1.899994 1.599998-4.300003-4.900002z" fill="#52cacb"/><path d="m156.300003 108.699997h-6.5l.699997-6.5h6.5zm2.800003-26.199997h-6.5l.699997-6.5h6.5z" fill="#52cacb"/><path d="m186.100006 98-1.800003 17.199997-3.099991 6.5c-2.100006-.5-3.400009-1.899994-3.699997-4.099998l2.399994-22.900002 1.800003-1.599998 4.399994 4.900002zm2.799988-27-1.600006 15.5-5.5 4.900002-1.399994-1.599998 2.199997-21.300003 6.300003 2.5zm19.800003-1.599998h-19.599991l-6.300003-2.5c.800003-2.200005 2.300003-3.5 4.5-4.100002h24.5zm-.399994 19.599998 2.899994 3.300003-3.599991 3.299995h-21.300003l-2.900009-3.299995 3.700012-3.300003zm4.399994 4.099998 1.5 1.599998-2.399994 22.900002c-.800003 2.200005-2.300003 3.5-4.5 4.099998l-1.800003-6.5 1.800003-17.199997 5.399994-4.900002zm-4.099991-6.5 1.800003-17.199997 3.100006-6.5c2.099991.5 3.399994 1.900002 3.699997 4.099998l-2.400009 22.900002-1.899994 1.599998-4.300003-4.900002z" fill="#52cacb"/><path d="m228.600006 98-1.800003 17.199997-3.099991 6.5c-2.100006-.5-3.400009-1.899994-3.699997-4.099998l2.399994-22.900002 1.800003-1.599998 4.399994 4.900002zm-4.200012-6.5-1.400009-1.599998 2.400009-22.900002c.800003-2.199997 2.300003-3.5 4.5-4.099998l1.800003 6.5-1.800003 17.199997-5.5 4.900002zm4.100006 23.699997h19.600006l6.299988 2.5c-.799988 2.200005-2.299988 3.5-4.5 4.100006h-24.5z" fill="#52cacb"/><path d="m271.200012 98-1.799988 17.199997-3.100006 6.5c-2.100006-.5-3.399994-1.899994-3.700012-4.099998l2.399994-22.900002 1.800018-1.599998 4.399994 4.900002zm2.799988-27-1.600006 15.5-5.5 4.900002-1.399994-1.599998 2.200012-21.300003 6.299988 2.5zm19.799988-1.599998h-19.600006l-6.299988-2.5c.799988-2.200005 2.299988-3.5 4.5-4.100002h24.5zm-.399994 19.599998 2.899994 3.300003-3.600006 3.299995h-21.299988l-2.899994-3.299995 3.699982-3.300003zm4.399994 4.099998 1.5 1.599998-2.399994 22.900002c-.800018 2.200005-2.300018 3.5-4.5 4.099998l-1.800018-6.5 1.800018-17.199997 5.399994-4.900002zm-4.099976-6.5 1.799988-17.199997 3.100006-6.5c2.100006.5 3.399994 1.900002 3.700012 4.099998l-2.399994 22.900002-1.900024 1.599998-4.299988-4.900002z" fill="#52cacb"/><path d="m313.700012 98-1.799988 17.199997-3.100006 6.5c-2.100006-.5-3.399994-1.899994-3.700012-4.099998l2.399994-22.900002 1.800018-1.599998 4.399994 4.900002zm2.899994-27-1.600006 15.5-5.5 4.900002-1.399994-1.599998 2.200012-21.300003 6.299988 2.5zm19.799988-1.599998h-19.600006l-6.299988-2.5c.799988-2.200005 2.299988-3.5 4.5-4.100002h24.5zm-.399994 19.599998 2.899994 3.300003-3.600006 3.299995h-21.299988l-2.899994-3.299995 3.699982-3.300003zm-20.600006 8.199997h4.899994l19.100006 21.300003c-1.300018 2.199997-3.600006 3.300003-6.899994 3.300003l-17.600006-19.600006zm20.800018-10.599998 1.799988-17.199997 3.100006-6.5c2.100006.5 3.399994 1.900002 3.700012 4.099998l-2.399994 22.900002-1.900024 1.599998-4.299988-4.900002z" fill="#52cacb"/><path d="m356.299988 98-1.799988 17.199997-3.100006 6.5c-2.100006-.5-3.399994-1.899994-3.700012-4.099998l2.399994-22.900002 1.800018-1.599998 4.399994 4.900002zm2.800018-27-1.600006 15.5-5.5 4.900002-1.399994-1.599998 2.200012-21.300003 6.299988 2.5zm19.799988-1.599998h-19.600006l-6.299988-2.5c.799988-2.200005 2.299988-3.5 4.5-4.100002h24.5zm-7.799988 20.5-3.699982 3.299995-2.900024-3.299995 2-18.800003h6.5zm11.799988 3.199997 1.5 1.599998-2.399994 22.900002c-.800018 2.200005-2.300018 3.5-4.5 4.099998l-1.800018-6.5 1.800018-17.199997 5.399994-4.900002zm-4.100006-6.5 1.799988-17.199997 3.100006-6.5c2.100006.5 3.399994 1.900002 3.700012 4.099998l-2.399994 22.900002-1.899994 1.599998-4.300018-4.900002z" fill="#52cacb"/><path d="m411.600006 108.699997h-6.600006l.700012-6.5h6.5zm2.699982-26.199997h-6.5l.700012-6.5h6.5z" fill="#52cacb"/><path d="m463.399994 121.800003h-27c-2.100006-.5-3.399994-1.900002-3.700012-4.100006l6.800018-2.5h22.099976zm-30.5-5.800003 2.199982-21.300003 1.800018-1.599998 4.399994 4.900002-1.600006 15.5-6.799988 2.5zm11.300018-45-1.600006 15.5-5.5 4.900002-1.399994-1.599998 2.200012-21.300003 6.299988 2.5zm22.299988-1.599998h-22l-6.299988-2.5c.799988-2.200005 2.299988-3.5 4.5-4.100002h26.899994z" fill="#52cacb"/><path d="m483.899994 98-1.800018 17.199997-3.099976 6.5c-2.100006-.5-3.400024-1.899994-3.700012-4.099998l2.399994-22.900002 1.800018-1.599998 4.399994 4.900002zm-4.299988-6.5-1.399994-1.599998 2.399994-22.900002c.800018-2.199997 2.300018-3.5 4.5-4.099998l1.800018 6.5-1.800018 17.199997-5.5 4.900002zm4.100006 23.699997h19.600006l6.299988 2.5c-.799988 2.200005-2.299988 3.5-4.5 4.100006h-24.5z" fill="#52cacb"/><path d="m526.400024 98-1.799988 17.199997-2.700012 2.5-3.700012-4.099998 2-18.799995 1.799988-1.600006 4.400024 4.800003zm-4.200012-6.5-1.400024-1.599998 2-18.800003 4.5-4.099998 2.200012 2.5-1.799988 17.199997-5.5 4.800003zm25 27-3.599976 3.300003h-18l-2.900024-3.300003 3.599976-3.300003h18zm1.899963-49.099998h-18l-2.900024-3.300003 3.600037-3.299999h18l2.899963 3.299999zm4 23.699997 1.5 1.599998-2 18.800003-4.5 4.099998-2.200012-2.5 1.799988-17.199997 5.400024-4.800003zm-4.199951-6.5 1.799988-17.199997 2.700012-2.5 3.700012 4.099998-2 18.800003-1.900024 1.599998-4.299988-4.800003z" fill="#52cacb"/><path d="m591.099976 121.800003h-27c-2.099976-.5-3.400024-1.900002-3.700012-4.100006l6.799988-2.5h22.100037l1.799988 6.600006zm-30.599976-5.800003 2.200012-21.300003 1.799988-1.599998 4.5 4.900002-1.599976 15.5-6.900024 2.5zm11.299988-45-1.599976 15.5-5.5 4.900002-1.400024-1.599998 2.200012-21.300003 6.299988 2.5zm22.299988-1.599998h-22l-6.299988-2.5c.799988-2.200005 2.299988-3.5 4.5-4.100002h26.899963l-3.099976 6.600002z" fill="#52cacb"/><path d="m611.5 98-1.799988 17.199997-3.100037 6.5c-2.099976-.5-3.399963-1.899994-3.699951-4.099998l2.399963-22.900002 1.799988-1.599998 4.400024 4.900002zm-4.200012-6.5-1.400024-1.599998 2.400024-22.900002c.799988-2.199997 2.299988-3.5 4.5-4.099998l1.799988 6.5-1.799988 17.199997-5.5 4.900002zm26.5-2.5 2.900024 3.300003-3.600037 3.299995h-21.299988l-2.900024-3.299995 3.700012-3.300003h21.200012zm-19-6.5 21.700012-19.599998c3.299988 0 5.299988 1.099998 6.200012 3.299995l-23.5 21.300003h-4.900024zm23.400024 10.599998 1.5 1.599998-2.400024 22.900002c-.799988 2.200005-2.299988 3.5-4.5 4.099998l-1.799988-6.5 1.799988-17.199997 5.400024-4.900002z" fill="#52cacb"/><g fill="#fff"><path d="m220.5 34.099998h-10.399994l-1.800003 10.600002h-3.300003l4.899994-28h13.700012c3.599991 0 5.5 2.4 4.899994 6l-1 5.5c-.600006 3.5-3.399994 5.899998-7 5.899998zm4.699997-11.299999c.400009-2-.699997-3.199999-2.599991-3.199999h-9.800003l-2.100006 11.6h9.800003c2 0 3.5-1.200001 3.800003-3.200001l.899994-5.200001z"/><path d="m238.899994 44.700001h-4.899994c-3.599991 0-5.5-2.400002-4.899994-6l1.599991-8.900002c.600006-3.599998 3.400009-6 7-6h4.900009c3.599991 0 5.599991 2.400002 4.899994 6l-1.600006 8.900002c-.599991 3.599998-3.399994 6-7 6zm5.500015-14.900002c.299988-2-.600006-3.199999-2.600006-3.199999h-4.199997c-2 0-3.5 1.199999-3.800003 3.199999l-1.600006 9c-.399994 2 .699997 3.200001 2.699997 3.200001h4.200012c2 0 3.399994-1.299999 3.799988-3.200001z"/><path d="m254.199997 44.700001-2.799988-20.800001h3l2.199997 17.000002 8.100006-17.000002h3.099976l2.100006 17.000002 8.200012-17.000002h3.200012l-10.200012 20.800001h-3.5l-2.200012-16.1-7.799988 16.1z"/><path d="m298.399994 38.099998-.099976.600002c-.600006 3.599998-3.400024 6-7 6h-4.900024c-3.600006 0-5.5-2.400002-4.899994-6l1.600006-8.900002c.600006-3.599998 3.399994-6 7-6h4.899994c3.600006 0 5.600006 2.400002 4.899994 6l-1 5.400002h-13.699982l-.600006 3.5c-.399994 2 .700012 3.200001 2.700012 3.200001h4.199982c2 0 3.399994-1.300003 3.800018-3.200001l.099976-.700001h3v.099998zm-12.799988-5.299999h10.600006l.5-3c.299988-2-.600006-3.199999-2.600006-3.199999h-4.100006c-2 0-3.5 1.199999-3.799988 3.199999z"/><path d="m316.799988 26.6c-2 0-2.899994.299999-3.899994 1.199999l-5.599976 4.700001-2.100006 12.200001h-3.100006l3.600006-20.800001h2.399994l.100006 3.4-.300018 1.800001 3.700012-3.1c1.600006-1.4 3.299988-2 5.600006-2l-.400024 2.6z"/><path d="m333.600006 38.099998-.100006.600002c-.599976 3.599998-3.399994 6-7 6h-4.899994c-3.599976 0-5.5-2.400002-4.899994-6l1.600006-8.900002c.600006-3.599998 3.399994-6 7-6h4.899994c3.599976 0 5.599976 2.400002 4.899994 6l-1 5.400002h-13.699982l-.600037 3.5c-.399963 2 .700012 3.200001 2.700012 3.200001h4.200012c2 0 3.399994-1.300003 3.799988-3.200001l.100006-.700001h3v.099998zm-12.800018-5.299999h10.600006l.5-3c.300018-2-.599976-3.199999-2.599976-3.199999h-4.200012c-2 0-3.5 1.199999-3.799988 3.199999l-.500031 3z"/><path d="m351.5 39.5-3.700012 3.200001c-1.699982 1.5-3.299988 2-5 2-3.599976 0-5.499969-2.400002-4.799988-5.900002l1.600006-8.9c.600006-3.6 3.399994-6 7-6h3c2.100006 0 3.700012.9 4.299988 2.6l2-11.4h3.100006l-5.200012 29.6h-2.399994l-.099976-3.400002.199982-1.799999zm1.700012-9.9c.199982-1.9-.700012-3.1-2.600006-3.1h-4.200012c-2 0-3.399994 1.200001-3.799988 3.200001l-1.600006 9c-.399994 2 .700012 3.200001 2.600006 3.200001 1 0 1.799988-.300003 2.899994-1.200001l5.600006-4.700001z"/><path d="m376.300018 29 3.699982-3.200001c1.799988-1.5 3.300018-2 5-2 3.600006 0 5.5 2.400002 4.899994 5.900002l-1.599976 8.899998c-.600006 3.600002-3.400024 6-7 6h-3c-2.300018 0-4-1-4.600006-2.799999l-.900024 2.799999h-2.399994l5.200012-29.599998h3.100006l-2.399994 14zm-1.700012 9.799999c-.299988 2 .600006 3.200001 2.600006 3.200001h4.200012c2 0 3.5-1.200001 3.799988-3.200001l1.599976-9c.400024-2-.699982-3.199999-2.599976-3.199999-1 0-1.799988.299999-2.899994 1.199999l-5.600006 4.799999z"/><path d="m393 52.700001 4.5-8h-.199982l-4.300018-20.800001h3.200012l3.599976 17.4 9.600006-17.4h3.300018l-16.100006 28.800001z"/><path d="m444.700012 25.700001.5-2.900002c.399994-2-.700012-3.199999-2.600006-3.199999h-7.800018c-2 0-3.499969 1.199999-3.799988 3.199999l-2.799988 15.799999c-.400024 2 .699982 3.200001 2.599976 3.200001h7.800018c2 0 3.5-1.299999 3.799988-3.200001l.5-2.899998h3.300018l-.600006 3c-.600006 3.599998-3.399994 6-7 6h-9c-3.600006 0-5.5-2.400002-4.899994-6l2.799988-16.1c.600006-3.6 3.399994-6 7-6h9c3.600006 0 5.5 2.4 4.899994 6l-.5 3h-3.199982v.1z"/><path d="m463.600006 44.700001 2.600006-14.900002c.399994-2-.700012-3.199999-2.600006-3.199999-1 0-1.799988.299999-2.899994 1.199999l-5.600006 4.700001-2.100006 12.200001h-3.100006l5.200012-29.6h3.100006l-2.5 13.9 3.700012-3.1c1.799988-1.5 3.299988-2 5-2 3.599976 0 5.5 2.4 4.899994 5.9l-2.600006 14.900002h-3.100006z"/><path d="m486.600006 26.6c-2 0-2.899994.299999-3.899994 1.199999l-5.600006 4.700001-2.100006 12.200001h-3.100006l3.600006-20.800001h2.399994l.100006 3.4-.299988 1.800001 3.699982-3.1c1.600006-1.4 3.300018-2 5.600006-2l-.399994 2.6z"/><path d="m496.299988 44.700001h-4.899994c-3.600006 0-5.5-2.400002-4.899994-6l1.599976-8.900002c.600006-3.599998 3.400024-6 7-6h4.900024c3.599976 0 5.599976 2.400002 4.899994 6l-1.600006 8.900002c-.599976 3.599998-3.399994 6-7 6zm5.5-14.900002c.299988-2-.600006-3.199999-2.600006-3.199999h-4.199982c-2 0-3.5 1.199999-3.799988 3.199999l-1.600006 9c-.399994 2 .699982 3.200001 2.699982 3.200001h4.200012c2 0 3.399994-1.299999 3.799988-3.200001z"/><path d="m520.799988 44.700001 2.600037-14.900002c.399963-2-.700073-3.199999-2.600037-3.199999-1 0-1.799988.299999-2.900024 1.199999l-5.599976 4.700001-2.100006 12.200001h-3.100006l3.600006-20.800001h2.399994l.099976 3.4-.299988 1.800001 3.700012-3.1c1.700012-1.5 3.299988-2 5-2 3.599976 0 5.5 2.4 4.900024 5.9l-2.600037 14.9h-3.099976v-.099998z"/><path d="m539.600037 44.700001h-4.900024c-3.600037 0-5.5-2.400002-4.899963-6l1.599976-8.900002c.599976-3.599998 3.400024-6 7-6h4.900024c3.599976 0 5.599976 2.400002 4.899963 6l-1.599976 8.900002c-.600037 3.599998-3.400024 6-7 6zm5.499939-14.900002c.300049-2-.599976-3.199999-2.599976-3.199999h-4.199951c-2 0-3.5 1.199999-3.800049 3.199999l-1.599976 9c-.400024 2 .700012 3.200001 2.700012 3.200001h4.200012c2 0 3.399963-1.299999 3.799988-3.200001l1.499939-9z"/><path d="m555.299988 16.700001h3.299988l-4.400024 25.099998h14.800049l-.5 2.900002h-18.099976z"/><path d="m582.099976 44.700001h-4.899963c-3.599976 0-5.5-2.400002-4.899963-6l1.599976-8.900002c.599976-3.599998 3.400024-6 7-6h4.900024c3.599976 0 5.599976 2.400002 4.899963 6l-1.600037 8.900002c-.599976 3.599998-3.399963 6-7 6zm5.500061-14.900002c.299988-2-.600037-3.199999-2.600037-3.199999h-4.199951c-2 0-3.5 1.199999-3.800049 3.199999l-1.599976 9c-.400024 2 .699951 3.200001 2.699951 3.200001h4.200073c2 0 3.399963-1.299999 3.799927-3.200001l1.500061-9z"/><path d="m607.099976 39.5-3.699951 3.200001c-1.799988 1.5-3.300049 2-5 2-3.599976 0-5.5-2.400002-4.799988-5.900002l1.599976-8.9c.600037-3.6 3.400024-6 7-6h3c2.299988 0 4 1 4.5 2.800001l.900024-2.800001h2.399963l-4 22.800001c-.599976 3.599998-3.5 6-7 6h-5c-3.599976 0-5.599976-2.400002-4.900024-6l.100037-.600002h3.100037l-.100037.700001c-.399963 2 .600037 3.200001 2.600037 3.200001h4.199951c2 0 3.5-1.200001 3.800049-3.200001l1.299927-7.299999zm1.700012-9.700001c.299988-2-.700012-3.199999-2.600037-3.199999h-4.199951c-2 0-3.399963 1.199999-3.799988 3.199999l-1.599976 9c-.400024 2 .699951 3.200001 2.599976 3.200001 1 0 1.799988-.200001 2.899963-1.200001l5.600037-4.700001z"/><path d="m618.200012 23.9h3.100037l-3.600037 20.800001h-3.099976zm1.299988-7.5h3.100037l-.800049 4.5h-3.099976z"/><path d="m640.5 37.700001-.200012 1c-.599976 3.599998-3.400024 6-7 6h-4.899963c-3.600037 0-5.500061-2.400002-4.900024-6l1.599976-8.900002c.600037-3.599998 3.400024-6 7-6h4.900024c3.600037 0 5.600037 2.400002 4.899963 6l-.199951 1h-3.099976l.199951-1.099998c.299988-2-.599976-3.200001-2.599976-3.200001h-4.200012c-2 0-3.5 1.200001-3.799988 3.200001l-1.599976 9c-.400024 2 .699951 3.200001 2.699951 3.200001h4.200012c2 0 3.399963-1.300003 3.799988-3.200001l.200012-1.100002h3v.100002z"/></g><path d="m38 121.800003h-27c-2.1-.5-3.4-1.900002-3.7-4.100006l6.8-2.5h22.1l1.799999 6.600006zm-30.5-5.800003 2.2-21.300003 1.8-1.599998 4.4 4.900002-1.599999 15.5-6.8 2.5zm11.299999-45-1.599998 15.5-5.500001 4.900002-1.4-1.599998 2.2-21.300003 6.299999 2.5zm22.200001-1.599998h-22l-6.3-2.5c.8-2.200005 2.3-3.5 4.500001-4.100002h26.899998l-3.099998 6.600002zm-2.799999 19.599998 2.899998 3.300003-3.599998 3.299995h-21.4l-2.900001-3.299995 3.7-3.300003z" fill="#52cacb"/><path d="m61.599998 69.400002-6.299999-2.5c.799999-2.200005 2.299999-3.5 4.5-4.100002h26.100002c2.099998.5 3.400002 1.899998 3.699997 4.100002l-6.799995 2.5zm8 23.699997 2.900002 3.300003-2.199997 21.299995c-.800003 2.200005-2.300003 3.5-4.5 4.100006l-1.800003-6.5 2-18.800003 3.599998-3.400002zm-2.699997-4.900002 1.799995-17.199997h6.5l-1.799995 17.199997-3.700005 3.300003z" fill="#52cacb"/><path d="m101 98-1.800003 17.199997-3.099998 6.5c-2.099998-.5-3.400002-1.899994-3.699997-4.099998l2.400002-22.900002 1.799995-1.599998 4.400002 4.900002zm-4.400002-5.699997-1.400002-1.600006 2.400002-22.899994c.800003-2.200005 2.300003-3.5 4.5-4.100002l1.800003 6.499996-1.800003 17.200005-5.5 4.900002zm26.599998-3.300003 2.900002 3.300003-3.599998 3.299995h-21.300003l-2.899994-3.299995 3.699997-3.300003h21.199997zm4.5 4.099998 1.5 1.599998-2.399994 22.900002c-.800003 2.200005-2.300003 3.5-4.5 4.099998l-1.800003-6.5 1.800003-17.199997 5.399994-4.900002zm-4.199997-6.5 1.800003-17.199997 3.099991-6.5c2.100006.5 3.400009 1.900002 3.700012 4.099998l-2.400009 22.900002-1.899994 1.599998-4.300003-4.900002z" fill="#52cacb"/><path d="m156.300003 108.699997h-6.5l.699997-6.5h6.5zm2.800003-26.199997h-6.5l.699997-6.5h6.5z" fill="#52cacb"/><path d="m186.100006 98-1.800003 17.199997-3.099991 6.5c-2.100006-.5-3.400009-1.899994-3.699997-4.099998l2.399994-22.900002 1.800003-1.599998 4.399994 4.900002zm2.799988-27-1.600006 15.5-5.5 4.900002-1.399994-1.599998 2.199997-21.300003 6.300003 2.5zm19.800003-1.599998h-19.599991l-6.300003-2.5c.800003-2.200005 2.300003-3.5 4.5-4.100002h24.5zm-.399994 19.599998 2.899994 3.300003-3.599991 3.299995h-21.300003l-2.900009-3.299995 3.700012-3.300003zm4.399994 4.099998 1.5 1.599998-2.399994 22.900002c-.800003 2.200005-2.300003 3.5-4.5 4.099998l-1.800003-6.5 1.800003-17.199997 5.399994-4.900002zm-4.099991-6.5 1.800003-17.199997 3.100006-6.5c2.099991.5 3.399994 1.900002 3.699997 4.099998l-2.400009 22.900002-1.899994 1.599998-4.300003-4.900002z" fill="#52cacb"/><path d="m228.600006 98-1.800003 17.199997-3.099991 6.5c-2.100006-.5-3.400009-1.899994-3.699997-4.099998l2.399994-22.900002 1.800003-1.599998 4.399994 4.900002zm-4.200012-6.5-1.400009-1.599998 2.400009-22.900002c.800003-2.199997 2.300003-3.5 4.5-4.099998l1.800003 6.5-1.800003 17.199997-5.5 4.900002zm4.100006 23.699997h19.600006l6.299988 2.5c-.799988 2.200005-2.299988 3.5-4.5 4.100006h-24.5z" fill="#52cacb"/><path d="m271.200012 98-1.799988 17.199997-3.100006 6.5c-2.100006-.5-3.399994-1.899994-3.700012-4.099998l2.399994-22.900002 1.800018-1.599998 4.399994 4.900002zm2.799988-27-1.600006 15.5-5.5 4.900002-1.399994-1.599998 2.200012-21.300003 6.299988 2.5zm19.799988-1.599998h-19.600006l-6.299988-2.5c.799988-2.200005 2.299988-3.5 4.5-4.100002h24.5zm-.399994 19.599998 2.899994 3.300003-3.600006 3.299995h-21.299988l-2.899994-3.299995 3.699982-3.300003zm4.399994 4.099998 1.5 1.599998-2.399994 22.900002c-.800018 2.200005-2.300018 3.5-4.5 4.099998l-1.800018-6.5 1.800018-17.199997 5.399994-4.900002zm-4.099976-6.5 1.799988-17.199997 3.100006-6.5c2.100006.5 3.399994 1.900002 3.700012 4.099998l-2.399994 22.900002-1.900024 1.599998-4.299988-4.900002z" fill="#52cacb"/><path d="m313.700012 98-1.799988 17.199997-3.100006 6.5c-2.100006-.5-3.399994-1.899994-3.700012-4.099998l2.399994-22.900002 1.800018-1.599998 4.399994 4.900002zm2.899994-27-1.600006 15.5-5.5 4.900002-1.399994-1.599998 2.200012-21.300003 6.299988 2.5zm19.799988-1.599998h-19.600006l-6.299988-2.5c.799988-2.200005 2.299988-3.5 4.5-4.100002h24.5zm-.399994 19.599998 2.899994 3.300003-3.600006 3.299995h-21.299988l-2.899994-3.299995 3.699982-3.300003zm-20.600006 8.199997h4.899994l19.100006 21.300003c-1.300018 2.199997-3.600006 3.300003-6.899994 3.300003l-17.600006-19.600006zm20.800018-10.599998 1.799988-17.199997 3.100006-6.5c2.100006.5 3.399994 1.900002 3.700012 4.099998l-2.399994 22.900002-1.900024 1.599998-4.299988-4.900002z" fill="#52cacb"/><path d="m356.299988 98-1.799988 17.199997-3.100006 6.5c-2.100006-.5-3.399994-1.899994-3.700012-4.099998l2.399994-22.900002 1.800018-1.599998 4.399994 4.900002zm2.800018-27-1.600006 15.5-5.5 4.900002-1.399994-1.599998 2.200012-21.300003 6.299988 2.5zm19.799988-1.599998h-19.600006l-6.299988-2.5c.799988-2.200005 2.299988-3.5 4.5-4.100002h24.5zm-7.799988 20.5-3.699982 3.299995-2.900024-3.299995 2-18.800003h6.5zm11.799988 3.199997 1.5 1.599998-2.399994 22.900002c-.800018 2.200005-2.300018 3.5-4.5 4.099998l-1.800018-6.5 1.800018-17.199997 5.399994-4.900002zm-4.100006-6.5 1.799988-17.199997 3.100006-6.5c2.100006.5 3.399994 1.900002 3.700012 4.099998l-2.399994 22.900002-1.899994 1.599998-4.300018-4.900002z" fill="#52cacb"/><path d="m411.600006 108.699997h-6.600006l.700012-6.5h6.5zm2.699982-26.199997h-6.5l.700012-6.5h6.5z" fill="#52cacb"/><path d="m463.399994 121.800003h-27c-2.100006-.5-3.399994-1.900002-3.700012-4.100006l6.800018-2.5h22.099976zm-30.5-5.800003 2.199982-21.300003 1.800018-1.599998 4.399994 4.900002-1.600006 15.5-6.799988 2.5zm11.300018-45-1.600006 15.5-5.5 4.900002-1.399994-1.599998 2.200012-21.300003 6.299988 2.5zm22.299988-1.599998h-22l-6.299988-2.5c.799988-2.200005 2.299988-3.5 4.5-4.100002h26.899994z" fill="#52cacb"/><path d="m483.899994 98-1.800018 17.199997-3.099976 6.5c-2.100006-.5-3.400024-1.899994-3.700012-4.099998l2.399994-22.900002 1.800018-1.599998 4.399994 4.900002zm-4.299988-6.5-1.399994-1.599998 2.399994-22.900002c.800018-2.199997 2.300018-3.5 4.5-4.099998l1.800018 6.5-1.800018 17.199997-5.5 4.900002zm4.100006 23.699997h19.600006l6.299988 2.5c-.799988 2.200005-2.299988 3.5-4.5 4.100006h-24.5z" fill="#52cacb"/><path d="m526.400024 98-1.799988 17.199997-2.700012 2.5-3.700012-4.099998 2-18.799995 1.799988-1.600006 4.400024 4.800003zm-4.200012-6.5-1.400024-1.599998 2-18.800003 4.5-4.099998 2.200012 2.5-1.799988 17.199997-5.5 4.800003zm25 27-3.599976 3.300003h-18l-2.900024-3.300003 3.599976-3.300003h18zm1.899963-49.099998h-18l-2.900024-3.300003 3.600037-3.299999h18l2.899963 3.299999zm4 23.699997 1.5 1.599998-2 18.800003-4.5 4.099998-2.200012-2.5 1.799988-17.199997 5.400024-4.800003zm-4.199951-6.5 1.799988-17.199997 2.700012-2.5 3.700012 4.099998-2 18.800003-1.900024 1.599998-4.299988-4.800003z" fill="#52cacb"/><path d="m591.099976 121.800003h-27c-2.099976-.5-3.400024-1.900002-3.700012-4.100006l6.799988-2.5h22.100037l1.799988 6.600006zm-30.599976-5.800003 2.200012-21.300003 1.799988-1.599998 4.5 4.900002-1.599976 15.5-6.900024 2.5zm11.299988-45-1.599976 15.5-5.5 4.900002-1.400024-1.599998 2.200012-21.300003 6.299988 2.5zm22.299988-1.599998h-22l-6.299988-2.5c.799988-2.200005 2.299988-3.5 4.5-4.100002h26.899963l-3.099976 6.600002z" fill="#52cacb"/><path d="m611.5 98-1.799988 17.199997-3.100037 6.5c-2.099976-.5-3.399963-1.899994-3.699951-4.099998l2.399963-22.900002 1.799988-1.599998 4.400024 4.900002zm-4.200012-6.5-1.400024-1.599998 2.400024-22.900002c.799988-2.199997 2.299988-3.5 4.5-4.099998l1.799988 6.5-1.799988 17.199997-5.5 4.900002zm26.5-2.5 2.900024 3.300003-3.600037 3.299995h-21.299988l-2.900024-3.299995 3.700012-3.300003h21.200012zm-19-6.5 21.700012-19.599998c3.299988 0 5.299988 1.099998 6.200012 3.299995l-23.5 21.300003h-4.900024zm23.400024 10.599998 1.5 1.599998-2.400024 22.900002c-.799988 2.200005-2.299988 3.5-4.5 4.099998l-1.799988-6.5 1.799988-17.199997 5.400024-4.900002z" fill="#52cacb"/></svg>