<svg width="80" height="80" viewBox="0 0 80 80" fill="none" xmlns="http://www.w3.org/2000/svg">
<path d="M80 0H0V80H80V0Z" fill="white"/>
<path d="M54.6617 72.1499H24.5906C23.6684 72.1509 22.755 71.97 21.9028 71.6175C21.0506 71.2651 20.2763 70.748 19.6242 70.0958C18.972 69.4437 18.4549 68.6694 18.1025 67.8172C17.75 66.965 17.5691 66.0516 17.5701 65.1294V29.4733C17.5638 29.078 17.7143 28.6962 17.9888 28.4116L24.0224 22.0938C24.2016 21.9069 24.3009 21.6575 24.299 21.3985V19.8135H54.9532V21.421C54.9514 21.6799 55.0507 21.9294 55.2299 22.1163L61.2635 28.4116C61.5325 28.6907 61.6826 29.0633 61.6822 29.4509V65.1294C61.6832 66.0516 61.5023 66.965 61.1498 67.8172C60.7973 68.6694 60.2803 69.4437 59.6281 70.0958C58.976 70.748 58.2017 71.2651 57.3495 71.6175C56.4973 71.97 55.5839 72.1509 54.6617 72.1499Z" fill="#E8F2FE"/>
<path d="M55.2299 22.1157C55.0507 21.9288 54.9514 21.6793 54.9532 21.4204V20.5605H27.2897V22.168C27.2915 22.427 27.1923 22.6764 27.0131 22.8634L20.9794 29.1587C20.7104 29.4377 20.5603 29.8103 20.5607 30.1979V65.8764C20.5627 67.1761 20.9251 68.4497 21.6074 69.5557C22.2898 70.6618 23.2655 71.557 24.4261 72.1418H54.6617C55.5839 72.1428 56.4973 71.9619 57.3495 71.6094C58.2017 71.257 58.976 70.7399 59.6281 70.0878C60.2803 69.4357 60.7973 68.6613 61.1498 67.8091C61.5023 66.9569 61.6832 66.0435 61.6822 65.1213V29.4727C61.6885 29.0774 61.538 28.6956 61.2635 28.411L55.2299 22.1157Z" fill="white"/>
<path d="M54.6617 72.5236H24.5907C22.6307 72.5196 20.7523 71.7393 19.3664 70.3534C17.9805 68.9676 17.2002 67.0891 17.1963 65.1292V29.4731C17.1964 28.9904 17.3841 28.5266 17.7196 28.1796L23.7533 21.8619C23.8646 21.7421 23.9261 21.5843 23.9252 21.4208V19.8133C23.9252 19.7141 23.9646 19.6191 24.0347 19.5489C24.1048 19.4788 24.1999 19.4395 24.2991 19.4395H54.9533C55.0524 19.4395 55.1475 19.4788 55.2176 19.5489C55.2877 19.6191 55.3271 19.7141 55.3271 19.8133V21.4208C55.3262 21.5843 55.3877 21.7421 55.4991 21.8619L61.5327 28.1796C61.8683 28.5266 62.0559 28.9904 62.0561 29.4731V65.1292C62.0521 67.0891 61.2718 68.9676 59.8859 70.3534C58.5001 71.7393 56.6216 72.5196 54.6617 72.5236V72.5236ZM24.6729 20.1871V21.4208C24.6738 21.777 24.5372 22.1198 24.2916 22.3778L18.2579 28.6955C18.0631 28.8964 17.9509 29.1634 17.9439 29.4432V65.1292C17.9459 66.8914 18.6468 68.5809 19.8929 69.8269C21.139 71.073 22.8284 71.7739 24.5907 71.7759H54.6617C56.4239 71.7739 58.1134 71.073 59.3594 69.8269C60.6055 68.5809 61.3064 66.8914 61.3084 65.1292V29.4731C61.3014 29.1933 61.1893 28.9264 60.9944 28.7254L54.9607 22.4077C54.7079 22.1422 54.5707 21.7873 54.5794 21.4208V20.1871H24.6729Z" fill="#256FC7"/>
<path d="M55.9402 20.561H23.3122L22.0561 19.3573V15.0358L23.3122 13.832H55.9402L57.1963 15.0358V19.3573L55.9402 20.561Z" fill="white"/>
<path d="M25.9664 15.7012L24.9196 16.703V20.3068L25.1888 20.561H55.9402L57.1963 19.3572V16.703L56.1496 15.7012H25.9664Z" fill="#CFE6FF"/>
<path d="M26.5421 19.0658C26.4429 19.0658 26.3478 19.0265 26.2777 18.9564C26.2076 18.8862 26.1682 18.7912 26.1682 18.692V16.449C26.1682 16.3499 26.2076 16.2548 26.2777 16.1847C26.3478 16.1146 26.4429 16.0752 26.5421 16.0752C26.6412 16.0752 26.7363 16.1146 26.8064 16.1847C26.8765 16.2548 26.9159 16.3499 26.9159 16.449V18.692C26.9159 18.7912 26.8765 18.8862 26.8064 18.9564C26.7363 19.0265 26.6412 19.0658 26.5421 19.0658Z" fill="#256FC7"/>
<path d="M29.5327 19.0658C29.4336 19.0658 29.3385 19.0265 29.2684 18.9564C29.1983 18.8862 29.1589 18.7912 29.1589 18.692V16.449C29.1589 16.3499 29.1983 16.2548 29.2684 16.1847C29.3385 16.1146 29.4336 16.0752 29.5327 16.0752C29.6319 16.0752 29.7269 16.1146 29.797 16.1847C29.8672 16.2548 29.9065 16.3499 29.9065 16.449V18.692C29.9065 18.7912 29.8672 18.8862 29.797 18.9564C29.7269 19.0265 29.6319 19.0658 29.5327 19.0658Z" fill="#256FC7"/>
<path d="M32.5234 19.0658C32.4242 19.0658 32.3291 19.0265 32.259 18.9564C32.1889 18.8862 32.1495 18.7912 32.1495 18.692V16.449C32.1495 16.3499 32.1889 16.2548 32.259 16.1847C32.3291 16.1146 32.4242 16.0752 32.5234 16.0752C32.6225 16.0752 32.7176 16.1146 32.7877 16.1847C32.8578 16.2548 32.8972 16.3499 32.8972 16.449V18.692C32.8972 18.7912 32.8578 18.8862 32.7877 18.9564C32.7176 19.0265 32.6225 19.0658 32.5234 19.0658Z" fill="#256FC7"/>
<path d="M35.514 19.0658C35.4149 19.0658 35.3198 19.0265 35.2497 18.9564C35.1796 18.8862 35.1402 18.7912 35.1402 18.692V16.449C35.1402 16.3499 35.1796 16.2548 35.2497 16.1847C35.3198 16.1146 35.4149 16.0752 35.514 16.0752C35.6132 16.0752 35.7083 16.1146 35.7784 16.1847C35.8485 16.2548 35.8879 16.3499 35.8879 16.449V18.692C35.8879 18.7912 35.8485 18.8862 35.7784 18.9564C35.7083 19.0265 35.6132 19.0658 35.514 19.0658Z" fill="#256FC7"/>
<path d="M38.5047 19.0658C38.4055 19.0658 38.3105 19.0265 38.2404 18.9564C38.1702 18.8862 38.1309 18.7912 38.1309 18.692V16.449C38.1309 16.3499 38.1702 16.2548 38.2404 16.1847C38.3105 16.1146 38.4055 16.0752 38.5047 16.0752C38.6038 16.0752 38.6989 16.1146 38.769 16.1847C38.8391 16.2548 38.8785 16.3499 38.8785 16.449V18.692C38.8785 18.7912 38.8391 18.8862 38.769 18.9564C38.6989 19.0265 38.6038 19.0658 38.5047 19.0658Z" fill="#256FC7"/>
<path d="M41.4953 19.0658C41.3962 19.0658 41.3011 19.0265 41.231 18.9564C41.1609 18.8862 41.1215 18.7912 41.1215 18.692V16.449C41.1215 16.3499 41.1609 16.2548 41.231 16.1847C41.3011 16.1146 41.3962 16.0752 41.4953 16.0752C41.5945 16.0752 41.6896 16.1146 41.7597 16.1847C41.8298 16.2548 41.8692 16.3499 41.8692 16.449V18.692C41.8692 18.7912 41.8298 18.8862 41.7597 18.9564C41.6896 19.0265 41.5945 19.0658 41.4953 19.0658Z" fill="#256FC7"/>
<path d="M44.486 19.0658C44.3868 19.0658 44.2918 19.0265 44.2216 18.9564C44.1515 18.8862 44.1122 18.7912 44.1122 18.692V16.449C44.1122 16.3499 44.1515 16.2548 44.2216 16.1847C44.2918 16.1146 44.3868 16.0752 44.486 16.0752C44.5851 16.0752 44.6802 16.1146 44.7503 16.1847C44.8204 16.2548 44.8598 16.3499 44.8598 16.449V18.692C44.8598 18.7912 44.8204 18.8862 44.7503 18.9564C44.6802 19.0265 44.5851 19.0658 44.486 19.0658Z" fill="#256FC7"/>
<path d="M47.4766 19.0658C47.3775 19.0658 47.2824 19.0265 47.2123 18.9564C47.1422 18.8862 47.1028 18.7912 47.1028 18.692V16.449C47.1028 16.3499 47.1422 16.2548 47.2123 16.1847C47.2824 16.1146 47.3775 16.0752 47.4766 16.0752C47.5758 16.0752 47.6709 16.1146 47.741 16.1847C47.8111 16.2548 47.8505 16.3499 47.8505 16.449V18.692C47.8505 18.7912 47.8111 18.8862 47.741 18.9564C47.6709 19.0265 47.5758 19.0658 47.4766 19.0658Z" fill="#256FC7"/>
<path d="M50.4673 19.0658C50.3682 19.0658 50.2731 19.0265 50.203 18.9564C50.1329 18.8862 50.0935 18.7912 50.0935 18.692V16.449C50.0935 16.3499 50.1329 16.2548 50.203 16.1847C50.2731 16.1146 50.3682 16.0752 50.4673 16.0752C50.5665 16.0752 50.6615 16.1146 50.7316 16.1847C50.8018 16.2548 50.8411 16.3499 50.8411 16.449V18.692C50.8411 18.7912 50.8018 18.8862 50.7316 18.9564C50.6615 19.0265 50.5665 19.0658 50.4673 19.0658Z" fill="#256FC7"/>
<path d="M53.4579 19.0658C53.3588 19.0658 53.2637 19.0265 53.1936 18.9564C53.1235 18.8862 53.0841 18.7912 53.0841 18.692V16.449C53.0841 16.3499 53.1235 16.2548 53.1936 16.1847C53.2637 16.1146 53.3588 16.0752 53.4579 16.0752C53.5571 16.0752 53.6522 16.1146 53.7223 16.1847C53.7924 16.2548 53.8318 16.3499 53.8318 16.449V18.692C53.8318 18.7912 53.7924 18.8862 53.7223 18.9564C53.6522 19.0265 53.5571 19.0658 53.4579 19.0658Z" fill="#256FC7"/>
<path d="M55.9402 20.9346H23.3122C23.2149 20.9337 23.1215 20.8964 23.0505 20.83L21.7944 19.6262C21.7228 19.5549 21.6825 19.4581 21.6823 19.3571V15.0356C21.6825 14.9345 21.7228 14.8377 21.7944 14.7664L23.0505 13.5627C23.1215 13.4963 23.2149 13.4589 23.3122 13.458H55.9402C56.0374 13.4589 56.1308 13.4963 56.2019 13.5627L57.458 14.7664C57.5295 14.8377 57.5699 14.9345 57.5701 15.0356V19.3571C57.5699 19.4581 57.5295 19.5549 57.458 19.6262L56.2019 20.83C56.1308 20.8964 56.0374 20.9337 55.9402 20.9346V20.9346ZM23.4617 20.187H55.7907L56.8224 19.2001V15.1926L55.7907 14.2057H23.4617L22.4299 15.1926V19.2001L23.4617 20.187Z" fill="#256FC7"/>
<path d="M49.2262 68.4112L49.7196 67.8803V65.2037L49.2262 64.6729H32.2692L31.7757 65.2037V67.8803L32.2692 68.4112H49.2262Z" fill="white"/>
<path d="M49.2785 68.4108L49.7196 68.0444V66.1603L49.2785 65.7939H34.086L33.6448 66.1603V68.0444L34.086 68.4108H49.2785Z" fill="#CFE6FF"/>
<path d="M49.2262 68.7848H32.2691C32.2174 68.7843 32.1663 68.7734 32.1188 68.7529C32.0713 68.7324 32.0283 68.7025 31.9925 68.6652L31.4991 68.1343C31.4365 68.0644 31.4019 67.9739 31.4019 67.8801V65.2035C31.4019 65.1097 31.4365 65.0192 31.4991 64.9493L31.9925 64.4185C32.0283 64.3811 32.0713 64.3513 32.1188 64.3307C32.1663 64.3102 32.2174 64.2994 32.2691 64.2988H49.2262C49.2779 64.2994 49.329 64.3102 49.3765 64.3307C49.424 64.3513 49.467 64.3811 49.5028 64.4185L49.9963 64.9493C50.0588 65.0192 50.0934 65.1097 50.0934 65.2035V67.8801C50.0934 67.9739 50.0588 68.0644 49.9963 68.1343L49.5028 68.6652C49.467 68.7025 49.424 68.7324 49.3765 68.7529C49.329 68.7734 49.2779 68.7843 49.2262 68.7848V68.7848ZM32.4336 68.0371H49.0617L49.3458 67.7381V65.3456L49.0617 65.0465H32.4336L32.1495 65.3456V67.7381L32.4336 68.0371Z" fill="#256FC7"/>
<path d="M45.4879 72.1495L45.9813 71.6186V68.942L45.4879 68.4111H28.5308L28.0374 68.942V71.6186L28.5308 72.1495H45.4879Z" fill="white"/>
<path d="M45.5402 72.149L45.9813 71.7827V69.8986L45.5402 69.5322H30.3476L29.9065 69.8986V71.7827L30.3476 72.149H45.5402Z" fill="#CFE6FF"/>
<path d="M45.4878 72.5231H28.5308C28.4791 72.5226 28.428 72.5117 28.3805 72.4912C28.3329 72.4706 28.29 72.4408 28.2542 72.4035L27.7607 71.8726C27.6982 71.8027 27.6636 71.7122 27.6635 71.6184V68.9418C27.6636 68.848 27.6982 68.7575 27.7607 68.6876L28.2542 68.1567C28.29 68.1194 28.3329 68.0896 28.3805 68.069C28.428 68.0485 28.4791 68.0376 28.5308 68.0371H45.4878C45.5396 68.0376 45.5907 68.0485 45.6382 68.069C45.6857 68.0896 45.7287 68.1194 45.7645 68.1567L46.2579 68.6876C46.3205 68.7575 46.3551 68.848 46.3551 68.9418V71.6184C46.3551 71.7122 46.3205 71.8027 46.2579 71.8726L45.7645 72.4035C45.7287 72.4408 45.6857 72.4706 45.6382 72.4912C45.5907 72.5117 45.5396 72.5226 45.4878 72.5231V72.5231ZM28.6953 71.7754H45.3234L45.6075 71.4764V69.0838L45.3234 68.7848H28.6953L28.4112 69.0838V71.4764L28.6953 71.7754Z" fill="#256FC7"/>
<path d="M36.6879 65.0689L37.0019 64.4185L36.2019 61.854L35.5813 61.4951L19.3795 66.5269L19.0655 67.1774L19.8655 69.7344L20.486 70.0932L36.6879 65.0689Z" fill="white"/>
<path d="M36.7328 65.0538L37.0468 64.5679L36.486 62.7735L35.9627 62.5566L21.4505 67.0576L21.1365 67.5361L21.6973 69.3305L22.2281 69.5548L36.7328 65.0538Z" fill="#CFE6FF"/>
<path d="M20.486 70.4673C20.4211 70.4668 20.3571 70.4514 20.2991 70.4224L19.6785 70.0635C19.5956 70.0159 19.534 69.9383 19.5065 69.8467L18.6916 67.2897C18.662 67.2024 18.662 67.1078 18.6916 67.0206L19.0056 66.3701C19.027 66.3236 19.058 66.2821 19.0967 66.2486C19.1354 66.2151 19.1808 66.1902 19.2299 66.1757L35.4318 61.1514C35.4773 61.1295 35.5271 61.1182 35.5776 61.1182C35.628 61.1182 35.6779 61.1295 35.7234 61.1514L36.3514 61.5103C36.4334 61.5555 36.4949 61.6304 36.5234 61.7196L37.3832 64.2991C37.4164 64.3883 37.4164 64.4865 37.3832 64.5757L37.0692 65.2262C37.0467 65.2719 37.0152 65.3127 36.9767 65.3461C36.9382 65.3795 36.8933 65.4048 36.8449 65.4206L20.5981 70.4523L20.486 70.4673ZM20.1869 69.4878L20.5458 69.6897L36.4336 64.7626L36.6131 64.3888L35.8654 62.1084L35.514 61.9065L19.6486 66.8336L19.4692 67.2075L20.1869 69.4878Z" fill="#256FC7"/>
<path d="M43.4169 59.0875L43.7309 58.437L42.9309 55.8726L42.3103 55.5137L26.1085 60.5454L25.7944 61.1959L26.587 63.7529L27.215 64.1118L43.4169 59.0875Z" fill="white"/>
<path d="M43.4617 59.0724L43.7758 58.5864L43.215 56.792L42.6916 56.5752L28.1795 61.0761L27.8655 61.5546L28.4262 63.349L28.9571 63.5733L43.4617 59.0724Z" fill="#CFE6FF"/>
<path d="M27.215 64.4858C27.15 64.4853 27.0861 64.47 27.028 64.441L26.4075 64.0821C26.3245 64.0345 26.263 63.9569 26.2355 63.8653L25.4206 61.3083C25.3909 61.221 25.3909 61.1264 25.4206 61.0391L25.7346 60.3886C25.7559 60.3421 25.787 60.3007 25.8257 60.2672C25.8644 60.2336 25.9098 60.2088 25.9589 60.1942L42.1608 55.17C42.2062 55.1481 42.2561 55.1367 42.3065 55.1367C42.357 55.1367 42.4068 55.1481 42.4523 55.17L43.0804 55.5288C43.1623 55.5741 43.2239 55.649 43.2523 55.7382L44.1122 58.3176C44.1454 58.4068 44.1454 58.505 44.1122 58.5943L43.7981 59.2447C43.7756 59.2905 43.7442 59.3312 43.7057 59.3646C43.6671 59.398 43.6223 59.4233 43.5738 59.4391L27.3271 64.4709L27.215 64.4858ZM26.9159 63.5064L27.2748 63.7083L43.1626 58.7812L43.3421 58.4073L42.5944 56.127L42.243 55.9251L26.3776 60.8522L26.1981 61.226L26.9159 63.5064Z" fill="#256FC7"/>
<path d="M56.4709 71.6637L57.099 71.3123L57.9214 68.7627L57.6149 68.1048L41.4728 62.916L40.8448 63.2674L40.0223 65.8169L40.3289 66.4749L56.4709 71.6637Z" fill="white"/>
<path d="M56.5233 71.6867L57.0542 71.4624L57.6299 69.6755L57.3233 69.1895L42.856 64.5391L42.3252 64.7559L41.7495 66.5428L42.056 67.0288L56.5233 71.6867Z" fill="#CFE6FF"/>
<path d="M56.471 72.0376C56.434 72.0449 56.3959 72.0449 56.3589 72.0376L40.2093 66.804C40.1609 66.7882 40.116 66.7629 40.0775 66.7295C40.039 66.6961 40.0075 66.6553 39.985 66.6096L39.6785 65.9516C39.6451 65.865 39.6451 65.7691 39.6785 65.6825L40.5009 63.1255C40.5294 63.0363 40.5909 62.9614 40.6729 62.9161L41.3009 62.5647C41.3482 62.5446 41.3991 62.5342 41.4505 62.5342C41.5019 62.5342 41.5527 62.5446 41.6 62.5647L57.7495 67.7984C57.798 67.8141 57.8428 67.8395 57.8814 67.8728C57.9199 67.9062 57.9513 67.947 57.9738 67.9928L58.2804 68.6507C58.3138 68.7373 58.3138 68.8333 58.2804 68.9199L57.4579 71.4769C57.4295 71.5661 57.368 71.641 57.286 71.6862L56.6579 72.0376C56.5965 72.0522 56.5325 72.0522 56.471 72.0376V72.0376ZM40.5981 66.1685L56.4336 71.2601L56.8224 71.0283L57.5701 68.7853L57.3907 68.4115L41.5103 63.3199L41.1215 63.5516L40.3738 65.7946L40.5981 66.1685Z" fill="#256FC7"/>
<path d="M51.9925 65.7945C56.2993 65.7945 59.7907 62.3032 59.7907 57.9964C59.7907 53.6896 56.2993 50.1982 51.9925 50.1982C47.6857 50.1982 44.1944 53.6896 44.1944 57.9964C44.1944 62.3032 47.6857 65.7945 51.9925 65.7945Z" fill="#CFE6FF"/>
<path d="M51.9925 66.1684C50.3741 66.1699 48.7917 65.6913 47.4455 64.7931C46.0992 63.8949 45.0497 62.6175 44.4297 61.1226C43.8097 59.6277 43.647 57.9825 43.9624 56.3951C44.2778 54.8078 45.0569 53.3496 46.2013 52.2053C47.3457 51.0609 48.8038 50.2817 50.3912 49.9664C51.9785 49.651 53.6237 49.8136 55.1186 50.4336C56.6135 51.0536 57.8909 52.1032 58.7891 53.4494C59.6873 54.7957 60.166 56.3781 60.1645 57.9965C60.1605 60.1626 59.2983 62.2389 57.7666 63.7706C56.2349 65.3023 54.1586 66.1645 51.9925 66.1684V66.1684ZM51.9925 50.5647C50.5223 50.5632 49.0847 50.9978 47.8616 51.8136C46.6385 52.6293 45.6848 53.7894 45.1211 55.1473C44.5575 56.5051 44.4092 57.9996 44.6952 59.4418C44.9811 60.8839 45.6883 62.2088 46.7273 63.2489C47.7664 64.289 49.0906 64.9975 50.5324 65.2849C51.9743 65.5723 53.4689 65.4255 54.8273 64.8633C56.1857 64.301 57.3469 63.3484 58.1638 62.1261C58.9808 60.9038 59.4168 59.4667 59.4168 57.9965C59.4051 56.0304 58.6193 54.148 57.2298 52.757C55.8402 51.3661 53.9586 50.5784 51.9925 50.5647V50.5647Z" fill="#256FC7"/>
<path d="M53.7346 65.7945C58.0414 65.7945 61.5327 62.3032 61.5327 57.9964C61.5327 53.6896 58.0414 50.1982 53.7346 50.1982C49.4278 50.1982 45.9365 53.6896 45.9365 57.9964C45.9365 62.3032 49.4278 65.7945 53.7346 65.7945Z" fill="white"/>
<path d="M53.7346 64.3519C54.9915 64.3519 56.2202 63.9792 57.2653 63.2809C58.3104 62.5825 59.125 61.59 59.606 60.4288C60.087 59.2675 60.2128 57.9897 59.9676 56.7569C59.7224 55.5241 59.1171 54.3918 58.2284 53.503C57.3396 52.6142 56.2072 52.0089 54.9744 51.7637C53.7416 51.5185 52.4638 51.6444 51.3026 52.1254C50.1413 52.6064 49.1488 53.4209 48.4505 54.466C47.7522 55.5111 47.3795 56.7398 47.3795 57.9967C47.3814 59.6816 48.0516 61.2969 49.243 62.4883C50.4344 63.6797 52.0497 64.3499 53.7346 64.3519V64.3519ZM50.2879 54.2883C50.7422 53.7381 51.3056 53.2879 51.9426 52.9662C52.5796 52.6445 53.2763 52.4582 53.9888 52.4192C54.7378 52.3853 55.4861 52.5 56.1906 52.7566C56.8951 53.0133 57.5418 53.4068 58.0935 53.9145C58.6537 54.4383 59.1036 55.0687 59.4168 55.7687C59.7301 56.475 59.8919 57.2391 59.8919 58.0117C59.8919 58.7843 59.7301 59.5484 59.4168 60.2547C58.9534 61.2832 58.1882 62.1465 57.2228 62.73C56.2573 63.3135 55.1373 63.5897 54.0112 63.522C53.3061 63.4826 52.6166 63.2991 51.9852 62.9827C51.3537 62.6664 50.7939 62.2239 50.3402 61.6827C49.4805 60.6468 49.01 59.3429 49.01 57.9967C49.01 56.6506 49.4805 55.3467 50.3402 54.3108L50.2879 54.2883Z" fill="#CFE6FF"/>
<path d="M52.0748 57.4652L52.5233 58.2129L55.514 56.4858H55.6262L55.4243 57.8316V57.9437L53.3682 59.1325L53.1738 59.2447L51.9028 59.9923L49.9738 61.1064H49.8691L50.0635 59.7606V59.6484L51.0579 59.0652L51.2523 58.9531L50.1906 57.1213V57.0092L55.828 53.7568H55.9402L55.7308 55.0952V55.2073L52.1047 57.3082L52.0748 57.4652ZM52.142 60.5157L52.957 61.9363H53.0691L57.6897 59.2671V59.155L57.9065 57.8092H57.7944L53.6972 60.1718H53.585L53.4056 59.8129L52.142 60.5157Z" fill="#256FC7"/>
<path d="M53.7346 66.1684C52.1162 66.1699 50.5338 65.6913 49.1875 64.7931C47.8413 63.8949 46.7917 62.6175 46.1717 61.1226C45.5517 59.6277 45.3891 57.9825 45.7045 56.3951C46.0198 54.8078 46.799 53.3496 47.9434 52.2053C49.0877 51.0609 50.5459 50.2817 52.1332 49.9664C53.7206 49.651 55.3658 49.8136 56.8607 50.4336C58.3556 51.0536 59.633 52.1032 60.5312 53.4494C61.4294 54.7957 61.908 56.3781 61.9065 57.9965C61.9026 60.1626 61.0403 62.2389 59.5087 63.7706C57.977 65.3023 55.9007 66.1645 53.7346 66.1684V66.1684ZM53.7346 50.5647C52.2644 50.5632 50.8268 50.9978 49.6037 51.8136C48.3805 52.6293 47.4268 53.7894 46.8632 55.1473C46.2996 56.5051 46.1513 57.9996 46.4372 59.4418C46.7231 60.8839 47.4303 62.2088 48.4694 63.2489C49.5085 64.289 50.8327 64.9975 52.2745 65.2849C53.7163 65.5723 55.211 65.4255 56.5694 64.8633C57.9278 64.301 59.0889 63.3484 59.9059 62.1261C60.7228 60.9038 61.1589 59.4667 61.1589 57.9965C61.1471 56.0304 60.3614 54.148 58.9718 52.757C57.5822 51.3661 55.7007 50.5784 53.7346 50.5647V50.5647Z" fill="#256FC7"/>
<path d="M53.7346 64.7255C52.4037 64.7255 51.1027 64.3309 49.9962 63.5915C48.8896 62.8521 48.0271 61.8012 47.5178 60.5716C47.0085 59.3421 46.8753 57.9891 47.1349 56.6838C47.3946 55.3785 48.0354 54.1795 48.9765 53.2384C49.9176 52.2974 51.1165 51.6565 52.4218 51.3969C53.7271 51.1372 55.0801 51.2705 56.3097 51.7798C57.5392 52.2891 58.5901 53.1516 59.3295 54.2581C60.0689 55.3647 60.4636 56.6657 60.4636 57.9965C60.4636 59.7812 59.7546 61.4927 58.4927 62.7546C57.2308 64.0166 55.5192 64.7255 53.7346 64.7255ZM53.7346 52.0152C52.5516 52.0152 51.3952 52.366 50.4116 53.0233C49.4279 53.6805 48.6613 54.6147 48.2086 55.7076C47.7559 56.8005 47.6374 58.0032 47.8682 59.1634C48.099 60.3237 48.6687 61.3895 49.5052 62.226C50.3417 63.0625 51.4074 63.6321 52.5677 63.8629C53.728 64.0937 54.9306 63.9753 56.0235 63.5226C57.1165 63.0698 58.0506 62.3032 58.7079 61.3196C59.3651 60.336 59.7159 59.1795 59.7159 57.9965C59.7159 56.4102 59.0857 54.8888 57.964 53.7671C56.8423 52.6454 55.3209 52.0152 53.7346 52.0152Z" fill="#256FC7"/>
<path d="M51.4393 46.7293H28.5608C28.5608 46.0015 28.2717 45.3036 27.7571 44.789C27.2425 44.2744 26.5446 43.9853 25.8168 43.9853V33.69C26.1732 33.701 26.5282 33.6403 26.8607 33.5115C27.1932 33.3827 27.4964 33.1884 27.7523 32.9401C28.0083 32.6918 28.2117 32.3947 28.3506 32.0663C28.4895 31.7379 28.5609 31.3849 28.5608 31.0283H51.4393C51.4393 31.7561 51.7284 32.454 52.2429 32.9686C52.7575 33.4832 53.4555 33.7722 54.1832 33.7722V33.7722V43.9853C53.4555 43.9853 52.7575 44.2744 52.2429 44.789C51.7284 45.3036 51.4393 46.0015 51.4393 46.7293V46.7293Z" fill="#CFE6FF"/>
<path d="M54.1832 43.985V34.0485C53.8094 33.7569 53.8094 34.3925 53.3682 33.6373C52.9073 33.5004 52.4915 33.2422 52.1645 32.8896H30.8636C30.8637 33.2037 30.8008 33.5146 30.6786 33.8039C30.5565 34.0932 30.3775 34.355 30.1523 34.5739C29.9272 34.7929 29.6603 34.9644 29.3677 35.0783C29.0751 35.1922 28.7625 35.2463 28.4486 35.2373V35.2373V44.3139C29.0891 44.3139 29.7033 44.5684 30.1562 45.0213C30.6091 45.4742 30.8636 46.0884 30.8636 46.7289H51.4393C51.4393 46.0012 51.7284 45.3032 52.2429 44.7887C52.7575 44.2741 53.4555 43.985 54.1832 43.985V43.985Z" fill="white"/>
<path d="M49.7196 39.626H41.4953C41.2889 39.626 41.1215 39.7933 41.1215 39.9998C41.1215 40.2063 41.2889 40.3736 41.4953 40.3736H49.7196C49.9261 40.3736 50.0935 40.2063 50.0935 39.9998C50.0935 39.7933 49.9261 39.626 49.7196 39.626Z" fill="#256FC7"/>
<path d="M51.4393 47.1029H28.5608C28.4616 47.1029 28.3665 47.0635 28.2964 46.9934C28.2263 46.9233 28.1869 46.8282 28.1869 46.7291C28.1869 46.1005 27.9372 45.4976 27.4927 45.0532C27.0483 44.6087 26.4454 44.359 25.8168 44.359C25.7155 44.3591 25.618 44.3205 25.5443 44.2509C25.4706 44.1814 25.4263 44.0863 25.4206 43.9851V33.6898C25.4208 33.5888 25.4611 33.492 25.5327 33.4207C25.6065 33.3538 25.7023 33.3165 25.8019 33.316C26.1121 33.3266 26.4214 33.2752 26.7116 33.1648C27.0017 33.0544 27.2669 32.8872 27.4916 32.673C27.7139 32.461 27.8904 32.2057 28.01 31.9227C28.1296 31.6398 28.1898 31.3353 28.1869 31.0281C28.1869 30.929 28.2263 30.8339 28.2964 30.7638C28.3665 30.6937 28.4616 30.6543 28.5608 30.6543H51.4393C51.5384 30.6543 51.6335 30.6937 51.7036 30.7638C51.7737 30.8339 51.8131 30.929 51.8131 31.0281C51.8131 31.6567 52.0628 32.2596 52.5073 32.704C52.9517 33.1485 53.5546 33.3982 54.1832 33.3982C54.2845 33.3981 54.382 33.4367 54.4557 33.5062C54.5294 33.5758 54.5737 33.6709 54.5794 33.7721V43.9851C54.5794 44.0843 54.5401 44.1794 54.4699 44.2495C54.3998 44.3196 54.3048 44.359 54.2056 44.359C53.8928 44.357 53.5826 44.4168 53.2929 44.5349C53.0032 44.6531 52.7396 44.8272 52.5174 45.0474C52.2951 45.2676 52.1185 45.5295 51.9976 45.818C51.8768 46.1066 51.8141 46.4162 51.8131 46.7291C51.8131 46.8282 51.7737 46.9233 51.7036 46.9934C51.6335 47.0635 51.5384 47.1029 51.4393 47.1029ZM28.9121 46.3552H51.0879C51.1725 45.6591 51.4894 45.0119 51.9873 44.5181C52.4852 44.0242 53.135 43.7127 53.8318 43.6337V34.1235C53.1355 34.0432 52.4864 33.7313 51.9887 33.2377C51.4911 32.7441 51.1738 32.0976 51.0879 31.402H28.9121C28.825 32.0905 28.5056 32.7288 28.0067 33.2114C27.5078 33.6939 26.8593 33.9919 26.1682 34.0562V43.6337C26.8645 43.714 27.5136 44.0259 28.0113 44.5195C28.5089 45.0131 28.8262 45.6596 28.9121 46.3552V46.3552Z" fill="#256FC7"/>
<path d="M46.729 41.1221H41.4953C41.2889 41.1221 41.1215 41.2894 41.1215 41.4959C41.1215 41.7024 41.2889 41.8697 41.4953 41.8697H46.729C46.9354 41.8697 47.1028 41.7024 47.1028 41.4959C47.1028 41.2894 46.9354 41.1221 46.729 41.1221Z" fill="#256FC7"/>
<path d="M49.3458 36.6357H41.8692C41.4562 36.6357 41.1215 36.9705 41.1215 37.3834C41.1215 37.7963 41.4562 38.1311 41.8692 38.1311H49.3458C49.7587 38.1311 50.0935 37.7963 50.0935 37.3834C50.0935 36.9705 49.7587 36.6357 49.3458 36.6357Z" fill="#256FC7"/>
<path d="M35.7683 39.2075C35.4726 39.2075 35.1835 39.1198 34.9375 38.9554C34.6916 38.7911 34.5 38.5576 34.3868 38.2844C34.2736 38.0111 34.244 37.7105 34.3017 37.4204C34.3594 37.1303 34.5018 36.8639 34.711 36.6548C34.9201 36.4456 35.1865 36.3032 35.4766 36.2455C35.7666 36.1878 36.0673 36.2174 36.3405 36.3306C36.6138 36.4438 36.8473 36.6355 37.0116 36.8814C37.1759 37.1273 37.2636 37.4164 37.2636 37.7121C37.2636 38.1087 37.1061 38.4891 36.8257 38.7695C36.5452 39.0499 36.1649 39.2075 35.7683 39.2075ZM35.7683 36.9645C35.6204 36.9645 35.4759 37.0083 35.3529 37.0905C35.23 37.1726 35.1341 37.2894 35.0776 37.426C35.021 37.5626 35.0062 37.713 35.035 37.858C35.0639 38.003 35.1351 38.1362 35.2396 38.2408C35.3442 38.3454 35.4774 38.4166 35.6224 38.4454C35.7675 38.4743 35.9178 38.4595 36.0544 38.4029C36.191 38.3463 36.3078 38.2505 36.39 38.1275C36.4721 38.0046 36.516 37.86 36.516 37.7121C36.516 37.5138 36.4372 37.3237 36.297 37.1834C36.1568 37.0432 35.9666 36.9645 35.7683 36.9645Z" fill="#256FC7"/>
<path d="M38.385 42.9462H33.1513C32.953 42.9462 32.7629 42.8674 32.6227 42.7272C32.4824 42.587 32.4037 42.3968 32.4037 42.1985V41.1219C32.402 40.9709 32.4461 40.8229 32.5302 40.6975C32.6143 40.572 32.7344 40.475 32.8747 40.4191L35.499 39.7612C35.6751 39.7124 35.8612 39.7124 36.0373 39.7612L38.6242 40.4116C38.7715 40.4614 38.8997 40.5558 38.9908 40.6818C39.0819 40.8077 39.1315 40.959 39.1326 41.1144V42.1985C39.1326 42.3968 39.0539 42.587 38.9137 42.7272C38.7734 42.8674 38.5833 42.9462 38.385 42.9462ZM35.7682 40.464H35.7083L33.1513 41.1219V42.1985H38.385V41.1219L35.828 40.4864L35.7682 40.464Z" fill="#256FC7"/>
</svg>
