<svg width="80" height="80" viewBox="0 0 80 80" fill="none" xmlns="http://www.w3.org/2000/svg">
<path d="M54.6616 72.1499H24.5905C23.6683 72.1509 22.7549 71.97 21.9027 71.6175C21.0505 71.2651 20.2762 70.748 19.6241 70.0958C18.9719 69.4437 18.4548 68.6694 18.1024 67.8172C17.7499 66.965 17.569 66.0516 17.57 65.1294V29.4733C17.5637 29.078 17.7142 28.6962 17.9887 28.4116L24.0223 22.0938C24.2015 21.9069 24.3008 21.6575 24.2989 21.3985V19.8135H54.9531V21.421C54.9513 21.6799 55.0506 21.9294 55.2298 22.1163L61.2634 28.4116C61.5324 28.6907 61.6825 29.0633 61.6821 29.4509V65.1294C61.6831 66.0516 61.5022 66.965 61.1497 67.8172C60.7972 68.6694 60.2802 69.4437 59.628 70.0958C58.9759 70.748 58.2016 71.2651 57.3494 71.6175C56.4972 71.97 55.5838 72.1509 54.6616 72.1499Z" fill="#E8F2FE"/>
<path d="M55.23 22.1157C55.0508 21.9288 54.9515 21.6793 54.9533 21.4204V20.5605H27.2898V22.168C27.2916 22.427 27.1924 22.6764 27.0132 22.8634L20.9795 29.1587C20.7105 29.4377 20.5604 29.8103 20.5608 30.1979V65.8764C20.5628 67.1761 20.9252 68.4497 21.6075 69.5557C22.2899 70.6618 23.2656 71.557 24.4262 72.1418H54.6618C55.584 72.1428 56.4974 71.9619 57.3496 71.6094C58.2018 71.257 58.9761 70.7399 59.6282 70.0878C60.2804 69.4357 60.7974 68.6613 61.1499 67.8091C61.5024 66.9569 61.6833 66.0435 61.6823 65.1213V29.4727C61.6886 29.0774 61.5381 28.6956 61.2636 28.411L55.23 22.1157Z" fill="white"/>
<path d="M54.6617 72.5236H24.5907C22.6307 72.5196 20.7523 71.7393 19.3664 70.3534C17.9805 68.9676 17.2002 67.0891 17.1963 65.1292V29.4731C17.1964 28.9904 17.3841 28.5266 17.7196 28.1796L23.7533 21.8619C23.8646 21.7421 23.9261 21.5843 23.9252 21.4208V19.8133C23.9252 19.7141 23.9646 19.6191 24.0347 19.5489C24.1048 19.4788 24.1999 19.4395 24.2991 19.4395H54.9533C55.0524 19.4395 55.1475 19.4788 55.2176 19.5489C55.2877 19.6191 55.3271 19.7141 55.3271 19.8133V21.4208C55.3262 21.5843 55.3877 21.7421 55.4991 21.8619L61.5327 28.1796C61.8683 28.5266 62.0559 28.9904 62.0561 29.4731V65.1292C62.0521 67.0891 61.2718 68.9676 59.8859 70.3534C58.5001 71.7393 56.6216 72.5196 54.6617 72.5236ZM24.6729 20.1871V21.4208C24.6738 21.777 24.5372 22.1198 24.2916 22.3778L18.2579 28.6955C18.0631 28.8964 17.9509 29.1634 17.9439 29.4432V65.1292C17.9459 66.8914 18.6468 68.5809 19.8929 69.8269C21.139 71.073 22.8284 71.7739 24.5907 71.7759H54.6617C56.4239 71.7739 58.1134 71.073 59.3594 69.8269C60.6055 68.5809 61.3064 66.8914 61.3084 65.1292V29.4731C61.3014 29.1933 61.1893 28.9264 60.9944 28.7254L54.9607 22.4077C54.7079 22.1422 54.5707 21.7873 54.5794 21.4208V20.1871H24.6729Z" fill="#256FC7"/>
<path d="M55.9403 20.561H23.3123L22.0562 19.3573V15.0358L23.3123 13.832H55.9403L57.1964 15.0358V19.3573L55.9403 20.561Z" fill="white"/>
<path d="M25.9665 15.7012L24.9197 16.703V20.3068L25.1889 20.561H55.9403L57.1964 19.3572V16.703L56.1497 15.7012H25.9665Z" fill="#CFE6FF"/>
<path d="M26.5421 19.0658C26.4429 19.0658 26.3478 19.0265 26.2777 18.9564C26.2076 18.8862 26.1682 18.7912 26.1682 18.692V16.449C26.1682 16.3499 26.2076 16.2548 26.2777 16.1847C26.3478 16.1146 26.4429 16.0752 26.5421 16.0752C26.6412 16.0752 26.7363 16.1146 26.8064 16.1847C26.8765 16.2548 26.9159 16.3499 26.9159 16.449V18.692C26.9159 18.7912 26.8765 18.8862 26.8064 18.9564C26.7363 19.0265 26.6412 19.0658 26.5421 19.0658Z" fill="#256FC7"/>
<path d="M29.5327 19.0658C29.4336 19.0658 29.3385 19.0265 29.2684 18.9564C29.1983 18.8862 29.1589 18.7912 29.1589 18.692V16.449C29.1589 16.3499 29.1983 16.2548 29.2684 16.1847C29.3385 16.1146 29.4336 16.0752 29.5327 16.0752C29.6319 16.0752 29.7269 16.1146 29.797 16.1847C29.8672 16.2548 29.9065 16.3499 29.9065 16.449V18.692C29.9065 18.7912 29.8672 18.8862 29.797 18.9564C29.7269 19.0265 29.6319 19.0658 29.5327 19.0658Z" fill="#256FC7"/>
<path d="M32.5233 19.0658C32.4241 19.0658 32.329 19.0265 32.2589 18.9564C32.1888 18.8862 32.1494 18.7912 32.1494 18.692V16.449C32.1494 16.3499 32.1888 16.2548 32.2589 16.1847C32.329 16.1146 32.4241 16.0752 32.5233 16.0752C32.6224 16.0752 32.7175 16.1146 32.7876 16.1847C32.8577 16.2548 32.8971 16.3499 32.8971 16.449V18.692C32.8971 18.7912 32.8577 18.8862 32.7876 18.9564C32.7175 19.0265 32.6224 19.0658 32.5233 19.0658Z" fill="#256FC7"/>
<path d="M35.5139 19.0658C35.4148 19.0658 35.3197 19.0265 35.2496 18.9564C35.1795 18.8862 35.1401 18.7912 35.1401 18.692V16.449C35.1401 16.3499 35.1795 16.2548 35.2496 16.1847C35.3197 16.1146 35.4148 16.0752 35.5139 16.0752C35.6131 16.0752 35.7082 16.1146 35.7783 16.1847C35.8484 16.2548 35.8878 16.3499 35.8878 16.449V18.692C35.8878 18.7912 35.8484 18.8862 35.7783 18.9564C35.7082 19.0265 35.6131 19.0658 35.5139 19.0658Z" fill="#256FC7"/>
<path d="M38.5047 19.0658C38.4055 19.0658 38.3105 19.0265 38.2404 18.9564C38.1702 18.8862 38.1309 18.7912 38.1309 18.692V16.449C38.1309 16.3499 38.1702 16.2548 38.2404 16.1847C38.3105 16.1146 38.4055 16.0752 38.5047 16.0752C38.6038 16.0752 38.6989 16.1146 38.769 16.1847C38.8391 16.2548 38.8785 16.3499 38.8785 16.449V18.692C38.8785 18.7912 38.8391 18.8862 38.769 18.9564C38.6989 19.0265 38.6038 19.0658 38.5047 19.0658Z" fill="#256FC7"/>
<path d="M41.4954 19.0658C41.3963 19.0658 41.3012 19.0265 41.2311 18.9564C41.161 18.8862 41.1216 18.7912 41.1216 18.692V16.449C41.1216 16.3499 41.161 16.2548 41.2311 16.1847C41.3012 16.1146 41.3963 16.0752 41.4954 16.0752C41.5946 16.0752 41.6897 16.1146 41.7598 16.1847C41.8299 16.2548 41.8693 16.3499 41.8693 16.449V18.692C41.8693 18.7912 41.8299 18.8862 41.7598 18.9564C41.6897 19.0265 41.5946 19.0658 41.4954 19.0658Z" fill="#256FC7"/>
<path d="M44.4861 19.0658C44.3869 19.0658 44.2919 19.0265 44.2217 18.9564C44.1516 18.8862 44.1123 18.7912 44.1123 18.692V16.449C44.1123 16.3499 44.1516 16.2548 44.2217 16.1847C44.2919 16.1146 44.3869 16.0752 44.4861 16.0752C44.5852 16.0752 44.6803 16.1146 44.7504 16.1847C44.8205 16.2548 44.8599 16.3499 44.8599 16.449V18.692C44.8599 18.7912 44.8205 18.8862 44.7504 18.9564C44.6803 19.0265 44.5852 19.0658 44.4861 19.0658Z" fill="#256FC7"/>
<path d="M47.4766 19.0658C47.3775 19.0658 47.2824 19.0265 47.2123 18.9564C47.1422 18.8862 47.1028 18.7912 47.1028 18.692V16.449C47.1028 16.3499 47.1422 16.2548 47.2123 16.1847C47.2824 16.1146 47.3775 16.0752 47.4766 16.0752C47.5758 16.0752 47.6709 16.1146 47.741 16.1847C47.8111 16.2548 47.8505 16.3499 47.8505 16.449V18.692C47.8505 18.7912 47.8111 18.8862 47.741 18.9564C47.6709 19.0265 47.5758 19.0658 47.4766 19.0658Z" fill="#256FC7"/>
<path d="M50.4673 19.0658C50.3682 19.0658 50.2731 19.0265 50.203 18.9564C50.1329 18.8862 50.0935 18.7912 50.0935 18.692V16.449C50.0935 16.3499 50.1329 16.2548 50.203 16.1847C50.2731 16.1146 50.3682 16.0752 50.4673 16.0752C50.5665 16.0752 50.6615 16.1146 50.7316 16.1847C50.8018 16.2548 50.8411 16.3499 50.8411 16.449V18.692C50.8411 18.7912 50.8018 18.8862 50.7316 18.9564C50.6615 19.0265 50.5665 19.0658 50.4673 19.0658Z" fill="#256FC7"/>
<path d="M53.4578 19.0658C53.3587 19.0658 53.2636 19.0265 53.1935 18.9564C53.1234 18.8862 53.084 18.7912 53.084 18.692V16.449C53.084 16.3499 53.1234 16.2548 53.1935 16.1847C53.2636 16.1146 53.3587 16.0752 53.4578 16.0752C53.557 16.0752 53.6521 16.1146 53.7222 16.1847C53.7923 16.2548 53.8317 16.3499 53.8317 16.449V18.692C53.8317 18.7912 53.7923 18.8862 53.7222 18.9564C53.6521 19.0265 53.557 19.0658 53.4578 19.0658Z" fill="#256FC7"/>
<path d="M55.9403 20.9346H23.3123C23.215 20.9337 23.1216 20.8964 23.0506 20.83L21.7945 19.6262C21.7229 19.5549 21.6826 19.4581 21.6824 19.3571V15.0356C21.6826 14.9345 21.7229 14.8377 21.7945 14.7664L23.0506 13.5627C23.1216 13.4963 23.215 13.4589 23.3123 13.458H55.9403C56.0375 13.4589 56.1309 13.4963 56.202 13.5627L57.4581 14.7664C57.5296 14.8377 57.57 14.9345 57.5702 15.0356V19.3571C57.57 19.4581 57.5296 19.5549 57.4581 19.6262L56.202 20.83C56.1309 20.8964 56.0375 20.9337 55.9403 20.9346ZM23.4618 20.187H55.7908L56.8225 19.2001V15.1926L55.7908 14.2057H23.4618L22.43 15.1926V19.2001L23.4618 20.187Z" fill="#256FC7"/>
<path d="M49.2261 68.4112L49.7195 67.8803V65.2037L49.2261 64.6729H32.2691L31.7756 65.2037V67.8803L32.2691 68.4112H49.2261Z" fill="white"/>
<path d="M49.2785 68.4108L49.7196 68.0444V66.1603L49.2785 65.7939H34.086L33.6448 66.1603V68.0444L34.086 68.4108H49.2785Z" fill="#CFE6FF"/>
<path d="M49.2262 68.7848H32.2691C32.2174 68.7843 32.1663 68.7734 32.1188 68.7529C32.0713 68.7324 32.0283 68.7025 31.9925 68.6652L31.4991 68.1343C31.4365 68.0644 31.4019 67.9739 31.4019 67.8801V65.2035C31.4019 65.1097 31.4365 65.0192 31.4991 64.9493L31.9925 64.4185C32.0283 64.3811 32.0713 64.3513 32.1188 64.3307C32.1663 64.3102 32.2174 64.2994 32.2691 64.2988H49.2262C49.2779 64.2994 49.329 64.3102 49.3765 64.3307C49.424 64.3513 49.467 64.3811 49.5028 64.4185L49.9963 64.9493C50.0588 65.0192 50.0934 65.1097 50.0934 65.2035V67.8801C50.0934 67.9739 50.0588 68.0644 49.9963 68.1343L49.5028 68.6652C49.467 68.7025 49.424 68.7324 49.3765 68.7529C49.329 68.7734 49.2779 68.7843 49.2262 68.7848ZM32.4336 68.0371H49.0617L49.3458 67.7381V65.3456L49.0617 65.0465H32.4336L32.1495 65.3456V67.7381L32.4336 68.0371Z" fill="#256FC7"/>
<path d="M45.4879 72.1495L45.9813 71.6186V68.942L45.4879 68.4111H28.5308L28.0374 68.942V71.6186L28.5308 72.1495H45.4879Z" fill="white"/>
<path d="M45.5402 72.149L45.9813 71.7827V69.8986L45.5402 69.5322H30.3476L29.9065 69.8986V71.7827L30.3476 72.149H45.5402Z" fill="#CFE6FF"/>
<path d="M45.4879 72.5231H28.5309C28.4792 72.5226 28.4281 72.5117 28.3806 72.4912C28.333 72.4706 28.2901 72.4408 28.2543 72.4035L27.7608 71.8726C27.6983 71.8027 27.6637 71.7122 27.6636 71.6184V68.9418C27.6637 68.848 27.6983 68.7575 27.7608 68.6876L28.2543 68.1567C28.2901 68.1194 28.333 68.0896 28.3806 68.069C28.4281 68.0485 28.4792 68.0376 28.5309 68.0371H45.4879C45.5397 68.0376 45.5908 68.0485 45.6383 68.069C45.6858 68.0896 45.7288 68.1194 45.7646 68.1567L46.258 68.6876C46.3206 68.7575 46.3552 68.848 46.3552 68.9418V71.6184C46.3552 71.7122 46.3206 71.8027 46.258 71.8726L45.7646 72.4035C45.7288 72.4408 45.6858 72.4706 45.6383 72.4912C45.5908 72.5117 45.5397 72.5226 45.4879 72.5231ZM28.6954 71.7754H45.3235L45.6076 71.4764V69.0838L45.3235 68.7848H28.6954L28.4113 69.0838V71.4764L28.6954 71.7754Z" fill="#256FC7"/>
<path d="M36.6878 65.0689L37.0018 64.4185L36.2018 61.854L35.5812 61.4951L19.3794 66.5269L19.0654 67.1774L19.8654 69.7344L20.4859 70.0932L36.6878 65.0689Z" fill="white"/>
<path d="M36.7328 65.0538L37.0468 64.5679L36.486 62.7735L35.9627 62.5566L21.4505 67.0576L21.1365 67.5361L21.6973 69.3305L22.2281 69.5548L36.7328 65.0538Z" fill="#CFE6FF"/>
<path d="M20.486 70.4673C20.4211 70.4668 20.3571 70.4514 20.2991 70.4224L19.6785 70.0635C19.5956 70.0159 19.534 69.9383 19.5065 69.8467L18.6916 67.2897C18.662 67.2024 18.662 67.1078 18.6916 67.0206L19.0056 66.3701C19.027 66.3236 19.058 66.2821 19.0967 66.2486C19.1354 66.2151 19.1808 66.1902 19.2299 66.1757L35.4318 61.1514C35.4773 61.1295 35.5271 61.1182 35.5776 61.1182C35.628 61.1182 35.6779 61.1295 35.7234 61.1514L36.3514 61.5103C36.4334 61.5555 36.4949 61.6304 36.5234 61.7196L37.3832 64.2991C37.4164 64.3883 37.4164 64.4865 37.3832 64.5757L37.0692 65.2262C37.0467 65.2719 37.0152 65.3127 36.9767 65.3461C36.9382 65.3795 36.8933 65.4048 36.8449 65.4206L20.5981 70.4523L20.486 70.4673ZM20.1869 69.4878L20.5458 69.6897L36.4336 64.7626L36.6131 64.3888L35.8654 62.1084L35.514 61.9065L19.6486 66.8336L19.4692 67.2075L20.1869 69.4878Z" fill="#256FC7"/>
<path d="M43.4169 59.0875L43.7309 58.437L42.9309 55.8726L42.3103 55.5137L26.1085 60.5454L25.7944 61.1959L26.587 63.7529L27.215 64.1118L43.4169 59.0875Z" fill="white"/>
<path d="M43.4617 59.0724L43.7758 58.5864L43.215 56.792L42.6916 56.5752L28.1795 61.0761L27.8655 61.5546L28.4262 63.349L28.9571 63.5733L43.4617 59.0724Z" fill="#CFE6FF"/>
<path d="M27.2151 64.4858C27.1501 64.4853 27.0862 64.47 27.0281 64.441L26.4076 64.0821C26.3246 64.0345 26.2631 63.9569 26.2356 63.8653L25.4207 61.3083C25.391 61.221 25.391 61.1264 25.4207 61.0391L25.7347 60.3886C25.756 60.3421 25.7871 60.3007 25.8258 60.2672C25.8645 60.2336 25.9099 60.2088 25.959 60.1942L42.1609 55.17C42.2063 55.1481 42.2562 55.1367 42.3066 55.1367C42.3571 55.1367 42.4069 55.1481 42.4524 55.17L43.0805 55.5288C43.1624 55.5741 43.224 55.649 43.2524 55.7382L44.1123 58.3176C44.1455 58.4068 44.1455 58.505 44.1123 58.5943L43.7982 59.2447C43.7757 59.2905 43.7443 59.3312 43.7058 59.3646C43.6672 59.398 43.6224 59.4233 43.5739 59.4391L27.3272 64.4709L27.2151 64.4858ZM26.916 63.5064L27.2749 63.7083L43.1627 58.7812L43.3422 58.4073L42.5945 56.127L42.2431 55.9251L26.3777 60.8522L26.1982 61.226L26.916 63.5064Z" fill="#256FC7"/>
<path d="M56.4708 71.6637L57.0989 71.3123L57.9213 68.7627L57.6148 68.1048L41.4727 62.916L40.8447 63.2674L40.0222 65.8169L40.3288 66.4749L56.4708 71.6637Z" fill="white"/>
<path d="M56.5233 71.6867L57.0542 71.4624L57.6299 69.6755L57.3233 69.1895L42.856 64.5391L42.3252 64.7559L41.7495 66.5428L42.056 67.0288L56.5233 71.6867Z" fill="#CFE6FF"/>
<path d="M56.4711 72.0376C56.4341 72.0449 56.396 72.0449 56.359 72.0376L40.2094 66.804C40.161 66.7882 40.1161 66.7629 40.0776 66.7295C40.0391 66.6961 40.0076 66.6553 39.9851 66.6096L39.6786 65.9516C39.6452 65.865 39.6452 65.7691 39.6786 65.6825L40.501 63.1255C40.5295 63.0363 40.591 62.9614 40.673 62.9161L41.301 62.5647C41.3483 62.5446 41.3992 62.5342 41.4506 62.5342C41.502 62.5342 41.5528 62.5446 41.6001 62.5647L57.7496 67.7984C57.7981 67.8141 57.8429 67.8395 57.8815 67.8728C57.92 67.9062 57.9514 67.947 57.9739 67.9928L58.2805 68.6507C58.3139 68.7373 58.3139 68.8333 58.2805 68.9199L57.458 71.4769C57.4296 71.5661 57.3681 71.641 57.2861 71.6862L56.658 72.0376C56.5966 72.0522 56.5326 72.0522 56.4711 72.0376ZM40.5982 66.1685L56.4337 71.2601L56.8225 71.0283L57.5702 68.7853L57.3908 68.4115L41.5104 63.3199L41.1216 63.5516L40.3739 65.7946L40.5982 66.1685Z" fill="#256FC7"/>
<path d="M51.9924 65.7945C56.2992 65.7945 59.7906 62.3032 59.7906 57.9964C59.7906 53.6896 56.2992 50.1982 51.9924 50.1982C47.6856 50.1982 44.1943 53.6896 44.1943 57.9964C44.1943 62.3032 47.6856 65.7945 51.9924 65.7945Z" fill="#CFE6FF"/>
<path d="M51.9926 66.1684C50.3742 66.1699 48.7918 65.6913 47.4456 64.7931C46.0993 63.8949 45.0498 62.6175 44.4298 61.1226C43.8098 59.6277 43.6471 57.9825 43.9625 56.3951C44.2779 54.8078 45.057 53.3496 46.2014 52.2053C47.3458 51.0609 48.8039 50.2817 50.3913 49.9664C51.9786 49.651 53.6238 49.8136 55.1187 50.4336C56.6136 51.0536 57.891 52.1032 58.7892 53.4494C59.6874 54.7957 60.1661 56.3781 60.1646 57.9965C60.1606 60.1626 59.2984 62.2389 57.7667 63.7706C56.235 65.3023 54.1587 66.1645 51.9926 66.1684ZM51.9926 50.5647C50.5224 50.5632 49.0848 50.9978 47.8617 51.8136C46.6386 52.6293 45.6849 53.7894 45.1212 55.1473C44.5576 56.5051 44.4093 57.9996 44.6953 59.4418C44.9812 60.8839 45.6884 62.2088 46.7274 63.2489C47.7665 64.289 49.0907 64.9975 50.5325 65.2849C51.9744 65.5723 53.469 65.4255 54.8274 64.8633C56.1858 64.301 57.347 63.3484 58.1639 62.1261C58.9809 60.9038 59.4169 59.4667 59.4169 57.9965C59.4052 56.0304 58.6194 54.148 57.2299 52.757C55.8403 51.3661 53.9587 50.5784 51.9926 50.5647Z" fill="#256FC7"/>
<path d="M53.7346 65.7945C58.0414 65.7945 61.5327 62.3032 61.5327 57.9964C61.5327 53.6896 58.0414 50.1982 53.7346 50.1982C49.4278 50.1982 45.9365 53.6896 45.9365 57.9964C45.9365 62.3032 49.4278 65.7945 53.7346 65.7945Z" fill="white"/>
<path d="M53.7345 64.3519C54.9914 64.3519 56.2201 63.9792 57.2652 63.2809C58.3103 62.5825 59.1249 61.59 59.6059 60.4288C60.0869 59.2675 60.2127 57.9897 59.9675 56.7569C59.7223 55.5241 59.117 54.3918 58.2283 53.503C57.3395 52.6142 56.2071 52.0089 54.9743 51.7637C53.7415 51.5185 52.4637 51.6444 51.3025 52.1254C50.1412 52.6064 49.1487 53.4209 48.4504 54.466C47.7521 55.5111 47.3794 56.7398 47.3794 57.9967C47.3813 59.6816 48.0515 61.2969 49.2429 62.4883C50.4343 63.6797 52.0496 64.3499 53.7345 64.3519ZM50.2878 54.2883C50.7421 53.7381 51.3055 53.2879 51.9425 52.9662C52.5795 52.6445 53.2762 52.4582 53.9887 52.4192C54.7377 52.3853 55.486 52.5 56.1905 52.7566C56.895 53.0133 57.5417 53.4068 58.0934 53.9145C58.6536 54.4383 59.1035 55.0687 59.4167 55.7687C59.73 56.475 59.8918 57.2391 59.8918 58.0117C59.8918 58.7843 59.73 59.5484 59.4167 60.2547C58.9533 61.2832 58.1881 62.1465 57.2227 62.73C56.2572 63.3135 55.1372 63.5897 54.0111 63.522C53.306 63.4826 52.6165 63.2991 51.9851 62.9827C51.3536 62.6664 50.7938 62.2239 50.3401 61.6827C49.4804 60.6468 49.0099 59.3429 49.0099 57.9967C49.0099 56.6506 49.4804 55.3467 50.3401 54.3108L50.2878 54.2883Z" fill="#CFE6FF"/>
<path d="M52.0748 57.4652L52.5233 58.2129L55.514 56.4858H55.6262L55.4243 57.8316V57.9437L53.3682 59.1325L53.1738 59.2447L51.9028 59.9923L49.9738 61.1064H49.8691L50.0635 59.7606V59.6484L51.0579 59.0652L51.2523 58.9531L50.1906 57.1213V57.0092L55.828 53.7568H55.9402L55.7308 55.0952V55.2073L52.1047 57.3082L52.0748 57.4652ZM52.142 60.5157L52.957 61.9363H53.0691L57.6897 59.2671V59.155L57.9065 57.8092H57.7944L53.6972 60.1718H53.585L53.4056 59.8129L52.142 60.5157Z" fill="#256FC7"/>
<path d="M53.7345 66.1684C52.1161 66.1699 50.5337 65.6913 49.1874 64.7931C47.8412 63.8949 46.7916 62.6175 46.1716 61.1226C45.5516 59.6277 45.389 57.9825 45.7044 56.3951C46.0197 54.8078 46.7989 53.3496 47.9433 52.2053C49.0876 51.0609 50.5458 50.2817 52.1331 49.9664C53.7205 49.651 55.3657 49.8136 56.8606 50.4336C58.3555 51.0536 59.6329 52.1032 60.5311 53.4494C61.4293 54.7957 61.9079 56.3781 61.9064 57.9965C61.9025 60.1626 61.0402 62.2389 59.5086 63.7706C57.9769 65.3023 55.9006 66.1645 53.7345 66.1684ZM53.7345 50.5647C52.2643 50.5632 50.8267 50.9978 49.6036 51.8136C48.3804 52.6293 47.4267 53.7894 46.8631 55.1473C46.2995 56.5051 46.1512 57.9996 46.4371 59.4418C46.723 60.8839 47.4302 62.2088 48.4693 63.2489C49.5084 64.289 50.8326 64.9975 52.2744 65.2849C53.7162 65.5723 55.2109 65.4255 56.5693 64.8633C57.9277 64.301 59.0888 63.3484 59.9058 62.1261C60.7227 60.9038 61.1588 59.4667 61.1588 57.9965C61.147 56.0304 60.3613 54.148 58.9717 52.757C57.5821 51.3661 55.7006 50.5784 53.7345 50.5647Z" fill="#256FC7"/>
<path d="M53.7346 64.7255C52.4037 64.7255 51.1027 64.3309 49.9962 63.5915C48.8896 62.8521 48.0271 61.8012 47.5178 60.5716C47.0085 59.3421 46.8753 57.9891 47.1349 56.6838C47.3946 55.3785 48.0354 54.1795 48.9765 53.2384C49.9176 52.2974 51.1165 51.6565 52.4218 51.3969C53.7271 51.1372 55.0801 51.2705 56.3097 51.7798C57.5392 52.2891 58.5901 53.1516 59.3295 54.2581C60.0689 55.3647 60.4636 56.6657 60.4636 57.9965C60.4636 59.7812 59.7546 61.4927 58.4927 62.7546C57.2308 64.0166 55.5192 64.7255 53.7346 64.7255ZM53.7346 52.0152C52.5516 52.0152 51.3952 52.366 50.4116 53.0233C49.4279 53.6805 48.6613 54.6147 48.2086 55.7076C47.7559 56.8005 47.6374 58.0032 47.8682 59.1634C48.099 60.3237 48.6687 61.3895 49.5052 62.226C50.3417 63.0625 51.4074 63.6321 52.5677 63.8629C53.728 64.0937 54.9306 63.9753 56.0235 63.5226C57.1165 63.0698 58.0506 62.3032 58.7079 61.3196C59.3651 60.336 59.7159 59.1795 59.7159 57.9965C59.7159 56.4102 59.0857 54.8888 57.964 53.7671C56.8423 52.6454 55.3209 52.0152 53.7346 52.0152Z" fill="#256FC7"/>
<path d="M51.4394 46.7293H28.5609C28.5609 46.0015 28.2718 45.3036 27.7572 44.789C27.2426 44.2744 26.5447 43.9853 25.8169 43.9853V33.69C26.1733 33.701 26.5283 33.6403 26.8608 33.5115C27.1933 33.3827 27.4965 33.1884 27.7524 32.9401C28.0084 32.6918 28.2118 32.3947 28.3507 32.0663C28.4896 31.7379 28.561 31.3849 28.5609 31.0283H51.4394C51.4394 31.7561 51.7285 32.454 52.243 32.9686C52.7576 33.4832 53.4556 33.7722 54.1833 33.7722V43.9853C53.4556 43.9853 52.7576 44.2744 52.243 44.789C51.7285 45.3036 51.4394 46.0015 51.4394 46.7293Z" fill="#CFE6FF"/>
<path d="M54.1831 43.985V34.0485C53.8093 33.7569 53.8093 34.3925 53.3681 33.6373C52.9072 33.5004 52.4914 33.2422 52.1644 32.8896H30.8635C30.8636 33.2037 30.8007 33.5146 30.6785 33.8039C30.5564 34.0932 30.3774 34.355 30.1522 34.5739C29.9271 34.7929 29.6602 34.9644 29.3676 35.0783C29.075 35.1922 28.7624 35.2463 28.4485 35.2373V44.3139C29.089 44.3139 29.7032 44.5684 30.1561 45.0213C30.609 45.4742 30.8635 46.0884 30.8635 46.7289H51.4392C51.4392 46.0012 51.7283 45.3032 52.2428 44.7887C52.7574 44.2741 53.4554 43.985 54.1831 43.985Z" fill="white"/>
<path d="M49.7197 39.626H41.4954C41.289 39.626 41.1216 39.7933 41.1216 39.9998C41.1216 40.2063 41.289 40.3736 41.4954 40.3736H49.7197C49.9262 40.3736 50.0936 40.2063 50.0936 39.9998C50.0936 39.7933 49.9262 39.626 49.7197 39.626Z" fill="#256FC7"/>
<path d="M51.4394 47.1029H28.5609C28.4617 47.1029 28.3666 47.0635 28.2965 46.9934C28.2264 46.9233 28.187 46.8282 28.187 46.7291C28.187 46.1005 27.9373 45.4976 27.4928 45.0532C27.0484 44.6087 26.4455 44.359 25.8169 44.359C25.7156 44.3591 25.6181 44.3205 25.5444 44.2509C25.4707 44.1814 25.4264 44.0863 25.4207 43.9851V33.6898C25.4209 33.5888 25.4612 33.492 25.5328 33.4207C25.6066 33.3538 25.7024 33.3165 25.802 33.316C26.1122 33.3266 26.4215 33.2752 26.7117 33.1648C27.0018 33.0544 27.267 32.8872 27.4917 32.673C27.714 32.461 27.8905 32.2057 28.0101 31.9227C28.1297 31.6398 28.1899 31.3353 28.187 31.0281C28.187 30.929 28.2264 30.8339 28.2965 30.7638C28.3666 30.6937 28.4617 30.6543 28.5609 30.6543H51.4394C51.5385 30.6543 51.6336 30.6937 51.7037 30.7638C51.7738 30.8339 51.8132 30.929 51.8132 31.0281C51.8132 31.6567 52.0629 32.2596 52.5074 32.704C52.9518 33.1485 53.5547 33.3982 54.1833 33.3982C54.2846 33.3981 54.3821 33.4367 54.4558 33.5062C54.5295 33.5758 54.5738 33.6709 54.5795 33.7721V43.9851C54.5795 44.0843 54.5402 44.1794 54.47 44.2495C54.3999 44.3196 54.3049 44.359 54.2057 44.359C53.8929 44.357 53.5827 44.4168 53.293 44.5349C53.0033 44.6531 52.7397 44.8272 52.5175 45.0474C52.2952 45.2676 52.1186 45.5295 51.9977 45.818C51.8769 46.1066 51.8142 46.4162 51.8132 46.7291C51.8132 46.8282 51.7738 46.9233 51.7037 46.9934C51.6336 47.0635 51.5385 47.1029 51.4394 47.1029ZM28.9122 46.3552H51.088C51.1726 45.6591 51.4895 45.0119 51.9874 44.5181C52.4853 44.0242 53.1351 43.7127 53.8319 43.6337V34.1235C53.1356 34.0432 52.4865 33.7313 51.9888 33.2377C51.4912 32.7441 51.1739 32.0976 51.088 31.402H28.9122C28.8251 32.0905 28.5057 32.7288 28.0068 33.2114C27.5079 33.6939 26.8594 33.9919 26.1683 34.0562V43.6337C26.8646 43.714 27.5137 44.0259 28.0114 44.5195C28.509 45.0131 28.8263 45.6596 28.9122 46.3552Z" fill="#256FC7"/>
<path d="M46.7291 41.1221H41.4954C41.289 41.1221 41.1216 41.2894 41.1216 41.4959C41.1216 41.7024 41.289 41.8697 41.4954 41.8697H46.7291C46.9355 41.8697 47.1029 41.7024 47.1029 41.4959C47.1029 41.2894 46.9355 41.1221 46.7291 41.1221Z" fill="#256FC7"/>
<path d="M49.3459 36.6357H41.8693C41.4563 36.6357 41.1216 36.9705 41.1216 37.3834C41.1216 37.7963 41.4563 38.1311 41.8693 38.1311H49.3459C49.7588 38.1311 50.0936 37.7963 50.0936 37.3834C50.0936 36.9705 49.7588 36.6357 49.3459 36.6357Z" fill="#256FC7"/>
<path d="M35.7683 39.2075C35.4726 39.2075 35.1835 39.1198 34.9375 38.9554C34.6916 38.7911 34.5 38.5576 34.3868 38.2844C34.2736 38.0111 34.244 37.7105 34.3017 37.4204C34.3594 37.1303 34.5018 36.8639 34.711 36.6548C34.9201 36.4456 35.1865 36.3032 35.4766 36.2455C35.7666 36.1878 36.0673 36.2174 36.3405 36.3306C36.6138 36.4438 36.8473 36.6355 37.0116 36.8814C37.1759 37.1273 37.2636 37.4164 37.2636 37.7121C37.2636 38.1087 37.1061 38.4891 36.8257 38.7695C36.5452 39.0499 36.1649 39.2075 35.7683 39.2075ZM35.7683 36.9645C35.6204 36.9645 35.4759 37.0083 35.3529 37.0905C35.23 37.1726 35.1341 37.2894 35.0776 37.426C35.021 37.5626 35.0062 37.713 35.035 37.858C35.0639 38.003 35.1351 38.1362 35.2396 38.2408C35.3442 38.3454 35.4774 38.4166 35.6224 38.4454C35.7675 38.4743 35.9178 38.4595 36.0544 38.4029C36.191 38.3463 36.3078 38.2505 36.39 38.1275C36.4721 38.0046 36.516 37.86 36.516 37.7121C36.516 37.5138 36.4372 37.3237 36.297 37.1834C36.1568 37.0432 35.9666 36.9645 35.7683 36.9645Z" fill="#256FC7"/>
<path d="M38.3849 42.9462H33.1512C32.9529 42.9462 32.7628 42.8674 32.6226 42.7272C32.4823 42.587 32.4036 42.3968 32.4036 42.1985V41.1219C32.4019 40.9709 32.446 40.8229 32.5301 40.6975C32.6142 40.572 32.7343 40.475 32.8746 40.4191L35.4989 39.7612C35.675 39.7124 35.8611 39.7124 36.0372 39.7612L38.6241 40.4116C38.7714 40.4614 38.8996 40.5558 38.9907 40.6818C39.0818 40.8077 39.1314 40.959 39.1325 41.1144V42.1985C39.1325 42.3968 39.0538 42.587 38.9136 42.7272C38.7733 42.8674 38.5832 42.9462 38.3849 42.9462ZM35.7681 40.464H35.7082L33.1512 41.1219V42.1985H38.3849V41.1219L35.8279 40.4864L35.7681 40.464Z" fill="#256FC7"/>
</svg>
