<svg width="107" height="107" viewBox="0 0 107 107" fill="none" xmlns="http://www.w3.org/2000/svg">
<path d="M73.11 92.5H32.89C31.6565 92.5013 30.4349 92.2593 29.2951 91.7879C28.1552 91.3165 27.1195 90.6249 26.2473 89.7527C25.3751 88.8805 24.6835 87.8448 24.2121 86.705C23.7407 85.5651 23.4987 84.3435 23.5 83.11V35.42C23.4916 34.8912 23.693 34.3807 24.06 34L32.13 25.55C32.3697 25.3 32.5025 24.9664 32.5 24.62V22.5H73.5V24.65C73.4975 24.9964 73.6303 25.33 73.87 25.58L81.94 34C82.2998 34.3732 82.5005 34.8716 82.5 35.39V83.11C82.5013 84.3435 82.2593 85.5651 81.7879 86.705C81.3165 87.8448 80.6249 88.8805 79.7527 89.7527C78.8805 90.6249 77.8448 91.3165 76.705 91.7879C75.5651 92.2593 74.3435 92.5013 73.11 92.5Z" fill="#E8F2FE"/>
<path d="M73.87 25.58C73.6303 25.33 73.4975 24.9964 73.5 24.65V23.5H36.5V25.65C36.5025 25.9964 36.3697 26.33 36.13 26.58L28.06 35C27.7002 35.3732 27.4995 35.8716 27.5 36.39V84.11C27.5027 85.8483 27.9873 87.5517 28.9 89.0311C29.8127 90.5105 31.1177 91.7078 32.67 92.49H73.11C74.3435 92.4913 75.5651 92.2493 76.705 91.7779C77.8448 91.3065 78.8805 90.6149 79.7527 89.7427C80.6249 88.8705 81.3165 87.8348 81.7879 86.695C82.2593 85.5551 82.5013 84.3335 82.5 83.1V35.42C82.5084 34.8912 82.3071 34.3807 81.94 34L73.87 25.58Z" fill="white"/>
<path d="M73.11 93H32.89C30.2686 92.9947 27.7561 91.951 25.9026 90.0975C24.049 88.2439 23.0053 85.7314 23 83.11V35.42C23.0002 34.7744 23.2512 34.1541 23.7 33.69L31.77 25.24C31.9189 25.0797 32.0012 24.8688 32 24.65V22.5C32 22.3674 32.0527 22.2402 32.1464 22.1464C32.2402 22.0527 32.3674 22 32.5 22H73.5C73.6326 22 73.7598 22.0527 73.8536 22.1464C73.9473 22.2402 74 22.3674 74 22.5V24.65C73.9988 24.8688 74.0811 25.0797 74.23 25.24L82.3 33.69C82.7488 34.1541 82.9998 34.7744 83 35.42V83.11C82.9947 85.7314 81.951 88.2439 80.0975 90.0975C78.2439 91.951 75.7314 92.9947 73.11 93ZM33 23V24.65C33.0012 25.1264 32.8185 25.5849 32.49 25.93L24.42 34.38C24.1593 34.6487 24.0094 35.0057 24 35.38V83.11C24.0026 85.467 24.9401 87.7266 26.6067 89.3933C28.2734 91.0599 30.533 91.9974 32.89 92H73.11C75.467 91.9974 77.7266 91.0599 79.3933 89.3933C81.0599 87.7266 81.9974 85.467 82 83.11V35.42C81.9906 35.0457 81.8407 34.6887 81.58 34.42L73.51 25.97C73.1718 25.615 72.9883 25.1402 73 24.65V23H33Z" fill="#256FC7"/>
<path d="M74.82 23.5H31.18L29.5 21.89V16.11L31.18 14.5H74.82L76.5 16.11V21.89L74.82 23.5Z" fill="white"/>
<path d="M34.73 17L33.33 18.34V23.16L33.69 23.5H74.82L76.5 21.89V18.34L75.1 17H34.73Z" fill="#CFE6FF"/>
<path d="M35.5 21.5C35.3674 21.5 35.2402 21.4473 35.1464 21.3536C35.0527 21.2598 35 21.1326 35 21V18C35 17.8674 35.0527 17.7402 35.1464 17.6464C35.2402 17.5527 35.3674 17.5 35.5 17.5C35.6326 17.5 35.7598 17.5527 35.8536 17.6464C35.9473 17.7402 36 17.8674 36 18V21C36 21.1326 35.9473 21.2598 35.8536 21.3536C35.7598 21.4473 35.6326 21.5 35.5 21.5Z" fill="#256FC7"/>
<path d="M39.5 21.5C39.3674 21.5 39.2402 21.4473 39.1464 21.3536C39.0527 21.2598 39 21.1326 39 21V18C39 17.8674 39.0527 17.7402 39.1464 17.6464C39.2402 17.5527 39.3674 17.5 39.5 17.5C39.6326 17.5 39.7598 17.5527 39.8536 17.6464C39.9473 17.7402 40 17.8674 40 18V21C40 21.1326 39.9473 21.2598 39.8536 21.3536C39.7598 21.4473 39.6326 21.5 39.5 21.5Z" fill="#256FC7"/>
<path d="M43.5 21.5C43.3674 21.5 43.2402 21.4473 43.1464 21.3536C43.0527 21.2598 43 21.1326 43 21V18C43 17.8674 43.0527 17.7402 43.1464 17.6464C43.2402 17.5527 43.3674 17.5 43.5 17.5C43.6326 17.5 43.7598 17.5527 43.8536 17.6464C43.9473 17.7402 44 17.8674 44 18V21C44 21.1326 43.9473 21.2598 43.8536 21.3536C43.7598 21.4473 43.6326 21.5 43.5 21.5Z" fill="#256FC7"/>
<path d="M47.5 21.5C47.3674 21.5 47.2402 21.4473 47.1464 21.3536C47.0527 21.2598 47 21.1326 47 21V18C47 17.8674 47.0527 17.7402 47.1464 17.6464C47.2402 17.5527 47.3674 17.5 47.5 17.5C47.6326 17.5 47.7598 17.5527 47.8536 17.6464C47.9473 17.7402 48 17.8674 48 18V21C48 21.1326 47.9473 21.2598 47.8536 21.3536C47.7598 21.4473 47.6326 21.5 47.5 21.5Z" fill="#256FC7"/>
<path d="M51.5 21.5C51.3674 21.5 51.2402 21.4473 51.1464 21.3536C51.0527 21.2598 51 21.1326 51 21V18C51 17.8674 51.0527 17.7402 51.1464 17.6464C51.2402 17.5527 51.3674 17.5 51.5 17.5C51.6326 17.5 51.7598 17.5527 51.8536 17.6464C51.9473 17.7402 52 17.8674 52 18V21C52 21.1326 51.9473 21.2598 51.8536 21.3536C51.7598 21.4473 51.6326 21.5 51.5 21.5Z" fill="#256FC7"/>
<path d="M55.5 21.5C55.3674 21.5 55.2402 21.4473 55.1464 21.3536C55.0527 21.2598 55 21.1326 55 21V18C55 17.8674 55.0527 17.7402 55.1464 17.6464C55.2402 17.5527 55.3674 17.5 55.5 17.5C55.6326 17.5 55.7598 17.5527 55.8536 17.6464C55.9473 17.7402 56 17.8674 56 18V21C56 21.1326 55.9473 21.2598 55.8536 21.3536C55.7598 21.4473 55.6326 21.5 55.5 21.5Z" fill="#256FC7"/>
<path d="M59.5 21.5C59.3674 21.5 59.2402 21.4473 59.1464 21.3536C59.0527 21.2598 59 21.1326 59 21V18C59 17.8674 59.0527 17.7402 59.1464 17.6464C59.2402 17.5527 59.3674 17.5 59.5 17.5C59.6326 17.5 59.7598 17.5527 59.8536 17.6464C59.9473 17.7402 60 17.8674 60 18V21C60 21.1326 59.9473 21.2598 59.8536 21.3536C59.7598 21.4473 59.6326 21.5 59.5 21.5Z" fill="#256FC7"/>
<path d="M63.5 21.5C63.3674 21.5 63.2402 21.4473 63.1464 21.3536C63.0527 21.2598 63 21.1326 63 21V18C63 17.8674 63.0527 17.7402 63.1464 17.6464C63.2402 17.5527 63.3674 17.5 63.5 17.5C63.6326 17.5 63.7598 17.5527 63.8536 17.6464C63.9473 17.7402 64 17.8674 64 18V21C64 21.1326 63.9473 21.2598 63.8536 21.3536C63.7598 21.4473 63.6326 21.5 63.5 21.5Z" fill="#256FC7"/>
<path d="M67.5 21.5C67.3674 21.5 67.2402 21.4473 67.1464 21.3536C67.0527 21.2598 67 21.1326 67 21V18C67 17.8674 67.0527 17.7402 67.1464 17.6464C67.2402 17.5527 67.3674 17.5 67.5 17.5C67.6326 17.5 67.7598 17.5527 67.8536 17.6464C67.9473 17.7402 68 17.8674 68 18V21C68 21.1326 67.9473 21.2598 67.8536 21.3536C67.7598 21.4473 67.6326 21.5 67.5 21.5Z" fill="#256FC7"/>
<path d="M71.5 21.5C71.3674 21.5 71.2402 21.4473 71.1464 21.3536C71.0527 21.2598 71 21.1326 71 21V18C71 17.8674 71.0527 17.7402 71.1464 17.6464C71.2402 17.5527 71.3674 17.5 71.5 17.5C71.6326 17.5 71.7598 17.5527 71.8536 17.6464C71.9473 17.7402 72 17.8674 72 18V21C72 21.1326 71.9473 21.2598 71.8536 21.3536C71.7598 21.4473 71.6326 21.5 71.5 21.5Z" fill="#256FC7"/>
<path d="M74.82 24H31.18C31.0499 23.9988 30.925 23.9488 30.83 23.86L29.15 22.25C29.0543 22.1546 29.0003 22.0251 29 21.89V16.11C29.0003 15.9749 29.0543 15.8454 29.15 15.75L30.83 14.14C30.925 14.0512 31.0499 14.0012 31.18 14H74.82C74.9501 14.0012 75.0749 14.0512 75.17 14.14L76.85 15.75C76.9457 15.8454 76.9997 15.9749 77 16.11V21.89C76.9997 22.0251 76.9457 22.1546 76.85 22.25L75.17 23.86C75.0749 23.9488 74.9501 23.9988 74.82 24ZM31.38 23H74.62L76 21.68V16.32L74.62 15H31.38L30 16.32V21.68L31.38 23Z" fill="#256FC7"/>
<path d="M65.84 87.5L66.5 86.79V83.21L65.84 82.5H43.16L42.5 83.21V86.79L43.16 87.5H65.84Z" fill="white"/>
<path d="M65.91 87.5L66.5 87.01V84.49L65.91 84H45.59L45 84.49V87.01L45.59 87.5H65.91Z" fill="#CFE6FF"/>
<path d="M65.84 88H43.16C43.0908 87.9993 43.0224 87.9848 42.9589 87.9573C42.8953 87.9298 42.8379 87.89 42.79 87.84L42.13 87.13C42.0463 87.0365 42 86.9155 42 86.79V83.21C42 83.0845 42.0463 82.9635 42.13 82.87L42.79 82.16C42.8379 82.11 42.8953 82.0702 42.9589 82.0427C43.0224 82.0152 43.0908 82.0007 43.16 82H65.84C65.9092 82.0007 65.9776 82.0152 66.0411 82.0427C66.1047 82.0702 66.1621 82.11 66.21 82.16L66.87 82.87C66.9537 82.9635 67 83.0845 67 83.21V86.79C67 86.9155 66.9537 87.0365 66.87 87.13L66.21 87.84C66.1621 87.89 66.1047 87.9298 66.0411 87.9573C65.9776 87.9848 65.9092 87.9993 65.84 88ZM43.38 87H65.62L66 86.6V83.4L65.62 83H43.38L43 83.4V86.6L43.38 87Z" fill="#256FC7"/>
<path d="M60.84 92.5L61.5 91.79V88.21L60.84 87.5H38.16L37.5 88.21V91.79L38.16 92.5H60.84Z" fill="white"/>
<path d="M60.91 92.5L61.5 92.01V89.49L60.91 89H40.59L40 89.49V92.01L40.59 92.5H60.91Z" fill="#CFE6FF"/>
<path d="M60.84 93H38.16C38.0908 92.9993 38.0224 92.9848 37.9589 92.9573C37.8953 92.9298 37.8379 92.89 37.79 92.84L37.13 92.13C37.0463 92.0365 37 91.9155 37 91.79V88.21C37 88.0845 37.0463 87.9635 37.13 87.87L37.79 87.16C37.8379 87.11 37.8953 87.0702 37.9589 87.0427C38.0224 87.0152 38.0908 87.0007 38.16 87H60.84C60.9092 87.0007 60.9776 87.0152 61.0411 87.0427C61.1047 87.0702 61.1621 87.11 61.21 87.16L61.87 87.87C61.9537 87.9635 62 88.0845 62 88.21V91.79C62 91.9155 61.9537 92.0365 61.87 92.13L61.21 92.84C61.1621 92.89 61.1047 92.9298 61.0411 92.9573C60.9776 92.9848 60.9092 92.9993 60.84 93ZM38.38 92H60.62L61 91.6V88.4L60.62 88H38.38L38 88.4V91.6L38.38 92Z" fill="#256FC7"/>
<path d="M49.0701 83.0299L49.4901 82.1599L48.4201 78.7299L47.5901 78.2499L25.9201 84.9799L25.5001 85.8499L26.5701 89.2699L27.4001 89.7499L49.0701 83.0299Z" fill="white"/>
<path d="M49.1301 83.0101L49.5501 82.3601L48.8001 79.9601L48.1001 79.6701L28.6901 85.6901L28.2701 86.3301L29.0201 88.7301L29.7301 89.0301L49.1301 83.0101Z" fill="#CFE6FF"/>
<path d="M27.4 90.25C27.3132 90.2493 27.2277 90.2288 27.15 90.19L26.32 89.71C26.2091 89.6463 26.1267 89.5425 26.09 89.42L25 86C24.9604 85.8833 24.9604 85.7567 25 85.64L25.42 84.77C25.4486 84.7078 25.4901 84.6524 25.5419 84.6075C25.5936 84.5627 25.6543 84.5294 25.72 84.51L47.39 77.79C47.4508 77.7607 47.5175 77.7455 47.585 77.7455C47.6525 77.7455 47.7191 77.7607 47.78 77.79L48.62 78.27C48.7296 78.3305 48.8119 78.4307 48.85 78.55L50 82C50.0444 82.1193 50.0444 82.2507 50 82.37L49.58 83.24C49.5499 83.3012 49.5079 83.3557 49.4563 83.4004C49.4048 83.445 49.3448 83.4789 49.28 83.5L27.55 90.23L27.4 90.25ZM27 88.94L27.48 89.21L48.73 82.62L48.97 82.12L47.97 79.07L47.5 78.8L26.28 85.39L26.04 85.89L27 88.94Z" fill="#256FC7"/>
<path d="M58.0701 75.0299L58.4901 74.1599L57.4201 70.7299L56.5901 70.2499L34.9201 76.9799L34.5001 77.8499L35.5601 81.2699L36.4001 81.7499L58.0701 75.0299Z" fill="white"/>
<path d="M58.1301 75.0101L58.5501 74.3601L57.8001 71.9601L57.1001 71.6701L37.6901 77.6901L37.2701 78.3301L38.0201 80.7301L38.7301 81.0301L58.1301 75.0101Z" fill="#CFE6FF"/>
<path d="M36.4 82.25C36.3132 82.2493 36.2277 82.2288 36.15 82.19L35.32 81.71C35.2091 81.6463 35.1267 81.5425 35.09 81.42L34 78C33.9604 77.8833 33.9604 77.7567 34 77.64L34.42 76.77C34.4486 76.7078 34.4901 76.6524 34.5419 76.6075C34.5936 76.5627 34.6543 76.5294 34.72 76.51L56.39 69.79C56.4508 69.7607 56.5175 69.7455 56.585 69.7455C56.6525 69.7455 56.7191 69.7607 56.78 69.79L57.62 70.27C57.7296 70.3305 57.8119 70.4307 57.85 70.55L59 74C59.0444 74.1193 59.0444 74.2507 59 74.37L58.58 75.24C58.5499 75.3012 58.5079 75.3557 58.4563 75.4004C58.4048 75.445 58.3448 75.4789 58.28 75.5L36.55 82.23L36.4 82.25ZM36 80.94L36.48 81.21L57.73 74.62L57.97 74.12L56.97 71.07L56.5 70.8L35.28 77.39L35.04 77.89L36 80.94Z" fill="#256FC7"/>
<path d="M75.5299 91.8499L76.3699 91.3799L77.4699 87.9699L77.0599 87.0899L55.4699 80.1499L54.6299 80.6199L53.5299 84.0299L53.9399 84.9099L75.5299 91.8499Z" fill="white"/>
<path d="M75.5999 91.8801L76.3099 91.5801L77.0799 89.1901L76.6699 88.5401L57.3199 82.3201L56.6099 82.6101L55.8399 85.0001L56.2499 85.6501L75.5999 91.8801Z" fill="#CFE6FF"/>
<path d="M75.53 92.35C75.4805 92.3597 75.4295 92.3597 75.38 92.35L53.78 85.35C53.7151 85.3289 53.6552 85.2951 53.6037 85.2504C53.5521 85.2057 53.5101 85.1512 53.48 85.09L53.07 84.21C53.0253 84.0942 53.0253 83.9659 53.07 83.85L54.17 80.43C54.2081 80.3107 54.2904 80.2105 54.4 80.15L55.24 79.68C55.3032 79.6531 55.3713 79.6392 55.44 79.6392C55.5087 79.6392 55.5768 79.6531 55.64 79.68L77.24 86.68C77.3048 86.7011 77.3648 86.735 77.4163 86.7796C77.4679 86.8243 77.5099 86.8788 77.54 86.94L77.95 87.82C77.9947 87.9359 77.9947 88.0642 77.95 88.18L76.85 91.6C76.8119 91.7193 76.7296 91.8195 76.62 91.88L75.78 92.35C75.6978 92.3696 75.6122 92.3696 75.53 92.35ZM54.3 84.5L75.48 91.31L76 91L77 88L76.76 87.5L55.52 80.69L55 81L54 84L54.3 84.5Z" fill="#256FC7"/>
<path d="M69.54 84C75.3003 84 79.97 79.3303 79.97 73.57C79.97 67.8097 75.3003 63.14 69.54 63.14C63.7797 63.14 59.11 67.8097 59.11 73.57C59.11 79.3303 63.7797 84 69.54 84Z" fill="#CFE6FF"/>
<path d="M69.54 84.5C67.3754 84.502 65.2589 83.8618 63.4583 82.6604C61.6577 81.4591 60.2539 79.7506 59.4247 77.7512C58.5954 75.7517 58.3779 73.5512 58.7997 71.4282C59.2215 69.3051 60.2637 67.3548 61.7943 65.8243C63.3248 64.2937 65.2751 63.2515 67.3982 62.8297C69.5213 62.4079 71.7217 62.6254 73.7212 63.4547C75.7206 64.2839 77.4291 65.6877 78.6304 67.4883C79.8318 69.2889 80.472 71.4054 80.47 73.57C80.4647 76.4672 79.3115 79.2442 77.2628 81.2928C75.2142 83.3415 72.4372 84.4947 69.54 84.5ZM69.54 63.63C67.5736 63.628 65.6508 64.2093 64.0149 65.3003C62.379 66.3913 61.1034 67.9431 60.3495 69.7592C59.5956 71.5753 59.3974 73.5742 59.7798 75.5031C60.1622 77.4319 61.1081 79.204 62.4978 80.5951C63.8876 81.9862 65.6587 82.9339 67.5871 83.3183C69.5156 83.7026 71.5147 83.5064 73.3316 82.7543C75.1484 82.0023 76.7014 80.7282 77.7941 79.0934C78.8868 77.4586 79.47 75.5364 79.47 73.57C79.4543 70.9403 78.4034 68.4227 76.5448 66.5622C74.6862 64.7018 72.1697 63.6484 69.54 63.63Z" fill="#256FC7"/>
<path d="M71.87 84C77.6303 84 82.3 79.3303 82.3 73.57C82.3 67.8097 77.6303 63.14 71.87 63.14C66.1097 63.14 61.44 67.8097 61.44 73.57C61.44 79.3303 66.1097 84 71.87 84Z" fill="white"/>
<path d="M71.87 82.07C73.5511 82.07 75.1945 81.5715 76.5923 80.6375C77.9902 79.7035 79.0796 78.376 79.723 76.8228C80.3663 75.2696 80.5346 73.5606 80.2067 71.9117C79.8787 70.2629 79.0692 68.7484 77.8804 67.5596C76.6917 66.3709 75.1771 65.5613 73.5283 65.2333C71.8794 64.9054 70.1704 65.0737 68.6172 65.717C67.064 66.3604 65.7365 67.4499 64.8025 68.8477C63.8685 70.2455 63.37 71.8889 63.37 73.57C63.3726 75.8235 64.269 77.984 65.8625 79.5775C67.456 81.171 69.6165 82.0674 71.87 82.07ZM67.26 68.61C67.8677 67.874 68.6213 67.2719 69.4732 66.8417C70.3251 66.4114 71.257 66.1623 72.21 66.11C73.2118 66.0647 74.2126 66.2181 75.1549 66.5613C76.0971 66.9046 76.9621 67.4309 77.7 68.11C78.4493 68.8105 79.0511 69.6537 79.47 70.59C79.8889 71.5347 80.1054 72.5566 80.1054 73.59C80.1054 74.6234 79.8889 75.6453 79.47 76.59C78.8501 77.9656 77.8267 79.1202 76.5354 79.9007C75.2441 80.6812 73.7461 81.0506 72.24 80.96C71.2969 80.9073 70.3746 80.6619 69.5301 80.2387C68.6856 79.8156 67.9368 79.2239 67.33 78.5C66.1802 77.1144 65.5508 75.3705 65.5508 73.57C65.5508 71.7695 66.1802 70.0256 67.33 68.64L67.26 68.61Z" fill="#CFE6FF"/>
<path d="M69.65 72.86L70.25 73.86L74.25 71.55H74.4L74.13 73.35V73.5L71.38 75.09L71.12 75.24L69.42 76.24L66.84 77.73H66.7L66.96 75.93V75.78L68.29 75L68.55 74.85L67.13 72.4V72.25L74.67 67.9H74.82L74.54 69.69V69.84L69.69 72.65L69.65 72.86ZM69.74 76.94L70.83 78.84H70.98L77.16 75.27V75.12L77.45 73.32H77.3L71.82 76.48H71.67L71.43 76L69.74 76.94Z" fill="#256FC7"/>
<path d="M71.87 84.5C69.7054 84.502 67.5889 83.8618 65.7883 82.6604C63.9877 81.4591 62.5839 79.7506 61.7547 77.7512C60.9254 75.7517 60.7079 73.5512 61.1297 71.4282C61.5515 69.3051 62.5937 67.3548 64.1242 65.8243C65.6548 64.2937 67.6051 63.2515 69.7281 62.8297C71.8512 62.4079 74.0517 62.6254 76.0512 63.4547C78.0506 64.2839 79.7591 65.6877 80.9604 67.4883C82.1618 69.2889 82.802 71.4054 82.8 73.57C82.7947 76.4672 81.6414 79.2442 79.5928 81.2928C77.5442 83.3415 74.7672 84.4947 71.87 84.5ZM71.87 63.63C69.9036 63.628 67.9808 64.2093 66.3449 65.3003C64.709 66.3913 63.4334 67.9431 62.6795 69.7592C61.9256 71.5753 61.7274 73.5742 62.1098 75.5031C62.4922 77.4319 63.4381 79.204 64.8278 80.5951C66.2175 81.9862 67.9887 82.9339 69.9171 83.3183C71.8455 83.7026 73.8447 83.5064 75.6615 82.7543C77.4784 82.0023 79.0314 80.7282 80.1241 79.0934C81.2168 77.4586 81.8 75.5364 81.8 73.57C81.7843 70.9403 80.7333 68.4227 78.8748 66.5622C77.0162 64.7018 74.4996 63.6484 71.87 63.63Z" fill="#256FC7"/>
<path d="M71.87 82.57C70.09 82.57 68.3499 82.0422 66.8699 81.0532C65.3898 80.0643 64.2363 78.6587 63.5551 77.0142C62.8739 75.3696 62.6957 73.56 63.0429 71.8142C63.3902 70.0684 64.2474 68.4647 65.506 67.206C66.7647 65.9474 68.3684 65.0902 70.1142 64.7429C71.86 64.3957 73.6696 64.5739 75.3141 65.2551C76.9587 65.9363 78.3643 67.0898 79.3532 68.5699C80.3422 70.0499 80.87 71.79 80.87 73.57C80.87 75.957 79.9218 78.2461 78.234 79.934C76.5461 81.6218 74.257 82.57 71.87 82.57ZM71.87 65.57C70.2878 65.57 68.741 66.0392 67.4254 66.9183C66.1098 67.7973 65.0845 69.0467 64.479 70.5085C63.8735 71.9703 63.715 73.5789 64.0237 75.1307C64.3324 76.6826 65.0943 78.108 66.2131 79.2269C67.332 80.3457 68.7574 81.1076 70.3093 81.4163C71.8611 81.725 73.4697 81.5665 74.9315 80.961C76.3933 80.3555 77.6427 79.3302 78.5218 78.0146C79.4008 76.699 79.87 75.1523 79.87 73.57C79.87 71.4483 79.0271 69.4134 77.5269 67.9132C76.0266 66.4129 73.9917 65.57 71.87 65.57Z" fill="#256FC7"/>
<path d="M68.8 58.5H38.2C38.2 57.5267 37.8133 56.5932 37.1251 55.9049C36.4368 55.2167 35.5033 54.83 34.53 54.83V41.06C35.0067 41.0747 35.4815 40.9935 35.9262 40.8212C36.3709 40.6489 36.7764 40.3891 37.1187 40.057C37.461 39.7249 37.7331 39.3275 37.9189 38.8882C38.1046 38.449 38.2002 37.9769 38.2 37.5H68.8C68.8 38.4733 69.1867 39.4068 69.8749 40.0951C70.5632 40.7833 71.4967 41.17 72.47 41.17V54.83C71.4967 54.83 70.5632 55.2167 69.8749 55.9049C69.1867 56.5932 68.8 57.5267 68.8 58.5Z" fill="#CFE6FF"/>
<path d="M72.47 54.83V41.54C71.97 41.15 71.97 42 71.38 40.99C70.7634 40.8069 70.2074 40.4615 69.77 39.99H41.28C41.2802 40.41 41.1961 40.8258 41.0327 41.2128C40.8693 41.5997 40.6299 41.95 40.3287 42.2427C40.0275 42.5355 39.6707 42.7649 39.2793 42.9173C38.8879 43.0697 38.4698 43.142 38.05 43.13V55.27C38.9066 55.27 39.7282 55.6103 40.3339 56.216C40.9397 56.8218 41.28 57.6433 41.28 58.5H68.8C68.8 57.5266 69.1866 56.5932 69.8749 55.9049C70.5632 55.2166 71.4966 54.83 72.47 54.83Z" fill="white"/>
<path d="M66.5 49H55.5C55.2239 49 55 49.2239 55 49.5C55 49.7761 55.2239 50 55.5 50H66.5C66.7761 50 67 49.7761 67 49.5C67 49.2239 66.7761 49 66.5 49Z" fill="#256FC7"/>
<path d="M68.8 59H38.2C38.0674 59 37.9402 58.9473 37.8464 58.8536C37.7527 58.7598 37.7 58.6326 37.7 58.5C37.7 57.6593 37.366 56.853 36.7715 56.2585C36.177 55.664 35.3707 55.33 34.53 55.33C34.3945 55.3302 34.264 55.2785 34.1655 55.1855C34.0669 55.0925 34.0077 54.9653 34 54.83V41.06C34.0003 40.9249 34.0543 40.7954 34.15 40.7C34.2486 40.6105 34.3768 40.5607 34.51 40.56C34.925 40.5743 35.3386 40.5055 35.7267 40.3578C36.1148 40.2102 36.4695 39.9865 36.77 39.7C37.0674 39.4165 37.3034 39.075 37.4634 38.6965C37.6234 38.3181 37.7039 37.9108 37.7 37.5C37.7 37.3674 37.7527 37.2402 37.8464 37.1464C37.9402 37.0527 38.0674 37 38.2 37H68.8C68.9326 37 69.0598 37.0527 69.1536 37.1464C69.2473 37.2402 69.3 37.3674 69.3 37.5C69.3 38.3407 69.634 39.147 70.2285 39.7415C70.823 40.336 71.6293 40.67 72.47 40.67C72.6055 40.6698 72.736 40.7215 72.8345 40.8145C72.9331 40.9075 72.9923 41.0347 73 41.17V54.83C73 54.9626 72.9473 55.0898 72.8536 55.1836C72.7598 55.2773 72.6326 55.33 72.5 55.33C72.0816 55.3274 71.6667 55.4073 71.2792 55.5653C70.8918 55.7234 70.5393 55.9563 70.242 56.2508C69.9447 56.5453 69.7085 56.8955 69.5468 57.2815C69.3852 57.6675 69.3013 58.0816 69.3 58.5C69.3 58.6326 69.2473 58.7598 69.1536 58.8536C69.0598 58.9473 68.9326 59 68.8 59ZM38.67 58H68.33C68.4432 57.0689 68.8671 56.2033 69.533 55.5428C70.1989 54.8823 71.068 54.4656 72 54.36V41.64C71.0687 41.5327 70.2005 41.1154 69.5349 40.4553C68.8693 39.7951 68.4449 38.9304 68.33 38H38.67C38.5534 38.921 38.1262 39.7746 37.459 40.4201C36.7917 41.0655 35.9243 41.4641 35 41.55V54.36C35.9313 54.4673 36.7995 54.8846 37.4651 55.5447C38.1307 56.2049 38.5551 57.0696 38.67 58Z" fill="#256FC7"/>
<path d="M62.5 51H55.5C55.2239 51 55 51.2239 55 51.5C55 51.7761 55.2239 52 55.5 52H62.5C62.7761 52 63 51.7761 63 51.5C63 51.2239 62.7761 51 62.5 51Z" fill="#256FC7"/>
<path d="M66 45H56C55.4477 45 55 45.4477 55 46C55 46.5523 55.4477 47 56 47H66C66.5523 47 67 46.5523 67 46C67 45.4477 66.5523 45 66 45Z" fill="#256FC7"/>
<path d="M47.8401 48.4399C47.4445 48.4399 47.0578 48.3226 46.7289 48.1029C46.4 47.8831 46.1437 47.5708 45.9923 47.2053C45.841 46.8399 45.8013 46.4377 45.8785 46.0498C45.9557 45.6618 46.1462 45.3054 46.4259 45.0257C46.7056 44.746 47.0619 44.5555 47.4499 44.4784C47.8379 44.4012 48.24 44.4408 48.6055 44.5922C48.9709 44.7436 49.2833 44.9999 49.503 45.3288C49.7228 45.6577 49.8401 46.0444 49.8401 46.4399C49.8401 46.9704 49.6294 47.4791 49.2543 47.8542C48.8792 48.2292 48.3705 48.4399 47.8401 48.4399ZM47.8401 45.4399C47.6423 45.4399 47.449 45.4986 47.2845 45.6085C47.1201 45.7184 46.9919 45.8745 46.9162 46.0573C46.8405 46.24 46.8207 46.4411 46.8593 46.635C46.8979 46.829 46.9931 47.0072 47.133 47.1471C47.2728 47.2869 47.451 47.3821 47.645 47.4207C47.839 47.4593 48.04 47.4395 48.2228 47.3638C48.4055 47.2881 48.5617 47.16 48.6716 46.9955C48.7814 46.8311 48.8401 46.6377 48.8401 46.4399C48.8401 46.1747 48.7347 45.9204 48.5472 45.7328C48.3597 45.5453 48.1053 45.4399 47.8401 45.4399Z" fill="#256FC7"/>
<path d="M51.3399 53.44H44.3399C44.0747 53.44 43.8203 53.3346 43.6328 53.1471C43.4453 52.9596 43.3399 52.7052 43.3399 52.44V51C43.3377 50.798 43.3967 50.6001 43.5092 50.4323C43.6216 50.2645 43.7822 50.1347 43.9699 50.06L47.4799 49.18C47.7155 49.1148 47.9643 49.1148 48.1999 49.18L51.6599 50.05C51.8569 50.1165 52.0283 50.2428 52.1502 50.4113C52.272 50.5798 52.3384 50.7821 52.3399 50.99V52.44C52.3399 52.7052 52.2345 52.9596 52.047 53.1471C51.8595 53.3346 51.6051 53.44 51.3399 53.44ZM47.8399 50.12H47.7599L44.3399 51V52.44H51.3399V51L47.9199 50.15L47.8399 50.12Z" fill="#256FC7"/>
</svg>
