<svg width="80" height="80" viewBox="0 0 80 80" fill="none" xmlns="http://www.w3.org/2000/svg">
<path d="M80 0H0V80H80V0Z" fill="white"/>
<path d="M50.0935 31.7754H21.6823C19.2047 31.7754 17.1963 33.7838 17.1963 36.2614V57.9436C17.1963 60.4211 19.2047 62.4296 21.6823 62.4296H50.0935C52.571 62.4296 54.5795 60.4211 54.5795 57.9436V36.2614C54.5795 33.7838 52.571 31.7754 50.0935 31.7754Z" fill="white"/>
<path d="M50.8411 33.6445H22.8037C20.7391 33.6445 19.0654 35.3182 19.0654 37.3828V58.6913C19.0654 60.7559 20.7391 62.4296 22.8037 62.4296H50.8411C52.9057 62.4296 54.5794 60.7559 54.5794 58.6913V37.3828C54.5794 35.3182 52.9057 33.6445 50.8411 33.6445Z" fill="#F0F6FD"/>
<path d="M50.0935 62.8042H21.6823C20.394 62.8022 19.159 62.2896 18.248 61.3786C17.3371 60.4677 16.8244 59.2327 16.8224 57.9444V36.2622C16.8244 34.9739 17.3371 33.7389 18.248 32.8279C19.159 31.917 20.394 31.4043 21.6823 31.4023H50.0935C51.3818 31.4043 52.6167 31.917 53.5277 32.8279C54.4387 33.7389 54.9513 34.9739 54.9533 36.2622V57.9444C54.9513 59.2327 54.4387 60.4677 53.5277 61.3786C52.6167 62.2896 51.3818 62.8022 50.0935 62.8042V62.8042ZM21.6823 32.15C20.5923 32.152 19.5475 32.5859 18.7767 33.3566C18.006 34.1274 17.5721 35.1722 17.5701 36.2622V57.9444C17.5721 59.0344 18.006 60.0792 18.7767 60.8499C19.5475 61.6207 20.5923 62.0546 21.6823 62.0565H50.0935C51.1835 62.0546 52.2283 61.6207 52.999 60.8499C53.7698 60.0792 54.2037 59.0344 54.2056 57.9444V36.2622C54.2037 35.1722 53.7698 34.1274 52.999 33.3566C52.2283 32.5859 51.1835 32.152 50.0935 32.15H21.6823Z" fill="#256FC7"/>
<path d="M35.8729 46.7745C42.6861 46.7745 48.2093 41.2512 48.2093 34.438C48.2093 27.6248 42.6861 22.1016 35.8729 22.1016C29.0597 22.1016 23.5364 27.6248 23.5364 34.438C23.5364 41.2512 29.0597 46.7745 35.8729 46.7745Z" fill="#CFE6FF"/>
<path d="M35.8878 47.1481C33.374 47.1481 30.9166 46.4027 28.8264 45.006C26.7362 43.6094 25.1071 41.6243 24.1451 39.3018C23.1831 36.9793 22.9314 34.4237 23.4218 31.9582C23.9122 29.4926 25.1227 27.2279 26.9003 25.4503C28.6779 23.6727 30.9426 22.4622 33.4082 21.9718C35.8737 21.4813 38.4294 21.733 40.7519 22.6951C43.0744 23.6571 45.0594 25.2862 46.456 27.3764C47.8527 29.4666 48.5981 31.924 48.5981 34.4378C48.5981 37.8088 47.259 41.0417 44.8754 43.4253C42.4917 45.809 39.2588 47.1481 35.8878 47.1481V47.1481ZM35.8878 22.4752C33.5219 22.4752 31.209 23.1768 29.2418 24.4913C27.2745 25.8057 25.7412 27.674 24.8358 29.8599C23.9304 32.0458 23.6935 34.4511 24.1551 36.7716C24.6167 39.0921 25.756 41.2237 27.429 42.8967C29.102 44.5697 31.2335 45.709 33.554 46.1706C35.8746 46.6322 38.2799 46.3953 40.4657 45.4898C42.6516 44.5844 44.5199 43.0511 45.8344 41.0839C47.1489 39.1167 47.8505 36.8038 47.8505 34.4378C47.8505 31.2651 46.5901 28.2224 44.3467 25.979C42.1033 23.7356 39.0605 22.4752 35.8878 22.4752V22.4752Z" fill="#256FC7"/>
<path d="M38.1159 46.7745C44.9291 46.7745 50.4523 41.2512 50.4523 34.438C50.4523 27.6248 44.9291 22.1016 38.1159 22.1016C31.3026 22.1016 25.7794 27.6248 25.7794 34.438C25.7794 41.2512 31.3026 46.7745 38.1159 46.7745Z" fill="white"/>
<path d="M38.1308 24.7256C36.2085 24.7256 34.3293 25.2956 32.7309 26.3636C31.1325 27.4316 29.8867 28.9496 29.1511 30.7257C28.4154 32.5017 28.2229 34.456 28.598 36.3414C28.973 38.2268 29.8987 39.9587 31.258 41.318C32.6173 42.6773 34.3492 43.603 36.2346 43.9781C38.12 44.3531 40.0743 44.1606 41.8504 43.425C43.6264 42.6893 45.1444 41.4435 46.2124 39.8451C47.2804 38.2468 47.8505 36.3676 47.8505 34.4452C47.8505 31.8674 46.8264 29.3952 45.0036 27.5724C43.1809 25.7496 40.7086 24.7256 38.1308 24.7256ZM47.5065 34.4452C47.5067 35.6705 47.2521 36.8825 46.7589 38.0041C46.2483 39.103 45.5239 40.0892 44.628 40.905C42.8534 42.478 40.5282 43.2844 38.1607 43.148C37.0496 43.0804 35.9643 42.7846 34.9726 42.279C33.9808 41.7735 33.1038 41.0691 32.3962 40.2097C31.056 38.5802 30.3189 36.5382 30.3094 34.4284C30.2998 32.3185 31.0184 30.2699 32.3439 28.6284C33.05 27.7504 33.9326 27.0304 34.9347 26.5152C35.9367 26.0001 37.0358 25.7011 38.1607 25.6377C39.3452 25.5703 40.5314 25.7384 41.6505 26.1324C42.7695 26.5264 43.7994 27.1384 44.6804 27.9331C45.5753 28.7639 46.2947 29.7655 46.7962 30.8789C47.2678 32.0055 47.5044 33.2165 47.4916 34.4377L47.5065 34.4452Z" fill="#CFE6FF"/>
<path d="M35.5813 33.6449L36.2617 34.8336L40.8299 32.1495L41.0019 32.2019L40.6878 34.2579L40.643 34.4299L37.5103 36.2393L37.2037 36.4112L35.2673 37.5327L32.3215 39.2299L32.1495 39.215L32.4636 37.1589L32.5084 36.9869L34.0037 36.1047L34.2953 35.9402L32.6804 33.1364L32.7252 32.9645L41.3308 28L41.5028 28.0449L41.1888 30.0935L41.1439 30.2579L35.5963 33.4654L35.5813 33.6449ZM35.686 38.3028L36.9346 40.471L37.1065 40.5159L44.1645 36.4411L44.2093 36.2766L44.5458 34.2131L44.3738 34.1682L38.1308 37.772L37.9589 37.7271L37.6374 37.1664L35.686 38.3028Z" fill="#256FC7"/>
<path d="M38.1308 44.5316C36.1345 44.5316 34.1831 43.9397 32.5232 42.8306C30.8633 41.7215 29.5696 40.1451 28.8057 38.3008C28.0417 36.4564 27.8418 34.427 28.2313 32.4691C28.6208 30.5111 29.5821 28.7126 30.9937 27.301C32.4053 25.8894 34.2037 24.9281 36.1617 24.5387C38.1196 24.1492 40.1491 24.3491 41.9934 25.1131C43.8378 25.877 45.4141 27.1707 46.5232 28.8306C47.6323 30.4904 48.2243 32.4419 48.2243 34.4382C48.2203 37.1139 47.1556 39.6789 45.2636 41.571C43.3716 43.463 40.8066 44.5277 38.1308 44.5316ZM38.1308 25.0924C36.2824 25.0924 34.4755 25.6405 32.9386 26.6674C31.4017 27.6944 30.2038 29.154 29.4964 30.8617C28.7891 32.5694 28.604 34.4486 28.9646 36.2615C29.3252 38.0744 30.2153 39.7396 31.5223 41.0467C32.8294 42.3537 34.4946 43.2438 36.3075 43.6044C38.1204 43.965 39.9996 43.7799 41.7073 43.0726C43.415 42.3652 44.8746 41.1673 45.9016 39.6304C46.9285 38.0935 47.4766 36.2866 47.4766 34.4382C47.4746 31.9601 46.4894 29.5841 44.7371 27.8319C42.9849 26.0797 40.6089 25.0944 38.1308 25.0924V25.0924Z" fill="#256FC7"/>
<path d="M38.1308 47.1481C35.617 47.1481 33.1596 46.4027 31.0694 45.006C28.9792 43.6094 27.3501 41.6243 26.3881 39.3018C25.426 36.9793 25.1743 34.4237 25.6648 31.9582C26.1552 29.4926 27.3657 27.2279 29.1433 25.4503C30.9209 23.6727 33.1856 22.4622 35.6512 21.9718C38.1167 21.4813 40.6723 21.733 42.9948 22.6951C45.3173 23.6571 47.3024 25.2862 48.699 27.3764C50.0957 29.4666 50.8411 31.924 50.8411 34.4378C50.8411 37.8088 49.502 41.0417 47.1183 43.4253C44.7347 45.809 41.5018 47.1481 38.1308 47.1481ZM38.1308 22.4752C35.7648 22.4752 33.452 23.1768 31.4847 24.4913C29.5175 25.8057 27.9842 27.674 27.0788 29.8599C26.1734 32.0458 25.9365 34.4511 26.3981 36.7716C26.8596 39.0921 27.999 41.2237 29.672 42.8967C31.345 44.5697 33.4765 45.709 35.797 46.1706C38.1175 46.6322 40.5228 46.3953 42.7087 45.4898C44.8946 44.5844 46.7629 43.0511 48.0774 41.0839C49.3918 39.1167 50.0934 36.8038 50.0934 34.4378C50.0934 31.2651 48.8331 28.2224 46.5897 25.979C44.3462 23.7356 41.3035 22.4752 38.1308 22.4752V22.4752Z" fill="#256FC7"/>
<path d="M53.0841 37.0098H21.6823C19.2047 37.0098 17.1963 39.0182 17.1963 41.4957V63.178C17.1963 65.6555 19.2047 67.664 21.6823 67.664H53.0841C55.5617 67.664 57.5701 65.6555 57.5701 63.178V41.4957C57.5701 39.0182 55.5617 37.0098 53.0841 37.0098Z" fill="white"/>
<path d="M53.8318 38.8789H22.8037C20.7391 38.8789 19.0654 40.5526 19.0654 42.6172V63.9256C19.0654 65.9902 20.7391 67.6639 22.8037 67.6639H53.8318C55.8964 67.6639 57.5701 65.9902 57.5701 63.9256V42.6172C57.5701 40.5526 55.8964 38.8789 53.8318 38.8789Z" fill="#F0F6FD"/>
<path d="M53.0841 68.0376H21.6823C20.394 68.0356 19.159 67.523 18.248 66.612C17.3371 65.701 16.8244 64.4661 16.8224 63.1778V41.4956C16.8244 40.2073 17.3371 38.9723 18.248 38.0613C19.159 37.1504 20.394 36.6377 21.6823 36.6357H53.0841C54.3724 36.6377 55.6074 37.1504 56.5184 38.0613C57.4293 38.9723 57.942 40.2073 57.9439 41.4956V63.1778C57.942 64.4661 57.4293 65.701 56.5184 66.612C55.6074 67.523 54.3724 68.0356 53.0841 68.0376V68.0376ZM21.6823 37.3834C20.5923 37.3854 19.5475 37.8193 18.7767 38.59C18.006 39.3608 17.5721 40.4056 17.5701 41.4956V63.1778C17.5721 64.2678 18.006 65.3126 18.7767 66.0833C19.5475 66.8541 20.5923 67.288 21.6823 67.2899H53.0841C54.1741 67.288 55.2189 66.8541 55.9897 66.0833C56.7604 65.3126 57.1943 64.2678 57.1963 63.1778V41.4956C57.1943 40.4056 56.7604 39.3608 55.9897 38.59C55.2189 37.8193 54.1741 37.3854 53.0841 37.3834H21.6823Z" fill="#256FC7"/>
<path d="M62.8038 47.4768C62.8038 47.0802 62.6462 46.6998 62.3658 46.4194C62.0854 46.139 61.705 45.9814 61.3084 45.9814H57.944V48.9721H50.4673C49.3767 48.9721 48.3308 49.4053 47.5596 50.1765C46.7884 50.9477 46.3552 51.9936 46.3552 53.0842C46.3552 54.1749 46.7884 55.2208 47.5596 55.992C48.3308 56.7632 49.3767 57.1964 50.4673 57.1964H58.6916C59.7822 57.1964 60.8282 56.7632 61.5993 55.992C62.3705 55.2208 62.8038 54.1749 62.8038 53.0842V47.4768Z" fill="white"/>
<path d="M48.5982 53.8323C48.5972 54.2744 48.6835 54.7123 48.8523 55.121C49.021 55.5296 49.2688 55.9009 49.5814 56.2135C49.894 56.5261 50.2653 56.7739 50.6739 56.9427C51.0826 57.1114 51.5205 57.1977 51.9626 57.1968H58.6916C59.7822 57.1968 60.8282 56.7635 61.5993 55.9923C62.3705 55.2212 62.8038 54.1752 62.8038 53.0846V50.4678H51.9626C51.5205 50.4668 51.0826 50.5531 50.6739 50.7219C50.2653 50.8906 49.894 51.1384 49.5814 51.451C49.2688 51.7636 49.021 52.1349 48.8523 52.5436C48.6835 52.9522 48.5972 53.3902 48.5982 53.8323Z" fill="#79B4F2"/>
<path d="M62.8037 48.5988H58.6916V47.8512L59.4393 47.1035H61.3084C61.705 47.1035 62.0853 47.2611 62.3658 47.5415C62.6462 47.8219 62.8037 48.2023 62.8037 48.5988Z" fill="#79B4F2"/>
<path d="M58.6916 57.5708H50.4673C49.2775 57.5708 48.1365 57.0982 47.2952 56.2569C46.454 55.4156 45.9813 54.2746 45.9813 53.0848C45.9813 51.8951 46.454 50.754 47.2952 49.9128C48.1365 49.0715 49.2775 48.5988 50.4673 48.5988H61.3084C61.6059 48.5988 61.8911 48.4807 62.1014 48.2704C62.3118 48.06 62.4299 47.7748 62.4299 47.4773C62.4299 47.3782 62.4693 47.2831 62.5394 47.213C62.6095 47.1429 62.7046 47.1035 62.8038 47.1035C62.9029 47.1035 62.998 47.1429 63.0681 47.213C63.1382 47.2831 63.1776 47.3782 63.1776 47.4773V53.0848C63.1776 54.2746 62.705 55.4156 61.8637 56.2569C61.0224 57.0982 59.8814 57.5708 58.6916 57.5708ZM50.4673 49.3465C49.4758 49.3465 48.525 49.7404 47.8239 50.4414C47.1228 51.1425 46.729 52.0934 46.729 53.0848C46.729 54.0763 47.1228 55.0271 47.8239 55.7282C48.525 56.4293 49.4758 56.8231 50.4673 56.8231H58.6916C59.6831 56.8231 60.6339 56.4293 61.335 55.7282C62.0361 55.0271 62.4299 54.0763 62.4299 53.0848V48.9727C62.1056 49.2139 61.7126 49.3449 61.3084 49.3465H50.4673Z" fill="#256FC7"/>
<path d="M62.8038 47.9256C62.7046 47.9256 62.6095 47.8862 62.5394 47.8161C62.4693 47.746 62.4299 47.6509 62.4299 47.5518C62.4299 47.2543 62.3118 46.9691 62.1015 46.7588C61.8911 46.5484 61.6059 46.4303 61.3084 46.4303H57.5701C57.471 46.4303 57.3759 46.3909 57.3058 46.3208C57.2357 46.2507 57.1963 46.1556 57.1963 46.0564C57.1963 45.9573 57.2357 45.8622 57.3058 45.7921C57.3759 45.722 57.471 45.6826 57.5701 45.6826H61.3084C61.8042 45.6826 62.2796 45.8795 62.6301 46.2301C62.9807 46.5806 63.1776 47.056 63.1776 47.5518C63.1776 47.6509 63.1382 47.746 63.0681 47.8161C62.998 47.8862 62.9029 47.9256 62.8038 47.9256Z" fill="#256FC7"/>
<path d="M24.6729 22.4299C24.5738 22.4299 24.4787 22.3905 24.4086 22.3204C24.3385 22.2503 24.2991 22.1552 24.2991 22.056V18.2205C24.2991 18.1214 24.3385 18.0263 24.4086 17.9562C24.4787 17.8861 24.5738 17.8467 24.6729 17.8467C24.7721 17.8467 24.8671 17.8861 24.9372 17.9562C25.0074 18.0263 25.0467 18.1214 25.0467 18.2205V22.071C25.0429 22.1675 25.0018 22.2588 24.9321 22.3257C24.8624 22.3926 24.7695 22.4299 24.6729 22.4299Z" fill="#79B4F2"/>
<path d="M49.3458 22.7961C49.2467 22.7961 49.1516 22.7567 49.0815 22.6866C49.0114 22.6165 48.972 22.5214 48.972 22.4222V17.4129C48.972 17.3137 49.0114 17.2187 49.0815 17.1486C49.1516 17.0784 49.2467 17.0391 49.3458 17.0391C49.445 17.0391 49.54 17.0784 49.6102 17.1486C49.6803 17.2187 49.7196 17.3137 49.7196 17.4129V22.4297C49.7177 22.5276 49.6774 22.6207 49.6075 22.6892C49.5377 22.7577 49.4437 22.7961 49.3458 22.7961Z" fill="#79B4F2"/>
<path d="M37.3832 15.3199C37.284 15.3199 37.1889 15.2805 37.1188 15.2104C37.0487 15.1403 37.0093 15.0452 37.0093 14.9461V10.6844C37.0093 10.5852 37.0487 10.4901 37.1188 10.42C37.1889 10.3499 37.284 10.3105 37.3832 10.3105C37.4823 10.3105 37.5774 10.3499 37.6475 10.42C37.7176 10.4901 37.757 10.5852 37.757 10.6844V14.9535C37.755 15.0514 37.7148 15.1446 37.6449 15.2131C37.575 15.2816 37.481 15.3199 37.3832 15.3199V15.3199Z" fill="#79B4F2"/>
<path d="M45.1514 21.2188C45.0523 21.2188 44.9572 21.1794 44.8871 21.1093C44.817 21.0392 44.7776 20.9441 44.7776 20.8449V15.4842C44.7795 15.3856 44.8195 15.2917 44.8892 15.222C44.9589 15.1523 45.0529 15.1123 45.1514 15.1104C45.2506 15.1104 45.3457 15.1497 45.4158 15.2198C45.4859 15.29 45.5253 15.385 45.5253 15.4842V20.8449C45.5253 20.9441 45.4859 21.0392 45.4158 21.1093C45.3457 21.1794 45.2506 21.2188 45.1514 21.2188V21.2188Z" fill="#256FC7"/>
<path d="M45.1514 13.7425C45.0523 13.7425 44.9572 13.7031 44.8871 13.633C44.817 13.5629 44.7776 13.4678 44.7776 13.3687V11.5369C44.7776 11.4378 44.817 11.3427 44.8871 11.2726C44.9572 11.2025 45.0523 11.1631 45.1514 11.1631C45.2506 11.1631 45.3457 11.2025 45.4158 11.2726C45.4859 11.3427 45.5253 11.4378 45.5253 11.5369V13.3687C45.5253 13.4678 45.4859 13.5629 45.4158 13.633C45.3457 13.7031 45.2506 13.7425 45.1514 13.7425Z" fill="#256FC7"/>
<path d="M27.843 20.5689C27.7439 20.5689 27.6488 20.5295 27.5787 20.4594C27.5086 20.3893 27.4692 20.2942 27.4692 20.195V13.3016C27.4692 13.2024 27.5086 13.1073 27.5787 13.0372C27.6488 12.9671 27.7439 12.9277 27.843 12.9277C27.9422 12.9277 28.0372 12.9671 28.1073 13.0372C28.1775 13.1073 28.2168 13.2024 28.2168 13.3016V20.1875C28.2178 20.2373 28.2089 20.2867 28.1906 20.3329C28.1722 20.3791 28.1448 20.4212 28.11 20.4567C28.0752 20.4922 28.0337 20.5204 27.9878 20.5397C27.942 20.559 27.8927 20.5689 27.843 20.5689V20.5689Z" fill="#256FC7"/>
<path d="M27.843 11.7239C27.7439 11.7239 27.6488 11.6845 27.5787 11.6144C27.5086 11.5443 27.4692 11.4492 27.4692 11.3501V9.23418C27.4692 9.13504 27.5086 9.03995 27.5787 8.96984C27.6488 8.89974 27.7439 8.86035 27.843 8.86035C27.9422 8.86035 28.0372 8.89974 28.1073 8.96984C28.1775 9.03995 28.2168 9.13504 28.2168 9.23418V11.3501C28.2168 11.4492 28.1775 11.5443 28.1073 11.6144C28.0372 11.6845 27.9422 11.7239 27.843 11.7239Z" fill="#256FC7"/>
<path d="M48.9644 45.2569C48.8871 45.2565 48.8116 45.2331 48.7476 45.1896C48.6687 45.13 48.6161 45.0422 48.6008 44.9445C48.5854 44.8469 48.6086 44.7471 48.6654 44.6662C48.7775 44.5092 48.8897 44.3447 48.9943 44.1728C49.0494 44.0891 49.1351 44.0304 49.233 44.0094C49.331 43.9885 49.4332 44.0068 49.5177 44.0606C49.5997 44.1154 49.6566 44.2004 49.6762 44.297C49.6958 44.3936 49.6765 44.4941 49.6224 44.5765C49.5102 44.756 49.3906 44.9279 49.271 45.0999C49.2367 45.1492 49.1908 45.1893 49.1373 45.2167C49.0838 45.244 49.0245 45.2578 48.9644 45.2569V45.2569Z" fill="#256FC7"/>
<path d="M45.8915 48.4194C45.8336 48.4189 45.7766 48.4051 45.7247 48.3792C45.6729 48.3533 45.6277 48.3159 45.5925 48.2699C45.563 48.2306 45.5416 48.1859 45.5294 48.1384C45.5172 48.0908 45.5145 48.0413 45.5215 47.9927C45.5284 47.9441 45.5448 47.8974 45.5699 47.8551C45.5949 47.8129 45.628 47.776 45.6672 47.7465C46.1514 47.3836 46.611 46.989 47.0429 46.5652C47.1143 46.4958 47.2104 46.4576 47.3099 46.459C47.4095 46.4604 47.5044 46.5013 47.5738 46.5727C47.6432 46.6441 47.6814 46.7401 47.68 46.8397C47.6786 46.9392 47.6377 47.0341 47.5663 47.1035C47.1091 47.547 46.6247 47.9616 46.1158 48.3447C46.0514 48.3937 45.9725 48.42 45.8915 48.4194Z" fill="#256FC7"/>
<path d="M37.3832 51.2605C34.9627 51.2605 32.5805 50.6566 30.4523 49.5035C30.3651 49.4559 30.3003 49.3756 30.2722 49.2803C30.2442 49.1849 30.2552 49.0823 30.3028 48.9951C30.3504 48.9078 30.4307 48.8431 30.526 48.815C30.6214 48.787 30.7239 48.798 30.8112 48.8456C32.7712 49.9076 34.9592 50.4793 37.1882 50.5118C39.4172 50.5444 41.621 50.0368 43.6112 49.0325C43.6549 49.0099 43.7026 48.9961 43.7516 48.992C43.8006 48.9879 43.85 48.9934 43.8968 49.0083C43.9437 49.0233 43.9871 49.0473 44.0247 49.079C44.0623 49.1107 44.0933 49.1495 44.1159 49.1932C44.1384 49.2369 44.1522 49.2846 44.1563 49.3336C44.1605 49.3826 44.1549 49.432 44.14 49.4788C44.1251 49.5257 44.1011 49.5692 44.0693 49.6068C44.0376 49.6443 43.9988 49.6753 43.9551 49.6979C41.9194 50.7328 39.6668 51.2684 37.3832 51.2605V51.2605Z" fill="#256FC7"/>
<path d="M28.0074 47.7313C27.917 47.7322 27.8294 47.7003 27.7607 47.6415C26.9047 46.8909 26.1394 46.0427 25.4803 45.1144C25.4235 45.0335 25.4004 44.9338 25.4157 44.8361C25.431 44.7385 25.4837 44.6506 25.5626 44.5911C25.6027 44.5624 25.6482 44.5419 25.6963 44.5309C25.7444 44.5199 25.7943 44.5185 25.8429 44.5269C25.8916 44.5352 25.9381 44.5531 25.9798 44.5795C26.0215 44.6059 26.0576 44.6404 26.0859 44.6808C26.7145 45.5678 27.4419 46.3805 28.2541 47.1032C28.2899 47.1368 28.3184 47.1773 28.3379 47.2223C28.3574 47.2673 28.3674 47.3159 28.3674 47.3649C28.3674 47.4139 28.3574 47.4625 28.3379 47.5075C28.3184 47.5525 28.2899 47.593 28.2541 47.6266C28.2221 47.6597 28.1838 47.686 28.1414 47.7039C28.099 47.7219 28.0534 47.7312 28.0074 47.7313Z" fill="#256FC7"/>
</svg>
