<svg fill="none" height="83" viewBox="0 0 71 83" width="71" xmlns="http://www.w3.org/2000/svg"><g stroke="#214885" stroke-width="2.599"><path clip-rule="evenodd" d="m25.6635 11.0567c-2.3755-.0045-4.6556.9347-6.3388 2.6111-1.6831 1.6763-2.6316 3.9526-2.6369 6.3281l-.0658 33.2269c-.0038 1.928.6155 3.8063 1.7634 5.3545l7.1988 9.7043c.8316 1.1211 1.9137 2.0323 3.1599 2.661s2.6221.9575 4.0179.9602l5.776.0115c1.3957.0026 2.7727-.3208 4.0212-.9446 1.2485-.6237 2.334-1.5306 3.17-2.6482l7.2371-9.6757c1.1548-1.544 1.7807-3.4193 1.7846-5.3474l.0658-33.226c.0022-1.1765-.2273-2.3419-.6755-3.4297s-1.1063-2.0767-1.9366-2.9101c-.8304-.8335-1.8168-1.4953-2.9029-1.9475-1.0861-.4523-2.2507-.6862-3.4272-.6884l-20.209-.04z" fill="#82b3e7" fill-rule="evenodd"/><path d="m48.0548 20.513-24.6089-.0487c-1.2592-.0025-2.282 1.0163-2.2845 2.2755l-.0466 23.5349c-.0025 1.2592 1.0162 2.282 2.2754 2.2845l24.609.0488c1.2592.0025 2.282-1.0163 2.2845-2.2755l.0466-23.535c.0025-1.2592-1.0163-2.282-2.2755-2.2845z" fill="#0667d0"/></g></svg>