<svg fill="none" height="238" viewBox="0 0 250 238" width="250" xmlns="http://www.w3.org/2000/svg"><path d="m87.9299 7.51601h23.2971v5.26099h-23.2971z" fill="#267edc"/><path d="m179.939 20.293v72.762h-.43c-.996 0-1.952.3958-2.657 1.1003-.705.7046-1.101 1.6602-1.101 2.6567v1.418h-24.048c-.525-.4208-1.005-.8942-1.433-1.413-.937-1.172-1.648-2.916-2.405-4.76-1.207-2.946-2.57-6.283-5.43-8.568-2.861-2.284-6.393-2.86-9.52-3.382-1.974-.33-3.837-.641-5.205-1.297-1.368-.657-2.69-1.884-4.148-3.202-2.38-2.15-5.076-4.59-8.698-5.411-3.507-.797-6.919.205-9.94 1.087-1.949.571-3.792 1.112-5.3599 1.112-1.569 0-3.412-.54-5.366-1.112-3.006-.882-6.443-1.884-9.935-1.087-3.622.821-6.323 3.261-8.697 5.41-1.458 1.319-2.836 2.566-4.149 3.203-1.312.636-3.236.967-5.21 1.297-3.131.501-6.678 1.113-9.52 3.382-2.84 2.27-4.223 5.622-5.43 8.568-.751 1.844-1.468 3.588-2.405 4.766-.4284.5167-.9086.9881-1.433 1.407h-24.048v-1.418c-.0003-.9963-.3962-1.9518-1.1007-2.6563s-1.66-1.1004-2.6563-1.1007h-.431v-72.762zm-9.494 62.837c.905-.3916 1.62-1.1226 1.991-2.0359.372-.9133.37-1.9359-.005-2.8478-.375-.912-1.092-1.6404-1.998-2.0287-.907-.3883-1.929-.4054-2.848-.0476l-12.7 5.256c-.794.3383-1.447.9397-1.85 1.7029-.403.7633-.531 1.6419-.362 2.4883.168.8465.623 1.6091 1.288 2.1597.664.5507 1.498.8558 2.361.8641.493-.0016.982-.0983 1.438-.285zm-17.35-22.923c.361-.3463.649-.7611.847-1.2201s.303-.953.308-1.4529c.005-.5-.09-.9959-.279-1.4587-.189-.4629-.469-.8833-.822-1.2368-.354-.3534-.775-.6327-1.238-.8216-.463-.1888-.959-.2834-1.459-.2781-.5.0052-.993.1102-1.452.3087-.459.1986-.874.4867-1.22.8475l-6.378 6.384c-.678.7104-1.051 1.6579-1.04 2.6399.012.9819.407 1.9205 1.101 2.6149.695.6944 1.633 1.0896 2.615 1.101.982.0115 1.93-.3618 2.64-1.0398l6.378-6.388zm-21.286-19.782c.374-.9191.37-1.9489-.012-2.8649-.381-.9161-1.11-1.6441-2.026-2.0255s-1.946-.3853-2.865-.0108-1.652 1.0971-2.041 2.0102l-5.255 12.687c-.189.4559-.286.9446-.286 1.4381s.097.9822.286 1.4382c.189.4559.466.8702.815 1.2191.349.349.763.6258 1.219.8146s.945.286 1.438.286c.494 0 .982-.0972 1.438-.2861s.871-.4657 1.22-.8147c.348-.349.625-.7633.814-1.2192zm-28.472 4.685v-9.02c.008-.4986-.083-.9938-.268-1.4568-.185-.4631-.461-.8846-.811-1.24-.349-.3555-.766-.6378-1.226-.8305-.46-.1928-.954-.292-1.4524-.292-.4987 0-.9923.0992-1.4523.292-.4599.1927-.8769.475-1.2266.8305-.3497.3554-.6252.7769-.8104 1.24-.1851.463-.2763.9582-.2682 1.4568v9.02c-.0081.4986.0831.9938.2682 1.4568.1852.463.4607.8846.8104 1.24.3497.3555.7667.6378 1.2266.8305.46.1928.9536.292 1.4523.292.4984 0 .9924-.0992 1.4524-.292.46-.1927.877-.475 1.226-.8305.35-.3554.626-.777.811-1.24s.276-.9582.268-1.4568zm-25.8209 10.02c.9191-.3835 1.649-1.1153 2.0301-2.0353.3811-.9201.3825-1.9536.0039-2.8747l-5.257-12.685c-.3814-.9208-1.1129-1.6524-2.0337-2.0339-.9208-.3814-1.9555-.3815-2.8763-.0001s-1.6524 1.1129-2.0339 2.0337c-.3814.9208-.3815 1.9555-.0001 2.8763l5.256 12.687c.1883.4564.4648.8711.8137 1.2205.3488.3493.7631.6264 1.2193.8153.4561.189.945.2861 1.4387.2857.4937-.0003.9824-.098 1.4383-.2875zm-19.767 11.465c.349-.3486.6259-.7625.8148-1.2182.1889-.4556.2862-.944.2862-1.4373s-.0973-.9817-.2862-1.4373c-.1889-.4557-.4658-.8696-.8148-1.2182l-6.398-6.404c-.7044-.7048-1.66-1.1009-2.6564-1.1012-.9965-.0003-1.9523.3953-2.6571 1.0997s-1.1009 1.66-1.1012 2.6564c-.0003.9965.3953 1.9523 1.0997 2.6571l6.397 6.403c.3489.3493.7633.6264 1.2194.8154.456.1891.9449.2864 1.4386.2864s.9826-.0973 1.4387-.2864c.456-.189.8704-.4661 1.2193-.8154zm-11.442 19.741c.38-.921.3793-1.955-.002-2.8755-.3813-.9204-1.112-1.6521-2.032-2.0345l-12.685-5.256c-.457-.1888-.9467-.2858-1.4412-.2854s-.984.0982-1.4407.2878c-.4567.1897-.8715.4674-1.2209.8173-.3493.35-.6264.7653-.8152 1.2223s-.2858.9467-.2854 1.4412.0982.984.2879 1.4407c.1896.4567.4673.8716.8172 1.2209.35.3494.7653.6264 1.2223.8152l12.685 5.256c.459.176.947.263 1.438.255.7414.0006 1.4665-.2179 2.0842-.628s1.1005-.9935 1.3878-1.677zm129.4439 36.272v55.22c-3.652 2.695-6.71 6.114-8.984 10.042-2.273 3.928-3.714 8.283-4.232 12.792h-125.9119c-.5182-4.509-1.9591-8.863-4.233-12.792-2.2738-3.928-5.332-7.346-8.984-10.041v-55.221h54.39v21.6c0 .997.3958 1.952 1.1003 2.657.7046.705 1.6602 1.101 2.6567 1.101h36.0469c.997 0 1.952-.396 2.657-1.101.704-.705 1.1-1.66 1.1-2.657v-21.6z" fill="#82b3e7"/><path d="m99.5789 119.496c.4931-.007.9821.083 1.4391.267.457.183.873.456 1.224.802s.629.759.819 1.213c.19.455.287.943.287 1.436-.001.492-.1.98-.291 1.434s-.47.866-.822 1.211-.769.617-1.226.799c-.458.182-.947.272-1.4401.263-.9741-.017-1.9024-.417-2.5846-1.112-.6823-.695-1.064-1.631-1.0627-2.605.0013-.975.3855-1.909 1.0697-2.603.6841-.693 1.6135-1.09 2.5876-1.105z" fill="#82b3e7"/><path d="m113.842 105.968v34.482h-28.5319v-34.482zm-3.036 17.246c.001-2.222-.657-4.395-1.891-6.243-1.234-1.849-2.989-3.289-5.042-4.14s-4.3124-1.074-6.4921-.64c-2.1797.433-4.1819 1.503-5.7532 3.075s-2.6412 3.574-3.0743 5.754c-.433 2.18-.2099 4.439.6413 6.492s2.2922 3.807 4.1407 5.041c1.8484 1.234 4.0213 1.891 6.2437 1.89 6.1969-.009 11.2189-5.031 11.2269-11.23z" fill="#267edc"/><path d="m15.8909 100.571v73.089c-2.6814-1.061-5.4909-1.764-8.35599-2.09v-70.999zm61.899 5.176v9.345h-54.389v-9.345h1.022zm43.5671 0h54.394v9.345h-54.394zm70.276-5.176v71c-2.866.325-5.676 1.027-8.357 2.089v-73.089z" fill="#267edc"/><path d="m191.633 179.146v21.516h-21.544c.816-5.42 3.349-10.434 7.226-14.307 3.878-3.873 8.896-6.4 14.317-7.209z" fill="#ffce00"/><path d="m29.0479 200.662h-21.51299v-21.517c5.41489.816 10.42579 3.345 14.29759 7.217 3.8717 3.873 6.4006 8.884 7.2154 14.299z" fill="#267edc"/><path d="m142.384 98.231h-85.615c.541-1.097 1.002-2.22 1.458-3.327.942-2.304 1.829-4.479 3.161-5.541 1.333-1.062 3.623-1.433 6.067-1.839 2.445-.406 4.905-.817 7.245-1.944s4.133-2.781 5.922-4.394c1.788-1.614 3.617-3.272 5.32-3.663 1.589-.36 3.813.29 6.163.977 2.264.661 4.83 1.413 7.475 1.413s5.21-.752 7.475-1.413c2.35-.686 4.569-1.338 6.162-.972 1.703.386 3.457 1.974 5.316 3.658 1.858 1.683 3.637 3.287 5.926 4.394 2.29 1.107 4.83 1.538 7.24 1.944s4.754.787 6.072 1.839 2.22 3.237 3.156 5.536c.456 1.108.917 2.26 1.458 3.332z" fill="#ffce00"/><path d="m199.148 96.813v107.607c0 .997-.396 1.952-1.101 2.657-.705.704-1.66 1.1-2.657 1.1h-191.633c-.99634 0-1.95179-.396-2.65631-1.101-.704514-.704-1.10042491-1.66-1.10069-2.656v-107.607c.00026509-.9963.396176-1.9518 1.10069-2.6563.70452-.7045 1.65997-1.1004 2.65631-1.1007h7.926v-76.521c0-.9965.3958-1.9522 1.1003-2.657.7046-.7047 1.6602-1.1007 2.6567-1.101h64.97v-9.019c0-.49359.0972-.98235.2862-1.43836.1889-.456.4658-.87033.8148-1.2193.3491-.348976.7635-.625768 1.2196-.814566.456-.1887986.9448-.28590521 1.4384-.28577387h30.811c.997 0 1.953.39593087 2.657 1.10068987.705.70476 1.101 1.66063 1.101 2.65731v9.019h64.96c.997.0003 1.952.3963 2.657 1.101.704.7048 1.1 1.6605 1.1 2.657v76.52h7.926c.494-.0014.984.0947 1.441.2829s.873.4648 1.223.814c.35.3491.628.7639.817 1.2205.19.4567.287.9462.287 1.4406zm-7.515 103.849v-21.517c-5.421.809-10.439 3.336-14.316 7.209-3.878 3.873-6.411 8.887-7.227 14.307h21.543zm0-29.091v-71h-8.367v73.089c2.685-1.063 5.498-1.766 8.367-2.09zm-11.684-78.516v-72.762h-160.73v72.762h.43c.9965 0 1.9522.3958 2.657 1.1003.7047.7046 1.1007 1.6602 1.101 2.6567v1.418h24.048c.5244-.4189 1.0046-.8903 1.433-1.407.937-1.178 1.654-2.922 2.405-4.766 1.208-2.946 2.57-6.283 5.43-8.568 2.862-2.284 6.394-2.86 9.52-3.382 1.974-.33 3.843-.641 5.21-1.297 1.368-.657 2.69-1.884 4.149-3.202 2.374-2.15 5.075-4.59 8.697-5.411 3.507-.797 6.914.205 9.935 1.087 1.954.571 3.798 1.112 5.366 1.112s3.412-.54 5.36-1.112c3.006-.882 6.448-1.884 9.94-1.087 3.623.821 6.318 3.261 8.698 5.41 1.458 1.319 2.83 2.566 4.148 3.203 1.318.636 3.231.967 5.205 1.297 3.132.501 6.684 1.113 9.52 3.382 2.835 2.27 4.223 5.622 5.43 8.568.757 1.844 1.468 3.588 2.405 4.76.428.5187.908.9922 1.433 1.413h24.048v-1.418c0-.9965.396-1.9521 1.101-2.6567.705-.7045 1.66-1.1003 2.657-1.1003h.43-.025zm-4.198 84.773v-55.221h-54.394v21.6c0 .997-.396 1.952-1.1 2.657-.705.705-1.66 1.101-2.657 1.101h-36.047c-.9967 0-1.9525-.396-2.6573-1.101-.7048-.704-1.1007-1.66-1.1007-2.657v-21.6h-54.389v55.22c3.6522 2.695 6.7104 6.113 8.9842 10.042 2.2739 3.928 3.7147 8.283 4.2328 12.792h125.912c.518-4.509 1.959-8.863 4.233-12.791 2.273-3.929 5.331-7.347 8.983-10.042zm0-62.737v-9.345h-54.394v9.345zm-118.983-16.859h85.616c-.54-1.098-1.002-2.225-1.458-3.333-.937-2.3-1.828-4.474-3.156-5.536s-3.627-1.433-6.072-1.839-4.905-.817-7.24-1.944c-2.334-1.127-4.138-2.781-5.926-4.394-1.789-1.614-3.613-3.272-5.316-3.658-1.593-.366-3.813.286-6.162.972-2.265.661-4.83 1.413-7.475 1.413-2.646 0-5.21-.752-7.475-1.413-2.35-.686-4.574-1.338-6.163-.977-1.703.39-3.462 1.98-5.32 3.663-1.859 1.683-3.638 3.287-5.922 4.394-2.285 1.107-4.835 1.538-7.245 1.944s-4.75.787-6.067 1.839-2.22 3.237-3.161 5.541c-.456 1.108-.917 2.255-1.458 3.327zm57.074 42.218v-34.482h-28.532v34.482zm-2.615-127.673v-5.262h-23.302v5.26h23.302zm-33.432 102.315v-9.345h-54.389v9.345h54.39zm-58.146 85.57h9.399c-.8146-5.415-3.3434-10.427-7.2152-14.299-3.8718-3.873-8.8828-6.402-14.2978-7.218v21.516h12.114zm-3.758-27.002v-73.089h-8.356v71c2.865.326 5.6746 1.028 8.356 2.089z" fill="#214885"/><path d="m156.322 91.648c-1.571.0077-3.096-.5318-4.312-1.5258-1.217-.9941-2.05-2.3806-2.356-3.9217-.305-1.541-.065-3.1404.68-4.5237.745-1.3832 1.948-2.464 3.403-3.0568l12.68-5.256c.823-.3399 1.704-.5144 2.594-.5136s1.771.1769 2.593.5182 1.569.8411 2.197 1.471c.629.6298 1.128 1.3774 1.468 2.1999.339.8225.514 1.704.513 2.5939-.001.89-.177 1.7711-.518 2.5931-.341.8219-.841 1.5686-1.471 2.1973-.63.6288-1.377 1.1273-2.2 1.4672l-12.686 5.256c-.82.332-1.699.502-2.585.5z" fill="#ffce00"/><path d="m169.008 75.885c.876-.0084 1.727.2894 2.407.842.68.5527 1.145 1.3254 1.315 2.1847.171.8593.036 1.7511-.382 2.5213-.417.7702-1.09 1.3705-1.903 1.697l-12.685 5.256c-.921.3814-1.956.3813-2.877-.0003-.921-.3815-1.652-1.1132-2.034-2.0342-.381-.921-.381-1.9557.001-2.8766.381-.9209 1.113-1.6525 2.034-2.0339l12.7-5.27c.456-.192.945-.29 1.439-.291zm.015-6.018c-1.285-.0013-2.557.2523-3.743.746l-12.68 5.256c-2.08.8688-3.795 2.4301-4.856 4.4192-1.06 1.9891-1.4 4.2837-.962 6.4948s1.627 4.2027 3.366 5.6372 3.92 2.2237 6.174 2.2338c1.266 0 2.52-.245 3.693-.722l12.685-5.256c2.091-.8635 3.817-2.4256 4.884-4.4199 1.067-1.9942 1.41-4.2969.969-6.5154-.442-2.2184-1.639-4.2151-3.388-5.6494-1.749-1.4342-3.941-2.2172-6.203-2.2153l.06-.01z" fill="#214885"/><path d="m144.038 70.684c-1.332-.0062-2.633-.4055-3.74-1.1479-1.106-.7424-1.969-1.7949-2.48-3.0255s-.647-2.5846-.392-3.8924c.255-1.3077.891-2.5111 1.827-3.4592l6.378-6.383c.628-.6283 1.373-1.1268 2.193-1.4671.821-.3403 1.7-.5156 2.588-.516s1.768.1741 2.589.5136c.82.3395 1.566.8373 2.194 1.465.629.6277 1.127 1.373 1.468 2.1934.34.8204.515 1.6998.516 2.5879 0 .8882-.174 1.7677-.514 2.5884-.339.8207-.837 1.5665-1.465 2.1948l-6.358 6.363c-.629.6334-1.377 1.1351-2.202 1.4759-.825.3409-1.71.5139-2.602.5091z" fill="#ffce00"/><path d="m150.44 53.778c.744-.0005 1.471.2198 2.09.6331.619.4132 1.101 1.0007 1.385 1.6881s.358 1.4437.213 2.1732c-.146.7295-.505 1.3993-1.032 1.9246l-6.378 6.398c-.704.7049-1.66 1.1012-2.656 1.1017-.997.0005-1.952-.3949-2.657-1.0992s-1.102-1.6598-1.102-2.6562c-.001-.9965.395-1.9524 1.099-2.6573l6.378-6.384c.348-.3511.763-.6298 1.219-.8198.457-.19.947-.2876 1.441-.2872zm0-5.998c-1.282-.0036-2.552.2469-3.737.7371s-2.261 1.2104-3.166 2.1189l-6.373 6.379c-1.771 1.8445-2.749 4.3101-2.723 6.8675.026 2.5573 1.053 5.0026 2.862 6.8108 1.808 1.8082 4.254 2.8352 6.811 2.8606 2.558.0254 5.023-.9529 6.867-2.7249l6.378-6.384c1.367-1.3665 2.297-3.1075 2.674-5.0028.377-1.8954.184-3.86-.556-5.6454-.739-1.7853-1.992-3.3113-3.599-4.385-1.606-1.0737-3.495-1.6467-5.428-1.6468z" fill="#214885"/><path d="m123.076 58.423c-1.337-.0015-2.644-.3993-3.755-1.1431s-1.977-1.8002-2.488-3.0359c-.344-.8203-.521-1.7007-.521-2.59s.177-1.7697.521-2.59l5.256-12.682c.686-1.6609 2.003-2.9815 3.662-3.6711 1.659-.6897 3.525-.692 5.185-.0064 1.661.6856 2.982 2.0029 3.672 3.6621.689 1.6592.692 3.5245.006 5.1854l-5.256 12.692c-.512 1.2427-1.384 2.3042-2.503 3.0487-1.119.7444-2.435 1.138-3.779 1.1303z" fill="#ffce00"/><path d="m128.331 35.215c.618.0007 1.227.1537 1.771.4455.545.2918 1.01.7134 1.353 1.2275.344.5141.555 1.1048.615 1.72.061.6152-.031 1.2358-.267 1.807l-5.25 12.682c-.382.9199-1.114 1.6507-2.035 2.032-.92.3813-1.954.382-2.875.002-.456-.1888-.87-.4656-1.219-.8146-.349-.3489-.626-.7632-.815-1.2191-.189-.456-.286-.9447-.286-1.4382s.097-.9822.286-1.4381l5.255-12.687c.283-.688.764-1.2764 1.382-1.6904.619-.414 1.346-.6349 2.09-.6346l-.005.005zm.005-6.019c-1.933-.0022-3.824.5714-5.43 1.6477-1.606 1.0762-2.855 2.6063-3.588 4.3953l-5.25 12.677c-.992 2.3939-.993 5.0837-.002 7.478.992 2.3942 2.893 4.2967 5.287 5.289h.05c4.975 2.03 10.656-.338 12.716-5.302l5.255-12.691c.617-1.4848.859-3.0989.703-4.6994s-.704-3.1378-1.595-4.4758c-.892-1.338-2.1-2.4354-3.518-3.1948-1.417-.7594-3-1.1575-4.608-1.159zm-28.7571 82.784c6.2001.003 11.2231 5.03 11.2221 11.23 0 6.2-5.026 11.227-11.2261 11.228-6.2 0-11.226-5.024-11.229-11.224.006-6.202 5.031-11.228 11.233-11.234zm3.7121 11.234c.001-.488-.095-.972-.281-1.423-.186-.452-.46-.862-.804-1.207-.345-.346-.755-.621-1.206-.808-.45-.188-.934-.284-1.4221-.285-.4882-.001-.9718.095-1.4232.281-.4513.186-.8615.46-1.2072.804-.3458.345-.6202.755-.8076 1.206-.1875.45-.2843.934-.285 1.422-.0013.986.3892 1.932 1.0855 2.63.6963.699 1.6415 1.092 2.6275 1.093.9861.001 1.9321-.389 2.6301-1.085.699-.697 1.092-1.642 1.093-2.628z" fill="#214885"/><path d="m99.579 51.859c-1.7932-.0026-3.5121-.7161-4.78-1.984-1.2679-1.268-1.9814-2.9869-1.984-4.78v-9.02c-.0109-.8951.156-1.7835.491-2.6136s.8315-1.5855 1.4606-2.2223c.6291-.6369 1.3784-1.1425 2.2044-1.4876.826-.345 1.7123-.5227 2.6074-.5227.8956 0 1.7816.1777 2.6076.5227.826.3451 1.575.8507 2.204 1.4876.629.6368 1.126 1.3922 1.461 2.2223s.502 1.7185.491 2.6136v9.02c-.003 1.7929-.716 3.5117-1.984 4.7796-1.267 1.2679-2.986 1.9815-4.779 1.9844z" fill="#ffce00"/><path d="m99.5791 32.318c.9969.0003 1.9519.3963 2.6569 1.101.704.7048 1.1 1.6605 1.1 2.657v9.019c.008.4986-.083.9938-.268 1.4568s-.461.8846-.811 1.24c-.349.3555-.766.6378-1.226.8305s-.954.292-1.4524.292c-.4987 0-.9924-.0993-1.4523-.292s-.8769-.475-1.2266-.8305c-.3497-.3554-.6252-.777-.8104-1.24s-.2764-.9582-.2682-1.4568v-9.02c-.0005-.4936.0963-.9825.285-1.4386s.4655-.8705.8146-1.2195c.349-.349.7635-.6257 1.2197-.8143.4562-.1885.9451-.2853 1.4387-.2846zm0-6.013c-5.394.006-9.764 4.377-9.77 9.77v9.02c0 5.396 4.374 9.77 9.77 9.77 5.3949 0 9.7699-4.374 9.7699-9.77v-9.02c-.006-5.393-4.377-9.764-9.7699-9.77z" fill="#214885"/><path d="m76.0771 58.423c-1.3402.0035-2.651-.3927-3.7649-1.138-1.1138-.7453-1.9801-1.8058-2.4881-3.046l-5.255-12.697c-.3651-.8247-.5616-1.7141-.578-2.6159s.1478-1.7977.4828-2.6352c.3349-.8374.834-1.5994 1.4677-2.2411.6338-.6417 1.3895-1.1502 2.2227-1.4956.8331-.3454 1.727-.5208 2.6289-.5157s1.7937.1905 2.6229.5453 1.5791.8718 2.2056 1.5206c.6265.6489 1.1169 1.4165 1.4424 2.2576l5.26 12.696c.6827 1.6575.6813 3.5179-.004 5.1744-.6853 1.6564-1.9988 2.974-3.653 3.6646-.821.342-1.701.52-2.59.526z" fill="#ffce00"/><path d="m70.816 35.215c1.52.001 2.89.918 3.472 2.324l5.256 12.687c.3786.9211.3772 1.9546-.0039 2.8747-.3812.92-1.111 1.6518-2.0301 2.0353-.4559.1895-.9447.2872-1.4384.2876-.4937.0003-.9826-.0968-1.4387-.2858-.4561-.1889-.8704-.466-1.2193-.8153-.3488-.3494-.6253-.7641-.8136-1.2205l-5.256-12.687c-.236-.5712-.3277-1.1918-.267-1.8068.0608-.6151.2721-1.2057.6153-1.7198.3432-.514.8077-.9355 1.3525-1.2274s1.1531-.445 1.7712-.446zm0-6.014c-1.6086 0-3.1922.3971-4.6104 1.1562-1.4182.759-2.627 1.8565-3.5192 3.1949-.8922 1.3385-1.4401 2.8765-1.595 4.4776-.155 1.601.0877 3.2156.7066 4.7003l5.256 12.682c2.057 4.965 7.739 7.336 12.715 5.306h.06c4.972-2.076 7.332-7.78 5.28-12.762l-5.255-12.692c-.7397-1.7819-1.9914-3.3043-3.5967-4.3745s-3.492-1.6401-5.4213-1.6375l-.02-.05z" fill="#214885"/><path d="m55.0949 70.684c-.8875.0016-1.7666-.1721-2.5869-.511s-1.5655-.8364-2.1931-1.464l-6.388-6.393c-.6498-.6234-1.1685-1.3703-1.5259-2.1968s-.5461-1.7161-.5552-2.6165.1617-1.7936.5023-2.6272c.3406-.8335.8442-1.5907 1.4813-2.2271.637-.6364 1.3947-1.1392 2.2287-1.479.8339-.3397 1.7272-.5095 2.6277-.4995.9004.01 1.7897.1997 2.6159.5579.8261.3582 1.5725.8778 2.1952 1.5282l6.372 6.383c.9378.9471 1.575 2.1501 1.8315 3.4581.2566 1.3079.121 2.6625-.3896 3.8937-.5107 1.2312-1.3736 2.2841-2.4805 3.0265-1.107.7425-2.4085 1.1414-3.7414 1.1467z" fill="#ffce00"/><path d="m48.7121 53.778c.4941-.0005.9834.0966 1.4399.2857s.8711.4665 1.2201.8163l6.378 6.384c.6844.7096 1.0632 1.6593 1.055 2.6451-.0083.9858-.4028 1.9291-1.0989 2.6272-.6961.698-1.6383 1.0952-2.6241 1.1062s-1.9365-.3651-2.648-1.0475l-6.377-6.383c-.525-.5255-.8825-1.1948-1.0273-1.9233-.1448-.7286-.0705-1.4837.2136-2.17s.7652-1.2731 1.3826-1.6861c.6174-.4131 1.3433-.6339 2.0861-.6346zm0-5.993c-1.9327-.0004-3.8221.5724-5.4292 1.646-1.6071 1.0735-2.8597 2.5996-3.5993 4.3852s-.933 3.7504-.5557 5.6459c.3773 1.8956 1.3082 3.6366 2.6752 5.0029l6.378 6.384c1.8318 1.8322 4.3165 2.8618 6.9074 2.862 2.5909.0003 5.0758-1.0286 6.9081-2.8605 1.8322-1.8319 2.8617-4.3165 2.862-6.9074s-1.0287-5.0759-2.8605-6.9081l-6.377-6.383c-.9056-.9114-1.983-1.634-3.1698-2.1262-1.1868-.4921-2.4594-.7439-3.7442-.7408z" fill="#214885"/><path d="m42.8349 91.648c-.878 0-1.747-.17-2.56-.501l-12.71-5.266c-.8206-.3401-1.5661-.8385-2.1941-1.4668-.6279-.6282-1.126-1.374-1.4657-2.1947-.6861-1.6576-.6856-3.5198.0013-5.177s2.004-2.9737 3.6615-3.6598c1.6576-.6861 3.5198-.6856 5.177.0013l12.685 5.256c1.443.6011 2.6334 1.6834 3.3685 3.063.7352 1.3796.9698 2.9713.664 4.5043s-1.1332 2.9128-2.3415 3.9047-2.7228 1.5347-4.286 1.536z" fill="#ffce00"/><path d="m30.1451 75.885c.494 0 .982.1 1.438.29l12.685 5.256c.7907.34 1.4407.9411 1.8414 1.7028.4007.7618.5278 1.638.36 2.4821-.1678.8442-.6203 1.6052-1.2818 2.1558s-1.492.8575-2.3526.8693c-.4915-.0021-.9781-.0989-1.433-.285l-12.69-5.226c-.8064-.3307-1.4727-.9313-1.8851-1.6992-.4123-.7678-.5449-1.6551-.3751-2.5099.1698-.8549.6314-1.6241 1.3059-2.1761.6744-.552 1.5198-.8524 2.3913-.8498l-.005-.01zm.005-6.003c-2.2623-.003-4.4555.7791-6.2054 2.213-1.7499 1.4338-2.9479 3.4305-3.3897 5.6493-.4417 2.2187-.0998 4.522.9675 6.5168 1.0672 1.9947 2.7936 3.5572 4.8846 4.4209l12.69 5.255c2.3901.9509 5.0587.9208 7.4267-.0837 2.368-1.0044 4.2444-2.9023 5.2219-5.2815.9775-2.3793.9773-5.0481-.0007-7.4272-.9779-2.3791-2.8547-4.2766-5.2229-5.2806l-12.635-5.26c-1.1856-.4941-2.4575-.748-3.742-.747z" fill="#214885"/><path d="m33.446 154.279h32.065c1.3889-.042 2.7067-.624 3.6741-1.622.9674-.997 1.5084-2.332 1.5084-3.722 0-1.389-.541-2.724-1.5084-3.721-.9674-.998-2.2852-1.58-3.6741-1.622h-32.065c-.7155-.022-1.4281.1-2.0955.359s-1.2761.649-1.7899 1.147c-.5139.498-.9224 1.095-1.2014 1.754-.2789.659-.4227 1.368-.4227 2.083 0 .716.1438 1.425.4227 2.084.279.659.6875 1.256 1.2014 1.754.5138.498 1.1225.888 1.7899 1.147s1.38.381 2.0955.359zm30.356 24.727h32.064c1.3889-.042 2.7067-.624 3.6741-1.622.9669-.997 1.5089-2.332 1.5089-3.721 0-1.39-.542-2.725-1.5089-3.722-.9674-.998-2.2852-1.58-3.6741-1.622h-32.064c-.7155-.022-1.4281.1-2.0955.359s-1.2761.649-1.7899 1.147c-.5139.498-.9224 1.095-1.2014 1.754-.2789.659-.4227 1.368-.4227 2.084 0 .715.1438 1.424.4227 2.083.279.659.6875 1.256 1.2014 1.754.5138.498 1.1225.888 1.7899 1.147s1.38.381 2.0955.359zm67.415-15.151h32.064c.714.02 1.425-.104 2.09-.364.666-.26 1.272-.65 1.784-1.148.512-.499.919-1.094 1.197-1.752.278-.659.421-1.366.421-2.08s-.143-1.421-.421-2.08c-.278-.658-.685-1.253-1.197-1.752-.512-.498-1.118-.888-1.784-1.148-.665-.26-1.376-.384-2.09-.364h-32.064c-.715-.022-1.428.1-2.095.359-.668.259-1.277.649-1.79 1.147-.514.498-.923 1.095-1.202 1.754s-.422 1.368-.422 2.083c0 .716.143 1.425.422 2.084s.688 1.256 1.202 1.754c.513.498 1.122.888 1.79 1.147.667.259 1.38.381 2.095.359zm-21.378 38.245h32.064c.714.02 1.425-.104 2.09-.364.666-.26 1.272-.65 1.784-1.148.512-.499.919-1.094 1.197-1.752.278-.659.421-1.366.421-2.08s-.143-1.421-.421-2.08c-.278-.658-.685-1.253-1.197-1.752-.512-.498-1.118-.888-1.784-1.148-.665-.26-1.376-.384-2.09-.364h-32.064c-.714-.02-1.425.104-2.09.364-.666.26-1.272.65-1.784 1.148-.512.499-.919 1.094-1.197 1.752-.278.659-.421 1.366-.421 2.08s.143 1.421.421 2.08c.278.658.685 1.253 1.197 1.752.512.498 1.118.888 1.784 1.148.665.26 1.376.384 2.09.364z" fill="#0667d0" opacity=".5"/><path d="m247.709 136.809-40.96-14.46c-.519-.183-1.084-.183-1.603 0l-40.962 14.46c-.47.167-.877.475-1.165.882-.288.408-.443.894-.443 1.393v28.916c0 37.419 5.546 51.107 42.284 69.646.336.17.708.259 1.085.259s.749-.089 1.085-.259c36.738-18.539 42.284-32.202 42.284-69.646v-28.916c0-1.02-.642-1.931-1.603-2.275z" fill="#214885"/><path d="m235.241 209.986c-5.661 7.386-14.764 13.486-29.329 20.927-14.564-7.441-23.673-13.541-29.341-20.927-5.682-7.405-7.948-16.16-8.677-29.026l-.027-.472h-.055c-.164-3.55-.228-7.371-.228-11.515l1.063-26.856 37.266-12.366 37.238 12.365 1.063 26.857c0 4.145-.064 7.965-.227 11.515h-.058l-.026.472c-.729 12.867-2.987 21.622-8.662 29.026z" fill="#34b47e" stroke="#214885"/><path d="m191.573 165.803c-.001 4.301 1.917 8.378 5.23 11.119l-2.795 19.872c-.048.341-.022.689.076 1.019.098.331.265.636.491.896s.505.469.819.612c.313.143.653.218.998.218h19.289c.345 0 .685-.074.999-.217.313-.144.593-.352.819-.612.226-.261.393-.566.491-.897.098-.33.124-.678.076-1.019l-2.796-19.872c2.503-2.083 4.229-4.951 4.899-8.138s.244-6.507-1.209-9.422c-1.453-2.914-3.847-5.253-6.795-6.637-2.949-1.384-6.278-1.732-9.448-.987-3.17.746-5.996 2.541-8.019 5.094-2.022 2.553-3.124 5.714-3.125 8.971z" fill="#214885"/><path d="m215.681 165.803c-.004 1.589-.4 3.153-1.155 4.552-.754 1.399-1.843 2.589-3.169 3.465-.378.252-.678.606-.864 1.021s-.251.874-.188 1.324l2.605 18.54h-13.761l2.605-18.54c.063-.45-.002-.909-.188-1.324s-.486-.769-.864-1.021c-1.853-1.238-3.22-3.08-3.868-5.212-.648-2.133-.537-4.424.315-6.483.852-2.06 2.391-3.761 4.355-4.813 1.965-1.052 4.234-1.391 6.42-.958 2.187.434 4.155 1.614 5.57 3.337s2.188 3.883 2.188 6.113z" fill="#ddf6e7"/></svg>