<svg fill="none" height="230" viewBox="0 0 230 230" width="230" xmlns="http://www.w3.org/2000/svg"><path d="m166.273 44.879 7.59-7.59 18.535 18.534-7.59 7.59z" fill="#4ed59c"/><path d="m50.7 225.019-46.03203-46.035c17.48503-20.753 24.94903-29.021 35.38203-38.646l49.296 49.296c-9.629 10.433-18.226 18.329-38.646 35.385zm83.119-146.881c-22.944 16.753-31.669 13.294-58.723 32.693l43.735 43.739c19.311-26.98 15.902-35.723 32.707-58.701l-13.931-3.789z" fill="#4ed59c"/><path d="m174.94 53.544 7.59-7.59 9.87 9.867-7.592 7.591zm-124.24 171.475c20.42-17.056 29.017-24.949 38.628-35.385l-25.232-25.247-37.017 37.012 23.62 23.62zm68.131-70.449c19.311-26.98 15.902-35.723 32.707-58.701l-13.931-3.789-.259-.946-40.974 40.975z" fill="#34b47e"/><path d="m118.831 154.57c-6.081 8.505-15.27 19.655-29.489 35.085l-49.295-49.296c15.412-14.225 26.579-23.422 35.049-29.507l43.735 43.719zm49.785-107.345c-14.97 14.97-25.945 24.453-34.801 30.913l3.788 13.942 13.932 3.789c6.481-8.86 15.947-19.846 30.924-34.798z" fill="#f6db7d"/><path d="m192.569 36.1555c-1.601-1.6013-1.601-4.1977 0-5.799l10.294-10.294c1.602-1.6013 4.198-1.6013 5.799 0 1.602 1.6014 1.602 4.1976 0 5.799l-10.294 10.294c-1.601 1.6013-4.197 1.6014-5.799 0zm14.354 23.2984c-.781-2.1257.309-4.4822 2.435-5.2635l13.66-5.0208c2.126-.7813 4.482.3085 5.264 2.4341.781 2.1258-.309 4.4827-2.434 5.2641l-13.661 5.0206c-2.126.7812-4.482-.3087-5.264-2.4345zm-36.699-36.6814c-2.125-.7812-3.215-3.1375-2.434-5.263l5.021-13.66099c.782-2.12548 3.138-3.215215 5.263-2.43401 2.126.78121 3.216 3.13753 2.434 5.263l-5.021 13.661c-.781 2.1255-3.137 3.2152-5.263 2.434z" fill="#f6db7d"/><path clip-rule="evenodd" d="m131.798 75.371c-10.82 7.903-18.389 11.18-26.405 14.65-8.374 3.63-17.011 7.375-29.914 16.348l-2.389 1.68-3.278 2.35.032.032c-8.23 6.17-18.003 14.448-29.709 25.161l-2.417 2.233-2.619 2.417c-9.632 9.133-17.581 18.134-33.075 36.524-1.144797 1.36-1.058359 3.37.19899 4.627l46.06111 46.049c1.2509 1.25 3.2497 1.338 4.6059.203 18.719-15.633 27.621-23.663 36.53-33.086l2.417-2.62 2.23-2.416c10.702-11.695 18.977-21.484 25.161-29.723l.032.032 2.35-3.282.021-.028 1.67-2.332c8.901-12.815 12.644-21.43 16.266-29.769 3.49-8.045 6.79-15.643 14.742-26.516 6.567-8.98 15.8-19.46 28.167-31.97 1.29 1.2901 3.382 1.2901 4.672 0l7.268-7.2676c1.562-1.5621 1.562-4.0947 0-5.6568l-17.733-17.7327c-1.562-1.5623-4.095-1.5621-5.657.0004l-7.261 7.2633c-1.29 1.2904-1.29 3.3822 0 4.6724-12.514 12.38-22.986 21.593-31.967 28.157zm-122.497 103.418 41.604 41.592c16.944-14.197 25.312-21.806 33.679-30.666l-3.385-3.384-41.248-41.23c-8.42 7.963-15.592 15.866-30.65 33.688zm35.693-38.345 44.246 44.249c10.784-11.823 19.052-21.618 25.098-29.769l-19.783-19.803-19.792-19.793c-8.151 6.046-17.95 14.307-29.769 25.116zm88.227-18.625.059-.136-.004-.004c3.204-7.382 6.255-14.406 12.642-23.793l-11.1-3.02-3.023-11.114c-9.279 6.3059-16.246 9.3296-23.548 12.4986l-.132.0574c-7.836 3.395-15.916 6.897-27.714 14.987l37.969 37.97c7.977-11.648 11.477-19.692 14.851-27.446zm7.179-32.528 9.784 2.662-.003-.004c6.655-8.825 15.674-18.967 27.454-30.875l-9.022-9.012c-11.911 11.777-22.055 20.789-30.875 27.434zm30.715-44.412 13.693 13.697 2.75-2.754-13.693-13.69z" fill="#214885" fill-rule="evenodd"/><path d="m71.169 38.194c0 1.1046.8955 2 2 2h2.85c1.1046 0 2-.8954 2-2v-2.671h2.671c1.1046 0 2-.8954 2-2v-2.847c0-1.1046-.8954-2-2-2h-2.67v-2.67c0-1.1046-.8954-2-2-2h-2.85c-1.1045 0-2 .8954-2 2v2.67h-2.672c-1.1045 0-2 .8954-2 2v2.847c0 1.1046.8955 2 2 2h2.671zm141.409 112.451c0-1.105-.895-2-2-2h-2.85c-1.105 0-2 .895-2 2v2.67h-2.67c-1.105 0-2 .895-2 2v2.85c0 1.105.895 2 2 2h2.67v2.668c0 1.105.895 2 2 2h2.85c1.105 0 2-.895 2-2v-2.667h2.671c1.105 0 2-.895 2-2v-2.85c0-1.105-.895-2-2-2h-2.67zm-75.053 40.599c0-1.105-.895-2-2-2h-2.85c-1.105 0-2 .895-2 2v2.67h-2.67c-1.105 0-2 .895-2 2v2.85c0 1.105.895 2 2 2h2.67v2.672c0 1.105.895 2 2 2h2.85c1.105 0 2-.895 2-2v-2.671h2.671c1.105 0 2-.895 2-2v-2.85c0-1.105-.895-2-2-2h-2.67zm-122.0055-77.24c-.0002-2.265 1.8357-4.101 4.1003-4.101 2.2644 0 4.1002 1.836 4.1002 4.1 0 2.264-1.8358 4.1-4.1002 4.1-2.2642 0-4.1-1.835-4.1003-4.099zm151.5915 22.999c0-2.264 1.836-4.1 4.1-4.1 2.264 0 4.1 1.836 4.1 4.1 0 2.264-1.836 4.1-4.1 4.1-2.264 0-4.1-1.836-4.1-4.1zm-129.8885-55.3025c-.0002-2.2645 1.8357-4.1005 4.1003-4.1005 2.2644 0 4.1002 1.8356 4.1002 4.1 0 2.2644-1.8358 4.1-4.1002 4.1-2.2642 0-4.1-1.8353-4.1003-4.0995z" fill="#f6db7d"/></svg>