<svg fill="none" height="211" viewBox="0 0 250 211" width="250" xmlns="http://www.w3.org/2000/svg"><path d="m3.8999 3.89899h218.3241v194.91901h-218.3241z" fill="#267edc"/><path d="m245.615 128.647h-7.797v31.187h7.797v15.594h-7.797v15.593h7.797v15.594h-70.176v-.882c-6.44 1.472-13.165 1.095-19.401-1.086s-11.73-6.078-15.849-11.243c-5.935-.004-1.996-9.53-7.189-12.404l7.189-33.5 27.453-11.056v-7.797h7.797v-15.593h-7.797v-15.594h70.176v15.594h7.797z" fill="#ffce00"/><path d="m167.004 188c2.759 0 4.992-2.374 4.992-5.296v-21.194c.027-.713-.082-1.424-.321-2.091-.239-.668-.602-1.277-1.069-1.791-.466-.515-1.026-.924-1.646-1.204s-1.286-.424-1.96-.424-1.34.144-1.96.424-1.18.689-1.646 1.204c-.467.514-.83 1.123-1.069 1.791-.239.667-.348 1.378-.321 2.091v21.194c.001 1.404.528 2.751 1.466 3.743.937.993 2.208 1.552 3.534 1.553z" fill="#214885"/><path d="m129.445 179.326h-106.0519v-23.39h8.696v-38.984h-8.696v-31.187h8.696v-38.984h-8.696v-23.39h179.3369v70.17h-15.595v-31.185h7.798v-7.799h-15.595v38.984h-8.348c-3.752-28.654-28.265-50.865-57.924-50.865-23.1969-.055-44.2339 13.604-53.6199 34.817-4.5933 10.3813-6.0653 21.8753-4.2365 33.079 1.8289 11.204 6.8795 21.633 14.5355 30.015 7.6563 8.382 17.5868 14.355 28.5799 17.189 10.993 2.834 22.573 2.407 33.328-1.228-2.999 7.193-3.768 15.122-2.208 22.758z" fill="#82b3e7"/><path d="m140.103 143.963c-22.963 14.583-53.3339 8.546-68.9749-13.71-15.64-22.255-11.03-52.873 10.473-69.535 21.5019-16.662 52.3039-13.487 69.9529 7.212 17.65 20.699 15.917 51.613-3.936 70.21" fill="#f0f6fd"/><path d="m31.1899 35.0855c0-2.1531 1.7455-3.8985 3.8985-3.8985 2.1531 0 3.8985 1.7454 3.8985 3.8985 0 2.1531-1.7454 3.8985-3.8985 3.8985-2.153 0-3.8985-1.7454-3.8985-3.8985zm155.9451 0c0-2.1531 1.745-3.8985 3.898-3.8985 2.154 0 3.899 1.7454 3.899 3.8985 0 2.1531-1.745 3.8985-3.899 3.8985-2.153 0-3.898-1.7454-3.898-3.8985zm-155.9451 132.5455c0-2.154 1.7455-3.899 3.8985-3.899 2.1531 0 3.8985 1.745 3.8985 3.899 0 2.153-1.7454 3.898-3.8985 3.898-2.153 0-3.8985-1.745-3.8985-3.898zm77.9731-31.187c0-2.154 1.745-3.899 3.898-3.899 2.154 0 3.899 1.745 3.899 3.899v3.898c0 2.153-1.745 3.898-3.899 3.898-2.153 0-3.898-1.745-3.898-3.898zm0-74.0695c0-2.1531 1.745-3.8985 3.898-3.8985 2.154 0 3.899 1.7454 3.899 3.8985v3.898c0 2.1531-1.745 3.8985-3.899 3.8985-2.153 0-3.898-1.7454-3.898-3.8985zm-38.9871 38.9845c0-2.1536 1.7455-3.899 3.8985-3.899h3.899c2.1531 0 3.8985 1.7454 3.8985 3.899 0 2.153-1.7454 3.898-3.8985 3.898h-3.899c-2.153 0-3.8985-1.745-3.8985-3.898zm74.0741 0c0-2.1536 1.745-3.899 3.898-3.899h3.899c2.154 0 3.899 1.7454 3.899 3.899 0 2.153-1.745 3.898-3.899 3.898h-3.899c-2.153 0-3.898-1.745-3.898-3.898zm-9.151 27.552c-1.522-1.521-1.523-3.988-.002-5.51 1.521-1.521 3.988-1.522 5.51-.001l2.76 2.758c1.522 1.521 1.523 3.988.002 5.51-1.521 1.522-3.988 1.523-5.51.002zm-52.3724-52.3827c-1.5224-1.5211-1.5232-3.9884-.0019-5.5105 1.5211-1.522 3.9881-1.5227 5.5101-.0016l2.7603 2.7586c1.522 1.5211 1.5227 3.988.0016 5.51-1.5209 1.5217-3.9874 1.5226-5.5094.0019zm.0131 55.1577c-1.5214-1.521-1.5211-3.988.0006-5.51l2.7608-2.76c1.5219-1.521 3.9893-1.521 5.5106.001 1.5211 1.522 1.5205 3.989-.0014 5.51l-2.7612 2.76c-1.5217 1.521-3.9882 1.521-5.5094-.001zm52.3703-52.3806c-1.521-1.5218-1.521-3.9886.001-5.51l2.761-2.7601c1.522-1.5217 3.989-1.5212 5.511.001 1.521 1.522 1.52 3.9889-.001 5.5101l-2.761 2.76c-1.522 1.5213-3.989 1.5209-5.511-.001zm1.026 18.8176 5.814-6.0264c.572-.5931.222-1.5849-.596-1.6867l-8.307-1.0339c-6.165-10.312-19.138-14.277-30.015-9.174-10.8761 5.103-16.1181 17.615-12.1271 28.945 3.992 11.33 15.9181 17.796 27.5921 14.957 11.674-2.84 19.298-14.06 17.64-25.958v-.024zm-23.07 21.343c-10.001 0-18.1091-8.107-18.1091-18.108 0-10 8.1081-18.108 18.1101-18.108 10 0 18.108 8.108 18.108 18.108 0 2.379-.468 4.734-1.379 6.931-.91 2.198-2.244 4.194-3.927 5.876-1.682 1.681-3.679 3.015-5.876 3.925-2.198.909-4.554 1.377-6.932 1.376z" fill="#214885"/><path clip-rule="evenodd" d="m241.716 132.545v7.797l-.001.001v15.594h3.798c2.209 0 4 1.791 4 4v15.39c0 2.209-1.791 4-4 4h-3.798v7.797h3.798c2.209 0 4 1.791 4 4v15.39c0 2.209-1.791 4-4 4h-73.973v-.2c-9.696.988-19.408-1.726-27.188-7.597h-74.177v7.797h-35.087v-7.797h-29.088c-3.31371 0-6-2.686-6-6v-190.717c0-3.31371 2.68628-6 5.99999-6h214.12201c3.314 0 6 2.68629 6 6v87.562h11.594c2.209 0 4 1.7909 4 4v11.593h3.798c2.209 0 4 1.791 4 4v15.39c0 2.209-1.791 4-4 4zm-7.797-23.39v-7.797h-62.378v7.797zm0 70.171h-28.075c-.55 2.68-1.384 5.294-2.49 7.797h30.565zm-.005-31.187h-35.156c1.83 2.412 3.372 5.028 4.596 7.797h30.56zm-42.987-7.797h4.001 38.986v-7.797h-62.378v.2c7.036.713 13.743 3.341 19.391 7.597zm-119.799-10.112c15.634 22.261 46.002 28.307 68.97 13.732v.001h.005c2.397-1.463 4.99-3.459 7.515-5.823 19.858-18.591 21.6-49.504 3.956-70.208-17.643-20.704-48.443-23.889-69.95-7.233-21.507 16.655-26.128 47.271-10.496 69.531zm-47.735 47.097c0 1.105.8954 2 2 2h104.047v-.002h.005c-1.56-7.636-.791-15.564 2.208-22.757-10.755 3.635-22.335 4.062-33.3281 1.228-10.993-2.834-20.9235-8.807-28.5799-17.189-7.656-8.382-12.7066-18.811-14.5354-30.015-1.8289-11.2037-.3568-22.6976 4.2364-33.079 9.386-21.213 30.423-34.872 53.62-34.817 29.659 0 54.172 22.211 57.924 50.865h8.348v-37.5663c0-.783.635-1.4177 1.418-1.4177h10.278c2.153 0 3.899 1.7459 3.899 3.8995 0 2.1536-1.746 3.8995-3.899 3.8995h-3.899v31.185h15.595v-68.17c0-1.1046-.895-2-2-2h-175.337c-1.1046 0-2 .8954-2 2v21.39h7.696c2.2091 0 4 1.7909 4 4v30.984c0 2.2091-1.7909 4-4 4h-7.696v31.188h7.696c2.2091 0 4 1.791 4 4v30.984c0 2.209-1.7909 4-4 4h-7.696zm3.893-29.188v-23.39h-7.796v23.39zm0-70.171v-23.39h-7.796v23.39zm144.25 46.781v-7.797h-2.217c-.742 2.662-1.672 5.267-2.783 7.797zm-7.797 5.484c-.534.937-1.096 1.858-1.686 2.761.189-.028.377-.058.565-.089.372-.06.742-.12 1.121-.159zm-155.945 62.687c0 1.105.89543 2 2 2h25.29 101.442c-1.828-2.412-3.368-5.029-4.59-7.797h-112.345c-2.2091 0-4-1.791-4-4v-27.187c-2.1539 0-3.9-1.746-3.9-3.9v-31.184c0-2.154 1.7461-3.9 3.9-3.9v-31.187c-2.1539 0-3.9-1.7461-3.9-3.9v-31.184c0-2.1539 1.7461-3.9 3.9-3.9v-25.187c0-3.3137 2.6863-6 6-6h182.931c3.314 0 6 2.6863 6 6v71.968h7.798v-83.765c0-1.10457-.895-2-2-2h-206.526c-1.10457 0-2 .89543-2 1.99999zm183.137 9.796h50.78l-.019-7.796h-42.963c-2.219 2.953-4.844 5.578-7.798 7.796zm15.693-31.187h35.087v-7.797h-35.877c.525 2.567.79 5.178.79 7.797zm-27.291-54.577v7.797h62.378v-7.797zm-34.24 33.088c-5.547 5.779-8.644 13.48-8.645 21.49v-.001c-.028 14.377 9.777 26.911 23.738 30.345 13.962 3.435 28.463-3.119 35.109-15.868 6.645-12.749 3.714-28.389-7.097-37.867l-1.067-.916c-4.851-3.916-10.77-6.279-16.984-6.781-6.214-.501-12.435.882-17.851 3.969-2.796 1.594-4.765 3.089-7.203 5.629z" fill="#214885" fill-rule="evenodd"/><path d="m19.4939 54.578h7.797v23.39h-7.797zm0 70.171h7.797v23.39h-7.797z" fill="#267edc"/><path clip-rule="evenodd" d="m113.39 85.685c-8.892 0-16.1 7.208-16.1 16.099 0 8.89 7.208 16.098 16.1 16.098 8.89 0 16.098-7.207 16.098-16.098 0-2.1142-.416-4.2077-1.225-6.161s-1.995-3.7281-3.49-5.223c-1.495-1.495-3.27-2.6808-5.223-3.4898s-4.047-1.2253-6.161-1.2252z" fill="#fff" fill-rule="evenodd"/><path d="m112.954 83.075c-10.093 0-18.275 8.181-18.275 18.274 0 10.092 8.182 18.273 18.275 18.273s18.275-8.181 18.275-18.273c0-2.3999-.473-4.7763-1.391-6.9935-.918-2.2173-2.264-4.2319-3.961-5.9288s-3.712-3.043-5.929-3.9612c-2.218-.9183-4.594-1.3908-6.994-1.3905z" fill="#267edc"/></svg>