<svg width="200" height="166" viewBox="0 0 200 166" fill="none" xmlns="http://www.w3.org/2000/svg">
<path d="M114.939 162.883H77.1286L80.8179 145.557H111.251L114.939 162.883ZM24.5637 35.8305H167.504V145.557H24.5637V35.8305Z" fill="#267EDC"/>
<path d="M25.0374 40.3043C25.0374 38.0951 26.8282 36.3043 29.0374 36.3043H162.499C164.708 36.3043 166.499 38.0952 166.499 40.3043V125.187H25.0374V40.3043Z" fill="#82B3E7" stroke="#214885" stroke-width="3.5"/>
<path d="M96.0346 138.166C98.1993 138.166 99.9542 136.408 99.9542 134.239C99.9542 132.07 98.1993 130.312 96.0346 130.312C93.8699 130.312 92.115 132.07 92.115 134.239C92.115 136.408 93.8699 138.166 96.0346 138.166Z" fill="#214885"/>
<path fill-rule="evenodd" clip-rule="evenodd" d="M165.815 33.5208C168.024 33.5208 169.815 35.3116 169.815 37.5207V143.868C169.815 146.077 168.024 147.868 165.815 147.868L114.023 147.867L116.789 160.573H119.09C120.366 160.573 121.4 161.607 121.4 162.883V162.883C121.4 164.159 120.366 165.193 119.09 165.193H72.9888C71.7132 165.193 70.6791 164.159 70.6791 162.883V162.883C70.6791 161.607 71.7132 160.573 72.9888 160.573H75.2897L78.0564 147.867H26.2642C24.055 147.867 22.2642 146.076 22.2642 143.867V37.5208C22.2642 35.3116 24.055 33.5208 26.2642 33.5208H165.815ZM82.6683 147.867L79.9016 160.573H112.179L109.412 147.867H82.6683ZM44.6264 38.1402H26.8748V143.247H165.204V38.1402H147.221H44.6264Z" fill="#214885"/>
<path d="M42.9487 56.0824C42.9487 55.5301 43.3964 55.0824 43.9487 55.0824H114.103C114.655 55.0824 115.103 55.5301 115.103 56.0824V58.7374C115.103 59.2897 114.655 59.7374 114.103 59.7374H43.9487C43.3964 59.7374 42.9487 59.2897 42.9487 58.7374V56.0824ZM126.514 56.0824C126.514 55.5301 126.962 55.0824 127.514 55.0824H147.971C148.523 55.0824 148.971 55.5301 148.971 56.0824V58.7374C148.971 59.2897 148.523 59.7374 147.971 59.7374H127.514C126.962 59.7374 126.514 59.2897 126.514 58.7374V56.0824ZM70.9279 72.6063C70.9279 72.054 71.3756 71.6063 71.9279 71.6063H147.973C148.525 71.6063 148.973 72.054 148.973 72.6063V75.2612C148.973 75.8135 148.525 76.2612 147.973 76.2612H71.9279C71.3756 76.2612 70.9279 75.8135 70.9279 75.2612V72.6063ZM42.9487 72.6063C42.9487 72.054 43.3964 71.6063 43.9487 71.6063H58.1462C58.6984 71.6063 59.1462 72.054 59.1462 72.6063V75.2612C59.1462 75.8135 58.6984 76.2612 58.1462 76.2612H43.9487C43.3964 76.2612 42.9487 75.8135 42.9487 75.2612V72.6063Z" fill="#214885"/>
<path fill-rule="evenodd" clip-rule="evenodd" d="M73.2889 88.7853H148.588V103.393H73.2889V88.7853ZM42.5637 88.7853H58.7611V103.393H42.5637V88.7853Z" fill="#F0F6FD" stroke="#214885" stroke-width="4" stroke-linejoin="round"/>
<path d="M197.617 125.238C196.946 125.238 196.277 125.17 195.619 125.038C195.933 123.589 196.089 122.108 196.083 120.626C196.013 119.453 195.497 118.351 194.642 117.545C193.787 116.739 192.656 116.289 191.481 116.288C190.306 116.289 189.175 116.738 188.319 117.544C187.464 118.351 186.948 119.453 186.878 120.626C186.878 123.152 188.896 125.535 191.778 126.961C191.375 127.896 190.866 128.781 190.262 129.601C186.515 123.391 179.235 118.659 170.348 116.844C171.704 115.799 172.791 114.445 173.518 112.896C176.068 112.794 178.499 111.787 180.373 110.055C182.247 108.322 183.443 105.978 183.745 103.444C184.051 100.909 183.444 98.3477 182.032 96.2196C180.621 94.0916 178.498 92.5359 176.043 91.8317C173.589 91.1312 170.967 91.3294 168.646 92.3906C166.326 93.4518 164.46 95.3063 163.385 97.6204C161.244 97.7043 159.178 98.4311 157.456 99.7061C155.734 100.981 154.436 102.745 153.731 104.769C153.024 106.793 152.942 108.984 153.495 111.056C154.049 113.128 155.213 114.986 156.836 116.388C151.69 117.093 146.852 118.777 142.783 121.315C140.915 119.868 138.619 119.084 136.256 119.086C135.408 119.086 134.722 119.775 134.722 120.622C134.728 122.751 135.37 124.83 136.566 126.591C134.581 128.864 133.125 131.549 132.301 134.453H131.653C130.846 134.452 130.046 134.611 129.3 134.92C128.554 135.229 127.877 135.682 127.306 136.253C126.153 137.409 125.505 138.975 125.506 140.608C125.501 142.28 125.923 143.925 126.733 145.388C127.543 146.85 128.714 148.08 130.134 148.962L140.847 155.65V163.662C140.847 164.51 141.533 165.199 142.379 165.199H148.514C149.095 165.199 149.626 164.87 149.886 164.349L151.702 160.711C158.656 162.587 165.984 162.587 172.938 160.711L174.754 164.349C175.015 164.87 175.546 165.198 176.126 165.199H182.279C183.126 165.199 183.812 164.51 183.812 163.662V155.524C189.673 151.193 193.017 145.248 193.017 139.066C193.005 136.864 192.583 134.683 191.772 132.635C193.001 131.266 193.989 129.697 194.693 127.996C195.654 128.206 196.634 128.309 197.617 128.304C198.464 128.304 199.15 127.615 199.15 126.766C199.15 125.918 198.464 125.229 197.617 125.229V125.238V125.238ZM192.717 123.965C191.01 122.993 189.959 121.654 189.959 120.626C189.95 120.419 189.984 120.213 190.057 120.019C190.131 119.826 190.242 119.649 190.386 119.5C190.529 119.351 190.701 119.232 190.891 119.151C191.082 119.07 191.287 119.028 191.494 119.028C191.701 119.028 191.905 119.07 192.096 119.151C192.286 119.232 192.458 119.351 192.601 119.5C192.745 119.649 192.857 119.826 192.93 120.019C193.003 120.213 193.037 120.419 193.028 120.626C193.028 121.749 192.921 122.871 192.705 123.972L192.718 123.965H192.717Z" fill="#214885" stroke="#214885"/>
<path d="M173.071 109.867C177.307 109.867 180.74 106.427 180.74 102.183C180.74 97.9397 177.307 94.4995 173.071 94.4995C168.836 94.4995 165.402 97.9397 165.402 102.183C165.402 106.427 168.836 109.867 173.071 109.867Z" fill="#FFCE00"/>
<path d="M156.198 108.331C156.2 106.542 156.829 104.81 157.975 103.435C159.121 102.061 160.711 101.131 162.471 100.806C162.396 101.261 162.35 101.72 162.334 102.181C162.336 102.947 162.421 103.711 162.586 104.459C162.429 104.695 162.34 104.971 162.334 105.256V111.402C162.323 111.61 162.355 111.818 162.428 112.013C162.5 112.208 162.612 112.386 162.755 112.537C162.899 112.688 163.071 112.808 163.262 112.89C163.454 112.972 163.66 113.014 163.868 113.014C164.076 113.014 164.282 112.972 164.473 112.89C164.664 112.808 164.837 112.688 164.98 112.537C165.124 112.386 165.235 112.208 165.308 112.013C165.38 111.818 165.412 111.61 165.402 111.402V109.687C166.734 111.041 168.402 112.016 170.235 112.513C169.344 113.903 168.024 114.966 166.475 115.541C164.927 116.116 163.233 116.172 161.65 115.701C160.066 115.228 158.679 114.254 157.696 112.925C156.713 111.596 156.187 109.984 156.198 108.331V108.331Z" fill="#FFCA28"/>
<path d="M156.198 108.331C156.2 106.542 156.829 104.81 157.975 103.435C159.121 102.061 160.711 101.131 162.471 100.806C162.396 101.261 162.35 101.72 162.334 102.181C162.336 102.947 162.421 103.711 162.586 104.459C162.429 104.695 162.34 104.971 162.334 105.256V111.402C162.323 111.61 162.355 111.818 162.428 112.013C162.5 112.208 162.612 112.386 162.755 112.537C162.899 112.688 163.071 112.808 163.262 112.89C163.454 112.972 163.66 113.014 163.868 113.014C164.076 113.014 164.282 112.972 164.473 112.89C164.664 112.808 164.837 112.688 164.98 112.537C165.124 112.386 165.235 112.208 165.308 112.013C165.38 111.818 165.412 111.61 165.402 111.402V109.687C166.734 111.041 168.402 112.016 170.235 112.513C169.344 113.903 168.024 114.966 166.475 115.541C164.927 116.116 163.233 116.172 161.65 115.701C160.066 115.228 158.679 114.254 157.696 112.925C156.713 111.596 156.187 109.984 156.198 108.331V108.331Z" fill="#FFCE00"/>
<path d="M173.071 106.792C173.919 106.792 174.605 106.103 174.605 105.256V99.1089C174.613 98.9021 174.579 98.6958 174.506 98.5023C174.433 98.3088 174.321 98.1321 174.178 97.9829C174.034 97.8336 173.862 97.7149 173.672 97.6337C173.481 97.5526 173.277 97.5108 173.07 97.5108C172.863 97.5108 172.658 97.5526 172.468 97.6337C172.277 97.7149 172.105 97.8336 171.962 97.9829C171.819 98.1321 171.707 98.3088 171.633 98.5023C171.56 98.6958 171.527 98.9021 171.535 99.1089V105.256C171.535 105.663 171.697 106.053 171.985 106.341C172.273 106.629 172.664 106.791 173.071 106.792Z" fill="#214885"/>
<path d="M181.415 153.469C181.211 153.611 181.044 153.8 180.929 154.02C180.814 154.24 180.754 154.485 180.754 154.733V162.126H177.092L175.123 158.185C174.961 157.857 174.687 157.598 174.351 157.455C174.015 157.312 173.638 157.294 173.29 157.405C166.152 159.585 158.526 159.585 151.389 157.405C151.04 157.295 150.664 157.313 150.328 157.456C149.992 157.599 149.718 157.858 149.556 158.185L147.587 162.126H143.927V154.797C143.927 154.266 143.653 153.773 143.204 153.493L131.768 146.355C130.793 145.747 129.991 144.899 129.436 143.894C128.881 142.888 128.593 141.757 128.598 140.608C128.601 139.798 128.924 139.021 129.497 138.447C130.069 137.873 130.846 137.548 131.657 137.544H133.521C134.254 137.544 134.885 137.024 135.025 136.303C135.601 133.276 137.221 130.319 139.674 127.753C140.224 127.177 140.244 126.276 139.72 125.676C138.881 124.735 138.287 123.601 137.99 122.376C139.346 122.696 140.588 123.38 141.584 124.354C141.836 124.601 142.167 124.753 142.519 124.784C142.871 124.815 143.223 124.722 143.514 124.522C148.656 121.028 155.331 119.101 162.334 119.101C177.558 119.101 189.945 128.052 189.945 139.084C189.947 144.532 186.913 149.646 181.415 153.469V153.469Z" fill="#FDD1B0"/>
<path d="M181.415 153.469C181.211 153.611 181.044 153.8 180.929 154.02C180.814 154.24 180.754 154.485 180.754 154.733V162.126H177.092L175.123 158.185C174.961 157.857 174.687 157.598 174.351 157.455C174.015 157.312 173.638 157.294 173.29 157.405C166.152 159.585 158.526 159.585 151.389 157.405C151.04 157.295 150.664 157.313 150.328 157.456C149.992 157.599 149.718 157.858 149.556 158.185L147.587 162.126H143.927V154.797C143.927 154.266 143.653 153.773 143.204 153.493L131.768 146.355C130.793 145.747 129.991 144.899 129.436 143.894C128.881 142.888 128.593 141.757 128.598 140.608C128.601 139.798 128.924 139.021 129.497 138.447C130.069 137.873 130.846 137.548 131.657 137.544H133.521C134.254 137.544 134.885 137.024 135.025 136.303C135.601 133.276 137.221 130.319 139.674 127.753C140.224 127.177 140.244 126.276 139.72 125.676C138.881 124.735 138.287 123.601 137.99 122.376C139.346 122.696 140.588 123.38 141.584 124.354C141.836 124.601 142.167 124.753 142.519 124.784C142.871 124.815 143.223 124.722 143.514 124.522C148.656 121.028 155.331 119.101 162.334 119.101C177.558 119.101 189.945 128.052 189.945 139.084C189.947 144.532 186.913 149.646 181.415 153.469V153.469Z" fill="#F2C3C3"/>
<path d="M140.858 131.385C139.616 131.385 138.497 132.135 138.022 133.284C137.79 133.846 137.729 134.464 137.847 135.06C137.966 135.656 138.258 136.204 138.687 136.635C139.116 137.065 139.663 137.358 140.258 137.476C140.854 137.595 141.471 137.534 142.032 137.301C142.689 137.028 143.23 136.537 143.565 135.91C143.9 135.283 144.008 134.559 143.869 133.862C143.731 133.164 143.355 132.537 142.806 132.085C142.257 131.633 141.569 131.386 140.858 131.385V131.385Z" fill="#214885"/>
<path opacity="0.2" d="M139.674 127.727C139.386 128.036 139.135 128.368 138.864 128.688C144.766 125.578 152.409 123.687 160.8 123.687C172.215 123.687 182.287 127.181 188.394 132.514C184.647 124.718 174.388 119.075 162.334 119.075C155.34 119.075 148.656 120.999 143.514 124.496C142.914 124.909 142.106 124.839 141.584 124.328C140.589 123.354 139.346 122.67 137.991 122.35C138.288 123.575 138.881 124.709 139.719 125.651C139.972 125.94 140.107 126.314 140.099 126.698C140.091 127.082 139.939 127.449 139.674 127.727V127.727Z" fill="white"/>
<path opacity="0.1" d="M160.033 154.439C151.739 154.439 144.123 152.872 138.034 150.262L143.206 153.489C143.657 153.769 143.93 154.264 143.93 154.795V162.123H147.582L149.55 158.182C149.886 157.506 150.664 157.174 151.382 157.402C158.52 159.583 166.147 159.583 173.285 157.402C173.633 157.292 174.01 157.309 174.346 157.452C174.682 157.596 174.956 157.854 175.118 158.182L177.092 162.126H180.746V154.733C180.746 154.23 180.992 153.757 181.406 153.469C183.753 151.878 185.767 149.845 187.336 147.484C180.723 151.736 170.955 154.438 160.033 154.438V154.439Z" fill="black"/>
<path d="M173.549 123.777C167.128 121.665 157.538 121.665 151.117 123.777C150.729 123.904 150.408 124.18 150.224 124.544C150.04 124.907 150.008 125.329 150.135 125.717C150.262 126.104 150.538 126.425 150.901 126.61C151.265 126.794 151.687 126.826 152.075 126.699C157.887 124.787 166.772 124.787 172.593 126.699C172.804 126.769 173.028 126.792 173.249 126.767C173.47 126.741 173.683 126.668 173.873 126.552C174.063 126.436 174.226 126.28 174.349 126.095C174.473 125.91 174.555 125.701 174.59 125.481C174.648 125.12 174.575 124.75 174.384 124.437C174.194 124.125 173.898 123.891 173.55 123.777H173.549Z" fill="#214885"/>
<mask id="mask0" mask-type="alpha" maskUnits="userSpaceOnUse" x="0" y="0" width="84" height="84">
<circle cx="41.9377" cy="41.9377" r="41.9377" fill="#C4C4C4"/>
</mask>
<g mask="url(#mask0)">
<circle cx="41.9377" cy="41.9377" r="41.9377" fill="#267EDC"/>
<path d="M12.1174 63.1124H28.3222V35.5472H12.1174V63.1124Z" fill="#82B3E7"/>
<path d="M28.322 63.1124H56.3827V29.2752H28.3225L28.322 63.1124ZM56.3827 63.1124H72.5857V35.5473H56.3827V63.1124Z" fill="#82B3E7"/>
<path d="M37.6747 38.9209H35.335C35.0251 38.9205 34.728 38.7985 34.509 38.5816C34.29 38.3647 34.167 38.0707 34.167 37.7642V35.4517C34.167 35.1449 34.2902 34.8507 34.5095 34.6337C34.7288 34.4168 35.0263 34.2949 35.3364 34.2949H37.6747C37.9848 34.2949 38.2823 34.4168 38.5016 34.6337C38.7209 34.8507 38.8441 35.1449 38.8441 35.4517V37.7642C38.8441 38.071 38.7209 38.3652 38.5016 38.5821C38.2823 38.799 37.9848 38.9209 37.6747 38.9209ZM49.3684 38.9209H47.0287C46.7186 38.9209 46.4211 38.799 46.2018 38.5821C45.9825 38.3652 45.8593 38.071 45.8593 37.7642V35.4517C45.8593 35.1449 45.9825 34.8507 46.2018 34.6337C46.4211 34.4168 46.7186 34.2949 47.0287 34.2949H49.3684C49.6785 34.2949 49.976 34.4168 50.1953 34.6337C50.4146 34.8507 50.5378 35.1449 50.5378 35.4517V37.7642C50.5378 38.071 50.4146 38.3652 50.1953 38.5821C49.976 38.799 49.6785 38.9209 49.3684 38.9209ZM37.6747 48.1747H35.335C35.1814 48.1747 35.0292 48.1448 34.8873 48.0866C34.7453 48.0284 34.6164 47.9431 34.5078 47.8356C34.3992 47.7281 34.3131 47.6005 34.2544 47.46C34.1957 47.3196 34.1655 47.1691 34.1656 47.0171V44.7032C34.1656 44.3964 34.2888 44.1022 34.5081 43.8852C34.7274 43.6683 35.0249 43.5464 35.335 43.5464H37.6728C37.9829 43.5464 38.2804 43.6683 38.4997 43.8852C38.719 44.1022 38.8422 44.3964 38.8422 44.7032V47.0152C38.8422 47.1672 38.812 47.3176 38.7533 47.458C38.6946 47.5984 38.6084 47.726 38.4998 47.8335C38.3912 47.9409 38.2623 48.0262 38.1204 48.0843C37.9785 48.1425 37.8264 48.1724 37.6728 48.1724L37.6747 48.1747ZM49.3684 48.1747H47.0287C46.8751 48.1747 46.7229 48.1448 46.581 48.0866C46.4391 48.0284 46.3101 47.9431 46.2015 47.8356C46.0929 47.7281 46.0068 47.6005 45.9481 47.46C45.8894 47.3196 45.8592 47.1691 45.8593 47.0171V44.7032C45.8593 44.3964 45.9825 44.1022 46.2018 43.8852C46.4211 43.6683 46.7186 43.5464 47.0287 43.5464H49.3684C49.6785 43.5464 49.976 43.6683 50.1953 43.8852C50.4146 44.1022 50.5378 44.3964 50.5378 44.7032V47.0152C50.5378 47.1672 50.5076 47.3176 50.4489 47.458C50.3902 47.5984 50.304 47.726 50.1954 47.8335C50.0869 47.9409 49.9579 48.0262 49.816 48.0843C49.6741 48.1425 49.522 48.1724 49.3684 48.1724V48.1747ZM37.6766 63.1124H47.0287V52.7042H37.6766V63.1124ZM17.9641 58.4878H22.4752V49.2349H17.9641V58.4878ZM17.9641 44.6085H22.4752V40.1728H17.9641V44.6085ZM62.2277 58.4878H66.7407V49.2349H62.2282L62.2277 58.4878ZM62.2277 44.6085H66.7407V40.1728H62.2282L62.2277 44.6085Z" fill="#F0F6FD"/>
<path d="M56.3829 64.2659H28.3226C28.1697 64.2659 28.0183 64.2362 27.877 64.1784C27.7357 64.1205 27.6073 64.0357 27.4991 63.9287C27.391 63.8218 27.3052 63.6948 27.2466 63.5551C27.1881 63.4153 27.158 63.2655 27.158 63.1143V29.2715C27.158 28.6355 27.6792 28.1199 28.3226 28.1199H56.3829C57.0263 28.1199 57.5475 28.6355 57.5475 29.272V63.1147C57.5475 63.7512 57.0263 64.2659 56.3829 64.2659ZM29.4864 61.9613H55.2173V30.4264H29.4864V61.9613Z" fill="#214885"/>
<path d="M72.5855 64.2659H56.3826C56.0738 64.2659 55.7777 64.1446 55.5594 63.9286C55.341 63.7126 55.2184 63.4197 55.2184 63.1143V35.5449C55.2184 34.9085 55.7397 34.3928 56.3831 34.3928H72.5855C73.2289 34.3928 73.7502 34.9085 73.7502 35.5449V63.1143C73.7502 63.7507 73.2289 64.2659 72.5855 64.2659ZM57.5468 61.9631H71.4213V36.6979H57.5468V61.9631ZM28.3219 64.2659H12.119C11.8107 64.2648 11.5154 64.1428 11.298 63.9266C11.0805 63.7105 10.9586 63.4178 10.959 63.1129V35.5431C10.959 34.9066 11.4798 34.391 12.1227 34.391H28.3219C28.9653 34.391 29.4866 34.9066 29.4866 35.5431V63.1129C29.4868 63.2643 29.4568 63.4142 29.3983 63.5541C29.3398 63.694 29.2541 63.8212 29.1459 63.9283C29.0377 64.0353 28.9093 64.1203 28.7679 64.1782C28.6265 64.2362 28.4749 64.2659 28.3219 64.2659ZM13.2832 61.9631H27.1577V36.6979H13.2832V61.9631Z" fill="#214885"/>
<path d="M12.1192 36.6979H10.9498C10.795 36.701 10.6411 36.6735 10.4971 36.617C10.3532 36.5606 10.2221 36.4762 10.1115 36.369C10.0009 36.2618 9.91306 36.1338 9.85308 35.9926C9.7931 35.8514 9.76221 35.6997 9.76221 35.5466C9.76221 35.3934 9.7931 35.2417 9.85308 35.1005C9.91306 34.9593 10.0009 34.8313 10.1115 34.7241C10.2221 34.6169 10.3532 34.5326 10.4971 34.4761C10.6411 34.4196 10.795 34.3921 10.9498 34.3952H12.1192C12.4279 34.3952 12.7241 34.5165 12.9424 34.7325C13.1607 34.9484 13.2834 35.2414 13.2834 35.5468C13.2834 35.8522 13.1607 36.1451 12.9424 36.3611C12.7241 36.5771 12.4279 36.6979 12.1192 36.6979ZM73.7556 36.6979H72.5862C72.4314 36.701 72.2775 36.6735 72.1335 36.617C71.9896 36.5606 71.8585 36.4762 71.7479 36.369C71.6373 36.2618 71.5494 36.1338 71.4895 35.9926C71.4295 35.8514 71.3986 35.6997 71.3986 35.5466C71.3986 35.3934 71.4295 35.2417 71.4895 35.1005C71.5494 34.9593 71.6373 34.8313 71.7479 34.7241C71.8585 34.6169 71.9896 34.5326 72.1335 34.4761C72.2775 34.4196 72.4314 34.3921 72.5862 34.3952H73.7556C74.0643 34.3952 74.3604 34.5165 74.5788 34.7325C74.7971 34.9484 74.9198 35.2414 74.9198 35.5468C74.9198 35.8522 74.7971 36.1451 74.5788 36.3611C74.3604 36.5771 74.0643 36.6979 73.7556 36.6979ZM58.7206 30.4264H25.9829C25.6741 30.4264 25.378 30.305 25.1597 30.0891C24.9413 29.8731 24.8187 29.5802 24.8187 29.2748C24.8187 28.9693 24.9413 28.6764 25.1597 28.4604C25.378 28.2445 25.6741 28.1231 25.9829 28.1231H58.7206C59.0294 28.1231 59.3255 28.2445 59.5438 28.4604C59.7621 28.6764 59.8848 28.9693 59.8848 29.2748C59.8848 29.5802 59.7621 29.8731 59.5438 30.0891C59.3255 30.305 59.0294 30.4264 58.7206 30.4264ZM37.6747 40.073H35.335C34.7165 40.072 34.1236 39.8284 33.6864 39.3956C33.2492 38.9627 33.0034 38.376 33.0029 37.7642V35.4517C33.0034 34.8398 33.2492 34.2531 33.6864 33.8203C34.1236 33.3874 34.7165 33.1438 35.335 33.1428H37.6728C38.2917 33.1433 38.8851 33.3867 39.3227 33.8196C39.7603 34.2525 40.0064 34.8395 40.0069 35.4517V37.7642C40.0064 38.376 39.7606 38.9627 39.3234 39.3956C38.8862 39.8284 38.2933 40.072 37.6747 40.073ZM35.335 35.4461V37.7642H37.6785V35.4517L35.335 35.4461ZM49.3684 40.073H47.0288C46.4099 40.0725 45.8165 39.8291 45.3789 39.3962C44.9413 38.9633 44.6952 38.3764 44.6947 37.7642V35.4517C44.6952 34.8395 44.9413 34.2525 45.3789 33.8196C45.8165 33.3867 46.4099 33.1433 47.0288 33.1428H49.3684C49.9873 33.1433 50.5807 33.3867 51.0183 33.8196C51.4559 34.2525 51.702 34.8395 51.7025 35.4517V37.7642C51.702 38.3764 51.4559 38.9633 51.0183 39.3962C50.5807 39.8291 49.9873 40.0725 49.3684 40.073ZM47.0306 35.4461V37.7642H49.3741V35.4517L47.0306 35.4461ZM37.6747 49.3166H35.335C34.7162 49.3161 34.1228 49.0727 33.6852 48.6398C33.2475 48.2069 33.0015 47.62 33.001 47.0078V44.7032C33.0019 44.0912 33.2481 43.5046 33.6857 43.072C34.1232 42.6394 34.7164 42.3962 35.335 42.3957H37.6728C38.2917 42.3962 38.8851 42.6396 39.3227 43.0725C39.7603 43.5054 40.0064 44.0924 40.0069 44.7045V47.0166C40.0039 47.6269 39.757 48.2112 39.3201 48.642C38.8831 49.0728 38.2916 49.3156 37.6747 49.3166ZM35.335 44.699V47.0171H37.6785V44.7032L35.335 44.699ZM49.3684 49.3166H47.0288C46.4099 49.3161 45.8165 49.0727 45.3789 48.6398C44.9413 48.2069 44.6952 47.62 44.6947 47.0078V44.7032C44.6952 44.091 44.9413 43.504 45.3789 43.0711C45.8165 42.6382 46.4099 42.3948 47.0288 42.3943H49.3684C49.9873 42.3948 50.5807 42.6382 51.0183 43.0711C51.4559 43.504 51.702 44.091 51.7025 44.7032V47.0152C51.7 47.6261 51.4531 48.2112 51.0157 48.6425C50.5783 49.0737 49.986 49.3161 49.3684 49.3166ZM47.0306 44.6901V47.0083H49.3741V44.7032L47.0306 44.6901ZM47.0288 64.2659H37.6747C37.5218 64.266 37.3704 64.2362 37.229 64.1784C37.0877 64.1205 36.9593 64.0357 36.8512 63.9288C36.743 63.8218 36.6572 63.6948 36.5987 63.5551C36.5402 63.4153 36.51 63.2656 36.51 63.1143V52.7042C36.51 52.0682 37.0313 51.5526 37.6747 51.5526H47.0288C47.6721 51.5526 48.193 52.0682 48.193 52.7046V63.1129C48.1931 63.2642 48.1632 63.4141 48.1047 63.554C48.0463 63.6939 47.9606 63.821 47.8525 63.9281C47.7443 64.0352 47.6159 64.1201 47.4746 64.1781C47.3333 64.2361 47.1818 64.2659 47.0288 64.2659ZM38.8385 61.9631H45.8645V53.8577H38.8403V61.9631H38.8385Z" fill="#214885"/>
<path d="M22.4751 59.6395H17.964C17.8111 59.6395 17.6597 59.6097 17.5185 59.5518C17.3772 59.4939 17.2489 59.4091 17.1408 59.3022C17.0327 59.1952 16.9469 59.0683 16.8884 58.9286C16.8299 58.7888 16.7998 58.6391 16.7998 58.4879V49.235C16.7998 48.5985 17.3211 48.0829 17.9645 48.0829H22.4751C23.1185 48.0829 23.6398 48.5985 23.6398 49.235V58.4879C23.6398 59.1243 23.1185 59.6395 22.4751 59.6395ZM19.1282 57.3362H21.3114V50.3866H19.1282V57.3362ZM22.4751 45.7601H17.964C17.8111 45.7601 17.6597 45.7303 17.5184 45.6724C17.3771 45.6145 17.2487 45.5296 17.1406 45.4227C17.0325 45.3157 16.9468 45.1887 16.8883 45.0489C16.8298 44.9091 16.7997 44.7593 16.7998 44.608V40.1737C16.7998 39.5373 17.3211 39.0217 17.9645 39.0217H22.4751C23.1185 39.0217 23.6398 39.5373 23.6398 40.1737V44.609C23.6398 45.2449 23.1185 45.7601 22.4751 45.7601ZM19.1282 43.4569H21.3114V41.3244H19.1282V43.4569ZM66.7387 59.6395H62.2276C61.919 59.6393 61.623 59.518 61.4047 59.302C61.1865 59.0861 61.0639 58.7932 61.0639 58.4879V49.235C61.0639 48.5985 61.5852 48.0829 62.2276 48.0829H66.7387C67.3821 48.0829 67.9034 48.5985 67.9034 49.235V58.4879C67.9034 59.1243 67.3821 59.6395 66.7387 59.6395ZM63.3918 57.3362H65.575V50.3866H63.3918V57.3362ZM66.7387 45.7601H62.2276C62.0748 45.7601 61.9234 45.7302 61.7822 45.6723C61.6409 45.6144 61.5126 45.5295 61.4046 45.4225C61.2965 45.3155 61.2108 45.1885 61.1523 45.0488C61.0939 44.909 61.0638 44.7593 61.0639 44.608V40.1737C61.0639 39.5373 61.5852 39.0217 62.2276 39.0217H66.7387C67.3821 39.0217 67.9034 39.5373 67.9034 40.1737V44.609C67.9034 45.2449 67.3821 45.7601 66.7387 45.7601ZM63.3918 43.4569H65.575V41.3244H63.3918V43.4569Z" fill="#214885"/>
<path fill-rule="evenodd" clip-rule="evenodd" d="M41.9019 29.8087C42.0774 29.9599 42.3152 30.0449 42.5635 30.0449C43.0806 30.0449 43.4995 29.6842 43.4995 29.2386V27.4282C45.1211 27.0705 46.3193 25.8028 46.3193 24.294C46.3193 22.7854 45.1211 21.518 43.4995 21.1596V18.027C43.7512 18.1512 43.967 18.3243 44.1294 18.5336C44.3364 18.8005 44.447 19.1143 44.447 19.4353C44.447 19.6491 44.5454 19.8542 44.7209 20.0054C44.8965 20.1566 45.1345 20.2416 45.3828 20.2416C45.6309 20.2416 45.8689 20.1566 46.0444 20.0054C46.22 19.8542 46.3186 19.6491 46.3186 19.4353C46.3186 17.9268 45.1206 16.6593 43.4995 16.3009V14.5769C43.4995 14.3631 43.4011 14.158 43.2256 14.0068C43.05 13.8555 42.812 13.7706 42.5637 13.7706C42.3157 13.7706 42.0776 13.8555 41.9021 14.0068C41.7266 14.158 41.6279 14.3631 41.6279 14.5769V16.3008C40.0066 16.659 38.8081 17.9266 38.8081 19.4353C38.8081 20.9437 40.0066 22.2112 41.6279 22.5694V25.7024C41.376 25.5781 41.1597 25.4048 40.9971 25.1951C40.79 24.9282 40.6797 24.6143 40.6797 24.2933C40.6797 24.0795 40.5813 23.8744 40.4058 23.7232C40.2302 23.572 39.9922 23.487 39.7439 23.487C39.4958 23.487 39.2578 23.572 39.0823 23.7232C38.9067 23.8744 38.8081 24.0795 38.8081 24.2933C38.8103 25.8013 40.0081 27.0675 41.6279 27.4269V29.2386C41.6279 29.4524 41.7266 29.6575 41.9019 29.8087ZM41.6279 20.8442V18.0264C41.4836 18.0975 41.3501 18.1852 41.2312 18.2876C40.9678 18.5146 40.7883 18.8038 40.7156 19.1186C40.6428 19.4335 40.6802 19.7598 40.8228 20.0564C40.9653 20.353 41.2068 20.6064 41.5166 20.7848C41.553 20.8057 41.5901 20.8255 41.6279 20.8442ZM43.4995 22.8852V25.7021C43.6436 25.6311 43.7769 25.5436 43.8955 25.4414C44.1589 25.2145 44.3384 24.9253 44.4111 24.6104C44.4839 24.2956 44.4465 23.9692 44.304 23.6726C44.1614 23.376 43.9199 23.1225 43.6101 22.9442C43.574 22.9234 43.5371 22.9037 43.4995 22.8852Z" fill="#214885"/>
<path d="M65.3262 2.25099L19.356 72.416" stroke="#CC4149" stroke-width="4" stroke-linecap="round"/>
<circle cx="41.9377" cy="41.9377" r="39.9377" stroke="#CC4149" stroke-width="4"/>
</g>
</svg>
