<svg width="200" height="209" viewBox="0 0 200 209" fill="none" xmlns="http://www.w3.org/2000/svg">
<path d="M87.9299 7.51601H111.227V12.777H87.9299V7.51601Z" fill="#267EDC"/>
<path d="M179.939 20.293V93.055H179.509C178.513 93.055 177.557 93.4508 176.852 94.1553C176.147 94.8599 175.751 95.8155 175.751 96.812V98.23H151.703C151.178 97.8092 150.698 97.3358 150.27 96.817C149.333 95.645 148.622 93.901 147.865 92.057C146.658 89.111 145.295 85.774 142.435 83.489C139.574 81.205 136.042 80.629 132.915 80.107C130.941 79.777 129.078 79.466 127.71 78.81C126.342 78.153 125.02 76.926 123.562 75.608C121.182 73.458 118.486 71.018 114.864 70.197C111.357 69.4 107.945 70.402 104.924 71.284C102.975 71.855 101.132 72.396 99.5641 72.396C97.9951 72.396 96.1521 71.856 94.1981 71.284C91.1921 70.402 87.7551 69.4 84.2631 70.197C80.6411 71.018 77.9401 73.458 75.5661 75.607C74.1081 76.926 72.7301 78.173 71.4171 78.81C70.1051 79.446 68.1811 79.777 66.2071 80.107C63.0761 80.608 59.5291 81.22 56.6871 83.489C53.8471 85.759 52.4641 89.111 51.2571 92.057C50.5061 93.901 49.7891 95.645 48.8521 96.823C48.4237 97.3397 47.9435 97.8111 47.4191 98.23H23.3711V96.812C23.3708 95.8157 22.9749 94.8602 22.2704 94.1557C21.5659 93.4512 20.6104 93.0553 19.6141 93.055H19.1831V20.293H179.939ZM170.445 83.13C171.35 82.7384 172.065 82.0074 172.436 81.0941C172.808 80.1808 172.806 79.1582 172.431 78.2463C172.056 77.3343 171.339 76.6059 170.433 76.2176C169.526 75.8293 168.504 75.8122 167.585 76.17L154.885 81.426C154.091 81.7643 153.438 82.3657 153.035 83.1289C152.632 83.8922 152.504 84.7708 152.673 85.6172C152.841 86.4637 153.296 87.2263 153.961 87.7769C154.625 88.3276 155.459 88.6327 156.322 88.641C156.815 88.6394 157.304 88.5427 157.76 88.356L170.445 83.13ZM153.095 60.207C153.456 59.8607 153.744 59.4459 153.942 58.9869C154.14 58.5279 154.245 58.0339 154.25 57.534C154.255 57.034 154.16 56.5381 153.971 56.0753C153.782 55.6124 153.502 55.192 153.149 54.8385C152.795 54.4851 152.374 54.2058 151.911 54.0169C151.448 53.8281 150.952 53.7335 150.452 53.7388C149.952 53.744 149.459 53.849 149 54.0475C148.541 54.2461 148.126 54.5342 147.78 54.895L141.402 61.279C140.724 61.9894 140.351 62.9369 140.362 63.9189C140.374 64.9008 140.769 65.8394 141.463 66.5338C142.158 67.2282 143.096 67.6234 144.078 67.6348C145.06 67.6463 146.008 67.273 146.718 66.595L153.096 60.207H153.095ZM131.809 40.425C132.183 39.5059 132.179 38.4761 131.797 37.5601C131.416 36.644 130.687 35.916 129.771 35.5346C128.855 35.1532 127.825 35.1493 126.906 35.5238C125.987 35.8983 125.254 36.6209 124.865 37.534L119.61 50.221C119.421 50.6769 119.324 51.1656 119.324 51.6591C119.324 52.1526 119.421 52.6413 119.61 53.0973C119.799 53.5532 120.076 53.9675 120.425 54.3164C120.774 54.6654 121.188 54.9422 121.644 55.131C122.1 55.3198 122.589 55.417 123.082 55.417C123.576 55.417 124.064 55.3198 124.52 55.1309C124.976 54.942 125.391 54.6652 125.74 54.3162C126.088 53.9672 126.365 53.5529 126.554 53.097L131.809 40.425ZM103.337 45.11V36.09C103.345 35.5914 103.254 35.0962 103.069 34.6332C102.884 34.1701 102.608 33.7486 102.258 33.3932C101.909 33.0377 101.492 32.7554 101.032 32.5627C100.572 32.3699 100.078 32.2707 99.5796 32.2707C99.0809 32.2707 98.5873 32.3699 98.1273 32.5627C97.6674 32.7554 97.2504 33.0377 96.9007 33.3932C96.551 33.7486 96.2755 34.1701 96.0903 34.6332C95.9052 35.0962 95.814 35.5914 95.8221 36.09V45.11C95.814 45.6086 95.9052 46.1038 96.0903 46.5668C96.2755 47.0298 96.551 47.4514 96.9007 47.8068C97.2504 48.1623 97.6674 48.4446 98.1273 48.6373C98.5873 48.8301 99.0809 48.9293 99.5796 48.9293C100.078 48.9293 100.572 48.8301 101.032 48.6373C101.492 48.4446 101.909 48.1623 102.258 47.8068C102.608 47.4514 102.884 47.0298 103.069 46.5668C103.254 46.1038 103.345 45.6086 103.337 45.11ZM77.5161 55.13C78.4352 54.7465 79.1651 54.0147 79.5462 53.0947C79.9273 52.1746 79.9287 51.1411 79.5501 50.22L74.2931 37.535C73.9117 36.6142 73.1802 35.8826 72.2594 35.5011C71.3386 35.1197 70.3039 35.1196 69.3831 35.501C68.4623 35.8824 67.7307 36.6139 67.3492 37.5347C66.9678 38.4555 66.9677 39.4902 67.3491 40.411L72.6051 53.098C72.7934 53.5544 73.0699 53.9691 73.4188 54.3185C73.7676 54.6678 74.1819 54.9449 74.6381 55.1338C75.0942 55.3228 75.5831 55.4199 76.0768 55.4195C76.5705 55.4192 77.0592 55.3215 77.5151 55.132L77.5161 55.13ZM57.7491 66.595C58.0981 66.2464 58.375 65.8325 58.5639 65.3768C58.7528 64.9212 58.8501 64.4328 58.8501 63.9395C58.8501 63.4462 58.7528 62.9578 58.5639 62.5022C58.375 62.0465 58.0981 61.6326 57.7491 61.284L51.3511 54.88C50.6467 54.1752 49.6911 53.7791 48.6947 53.7788C47.6982 53.7785 46.7424 54.1741 46.0376 54.8785C45.3328 55.5829 44.9367 56.5385 44.9364 57.5349C44.9361 58.5314 45.3317 59.4872 46.0361 60.192L52.4331 66.595C52.782 66.9443 53.1964 67.2214 53.6525 67.4104C54.1085 67.5995 54.5974 67.6968 55.0911 67.6968C55.5848 67.6968 56.0737 67.5995 56.5298 67.4104C56.9858 67.2214 57.4002 66.9443 57.7491 66.595ZM46.3071 86.336C46.6871 85.415 46.6864 84.381 46.3051 83.4605C45.9238 82.5401 45.1931 81.8084 44.2731 81.426L31.5881 76.17C31.1311 75.9812 30.6414 75.8842 30.1469 75.8846C29.6524 75.885 29.1629 75.9828 28.7062 76.1724C28.2495 76.3621 27.8347 76.6398 27.4853 76.9897C27.136 77.3397 26.8589 77.755 26.6701 78.212C26.4813 78.669 26.3843 79.1587 26.3847 79.6532C26.3851 80.1477 26.4829 80.6372 26.6726 81.0939C26.8622 81.5506 27.1399 81.9655 27.4898 82.3148C27.8398 82.6642 28.2551 82.9412 28.7121 83.13L41.3971 88.386C41.8561 88.562 42.3441 88.649 42.8351 88.641C43.5765 88.6416 44.3016 88.4231 44.9193 88.013C45.537 87.6029 46.0198 87.0195 46.3071 86.336ZM175.751 122.608V177.828C172.099 180.523 169.041 183.942 166.767 187.87C164.494 191.798 163.053 196.153 162.535 200.662H36.6231C36.1049 196.153 34.664 191.799 32.3901 187.87C30.1163 183.942 27.0581 180.524 23.4061 177.829V122.608H77.7961V124.208C77.7961 125.205 78.1919 126.16 78.8964 126.865C79.601 127.57 80.5566 127.966 81.5531 127.966H117.6C118.597 127.966 119.552 127.57 120.257 126.865C120.961 126.16 121.357 125.205 121.357 124.208V122.608H175.751Z" fill="#82B3E7"/>
<path d="M99.5789 119.496C100.072 119.489 100.561 119.579 101.018 119.763C101.475 119.946 101.891 120.219 102.242 120.565C102.593 120.911 102.871 121.324 103.061 121.778C103.251 122.233 103.348 122.721 103.348 123.214C103.347 123.706 103.248 124.194 103.057 124.648C102.866 125.102 102.587 125.514 102.235 125.859C101.883 126.204 101.466 126.476 101.009 126.658C100.551 126.84 100.062 126.93 99.5689 126.921C98.5948 126.904 97.6665 126.504 96.9843 125.809C96.302 125.114 95.9203 124.178 95.9216 123.204C95.9229 122.229 96.3071 121.295 96.9913 120.601C97.6754 119.908 98.6048 119.511 99.5789 119.496V119.496Z" fill="#82B3E7"/>
<path d="M113.842 105.968V140.45H85.3101V105.968H113.842ZM110.806 123.214C110.807 120.992 110.149 118.819 108.915 116.971C107.681 115.122 105.926 113.682 103.873 112.831C101.82 111.98 99.5606 111.757 97.3809 112.191C95.2012 112.624 93.199 113.694 91.6277 115.266C90.0564 116.838 88.9865 118.84 88.5534 121.02C88.1204 123.2 88.3435 125.459 89.1947 127.512C90.0459 129.565 91.4869 131.319 93.3354 132.553C95.1838 133.787 97.3567 134.444 99.5791 134.443C105.776 134.434 110.798 129.412 110.806 123.213V123.214Z" fill="#267EDC"/>
<path d="M15.8909 100.571V173.66C13.2095 172.599 10.4 171.896 7.53491 171.57V100.571H15.8909V100.571ZM77.7899 105.747V115.092H23.4009V105.747H24.4229H77.7899ZM121.357 105.747H175.751V115.092H121.357V105.747ZM191.633 100.571V171.571C188.767 171.896 185.957 172.598 183.276 173.66V100.571H191.633V100.571Z" fill="#267EDC"/>
<path d="M191.633 179.146V200.662H170.089C170.905 195.242 173.438 190.228 177.315 186.355C181.193 182.482 186.211 179.955 191.632 179.146H191.633Z" fill="#267EDC"/>
<path d="M29.0479 200.662H7.53491V179.145C12.9498 179.961 17.9607 182.49 21.8325 186.362C25.7042 190.235 28.2331 195.246 29.0479 200.661V200.662Z" fill="#267EDC"/>
<path d="M142.384 98.231H56.769C57.31 97.134 57.771 96.011 58.227 94.904C59.169 92.6 60.056 90.425 61.388 89.363C62.721 88.301 65.011 87.93 67.455 87.524C69.9 87.118 72.36 86.707 74.7 85.58C77.04 84.453 78.833 82.799 80.622 81.186C82.41 79.572 84.239 77.914 85.942 77.523C87.531 77.163 89.755 77.813 92.105 78.5C94.369 79.161 96.935 79.913 99.58 79.913C102.225 79.913 104.79 79.161 107.055 78.5C109.405 77.814 111.624 77.162 113.217 77.528C114.92 77.914 116.674 79.502 118.533 81.186C120.391 82.869 122.17 84.473 124.459 85.58C126.749 86.687 129.289 87.118 131.699 87.524C134.109 87.93 136.453 88.311 137.771 89.363C139.089 90.415 139.991 92.6 140.927 94.899C141.383 96.007 141.844 97.159 142.385 98.231H142.384Z" fill="#FFCE00"/>
<path d="M199.148 96.813V204.42C199.148 205.417 198.752 206.372 198.047 207.077C197.342 207.781 196.387 208.177 195.39 208.177H3.757C2.76066 208.177 1.80521 207.781 1.10069 207.076C0.396176 206.372 0.000265089 205.416 0 204.42V96.813C0.000265089 95.8167 0.396176 94.8612 1.10069 94.1567C1.80521 93.4522 2.76066 93.0563 3.757 93.056H11.683V16.535C11.683 15.5385 12.0788 14.5828 12.7833 13.878C13.4879 13.1733 14.4435 12.7773 15.44 12.777H80.41V3.758C80.41 3.26441 80.5072 2.77565 80.6962 2.31964C80.8851 1.86364 81.162 1.44931 81.511 1.10034C81.8601 0.751364 82.2745 0.474572 82.7306 0.285774C83.1866 0.0969754 83.6754 -0.000131211 84.169 1.33062e-07H114.98C115.977 1.33062e-07 116.933 0.395931 117.637 1.10069C118.342 1.80545 118.738 2.76132 118.738 3.758V12.777H183.698C184.695 12.7773 185.65 13.1733 186.355 13.878C187.059 14.5828 187.455 15.5385 187.455 16.535V93.055H195.381C195.875 93.0536 196.365 93.1497 196.822 93.3379C197.279 93.5261 197.695 93.8027 198.045 94.1519C198.395 94.501 198.673 94.9158 198.862 95.3724C199.052 95.8291 199.148 96.3186 199.148 96.813ZM191.633 200.662V179.145C186.212 179.954 181.194 182.481 177.317 186.354C173.439 190.227 170.906 195.241 170.09 200.661H191.633V200.662ZM191.633 171.571V100.571H183.266V173.66C185.951 172.597 188.764 171.895 191.633 171.571ZM179.949 93.055V20.293H19.219V93.055H19.649C20.6455 93.055 21.6012 93.4508 22.306 94.1553C23.0107 94.8599 23.4067 95.8155 23.407 96.812V98.23H47.455C47.9794 97.8111 48.4596 97.3397 48.888 96.823C49.825 95.645 50.542 93.901 51.293 92.057C52.501 89.111 53.863 85.774 56.723 83.489C59.585 81.205 63.117 80.629 66.243 80.107C68.217 79.777 70.086 79.466 71.453 78.81C72.821 78.153 74.143 76.926 75.602 75.608C77.976 73.458 80.677 71.018 84.299 70.197C87.806 69.4 91.213 70.402 94.234 71.284C96.188 71.855 98.032 72.396 99.6 72.396C101.168 72.396 103.012 71.856 104.96 71.284C107.966 70.402 111.408 69.4 114.9 70.197C118.523 71.018 121.218 73.458 123.598 75.607C125.056 76.926 126.428 78.173 127.746 78.81C129.064 79.446 130.977 79.777 132.951 80.107C136.083 80.608 139.635 81.22 142.471 83.489C145.306 85.759 146.694 89.111 147.901 92.057C148.658 93.901 149.369 95.645 150.306 96.817C150.734 97.3357 151.214 97.8092 151.739 98.23H175.787V96.812C175.787 95.8155 176.183 94.8599 176.888 94.1553C177.593 93.4508 178.548 93.055 179.545 93.055H179.975H179.95H179.949ZM175.751 177.828V122.607H121.357V128.207C121.357 129.204 120.961 130.159 120.257 130.864C119.552 131.569 118.597 131.965 117.6 131.965H81.553C80.5563 131.965 79.6005 131.569 78.8957 130.864C78.1909 130.16 77.795 129.204 77.795 128.207V122.607H23.406V177.827C27.0582 180.522 30.1164 183.94 32.3902 187.869C34.6641 191.797 36.1049 196.152 36.623 200.661H162.535C163.053 196.152 164.494 191.798 166.768 187.87C169.041 183.941 172.099 180.523 175.751 177.828ZM175.751 115.091V105.746H121.357V115.091H175.751ZM56.768 98.232H142.384C141.844 97.134 141.382 96.007 140.926 94.899C139.989 92.599 139.098 90.425 137.77 89.363C136.442 88.301 134.143 87.93 131.698 87.524C129.253 87.118 126.793 86.707 124.458 85.58C122.124 84.453 120.32 82.799 118.532 81.186C116.743 79.572 114.919 77.914 113.216 77.528C111.623 77.162 109.403 77.814 107.054 78.5C104.789 79.161 102.224 79.913 99.579 79.913C96.933 79.913 94.369 79.161 92.104 78.5C89.754 77.814 87.53 77.162 85.941 77.523C84.238 77.913 82.479 79.503 80.621 81.186C78.762 82.869 76.983 84.473 74.699 85.58C72.414 86.687 69.864 87.118 67.454 87.524C65.044 87.93 62.704 88.311 61.387 89.363C60.07 90.415 59.167 92.6 58.226 94.904C57.77 96.012 57.309 97.16 56.768 98.232ZM113.842 124.45V105.968H85.31V124.45H113.842ZM111.227 12.777V7.515H87.925V12.775H111.227V12.777ZM77.795 115.092V105.747H23.406V115.092H77.795ZM19.649 200.662H29.048C28.2334 195.247 25.7046 190.235 21.8328 186.363C17.961 182.49 12.95 179.961 7.535 179.145V200.661H19.649V200.662ZM15.891 173.66V100.571H7.535V171.571C10.4 171.897 13.2096 172.599 15.891 173.66Z" fill="#214885"/>
<path d="M156.322 91.648C154.751 91.6557 153.226 91.1162 152.01 90.1222C150.793 89.1281 149.96 87.7416 149.654 86.2005C149.349 84.6595 149.589 83.0601 150.334 81.6768C151.079 80.2936 152.282 79.2128 153.737 78.62L166.417 73.364C167.24 73.0241 168.121 72.8496 169.011 72.8504C169.901 72.8512 170.782 73.0273 171.604 73.3686C172.426 73.7099 173.173 74.2097 173.801 74.8396C174.43 75.4694 174.929 76.217 175.269 77.0395C175.608 77.862 175.783 78.7435 175.782 79.6334C175.781 80.5234 175.605 81.4045 175.264 82.2265C174.923 83.0484 174.423 83.7951 173.793 84.4238C173.163 85.0526 172.416 85.5511 171.593 85.891L158.907 91.147C158.087 91.479 157.208 91.649 156.322 91.647V91.648Z" fill="#FFCE00"/>
<path d="M169.008 75.885C169.884 75.8766 170.735 76.1744 171.415 76.727C172.095 77.2797 172.56 78.0524 172.73 78.9117C172.901 79.771 172.766 80.6628 172.348 81.433C171.931 82.2032 171.258 82.8035 170.445 83.13L157.76 88.386C156.839 88.7674 155.804 88.7673 154.883 88.3857C153.962 88.0042 153.231 87.2725 152.849 86.3515C152.468 85.4305 152.468 84.3958 152.85 83.4749C153.231 82.554 153.963 81.8224 154.884 81.441L167.584 76.171C168.04 75.979 168.529 75.881 169.023 75.88L169.008 75.885V75.885ZM169.023 69.867C167.738 69.8657 166.466 70.1193 165.28 70.613L152.6 75.869C150.52 76.7378 148.805 78.2991 147.744 80.2882C146.684 82.2773 146.344 84.5719 146.782 86.783C147.22 88.9941 148.409 90.9857 150.148 92.4202C151.887 93.8547 154.068 94.6439 156.322 94.654C157.588 94.654 158.842 94.409 160.015 93.932L172.7 88.676C174.791 87.8125 176.517 86.2504 177.584 84.2561C178.651 82.2619 178.994 79.9592 178.553 77.7407C178.111 75.5223 176.914 73.5256 175.165 72.0913C173.416 70.6571 171.224 69.8741 168.962 69.876L169.022 69.866L169.023 69.867Z" fill="#214885"/>
<path d="M144.038 70.684C142.706 70.6778 141.405 70.2785 140.298 69.5361C139.192 68.7937 138.329 67.7412 137.818 66.5106C137.307 65.28 137.171 63.926 137.426 62.6182C137.681 61.3105 138.317 60.1071 139.253 59.159L145.631 52.776C146.259 52.1477 147.004 51.6492 147.824 51.3089C148.645 50.9686 149.524 50.7933 150.412 50.7929C151.3 50.7925 152.18 50.967 153.001 51.3065C153.821 51.646 154.567 52.1438 155.195 52.7715C155.824 53.3992 156.322 54.1445 156.663 54.9649C157.003 55.7853 157.178 56.6647 157.179 57.5528C157.179 58.441 157.005 59.3205 156.665 60.1412C156.326 60.9619 155.828 61.7077 155.2 62.336L148.842 68.699C148.213 69.3324 147.465 69.8341 146.64 70.1749C145.815 70.5158 144.93 70.6888 144.038 70.684V70.684Z" fill="#FFCE00"/>
<path d="M150.44 53.778C151.184 53.7775 151.911 53.9978 152.53 54.4111C153.149 54.8243 153.631 55.4118 153.915 56.0992C154.199 56.7866 154.273 57.5429 154.128 58.2724C153.982 59.0019 153.623 59.6717 153.096 60.197L146.718 66.595C146.014 67.2999 145.058 67.6962 144.062 67.6967C143.065 67.6972 142.11 67.3018 141.405 66.5975C140.7 65.8932 140.303 64.9377 140.303 63.9413C140.302 62.9448 140.698 61.9889 141.402 61.284L147.78 54.9C148.128 54.5489 148.543 54.2702 148.999 54.0802C149.456 53.8902 149.946 53.7926 150.44 53.793V53.778ZM150.44 47.78C149.158 47.7764 147.888 48.0269 146.703 48.5171C145.518 49.0073 144.442 49.7275 143.537 50.636L137.164 57.015C135.393 58.8595 134.415 61.3251 134.441 63.8825C134.467 66.4398 135.494 68.8851 137.303 70.6933C139.111 72.5015 141.557 73.5285 144.114 73.5539C146.672 73.5793 149.137 72.601 150.981 70.829L157.359 64.445C158.726 63.0785 159.656 61.3375 160.033 59.4422C160.41 57.5468 160.217 55.5822 159.477 53.7968C158.738 52.0115 157.485 50.4855 155.878 49.4118C154.272 48.3381 152.383 47.7651 150.45 47.765L150.44 47.78V47.78Z" fill="#214885"/>
<path d="M123.076 58.423C121.739 58.4215 120.432 58.0237 119.321 57.2799C118.21 56.5361 117.344 55.4797 116.833 54.244C116.489 53.4237 116.312 52.5433 116.312 51.654C116.312 50.7647 116.489 49.8843 116.833 49.064L122.089 36.382C122.775 34.7211 124.092 33.4005 125.751 32.7109C127.41 32.0212 129.276 32.0189 130.936 32.7045C132.597 33.3901 133.918 34.7074 134.608 36.3666C135.297 38.0258 135.3 39.8911 134.614 41.552L129.358 54.244C128.846 55.4867 127.974 56.5482 126.855 57.2927C125.736 58.0371 124.42 58.4307 123.076 58.423V58.423Z" fill="#FFCE00"/>
<path d="M128.331 35.215C128.949 35.2157 129.558 35.3687 130.102 35.6605C130.647 35.9523 131.112 36.3739 131.455 36.888C131.799 37.4021 132.01 37.9928 132.07 38.608C132.131 39.2232 132.039 39.8438 131.803 40.415L126.553 53.097C126.171 54.0169 125.439 54.7477 124.518 55.129C123.598 55.5103 122.564 55.511 121.643 55.131C121.187 54.9422 120.773 54.6654 120.424 54.3164C120.075 53.9675 119.798 53.5532 119.609 53.0973C119.42 52.6413 119.323 52.1526 119.323 51.6591C119.323 51.1656 119.42 50.6769 119.609 50.221L124.864 37.534C125.147 36.846 125.628 36.2576 126.246 35.8436C126.865 35.4296 127.592 35.2087 128.336 35.209L128.331 35.214V35.215ZM128.336 29.196C126.403 29.1938 124.512 29.7674 122.906 30.8437C121.3 31.9199 120.051 33.45 119.318 35.239L114.068 47.916C113.076 50.3099 113.075 52.9997 114.066 55.394C115.058 57.7882 116.959 59.6907 119.353 60.683H119.403C124.378 62.713 130.059 60.345 132.119 55.381L137.374 42.69C137.991 41.2052 138.233 39.5911 138.077 37.9906C137.921 36.3901 137.373 34.8528 136.482 33.5148C135.59 32.1768 134.382 31.0794 132.964 30.32C131.547 29.5606 129.964 29.1625 128.356 29.161L128.336 29.196V29.196ZM99.5789 111.98C105.779 111.983 110.802 117.01 110.801 123.21C110.801 129.41 105.775 134.437 99.5749 134.438C93.3749 134.438 88.3489 129.414 88.3459 123.214C88.3519 117.012 93.3769 111.986 99.5789 111.98ZM103.291 123.214C103.292 122.726 103.196 122.242 103.01 121.791C102.824 121.339 102.55 120.929 102.206 120.584C101.861 120.238 101.451 119.963 101 119.776C100.55 119.588 100.066 119.492 99.5779 119.491C99.0897 119.49 98.6061 119.586 98.1547 119.772C97.7034 119.958 97.2932 120.232 96.9475 120.576C96.6017 120.921 96.3273 121.331 96.1399 121.782C95.9524 122.232 95.8556 122.716 95.8549 123.204C95.8536 124.19 96.2441 125.136 96.9404 125.834C97.6367 126.533 98.5819 126.926 99.5679 126.927C100.554 126.928 101.5 126.538 102.198 125.842C102.897 125.145 103.29 124.2 103.291 123.214V123.214Z" fill="#214885"/>
<path d="M99.579 51.859C97.7858 51.8564 96.0669 51.1429 94.799 49.875C93.5311 48.607 92.8176 46.8881 92.815 45.095V36.075C92.8041 35.1799 92.971 34.2915 93.306 33.4614C93.641 32.6313 94.1375 31.8759 94.7666 31.2391C95.3957 30.6022 96.145 30.0966 96.971 29.7515C97.797 29.4065 98.6833 29.2288 99.5784 29.2288C100.474 29.2288 101.36 29.4065 102.186 29.7515C103.012 30.0966 103.761 30.6022 104.39 31.2391C105.019 31.8759 105.516 32.6313 105.851 33.4614C106.186 34.2915 106.353 35.1799 106.342 36.075V45.095C106.339 46.8879 105.626 48.6067 104.358 49.8746C103.091 51.1425 101.372 51.8561 99.579 51.859V51.859Z" fill="#FFCE00"/>
<path d="M99.5791 32.318C100.576 32.3183 101.531 32.7143 102.236 33.419C102.94 34.1238 103.336 35.0795 103.336 36.076V45.095C103.344 45.5936 103.253 46.0888 103.068 46.5518C102.883 47.0148 102.607 47.4364 102.257 47.7918C101.908 48.1473 101.491 48.4296 101.031 48.6223C100.571 48.815 100.077 48.9143 99.5786 48.9143C99.0799 48.9143 98.5862 48.815 98.1263 48.6223C97.6664 48.4296 97.2494 48.1473 96.8997 47.7918C96.55 47.4364 96.2745 47.0148 96.0893 46.5518C95.9041 46.0888 95.8129 45.5936 95.8211 45.095V36.075C95.8206 35.5814 95.9174 35.0925 96.1061 34.6364C96.2948 34.1803 96.5716 33.7659 96.9207 33.4169C97.2697 33.0679 97.6842 32.7912 98.1404 32.6026C98.5966 32.4141 99.0855 32.3173 99.5791 32.318V32.318ZM99.5791 26.305C94.1851 26.311 89.8151 30.682 89.8091 36.075V45.095C89.8091 50.491 94.1831 54.865 99.5791 54.865C104.974 54.865 109.349 50.491 109.349 45.095V36.075C109.343 30.682 104.972 26.311 99.5791 26.305V26.305Z" fill="#214885"/>
<path d="M76.0771 58.423C74.7369 58.4265 73.4261 58.0303 72.3122 57.285C71.1984 56.5397 70.3321 55.4792 69.8241 54.239L64.5691 41.542C64.204 40.7173 64.0075 39.8279 63.9911 38.9261C63.9747 38.0243 64.1389 37.1284 64.4739 36.2909C64.8088 35.4535 65.3079 34.6915 65.9416 34.0498C66.5754 33.4081 67.3311 32.8996 68.1643 32.5542C68.9974 32.2088 69.8913 32.0334 70.7932 32.0385C71.6951 32.0436 72.5869 32.229 73.4161 32.5838C74.2453 32.9386 74.9952 33.4556 75.6217 34.1044C76.2482 34.7533 76.7386 35.5209 77.0641 36.362L82.3241 49.058C83.0068 50.7155 83.0054 52.5759 82.3201 54.2324C81.6348 55.8888 80.3213 57.2064 78.6671 57.897C77.8461 58.239 76.9661 58.417 76.0771 58.423Z" fill="#FFCE00"/>
<path d="M70.816 35.215C72.336 35.216 73.706 36.133 74.288 37.539L79.544 50.226C79.9226 51.1471 79.9212 52.1806 79.5401 53.1007C79.1589 54.0207 78.4291 54.7525 77.51 55.136C77.0541 55.3255 76.5653 55.4232 76.0716 55.4236C75.5779 55.4239 75.089 55.3268 74.6329 55.1378C74.1768 54.9489 73.7625 54.6718 73.4136 54.3225C73.0648 53.9731 72.7883 53.5584 72.6 53.102L67.344 40.415C67.108 39.8438 67.0163 39.2232 67.077 38.6082C67.1378 37.9931 67.3491 37.4025 67.6923 36.8884C68.0355 36.3744 68.5 35.9529 69.0448 35.661C69.5896 35.3691 70.1979 35.216 70.816 35.215V35.215ZM70.816 29.201C69.2074 29.201 67.6238 29.5981 66.2056 30.3572C64.7874 31.1162 63.5786 32.2137 62.6864 33.5521C61.7942 34.8906 61.2463 36.4286 61.0914 38.0297C60.9364 39.6307 61.1791 41.2453 61.798 42.73L67.054 55.412C69.111 60.377 74.793 62.748 79.769 60.718H79.829C84.801 58.642 87.161 52.938 85.109 47.956L79.854 35.264C79.1143 33.4821 77.8626 31.9597 76.2573 30.8895C74.652 29.8193 72.7653 29.2494 70.836 29.252L70.816 29.202V29.201Z" fill="#214885"/>
<path d="M55.0949 70.684C54.2074 70.6856 53.3283 70.5119 52.508 70.173C51.6877 69.8341 50.9425 69.3366 50.3149 68.709L43.9269 62.316C43.2771 61.6926 42.7584 60.9457 42.401 60.1192C42.0436 59.2927 41.8549 58.4031 41.8458 57.5027C41.8367 56.6023 42.0075 55.7091 42.3481 54.8755C42.6887 54.042 43.1923 53.2848 43.8294 52.6484C44.4664 52.012 45.2241 51.5092 46.0581 51.1694C46.892 50.8297 47.7853 50.6599 48.6858 50.6699C49.5862 50.6799 50.4755 50.8696 51.3017 51.2278C52.1278 51.586 52.8742 52.1056 53.4969 52.756L59.8689 59.139C60.8067 60.0861 61.4439 61.2891 61.7004 62.5971C61.957 63.905 61.8214 65.2596 61.3108 66.4908C60.8001 67.722 59.9372 68.7749 58.8303 69.5173C57.7233 70.2598 56.4218 70.6587 55.0889 70.664L55.0949 70.684Z" fill="#FFCE00"/>
<path d="M48.7121 53.778C49.2062 53.7775 49.6955 53.8746 50.152 54.0637C50.6085 54.2528 51.0231 54.5302 51.3721 54.88L57.7501 61.264C58.4345 61.9736 58.8133 62.9233 58.8051 63.9091C58.7968 64.8949 58.4023 65.8382 57.7062 66.5363C57.0101 67.2343 56.0679 67.6315 55.0821 67.6425C54.0963 67.6535 53.1456 67.2774 52.4341 66.595L46.0571 60.212C45.5321 59.6865 45.1746 59.0172 45.0298 58.2887C44.885 57.5601 44.9593 56.805 45.2434 56.1187C45.5275 55.4324 46.0086 54.8456 46.626 54.4326C47.2434 54.0195 47.9693 53.7987 48.7121 53.798V53.778V53.778ZM48.7121 47.785C46.7794 47.7846 44.89 48.3574 43.2829 49.431C41.6758 50.5045 40.4232 52.0306 39.6836 53.8162C38.944 55.6018 38.7506 57.5666 39.1279 59.4621C39.5052 61.3577 40.4361 63.0987 41.8031 64.465L48.1811 70.849C50.0129 72.6812 52.4976 73.7108 55.0885 73.711C57.6794 73.7113 60.1643 72.6824 61.9966 70.8505C63.8288 69.0186 64.8583 66.534 64.8586 63.9431C64.8589 61.3522 63.8299 58.8672 61.9981 57.035L55.6211 50.652C54.7155 49.7406 53.6381 49.018 52.4513 48.5258C51.2645 48.0337 49.9919 47.7819 48.7071 47.785H48.7121Z" fill="#214885"/>
<path d="M42.8349 91.648C41.9569 91.648 41.0879 91.478 40.2749 91.147L27.5649 85.881C26.7443 85.5409 25.9988 85.0425 25.3708 84.4142C24.7429 83.786 24.2448 83.0402 23.9051 82.2195C23.219 80.5619 23.2195 78.6997 23.9064 77.0425C24.5933 75.3853 25.9104 74.0688 27.5679 73.3827C29.2255 72.6966 31.0877 72.6971 32.7449 73.384L45.4299 78.64C46.8729 79.2411 48.0633 80.3234 48.7984 81.703C49.5336 83.0826 49.7682 84.6743 49.4624 86.2073C49.1566 87.7403 48.3292 89.1201 47.1209 90.112C45.9126 91.1039 44.3981 91.6467 42.8349 91.648V91.648Z" fill="#FFCE00"/>
<path d="M30.1451 75.885C30.6391 75.885 31.1271 75.985 31.5831 76.175L44.2681 81.431C45.0588 81.771 45.7088 82.3721 46.1095 83.1338C46.5102 83.8956 46.6373 84.7718 46.4695 85.6159C46.3017 86.4601 45.8492 87.2211 45.1877 87.7717C44.5262 88.3223 43.6957 88.6292 42.8351 88.641C42.3436 88.6389 41.857 88.5421 41.4021 88.356L28.7121 83.13C27.9057 82.7993 27.2394 82.1987 26.827 81.4308C26.4147 80.663 26.2821 79.7757 26.4519 78.9209C26.6217 78.066 27.0833 77.2968 27.7578 76.7448C28.4322 76.1928 29.2776 75.8924 30.1491 75.895L30.1441 75.885H30.1451ZM30.1501 69.882C27.8878 69.879 25.6946 70.6611 23.9447 72.095C22.1948 73.5288 20.9968 75.5255 20.555 77.7443C20.1133 79.963 20.4552 82.2663 21.5225 84.2611C22.5897 86.2558 24.3161 87.8183 26.4071 88.682L39.0971 93.937C41.4872 94.8879 44.1558 94.8578 46.5238 93.8533C48.8918 92.8489 50.7682 90.951 51.7457 88.5718C52.7232 86.1925 52.723 83.5237 51.745 81.1446C50.7671 78.7655 48.8903 76.868 46.5221 75.864L33.8871 70.604C32.7015 70.1099 31.4296 69.856 30.1451 69.857L30.1501 69.882V69.882Z" fill="#214885"/>
<path opacity="0.5" d="M33.446 154.279H65.511C66.8999 154.237 68.2177 153.655 69.1851 152.657C70.1525 151.66 70.6935 150.325 70.6935 148.935C70.6935 147.546 70.1525 146.211 69.1851 145.214C68.2177 144.216 66.8999 143.634 65.511 143.592H33.446C32.7305 143.57 32.0179 143.692 31.3505 143.951C30.6831 144.21 30.0744 144.6 29.5606 145.098C29.0467 145.596 28.6382 146.193 28.3592 146.852C28.0803 147.511 27.9365 148.22 27.9365 148.935C27.9365 149.651 28.0803 150.36 28.3592 151.019C28.6382 151.678 29.0467 152.275 29.5606 152.773C30.0744 153.271 30.6831 153.661 31.3505 153.92C32.0179 154.179 32.7305 154.301 33.446 154.279ZM63.802 179.006H95.866C97.2549 178.964 98.5727 178.382 99.5401 177.384C100.507 176.387 101.049 175.052 101.049 173.663C101.049 172.273 100.507 170.938 99.5401 169.941C98.5727 168.943 97.2549 168.361 95.866 168.319H63.802C63.0865 168.297 62.3739 168.419 61.7065 168.678C61.0391 168.937 60.4304 169.327 59.9166 169.825C59.4027 170.323 58.9942 170.92 58.7152 171.579C58.4363 172.238 58.2925 172.947 58.2925 173.663C58.2925 174.378 58.4363 175.087 58.7152 175.746C58.9942 176.405 59.4027 177.002 59.9166 177.5C60.4304 177.998 61.0391 178.388 61.7065 178.647C62.3739 178.906 63.0865 179.028 63.802 179.006V179.006ZM131.217 163.855H163.281C163.995 163.875 164.706 163.751 165.371 163.491C166.037 163.231 166.643 162.841 167.155 162.343C167.667 161.844 168.074 161.249 168.352 160.591C168.63 159.932 168.773 159.225 168.773 158.511C168.773 157.797 168.63 157.09 168.352 156.431C168.074 155.773 167.667 155.178 167.155 154.679C166.643 154.181 166.037 153.791 165.371 153.531C164.706 153.271 163.995 153.147 163.281 153.167H131.217C130.502 153.145 129.789 153.267 129.122 153.526C128.454 153.785 127.845 154.175 127.332 154.673C126.818 155.171 126.409 155.768 126.13 156.427C125.851 157.086 125.708 157.795 125.708 158.51C125.708 159.226 125.851 159.935 126.13 160.594C126.409 161.253 126.818 161.85 127.332 162.348C127.845 162.846 128.454 163.236 129.122 163.495C129.789 163.754 130.502 163.876 131.217 163.854V163.855ZM109.839 202.1H141.903C142.617 202.12 143.328 201.996 143.993 201.736C144.659 201.476 145.265 201.086 145.777 200.588C146.289 200.089 146.696 199.494 146.974 198.836C147.252 198.177 147.395 197.47 147.395 196.756C147.395 196.042 147.252 195.335 146.974 194.676C146.696 194.018 146.289 193.423 145.777 192.924C145.265 192.426 144.659 192.036 143.993 191.776C143.328 191.516 142.617 191.392 141.903 191.412H109.839C109.125 191.392 108.414 191.516 107.749 191.776C107.083 192.036 106.477 192.426 105.965 192.924C105.453 193.423 105.046 194.018 104.768 194.676C104.49 195.335 104.347 196.042 104.347 196.756C104.347 197.47 104.49 198.177 104.768 198.836C105.046 199.494 105.453 200.089 105.965 200.588C106.477 201.086 107.083 201.476 107.749 201.736C108.414 201.996 109.125 202.12 109.839 202.1Z" fill="#0667D0"/>
<path d="M123.093 94.3273L99.9542 86.0783C99.6612 85.9739 99.3416 85.9739 99.0486 86.0783L75.9084 94.3273C75.6428 94.4224 75.4129 94.5982 75.2502 94.8306C75.0875 95.063 75.0001 95.3405 75 95.6251V112.121C75 133.467 78.133 141.276 98.8871 151.852C99.077 151.949 99.287 152 99.5 152C99.713 152 99.923 151.949 100.113 151.852C120.867 141.276 124 133.482 124 112.121V95.6251C124 95.0432 123.637 94.5235 123.094 94.3273H123.093Z" fill="#214885"/>
<path d="M115.079 135.34C112.127 139.229 107.355 142.542 99.4814 146.642C91.6078 142.542 86.8324 139.229 83.8762 135.339C80.8791 131.395 79.6261 126.684 79.22 119.446L79.1405 118.03H79.1278C79.0706 116.367 79.0469 114.596 79.0466 112.7L79.6133 98.2399L99.4817 91.5823L119.335 98.2396L119.901 112.7C119.901 114.596 119.877 116.367 119.82 118.03H119.807L119.727 119.446C119.322 126.685 118.072 131.396 115.079 135.34Z" fill="#34B47E" stroke="#214885" stroke-width="3"/>
<path d="M91.3811 110.868C91.3805 113.321 92.4641 115.647 94.3356 117.211L92.7567 128.547C92.7296 128.742 92.7442 128.94 92.7995 129.129C92.8547 129.317 92.9494 129.491 93.077 129.64C93.2046 129.788 93.3623 129.907 93.5394 129.989C93.7165 130.071 93.9088 130.113 94.1035 130.113H105C105.195 130.113 105.387 130.071 105.564 129.989C105.742 129.907 105.899 129.788 106.027 129.64C106.155 129.492 106.249 129.317 106.305 129.129C106.36 128.94 106.375 128.742 106.348 128.547L104.768 117.211C106.182 116.022 107.157 114.386 107.536 112.568C107.914 110.75 107.673 108.856 106.853 107.193C106.032 105.531 104.679 104.196 103.014 103.407C101.348 102.618 99.4676 102.419 97.6766 102.844C95.8855 103.269 94.2893 104.293 93.1466 105.75C92.0039 107.206 91.3818 109.01 91.3811 110.868Z" fill="#214885"/>
<path d="M105 110.868C104.998 111.774 104.774 112.666 104.348 113.464C103.921 114.262 103.306 114.941 102.557 115.441C102.343 115.585 102.174 115.787 102.069 116.023C101.964 116.26 101.927 116.522 101.963 116.779L103.435 127.355H95.6607L97.1323 116.779C97.168 116.522 97.1311 116.26 97.026 116.023C96.9209 115.787 96.7517 115.585 96.538 115.441C95.491 114.735 94.7187 113.684 94.3527 112.468C93.9868 111.251 94.0497 109.944 94.5308 108.769C95.0118 107.594 95.8814 106.624 96.9913 106.024C98.1011 105.424 99.3828 105.23 100.618 105.477C101.853 105.725 102.965 106.398 103.764 107.381C104.564 108.364 105 109.596 105 110.868L105 110.868Z" fill="#DDF6E7"/>
</svg>
