<svg fill="none" height="92" viewBox="0 0 108 92" width="108" xmlns="http://www.w3.org/2000/svg" xmlns:xlink="http://www.w3.org/1999/xlink"><mask id="a" height="92" maskUnits="userSpaceOnUse" width="108" x="0" y="0"><path d="m0 0h108v92h-108z" fill="#c4c4c4"/></mask><g mask="url(#a)" stroke="#214885" stroke-width="2.71"><path clip-rule="evenodd" d="m17.3487 6.27403c-2.1126-.64589-4.3489.54312-4.9947 2.65573l-5.0268 16.44174c-.64589 2.1126.54313 4.3488 2.65574 4.9947l81.06116 24.7829c2.1126.6459 4.3488-.5431 4.9947-2.6557l5.0272-16.4418c.645-2.1126-.544-4.3488-2.6562-4.9947zm64.2715 41.76827c-4.5712-1.3976-7.1669-6.192-5.7842-10.7143 1.3829-4.5234 6.2148-7.0469 10.7869-5.6491 4.5712 1.3976 7.1668 6.192 5.7839 10.7153s-6.2155 7.0456-10.7866 5.6481z" fill="#267edc" fill-rule="evenodd"/><path d="m60.4916 27.9353-34.6259-10.5862c-.4769-.1458-.9817.1226-1.1275.5995l-2.1007 6.8711c-.1458.4769.1226.9817.5995 1.1275l34.6259 10.5862c.4769.1458.9818-.1226 1.1276-.5995l2.1007-6.871c.1458-.477-.1227-.9818-.5996-1.1276z" fill="#82b3e7"/><path clip-rule="evenodd" d="m12.0114 63.6136c-1.9505 1.0371-2.69101 3.4591-1.6539 5.4097l8.0715 15.1803c1.0372 1.9506 3.4592 2.691 5.4097 1.6539l67.2532-35.7591c6.1425-3.2669 8.4742-10.8934 5.2083-17.0357-3.2665-6.1434-10.8931-8.4751-17.0356-5.2083z" fill="#82b3e7" fill-rule="evenodd"/><circle cx="84.7" cy="39.2" fill="#f0f6fd" r="8.5"/></g></svg>