<svg fill="none" height="275" viewBox="0 0 312 275" width="312" xmlns="http://www.w3.org/2000/svg"><path d="m5.01477 139.873h39.83703v-64.7265h-39.83703z" fill="#82b3e7"/><path d="m44.8518 139.873h59.7512v-97.0915h-59.7502zm59.7512 0h39.833v-64.7265h-39.833z" fill="#82b3e7"/><path d="m64.7668 65.1855h-4.982c-.6603 0-1.2937-.2624-1.7607-.7293-.4669-.467-.7293-1.1003-.7293-1.7607v-4.978c0-.6604.2624-1.2938.7293-1.7607.467-.467 1.1004-.7293 1.7607-.7293h4.978c.6604 0 1.2938.2623 1.7607.7293.467.4669.7293 1.1003.7293 1.7607v4.978c0 .6604-.2623 1.2937-.7293 1.7607-.4669.4669-1.1003.7293-1.7607.7293zm24.9 0h-4.982c-.6603 0-1.2937-.2624-1.7607-.7293-.4669-.467-.7293-1.1003-.7293-1.7607v-4.978c0-.6604.2624-1.2938.7293-1.7607.467-.467 1.1004-.7293 1.7607-.7293h4.982c.6604 0 1.2938.2623 1.7607.7293.467.4669.7293 1.1003.7293 1.7607v4.978c0 .6604-.2623 1.2937-.7293 1.7607-.4669.4669-1.1003.7293-1.7607.7293zm-24.9 19.918h-4.982c-.6598-.0008-1.2924-.2635-1.7587-.7304s-.7283-1.0998-.7283-1.7596v-4.978c0-.6604.2624-1.2937.7293-1.7607.467-.467 1.1004-.7293 1.7607-.7293h4.979c.6604 0 1.2938.2623 1.7607.7293.467.467.7293 1.1003.7293 1.7607v4.978c0 .6604-.2623 1.2937-.7293 1.7607-.4669.4669-1.1003.7293-1.7607.7293zm24.9 0h-4.982c-.6603 0-1.2937-.2624-1.7607-.7293-.4669-.467-.7293-1.1003-.7293-1.7607v-4.978c0-.6604.2624-1.2937.7293-1.7607.467-.467 1.1004-.7293 1.7607-.7293h4.982c.6604 0 1.2938.2623 1.7607.7293.467.467.7293 1.1003.7293 1.7607v4.978c0 .6604-.2623 1.2937-.7293 1.7607-.4669.4669-1.1003.7293-1.7607.7293zm-24.9 19.9195h-4.982c-.3271 0-.6511-.064-.9533-.189-.3022-.126-.5768-.309-.8081-.541-.2312-.231-.4146-.506-.5396-.808s-.1892-.626-.189-.954v-4.9805c0-.6604.2624-1.2937.7293-1.7607.467-.467 1.1004-.7293 1.7607-.7293h4.978c.6604 0 1.2938.2623 1.7607.7293.467.467.7293 1.1003.7293 1.7607v4.9765c.0002.328-.0641.651-.1892.954-.1251.302-.3085.576-.5397.808-.2312.231-.5058.415-.8079.54-.3022.125-.6261.189-.9532.189zm24.9 0h-4.982c-.3271 0-.6511-.064-.9533-.189-.3022-.126-.5768-.309-.8081-.541-.2312-.231-.4146-.506-.5396-.808s-.1892-.626-.189-.954v-4.9805c0-.6604.2624-1.2937.7293-1.7607.467-.467 1.1004-.7293 1.7607-.7293h4.982c.6604 0 1.2938.2623 1.7607.7293.467.467.7293 1.1003.7293 1.7607v4.9765c.0002.328-.0641.651-.1892.954-.1251.302-.3085.576-.5397.808-.2312.231-.5058.415-.8079.54-.3022.125-.6261.189-.9532.189zm-24.896 34.85h19.914v-22.405h-19.914zm-47.306-9.955h14.937v-19.918h-14.937zm0-29.877h14.937v-14.9375h-14.937zm99.5842 29.877h14.941v-19.918h-14.94zm0-29.877h14.941v-14.9375h-14.94z" fill="#f0f6fd"/><g fill="#214885"><path d="m104.603 142.356h-59.7502c-.3256.001-.6481-.063-.949-.188-.3009-.124-.5743-.307-.8046-.537s-.413-.504-.5376-.805c-.1246-.3-.1888-.623-.1888-.948v-97.1045c0-1.369 1.11-2.479 2.48-2.479h59.7502c1.37 0 2.48 1.11 2.48 2.48v97.1035c0 1.37-1.11 2.48-2.48 2.48zm-57.2722-4.961h54.7902v-92.1355h-54.7902z"/><path d="m144.436 142.356h-39.833c-.658 0-1.288-.261-1.753-.726s-.726-1.095-.726-1.753v-64.7355c0-1.37 1.11-2.48 2.48-2.48h39.832c1.37 0 2.48 1.11 2.48 2.48v64.7355c0 1.37-1.11 2.48-2.48 2.48zm-37.354-4.957h34.875v-59.7755h-34.875zm-62.2302 4.957h-39.83297c-.65643-.002-1.28512-.265-1.74816-.73-.46305-.465-.72264-1.095-.72184-1.752v-64.7365c0-1.37 1.109-2.48 2.478-2.48h39.82497c1.37 0 2.48 1.11 2.48 2.48v64.7365c.0004.326-.0634.649-.1879.95s-.3071.575-.5374.806c-.2304.23-.5039.413-.805.538-.3011.124-.6238.189-.9497.188zm-37.35397-4.957h34.87497v-59.7755h-34.87497v59.7745z"/><path d="m5.01879 77.6235h-2.49c-.32967.0066-.65735-.0526-.96386-.1742-.3065-.1215-.585667-.3031-.821156-.5339s-.422566-.5062-.550279-.8102c-.1277129-.304-.193495-.6305-.193495-.9602s.0657821-.6561.193495-.9601c.127713-.304.31479-.5795.550279-.8103s.514656-.4123.821156-.5339c.30651-.1216.63419-.1808.96386-.1742h2.49c.65747 0 1.28801.2612 1.75291.7261.46491.4649.72609 1.0954.72609 1.7529s-.26118 1.288-.72609 1.7529c-.4649.4649-1.09544.7251-1.75291.7251zm141.90821 0h-2.49c-.33.0066-.658-.0526-.964-.1742-.307-.1215-.586-.3031-.821-.5339-.236-.2308-.423-.5062-.55-.8102-.128-.304-.194-.6305-.194-.9602s.066-.6561.194-.9601c.127-.304.314-.5795.55-.8103.235-.2308.514-.4123.821-.5339.306-.1216.634-.1808.964-.1742h2.49c.657 0 1.288.2612 1.753.7261s.726 1.0954.726 1.7529-.261 1.288-.726 1.7529-1.096.7251-1.753.7251zm-37.346-32.364h-69.7102c-.6575 0-1.288-.2612-1.7529-.7261s-.7261-1.0954-.7261-1.7529.2612-1.288.7261-1.7529 1.0954-.7261 1.7529-.7261h69.7102c.657 0 1.288.2612 1.753.7261s.726 1.0954.726 1.7529-.261 1.288-.726 1.7529-1.096.7261-1.753.7261zm-44.8142 22.409h-4.982c-1.3178-.001-2.5813-.525-3.5132-1.4568-.9318-.9319-1.4558-2.1954-1.4568-3.5132v-4.981c.001-1.3178.525-2.5813 1.4568-3.5131.9319-.9319 2.1954-1.4558 3.5132-1.4569h4.978c1.3178.0011 2.5813.525 3.5131 1.4569.9319.9318 1.4558 2.1953 1.4569 3.5131v4.978c-.0003 1.3176-.5233 2.5813-1.4544 3.5137-.931.9324-2.194 1.4572-3.5116 1.4593zm-4.982-9.959v4.99h4.99v-4.982zm29.882 9.959h-4.982c-1.3178-.001-2.5813-.525-3.5132-1.4568-.9318-.9319-1.4558-2.1954-1.4568-3.5132v-4.981c.001-1.3178.525-2.5813 1.4568-3.5131.9319-.9319 2.1954-1.4558 3.5132-1.4569h4.982c1.3178.0011 2.5813.525 3.5131 1.4569.9319.9318 1.4558 2.1953 1.4569 3.5131v4.978c-.0003 1.3183-.5239 2.5826-1.4558 3.5151s-2.1959 1.4569-3.5142 1.4579zm-4.978-9.959v4.99h4.99v-4.982zm-19.922 29.874h-4.982c-1.3171-.0021-2.5796-.5265-3.5106-1.4582-.9309-.9318-1.4544-2.1947-1.4554-3.5118v-4.978c.001-1.3171.5245-2.58 1.4554-3.5117.931-.9317 2.1935-1.4562 3.5106-1.4583h4.978c1.3178.0011 2.5813.525 3.5131 1.4569.9319.9318 1.4558 2.1953 1.4569 3.5131v4.978c-.0011 1.3171-.5245 2.58-1.4554 3.5118-.931.9317-2.1935 1.4561-3.5106 1.4582zm-4.982-9.96v4.99h4.99v-4.978zm29.882 9.96h-4.982c-1.3178-.001-2.5813-.525-3.5132-1.4568-.9318-.9319-1.4558-2.1954-1.4568-3.5132v-4.978c.001-1.3178.525-2.5813 1.4568-3.5131.9319-.9319 2.1954-1.4558 3.5132-1.4569h4.982c1.3178.0011 2.5813.525 3.5131 1.4569.9319.9318 1.4558 2.1953 1.4569 3.5131v4.978c-.0011 1.3178-.525 2.5813-1.4569 3.5132-.9318.9318-2.1953 1.4558-3.5131 1.4568zm-4.978-9.96v4.99h4.99v-4.978zm-19.922 29.8585h-4.982c-1.3178-.002-2.5813-.526-3.5132-1.457-.9318-.932-1.4558-2.196-1.4568-3.513v-4.9615c.0018-1.3173.5262-2.58 1.4579-3.5112s2.1948-1.4547 3.5121-1.4558h4.978c1.3178.0011 2.5813.525 3.5131 1.4569.9319.9318 1.4558 2.1953 1.4569 3.5131v4.9775c-.0063 1.313-.5321 2.571-1.4625 3.498-.9304.928-2.1899 1.45-3.5035 1.453zm-4.982-9.9405v4.9905h4.99v-4.9815zm29.882 9.9405h-4.982c-1.3178-.002-2.5813-.526-3.5132-1.457-.9318-.932-1.4558-2.196-1.4568-3.513v-4.9615c.001-1.3178.525-2.5813 1.4568-3.5131.9319-.9319 2.1954-1.4558 3.5132-1.4569h4.982c1.3178.0011 2.5813.525 3.5131 1.4569.9319.9318 1.4558 2.1953 1.4569 3.5131v4.9775c-.0053 1.315-.5311 2.574-1.4625 3.502-.9314.929-2.1925 1.45-3.5075 1.452zm-4.978-9.9595v4.9905h4.99v-4.9625zm-.004 44.8345h-19.918c-.3256 0-.6481-.064-.949-.189-.3009-.124-.5743-.307-.8046-.537s-.413-.504-.5376-.805c-.1247-.3-.1888-.623-.1888-.948v-22.409c0-1.369 1.11-2.479 2.48-2.479h19.918c1.37 0 2.479 1.11 2.479 2.48v22.405c.0004.325-.0634.648-.1878.949-.1245.301-.307.575-.5372.805-.2303.231-.5037.414-.8046.539-.301.124-.6236.189-.9494.189zm-17.44-4.957h14.961v-17.448h-14.957v17.448z"/><path d="m32.4018 132.397h-14.937c-.3255 0-.6479-.064-.9486-.188-.3008-.125-.5741-.307-.8043-.538-.2302-.23-.4128-.503-.5374-.804-.1245-.301-.1887-.623-.1887-.949v-19.918c0-1.37 1.11-2.48 2.48-2.48h14.936c1.37 0 2.48 1.11 2.48 2.48v19.918c0 1.37-1.11 2.48-2.48 2.48zm-12.458-4.958h9.98v-14.96h-9.98zm12.458-24.919h-14.937c-.3256 0-.648-.064-.9489-.188-.3008-.125-.5741-.308-.8043-.538s-.4128-.504-.5373-.805c-.1246-.3-.1886-.623-.1885-.949v-14.9345c0-1.37 1.11-2.48 2.48-2.48h14.936c1.37 0 2.48 1.11 2.48 2.48v14.9365c0 1.369-1.11 2.478-2.48 2.478zm-12.458-4.9575h9.98v-9.98h-9.98zm112.0422 34.8345h-14.937c-.657 0-1.288-.261-1.752-.726-.465-.465-.726-1.095-.726-1.753v-19.918c0-1.37 1.11-2.48 2.478-2.48h14.937c1.37 0 2.48 1.11 2.48 2.48v19.918c0 1.37-1.11 2.48-2.48 2.48zm-12.458-4.958h9.98v-14.96h-9.98zm12.458-24.919h-14.937c-.326 0-.648-.064-.949-.189-.3-.124-.574-.307-.804-.537-.23-.231-.412-.504-.537-.805-.124-.301-.188-.623-.188-.949v-14.9345c0-1.37 1.11-2.48 2.478-2.48h14.937c1.37 0 2.48 1.11 2.48 2.48v14.9365c0 1.369-1.11 2.478-2.48 2.478zm-12.458-4.9575h9.98v-9.98h-9.98z"/><path clip-rule="evenodd" d="m73.2372 44.3467c.467.4181 1.1006.6531 1.7613.6533 1.3771 0 2.4928-.9974 2.4928-2.2296v-5.0037c4.318-.9911 7.5087-4.4965 7.5087-8.6686 0-4.1713-3.1907-7.676-7.5087-8.6668v-8.6623c.6703.3435 1.2455.8222 1.6778 1.4011.5511.738.8452 1.6057.8452 2.4933 0 .5913.2626 1.1584.7298 1.5765.4673.4181 1.1012.653 1.762.653.6609 0 1.2947-.2349 1.7621-.653.4673-.4181.7298-.9852.7298-1.5765 0-4.1713-3.19-7.67616-7.5067-8.66688v-4.76697c0-.59131-.2624-1.15844-.7298-1.576535-.4673-.418091-1.1011-.653015-1.762-.653015s-1.2947.234924-1.762.653015c-.4672.418095-.7298.985225-.7298 1.576535v4.76697c-4.3169.99072-7.5077 4.49548-7.5077 8.66688 0 4.1706 3.1908 7.6752 7.5077 8.6659v8.6628c-.6709-.3436-1.2466-.8228-1.6792-1.4022-.551-.7382-.845-1.6059-.8449-2.4936 0-.5913-.2624-1.1584-.7298-1.5765-.4673-.4181-1.1011-.653-1.762-.653s-1.2947.2349-1.7619.653c-.4673.4181-.7299.9852-.7299 1.5765.006 4.1696 3.1945 7.6708 7.5077 8.6645v5.0096c0 .5912.2624 1.1582.7295 1.5763zm-.7295-24.7879v-7.7908c-.3842.1967-.7396.439-1.0559.722-.7016.6276-1.1792 1.4273-1.3727 2.2978-.1936.8706-.0942 1.773.2854 2.593.3796.8201 1.0225 1.5209 1.8473 2.0141.0967.0578.1954.1124.2959.1639zm4.9836 5.6435v7.7898c.3837-.1965.7386-.4385 1.0546-.7212.7015-.6276 1.1793-1.4272 1.3729-2.2978.1937-.8706.0944-1.773-.2851-2.5931-.3797-.8201-1.0226-1.5211-1.8474-2.0142-.0965-.0576-.1949-.1122-.295-.1635z" fill-rule="evenodd"/></g><path d="m214.285 66.1135-124.0002 189.9995" stroke="#214885" stroke-linecap="round" stroke-width="5"/><path d="m235.814 272.111h-30.203l2.947-13.84h24.31zm-72.192-101.49h114.181v87.65h-114.181z" fill="#267edc"/><path d="m164 175c0-2.209 1.791-4 4-4h105c2.209 0 4 1.791 4 4v67h-113z" fill="#82b3e7" stroke="#214885" stroke-width="3.5"/><path d="m220.713 252.368c1.729 0 3.131-1.405 3.131-3.138 0-1.732-1.402-3.136-3.131-3.136s-3.131 1.404-3.131 3.136c0 1.733 1.402 3.138 3.131 3.138z" fill="#214885"/><path clip-rule="evenodd" d="m275.649 168.776c2.209 0 4 1.791 4 4v83.341c0 2.21-1.791 4-4 4l-40.567-.001 2.21 10.15h1.838c1.019 0 1.845.827 1.845 1.845 0 1.019-.826 1.845-1.845 1.845h-36.826c-1.019 0-1.845-.826-1.845-1.845 0-1.018.826-1.845 1.845-1.845h1.838l2.21-10.15h-40.567c-2.209 0-4-1.79-4-4v-83.34c0-2.209 1.791-4 4-4zm-65.613 91.34-2.21 10.15h25.783l-2.21-10.15zm-30.388-87.65h-14.18v83.96h110.498v-83.96h-14.365z" fill="#214885" fill-rule="evenodd"/><path d="m178.308 187c0-.552.447-1 1-1h55.636c.553 0 1 .448 1 1v1.718c0 .553-.447 1-1 1h-55.636c-.553 0-1-.447-1-1zm66.752 0c0-.552.448-1 1-1h15.938c.553 0 1 .448 1 1v1.718c0 .553-.447 1-1 1h-15.938c-.552 0-1-.447-1-1zm-44.402 13.199c0-.552.447-1 1-1h60.342c.552 0 1 .448 1 1v1.719c0 .552-.448 1-1 1h-60.342c-.553 0-1-.448-1-1zm-22.35 0c0-.552.447-1 1-1h10.938c.553 0 1 .448 1 1v1.719c0 .552-.447 1-1 1h-10.938c-.553 0-1-.448-1-1z" fill="#214885"/><path d="m202.543 212.922h60.149v11.669h-60.149zm-24.543 0h12.939v11.669h-12.939z" style="fill-rule:evenodd;clip-rule:evenodd;fill:#f0f6fd;stroke:#214885;stroke-width:4;stroke-linejoin:round"/><path d="m309.857 242.04c-.536 0-1.07-.054-1.596-.16.251-1.157.376-2.34.371-3.524-.057-.937-.468-1.817-1.151-2.461-.684-.644-1.587-1.003-2.525-1.004-.939.001-1.843.36-2.526 1.004s-1.095 1.524-1.151 2.461c0 2.018 1.612 3.921 3.914 5.06-.322.747-.728 1.455-1.211 2.109-2.993-4.96-8.808-8.74-15.907-10.19 1.083-.834 1.951-1.916 2.532-3.154 2.037-.081 3.978-.885 5.476-2.269 1.497-1.384 2.452-3.256 2.693-5.281.244-2.025-.241-4.071-1.368-5.77-1.127-1.7-2.824-2.943-4.784-3.506-1.96-.559-4.055-.401-5.909.447s-3.344 2.329-4.202 4.177c-1.711.067-3.361.648-4.737 1.667-1.375 1.018-2.412 2.427-2.975 4.043-.565 1.618-.631 3.368-.188 5.023.442 1.655 1.371 3.139 2.668 4.259-4.11.563-7.975 1.908-11.225 3.935-1.493-1.155-3.327-1.781-5.214-1.78-.677 0-1.225.55-1.225 1.227.004 1.701.517 3.362 1.473 4.768-1.586 1.816-2.75 3.961-3.407 6.28h-.518c-.645 0-1.284.127-1.88.373-.595.247-1.137.609-1.592 1.065-.922.924-1.439 2.175-1.438 3.479-.005 1.336.333 2.65.98 3.818s1.582 2.151 2.717 2.855l8.557 5.342v6.4c0 .678.548 1.228 1.224 1.228h4.901c.464 0 .888-.263 1.096-.679l1.45-2.906c5.555 1.499 11.408 1.499 16.964 0l1.45 2.906c.209.416.633.678 1.096.679h4.915c.677 0 1.225-.55 1.225-1.228v-6.5c4.682-3.46 7.353-8.209 7.353-13.147-.01-1.759-.347-3.501-.995-5.137.982-1.094 1.771-2.347 2.334-3.706.767.168 1.55.25 2.335.246.677 0 1.225-.55 1.225-1.228s-.548-1.228-1.225-1.228zm-3.914-1.017c-1.363-.776-2.203-1.846-2.203-2.667-.007-.165.02-.329.078-.484.059-.155.148-.296.263-.415.114-.119.252-.214.404-.279s.315-.098.481-.098c.165 0 .329.033.481.098s.289.16.404.279c.114.119.203.26.262.415s.085.319.079.484c0 .897-.086 1.793-.258 2.673l.01-.006z" fill="#214885" stroke="#214885"/><path d="m290.25 229.762c3.383 0 6.126-2.748 6.126-6.138 0-3.389-2.743-6.138-6.126-6.138-3.384 0-6.126 2.749-6.126 6.138 0 3.39 2.742 6.138 6.126 6.138z" fill="#ffce00"/><path d="m276.772 228.535c.001-1.429.504-2.813 1.419-3.911s2.186-1.841 3.592-2.1c-.061.364-.098.73-.11 1.098.002.613.07 1.223.202 1.82-.126.188-.197.409-.202.636v4.91c-.009.167.017.332.075.488s.147.299.261.419c.115.12.253.216.406.282.152.065.317.099.483.099s.331-.034.484-.099c.152-.066.29-.162.405-.282s.203-.263.261-.419.084-.321.076-.488v-1.37c1.064 1.082 2.396 1.861 3.861 2.257-.713 1.111-1.767 1.96-3.004 2.42-1.237.459-2.59.504-3.854.127-1.265-.378-2.374-1.156-3.159-2.217-.785-1.062-1.205-2.349-1.196-3.67z" fill="#ffca28"/><path d="m276.772 228.535c.001-1.429.504-2.813 1.419-3.911s2.186-1.841 3.592-2.1c-.061.364-.098.73-.11 1.098.002.613.07 1.223.202 1.82-.126.188-.197.409-.202.636v4.91c-.009.167.017.332.075.488s.147.299.261.419c.115.12.253.216.406.282.152.065.317.099.483.099s.331-.034.484-.099c.152-.066.29-.162.405-.282s.203-.263.261-.419.084-.321.076-.488v-1.37c1.064 1.082 2.396 1.861 3.861 2.257-.713 1.111-1.767 1.96-3.004 2.42-1.237.459-2.59.504-3.854.127-1.265-.378-2.374-1.156-3.159-2.217-.785-1.062-1.205-2.349-1.196-3.67z" fill="#ffce00"/><path d="m290.25 227.305c.677 0 1.225-.55 1.225-1.227v-4.91c.006-.165-.02-.329-.079-.484s-.148-.296-.262-.415c-.115-.119-.252-.214-.404-.279s-.316-.098-.481-.098c-.166 0-.329.033-.481.098s-.29.16-.404.279c-.115.119-.204.26-.263.415-.058.155-.085.319-.078.484v4.91c0 .326.129.638.359.868s.542.359.868.359z" fill="#214885"/><path d="m296.915 264.591c-.163.114-.296.265-.388.441s-.14.371-.14.569v5.905h-2.925l-1.573-3.148c-.129-.261-.348-.468-.617-.582-.268-.115-.569-.129-.847-.041-5.702 1.742-11.794 1.742-17.495 0-.279-.087-.579-.073-.847.042-.269.114-.488.32-.617.581l-1.573 3.148h-2.923v-5.854c0-.424-.219-.818-.578-1.042l-9.135-5.702c-.779-.485-1.42-1.162-1.863-1.965-.443-.804-.674-1.707-.669-2.625.002-.647.26-1.268.717-1.726.458-.459 1.078-.718 1.726-.722h1.489c.586 0 1.09-.415 1.202-.991.46-2.418 1.754-4.78 3.713-6.83.44-.46.456-1.18.037-1.659-.67-.752-1.145-1.657-1.382-2.636 1.083.256 2.075.802 2.871 1.58.201.198.465.319.747.344.281.024.562-.05.795-.21 4.107-2.791 9.439-4.33 15.033-4.33 12.161 0 22.056 7.15 22.056 15.962.002 4.352-2.422 8.437-6.814 11.491z" fill="#fdd1b0"/><path d="m296.915 264.591c-.163.114-.296.265-.388.441s-.14.371-.14.569v5.905h-2.925l-1.573-3.148c-.129-.261-.348-.468-.617-.582-.268-.115-.569-.129-.847-.041-5.702 1.742-11.794 1.742-17.495 0-.279-.087-.579-.073-.847.042-.269.114-.488.32-.617.581l-1.573 3.148h-2.923v-5.854c0-.424-.219-.818-.578-1.042l-9.135-5.702c-.779-.485-1.42-1.162-1.863-1.965-.443-.804-.674-1.707-.669-2.625.002-.647.26-1.268.717-1.726.458-.459 1.078-.718 1.726-.722h1.489c.586 0 1.09-.415 1.202-.991.46-2.418 1.754-4.78 3.713-6.83.44-.46.456-1.18.037-1.659-.67-.752-1.145-1.657-1.382-2.636 1.083.256 2.075.802 2.871 1.58.201.198.465.319.747.344.281.024.562-.05.795-.21 4.107-2.791 9.439-4.33 15.033-4.33 12.161 0 22.056 7.15 22.056 15.962.002 4.352-2.422 8.437-6.814 11.491z" fill="#ebc8c8"/><path d="m264.518 246.951c-.992 0-1.886.598-2.265 1.516-.186.449-.235.943-.14 1.419.094.477.328.915.671 1.259.342.343.779.577 1.255.672.476.094.969.046 1.417-.141.524-.217.957-.61 1.224-1.111.268-.501.354-1.079.243-1.636-.11-.557-.41-1.058-.849-1.419s-.988-.558-1.556-.559z" fill="#214885"/><path d="m263.572 244.028c-.23.247-.43.512-.647.768 4.715-2.484 10.82-3.995 17.523-3.995 9.118 0 17.164 2.791 22.042 7.051-2.993-6.227-11.188-10.735-20.817-10.735-5.587 0-10.926 1.537-15.033 4.33-.48.33-1.125.274-1.542-.134-.795-.777-1.788-1.324-2.87-1.58.237.979.711 1.885 1.38 2.637.202.231.31.53.304.836-.007.307-.128.601-.34.822z" fill="#fff" opacity=".2"/><path d="m279.835 265.366c-6.625 0-12.709-1.252-17.573-3.337l4.132 2.578c.36.224.578.619.578 1.043v5.854h2.917l1.572-3.148c.269-.54.89-.805 1.464-.623 5.702 1.743 11.794 1.743 17.496 0 .278-.088.579-.074.847.04.269.115.488.322.617.583l1.577 3.15h2.919v-5.905c0-.402.196-.78.527-1.01 1.874-1.27 3.483-2.894 4.737-4.781-5.283 3.397-13.085 5.555-21.81 5.555z" fill="#000" opacity=".1"/><path d="m290.632 240.873c-5.129-1.687-12.79-1.687-17.919 0-.31.102-.566.322-.713.613-.148.29-.173.627-.072.937.102.31.322.566.613.713.29.147.627.173.937.071 4.643-1.527 11.74-1.527 16.39 0 .169.056.347.075.524.055.177-.021.347-.079.499-.172.151-.092.281-.217.38-.365.099-.147.164-.315.192-.491.046-.288-.012-.584-.164-.833-.152-.25-.388-.437-.666-.528z" fill="#214885"/></svg>