<svg width="24" height="24" viewBox="0 0 24 24" fill="none" xmlns="http://www.w3.org/2000/svg">
<path d="M12 22C10.0222 22 8.08879 21.4135 6.4443 20.3147C4.79981 19.2159 3.51809 17.6541 2.76121 15.8268C2.00433 13.9996 1.8063 11.9889 2.19215 10.0491C2.578 8.10929 3.53041 6.32746 4.92894 4.92894C6.32746 3.53041 8.10929 2.578 10.0491 2.19215C11.9889 1.8063 13.9996 2.00433 15.8268 2.76121C17.6541 3.51809 19.2159 4.79981 20.3147 6.4443C21.4135 8.08879 22 10.0222 22 12C22 14.6522 20.9464 17.1957 19.0711 19.0711C17.1957 20.9464 14.6522 22 12 22ZM12 4C10.4178 4 8.87104 4.4692 7.55544 5.34825C6.23985 6.2273 5.21447 7.47673 4.60897 8.93854C4.00347 10.4003 3.84504 12.0089 4.15372 13.5607C4.4624 15.1126 5.22433 16.538 6.34315 17.6569C7.46197 18.7757 8.88743 19.5376 10.4393 19.8463C11.9911 20.155 13.5997 19.9965 15.0615 19.391C16.5233 18.7855 17.7727 17.7602 18.6518 16.4446C19.5308 15.129 20 13.5823 20 12C20 9.87827 19.1572 7.84344 17.6569 6.34315C16.1566 4.84286 14.1217 4 12 4ZM11.5 16C11.3022 16 11.1089 16.0587 10.9444 16.1685C10.78 16.2784 10.6518 16.4346 10.5761 16.6173C10.5004 16.8 10.4806 17.0011 10.5192 17.1951C10.5578 17.3891 10.653 17.5673 10.7929 17.7071C10.9328 17.847 11.1109 17.9422 11.3049 17.9808C11.4989 18.0194 11.7 17.9996 11.8827 17.9239C12.0654 17.8482 12.2216 17.72 12.3315 17.5556C12.4414 17.3911 12.5 17.1978 12.5 17C12.5 16.7348 12.3946 16.4804 12.2071 16.2929C12.0196 16.1054 11.7652 16 11.5 16ZM12.5 14C12.5 13.58 12.81 13.33 13.55 12.83C14.0984 12.5758 14.5686 12.1791 14.9115 11.6813C15.2545 11.1836 15.4577 10.603 15.5 10V9.5C15.5 8.57175 15.1313 7.68151 14.4749 7.02513C13.8185 6.36875 12.9283 6 12 6C11.0717 6 10.1815 6.36875 9.52513 7.02513C8.86875 7.68151 8.5 8.57175 8.5 9.5C8.5 9.76522 8.60536 10.0196 8.7929 10.2071C8.98043 10.3946 9.23479 10.5 9.5 10.5C9.76522 10.5 10.0196 10.3946 10.2071 10.2071C10.3946 10.0196 10.5 9.76522 10.5 9.5C10.5 9.10218 10.658 8.72065 10.9393 8.43934C11.2206 8.15804 11.6022 8 12 8C12.3978 8 12.7794 8.15804 13.0607 8.43934C13.342 8.72065 13.5 9.10218 13.5 9.5V10C13.5 10.42 13.19 10.67 12.45 11.17C11.9016 11.4243 11.4314 11.8209 11.0885 12.3187C10.7455 12.8164 10.5423 13.397 10.5 14C10.5 14.2652 10.6054 14.5196 10.7929 14.7071C10.9804 14.8946 11.2348 15 11.5 15C11.7652 15 12.0196 14.8946 12.2071 14.7071C12.3946 14.5196 12.5 14.2652 12.5 14Z" fill="#1F2F47"/>
</svg>
