<svg enable-background="new 0 0 512 512" height="20" viewBox="0 0 512 512" width="20" xmlns="http://www.w3.org/2000/svg"><path d="m256 0c-141.156 0-256 114.844-256 256s114.844 256 256 256 256-114.844 256-256-114.844-256-256-256zm102.625 313.375c12.5 12.492 12.5 32.758 0 45.25-6.242 6.25-14.437 9.375-22.625 9.375s-16.383-3.125-22.625-9.375l-57.375-57.375-57.375 57.375c-6.242 6.25-14.437 9.375-22.625 9.375s-16.383-3.125-22.625-9.375c-12.5-12.492-12.5-32.758 0-45.25l57.375-57.375-57.375-57.375c-12.5-12.492-12.5-32.758 0-45.25 12.484-12.5 32.766-12.5 45.25 0l57.375 57.375 57.375-57.375c12.484-12.5 32.766-12.5 45.25 0 12.5 12.492 12.5 32.758 0 45.25l-57.375 57.375z" fill="#d9534f"/></svg>