<svg height="64" viewBox="0 0 64 64" width="64" xmlns="http://www.w3.org/2000/svg"><path d="m32 62c-16.5685425 0-30-13.4314575-30-30s13.4314575-30 30-30 30 13.4314575 30 30-13.4314575 30-30 30zm2.0305046-54.04077148c-5.5435067.13531528-10.4979724 1.81310533-14.8633969 5.03337018-6.5481367 4.8303972-9.43117321 11.5637478-9.51608755 20.0074013-.08055692 8.010364 3.41614765 14.3752487 9.51608755 19.0795127 4.0666267 3.1361761 9.0210923 4.7915902 14.8633969 4.9662424-8.2192383-8.8740645-12.3288574-17.5162693-12.3288574-25.9266145 0-8.4103451 4.1096191-16.1303158 12.3288574-23.15991208z" fill-rule="evenodd"/></svg>