<svg width="24" height="24" viewBox="0 0 24 24" fill="none" xmlns="http://www.w3.org/2000/svg">
<path fill-rule="evenodd" clip-rule="evenodd" d="M12 22C10.0222 22 8.08879 21.4135 6.4443 20.3147C4.79981 19.2159 3.51809 17.6541 2.76121 15.8268C2.00433 13.9996 1.8063 11.9889 2.19215 10.0491C2.578 8.10929 3.53041 6.32746 4.92894 4.92894C6.32746 3.53041 8.10929 2.578 10.0491 2.19215C11.9889 1.8063 13.9996 2.00433 15.8268 2.76121C17.6541 3.51809 19.2159 4.79981 20.3147 6.4443C21.4135 8.08879 22 10.0222 22 12C22 14.6522 20.9464 17.1957 19.0711 19.0711C17.1957 20.9464 14.6522 22 12 22ZM12.55 14.2C12.55 13.738 12.891 13.463 13.705 12.913C14.3083 12.6333 14.8254 12.197 15.2027 11.6495C15.58 11.102 15.8035 10.4633 15.85 9.80001V9.25001C15.85 8.22892 15.4444 7.24966 14.7224 6.52765C14.0004 5.80563 13.0211 5.40001 12 5.40001C10.9789 5.40001 9.99968 5.80563 9.27766 6.52765C8.55565 7.24966 8.15002 8.22892 8.15002 9.25001C8.15002 9.54175 8.26592 9.82154 8.47221 10.0278C8.6785 10.2341 8.95829 10.35 9.25002 10.35C9.54176 10.35 9.82155 10.2341 10.0278 10.0278C10.2341 9.82154 10.35 9.54175 10.35 9.25001C10.35 8.8124 10.5239 8.39272 10.8333 8.08328C11.1427 7.77385 11.5624 7.60001 12 7.60001C12.4376 7.60001 12.8573 7.77385 13.1667 8.08328C13.4762 8.39272 13.65 8.8124 13.65 9.25001V9.80001C13.65 10.262 13.309 10.537 12.495 11.087C11.8918 11.3667 11.3746 11.803 10.9973 12.3505C10.6201 12.8981 10.3965 13.5367 10.35 14.2C10.35 14.4917 10.4659 14.7715 10.6722 14.9778C10.8785 15.1841 11.1583 15.3 11.45 15.3C11.7418 15.3 12.0216 15.1841 12.2278 14.9778C12.4341 14.7715 12.55 14.4917 12.55 14.2ZM11.45 16.4C11.2325 16.4 11.0198 16.4645 10.8389 16.5854C10.658 16.7063 10.517 16.8781 10.4338 17.0791C10.3505 17.2801 10.3287 17.5012 10.3712 17.7146C10.4136 17.928 10.5184 18.124 10.6722 18.2778C10.826 18.4317 11.022 18.5364 11.2354 18.5789C11.4488 18.6213 11.67 18.5995 11.871 18.5163C12.072 18.433 12.2438 18.292 12.3646 18.1111C12.4855 17.9302 12.55 17.7176 12.55 17.5C12.55 17.2083 12.4341 16.9285 12.2278 16.7222C12.0216 16.5159 11.7418 16.4 11.45 16.4Z" fill="#5D6977"/>
</svg>
