<svg height="120" viewBox="0 0 81 120" width="81" xmlns="http://www.w3.org/2000/svg" xmlns:xlink="http://www.w3.org/1999/xlink"><linearGradient id="a" x1="100.099854%" x2="44.15798%" y1="-16.122731%" y2="77.651146%"><stop offset=".1345" stop-color="#2b415b"/><stop offset=".3762" stop-color="#3b5676"/><stop offset=".6923" stop-color="#54769e"/><stop offset=".7901" stop-color="#52749b"/><stop offset=".8614" stop-color="#4d6c92"/><stop offset=".9244" stop-color="#436082"/><stop offset=".9822" stop-color="#364f6c"/><stop offset="1" stop-color="#314863"/></linearGradient><linearGradient id="b" x1="99.788765%" x2="-4.607295%" y1="61.494115%" y2="13.34605%"><stop offset="0" stop-color="#54769e"/><stop offset=".4802" stop-color="#53749c"/><stop offset=".6878" stop-color="#4f6f95"/><stop offset=".8423" stop-color="#486588"/><stop offset=".9095" stop-color="#435f80"/></linearGradient><linearGradient id="c" x1="725.856983%" x2="-347.124022%" y1="50.022946%" y2="50.022946%"><stop offset=".2539" stop-color="#20344c"/><stop offset=".4072" stop-color="#273d57"/><stop offset=".6733" stop-color="#395373"/><stop offset="1" stop-color="#54769e"/></linearGradient><linearGradient id="d" x1="-653.788268%" x2="455.494413%" y1="50.021456%" y2="50.021456%"><stop offset=".2539" stop-color="#54769e"/><stop offset=".4133" stop-color="#4d6e93"/><stop offset=".6897" stop-color="#3c5777"/><stop offset="1" stop-color="#233850"/></linearGradient><linearGradient id="e" x1="50.037009%" x2="49.957583%" y1="-209.335792%" y2="235.965027%"><stop offset=".006545247" stop-color="#54769e"/><stop offset=".1993" stop-color="#507198"/><stop offset=".4502" stop-color="#466488"/><stop offset=".7318" stop-color="#354f6d"/><stop offset="1" stop-color="#21354d"/></linearGradient><linearGradient id="f"><stop offset=".2539" stop-color="#54769e"/><stop offset=".4102" stop-color="#4d6e93"/><stop offset=".6813" stop-color="#3c5777"/><stop offset="1" stop-color="#22364e"/></linearGradient><linearGradient id="g" x1="163.859644%" x2="-53.139671%" xlink:href="#f" y1="-95.576724%" y2="173.049483%"/><linearGradient id="h" x1="-44.111676%" x2="137.687762%" xlink:href="#f" y1="-60.146354%" y2="146.957292%"/><linearGradient id="i" x1="-1.435848%" x2="127.701745%" y1="31.600705%" y2="103.798097%"><stop offset=".2664" stop-color="#54769e"/><stop offset="1" stop-color="#425e7f"/></linearGradient><linearGradient id="j" x1="-71.276129%" x2="149.174581%" y1="-65.313754%" y2="96.331151%"><stop offset=".4609" stop-color="#54769e" stop-opacity="0"/><stop offset=".5699" stop-color="#52739a" stop-opacity=".2156"/><stop offset=".6764" stop-color="#4a698e" stop-opacity=".4266"/><stop offset=".782" stop-color="#3d597b" stop-opacity=".6356"/><stop offset=".8863" stop-color="#2c435f" stop-opacity=".8422"/><stop offset=".9661" stop-color="#1b2e45"/></linearGradient><linearGradient id="k" x1="50.309375%" x2="50.309375%" xlink:href="#f" y1="295.997443%" y2="-124.649242%"/><g fill="none"><path d="m75.9045553 29.0113736 5.0954447-28.97637797-21.2954447 8.85389326h-23.4039045l-21.2954447-8.88888889 5.1305857 29.0113736-4.8143167 16.167979 4.5331887 2.8346457-19.8546638 17.3578302v16.3079615l22.7010846 31.146107 21.4008677 7.139107.035141.034996 16.7271149-8.538933.035141-.034995v-12.6334211l-9.4880694-5.1793526 14.8997831-39.5100612h-.105423l14.4780911-8.9238845z" fill="#273c51"/><path d="m34.2584416 35.3372093-34.2584416 29.8953488 47.7233766 27.3139535.1753247-56.3023256z" fill="url(#a)"/><path d="m29.3844156 53.8255814 18.374026 48.8720926.1402597-46.1511624z" fill="#466284"/><path d="m66.1675325 54-18.4090909 48.697674.1402597-46.1511624z" fill="#354d6a"/><path d="m80.8246753.10465116-18.2688311 9.55813954-14.622078 3.1744186-14.7623376-3.1744186-18.1987013-9.59302326 6.2766233 28.84883726-5.9610389 16.1860465 20.8987013 12.9069767 11.6064935 12.5581395v.1046512l.0701299-.0697674.0701298.0697674v-.1046512l11.6064935-12.5581395 20.9688312-12.9069767-5.961039-16.1511628z" fill="url(#b)"/><path d="m80.8246753.10465116-5.0844156 28.88372094 4.7688312 16.1162791-5.961039-16.1511628z" fill="url(#c)"/><path d="m14.9727273.06976744 5.1194805 28.91860466-4.8038961 16.1162791 5.9610389-16.1860465z" fill="url(#d)"/><path d="m14.9727273.06976744 21.2493506 8.86046512h23.3532468l21.2493506-8.8255814-18.2688311 9.55813954-14.622078 3.1744186-14.7623376-3.1744186z" fill="url(#e)"/><path d="m21.2493506 28.9186047-1.051948 2.8953488 22.0558442-20.2325582z" fill="url(#g)"/><path d="m74.5480519 28.9534884-20.8987013-17.3720931 21.9155845 20.0930233z" fill="url(#h)"/><path d="m0 65.2325581 51.3 28.1511628 6.487013 16.1511631-13.7454546 5.197674-21.3896103-2.197674-22.6519481-31.0465119z" fill="url(#i)"/><path d="m42.4636364 88.5348837-19.7415585 23.9302323-.0701298.069768 21.3545454 7.116279.0350649.034884 16.6909091-8.511628.035065-.034884v-12.5930234z" fill="#fff"/><path d="m74.5480519 28.9534884 6.2766234-28.84883724-18.2688311 9.55813954-8.9064936 1.9186046z" fill="url(#j)"/><path d="m47.8987013 70.6744186-5.7857143-6.3139535 5.7857143-6.3488372 5.8207792 6.3488372z" fill="#fff"/><path d="m47.3376623 12.6976744.5961039.1395349.5259741-.1046512-.561039 36.8023256z" fill="url(#k)"/></g></svg>