<svg width="102" height="34" viewBox="0 0 102 34" fill="none" xmlns="http://www.w3.org/2000/svg">
<path d="M27.5966 16H29.6761L32.0114 7.83523H32.1023L34.4318 16H36.5114L39.7955 4.36364H37.5284L35.4318 12.9205H35.3295L33.0852 4.36364H31.0227L28.7841 12.9148H28.6761L26.5795 4.36364H24.3125L27.5966 16ZM42.7669 16.1761C44.1362 16.1761 44.9544 15.5341 45.3294 14.8011H45.3976V16H47.3749V10.1591C47.3749 7.85227 45.4942 7.15909 43.8294 7.15909C41.9942 7.15909 40.5851 7.97727 40.1306 9.56818L42.051 9.84091C42.2556 9.24432 42.8351 8.73295 43.8408 8.73295C44.7953 8.73295 45.3181 9.22159 45.3181 10.0795V10.1136C45.3181 10.7045 44.6987 10.733 43.159 10.8977C41.4658 11.0795 39.8465 11.5852 39.8465 13.5511C39.8465 15.267 41.1022 16.1761 42.7669 16.1761ZM43.301 14.6648C42.4431 14.6648 41.8294 14.2727 41.8294 13.517C41.8294 12.7273 42.5169 12.3977 43.4374 12.267C43.9772 12.1932 45.0567 12.0568 45.3237 11.8409V12.8693C45.3237 13.8409 44.5397 14.6648 43.301 14.6648ZM51.4799 4.36364H49.4231V16H51.4799V4.36364ZM55.6318 4.36364H53.5749V16H55.6318V4.36364ZM61.5905 16.1705C63.6245 16.1705 65.0223 15.1761 65.3859 13.6591L63.4655 13.4432C63.187 14.1818 62.5052 14.5682 61.6189 14.5682C60.2893 14.5682 59.4086 13.6932 59.3916 12.1989H65.4711V11.5682C65.4711 8.50568 63.6302 7.15909 61.4825 7.15909C58.9825 7.15909 57.3518 8.99432 57.3518 11.6875C57.3518 14.4261 58.9598 16.1705 61.5905 16.1705ZM59.3973 10.8125C59.4598 9.69886 60.2836 8.76136 61.5109 8.76136C62.6927 8.76136 63.4882 9.625 63.4995 10.8125H59.3973ZM71.5491 7.27273H69.8276V5.18182H67.7707V7.27273H66.5321V8.86364H67.7707V13.6989C67.7594 15.3466 68.9526 16.1534 70.498 16.1023C71.0832 16.0909 71.4866 15.9773 71.7082 15.8977L71.3616 14.2955C71.248 14.3182 71.0151 14.375 70.7594 14.375C70.2423 14.375 69.8276 14.1932 69.8276 13.3636V8.86364H71.5491V7.27273Z" fill="#1F2F47"/>
<rect x="77.5833" y="5.45833" width="23.8333" height="10.0833" rx="2.29167" stroke="#1F2F47" stroke-width="0.916667"/>
<path d="M81.1452 13H83.0342C84.1029 13 84.627 12.4554 84.627 11.7285C84.627 11.0221 84.1257 10.6074 83.6289 10.5824V10.5368C84.0847 10.4297 84.4447 10.1107 84.4447 9.54329C84.4447 8.84831 83.9434 8.33333 82.9317 8.33333H81.1452V13ZM81.9906 12.2936V10.9264H82.9225C83.4444 10.9264 83.7679 11.2454 83.7679 11.6624C83.7679 12.0339 83.5127 12.2936 82.8998 12.2936H81.9906ZM81.9906 10.318V9.0306H82.8451C83.3418 9.0306 83.5993 9.29264 83.5993 9.65267C83.5993 10.0628 83.2666 10.318 82.8268 10.318H81.9906ZM85.6624 13H88.7158V12.2913H86.5078V11.0176H88.5403V10.3089H86.5078V9.04199H88.6976V8.33333H85.6624V13ZM89.6549 9.04199H91.0973V13H91.9359V9.04199H93.3783V8.33333H89.6549V9.04199ZM94.4313 13L94.8164 11.8493H96.571L96.9584 13H97.8607L96.2155 8.33333H95.1719L93.529 13H94.4313ZM95.0443 11.1702L95.6755 9.29036H95.7119L96.3431 11.1702H95.0443Z" fill="#1F2F47"/>
<path fill-rule="evenodd" clip-rule="evenodd" d="M37.6388 26.1001C35.8663 26.1001 34.8537 27.35 34.8537 29.1001C34.8537 30.8532 35.8637 32.1006 37.6348 32.1001C39.0708 32.1001 39.8303 31.267 39.9988 30.2665L39.9143 30.1836H39.2393L39.1548 30.2665C38.9863 30.8502 38.5643 31.35 37.6363 31.35C36.3702 31.35 35.6952 30.4334 35.6952 29.1001C35.6952 27.7668 36.3702 26.8502 37.6363 26.8502C38.4798 26.8502 38.9863 27.2665 39.1548 27.8502L39.2393 27.9337H39.9183L40.0028 27.8502C39.8328 26.8502 38.9888 26.1001 37.6388 26.1001ZM17.638 32.0177H13.3345L13.25 31.9342V26.2666L13.3345 26.1836H17.638L17.7225 26.2671V27.35L17.638 27.4335H14.8535L14.769 27.5169V28.35L14.8535 28.4335H17.469L17.5535 28.5169V29.6004L17.469 29.6838H14.8535L14.769 29.7673V30.6838L14.8535 30.7673H17.638L17.7225 30.8508V31.9342L17.638 32.0177ZM23.5451 32.0177H22.7856L22.6166 31.9342L21.0976 29.9337H21.0131L19.4941 31.9342L19.3256 32.0177H18.5661L18.4816 31.9342V30.8532L20.0006 29.0152V28.9317L18.5661 27.35V26.2666L18.6506 26.1836H19.4121L19.5806 26.2671L21.0131 28.0167H21.0976L22.5306 26.2666L22.7011 26.1836H23.4606L23.5451 26.2671V27.35L22.1101 28.9337V29.0152L23.6291 30.8532V31.9367L23.5451 32.0177ZM24.6431 32.0177H25.9916L26.0776 31.9342V26.2671L25.9936 26.1836H24.6431L24.5591 26.2666V31.9342L24.6431 32.0177ZM33.8392 32.0177H32.4897L32.4052 31.9342V29.2671H32.3207L31.2237 31.9342L31.1392 32.0177H30.0417L29.9577 31.9342L28.8602 29.2671H28.7762V31.9342L28.6917 32.0177H27.3412L27.2587 31.9342V26.2666L27.3412 26.1836H28.9447L29.0292 26.2671L30.5482 30.0177H30.6327L32.1517 26.2671L32.2382 26.1836H33.8417L33.9262 26.2671V31.9342L33.8392 32.0177ZM45.5673 32.0177H44.8928L44.8083 31.9342V29.5169L44.7238 29.434H41.9393L41.8548 29.5169V31.9342L41.7703 32.0177H41.0953L41.0108 31.9342V26.2666L41.0953 26.1836H41.7703L41.8548 26.2671V28.6019L41.9393 28.6853H44.7238L44.8083 28.6019V26.2671L44.8928 26.1836H45.5673L45.6518 26.2671V31.9342L45.5673 32.0177ZM50.8839 32.0177H51.3899L51.4744 31.9337V31.35L49.4493 26.2671L49.3648 26.1836H48.6053L48.5208 26.2666L46.4953 31.35V31.9342L46.5798 32.0177H47.0863L47.1703 31.9342L47.6768 30.6838L47.8458 30.6004H50.1269L50.2954 30.6838L50.7984 31.9342L50.8839 32.0177ZM48.9413 27.4335H49.0258L49.9538 29.7683L49.8693 29.8513H48.0973L48.0128 29.7683L48.9413 27.4335ZM53.0768 32.0177H52.4018L52.3178 31.9342V26.2666L52.4018 26.1836H53.0768L53.1623 26.2666V31.9342L53.0768 32.0177ZM58.4779 32.0177H59.2369L59.3214 31.9342V26.2671L59.2369 26.1836H58.5619L58.4779 26.2666V30.6004H58.3934L55.5264 26.2666L55.3554 26.1836H54.5959L54.5114 26.2666V31.9342L54.5959 32.0177H55.2709L55.3554 31.9342V27.6004H55.4419L58.3089 31.9342L58.4779 32.0177Z" fill="#617085"/>
<path d="M6.16323 30.125C6.16323 28.925 5.48823 28.175 4.51323 28.175C3.83823 28.175 3.53823 28.625 3.53823 28.625H3.46323V26.825L3.38823 26.75H2.78823L2.71323 26.825V31.925L2.78823 32H3.31323L3.38823 31.925L3.46323 31.625H3.53823C3.53823 31.625 3.83823 32.075 4.51323 32.075C5.48823 32.075 6.16323 31.25 6.16323 30.125ZM5.41323 30.125C5.41323 30.95 5.03823 31.4 4.43823 31.4C3.83823 31.4 3.46323 31.025 3.46323 30.125C3.46323 29.225 3.83823 28.85 4.43823 28.85C5.03823 28.85 5.41323 29.3 5.41323 30.125ZM10.2135 28.85V28.325L10.1385 28.25H9.68853L9.61353 28.325L8.56353 31.1H8.48853L7.43853 28.325L7.36353 28.25H6.91353L6.83853 28.325V28.85L8.11353 32V32.075C7.96353 32.45 7.73853 32.525 7.36353 32.525H7.21353L7.13853 32.6V33.125L7.21353 33.2H7.36353C8.26353 33.2 8.56353 32.975 9.01353 31.85L10.2135 28.85Z" fill="#617085"/>
<path d="M3.75 6.875H17.9188V9.37188C17.9188 9.83269 17.5452 10.2062 17.0844 10.2062V10.2062C16.6236 10.2062 16.25 10.5798 16.25 11.0406V11.875V12.7094C16.25 13.1702 16.6236 13.5438 17.0844 13.5438V13.5438C17.5452 13.5438 17.9188 13.9173 17.9188 14.3781V16.25H3.75V6.875Z" fill="#D6C3B4"/>
<path d="M3.74992 5.20817H16.2499C16.6919 5.20817 17.1159 5.38377 17.4284 5.69633C17.741 6.00889 17.9166 6.43281 17.9166 6.87484V8.12484V9.37484C17.9166 9.59585 17.8288 9.80781 17.6725 9.96409C17.5162 10.1204 17.3043 10.2082 17.0833 10.2082C16.8622 10.2082 16.6503 10.1204 16.494 9.96409C16.3377 9.80781 16.2499 9.59585 16.2499 9.37484V6.87484H3.74992V16.0415H16.2499V14.3748C16.2499 14.1538 16.3377 13.9419 16.494 13.7856C16.6503 13.6293 16.8622 13.5415 17.0833 13.5415C17.3043 13.5415 17.5162 13.6293 17.6725 13.7856C17.8288 13.9419 17.9166 14.1538 17.9166 14.3748V16.0415C17.9166 16.4835 17.741 16.9075 17.4284 17.22C17.1159 17.5326 16.6919 17.7082 16.2499 17.7082H3.74992C3.30789 17.7082 2.88397 17.5326 2.57141 17.22C2.25885 16.9075 2.08325 16.4835 2.08325 16.0415V4.7915C2.08325 4.12846 2.34664 3.49258 2.81549 3.02374C3.28433 2.5549 3.92021 2.2915 4.58325 2.2915H15.4166C15.6376 2.2915 15.8496 2.3793 16.0058 2.53558C16.1621 2.69186 16.2499 2.90382 16.2499 3.12484C16.2499 3.34585 16.1621 3.55781 16.0058 3.71409C15.8496 3.87037 15.6376 3.95817 15.4166 3.95817H4.58325C4.36224 3.95817 4.15028 4.04597 3.994 4.20225C3.83772 4.35853 3.74992 4.57049 3.74992 4.7915V5.20817ZM18.7499 11.8748C18.7499 11.6538 18.6621 11.4419 18.5058 11.2856C18.3496 11.1293 18.1376 11.0415 17.9166 11.0415H12.9166C12.6956 11.0415 12.4836 11.1293 12.3273 11.2856C12.1711 11.4419 12.0833 11.6538 12.0833 11.8748C12.0833 12.0959 12.1711 12.3078 12.3273 12.4641C12.4836 12.6204 12.6956 12.7082 12.9166 12.7082H17.9166C18.1376 12.7082 18.3496 12.6204 18.5058 12.4641C18.6621 12.3078 18.7499 12.0959 18.7499 11.8748Z" fill="#69594D"/>
</svg>
