<svg width="120" height="32" viewBox="0 0 120 32" fill="none" xmlns="http://www.w3.org/2000/svg">
<path d="M1.44221 21.0393H0L2.58278 30.6918H4.11455L6.0752 23.5231H6.15061L8.11126 30.6918H9.64302L12.2211 21.0393H10.7836L8.88893 28.4672H8.80409L6.867 21.0393H5.35409L3.42172 28.4625H3.33217L1.44221 21.0393Z" fill="white"/>
<path d="M14.0651 30.6918L14.8758 28.3541H18.7499L19.5606 30.6918H21.1489L17.5999 21.0393H16.0305L12.4815 30.6918H14.0651ZM16.7563 22.9528H16.8694L18.3069 27.0909H15.3188L16.7563 22.9528Z" fill="white"/>
<path d="M28.6805 29.4098H24.3821V21.0393H22.888V30.6918H28.6805V29.4098Z" fill="white"/>
<path d="M36.5348 29.4098H32.2365V21.0393H30.7424V30.6918H36.5348V29.4098Z" fill="white"/>
<path d="M44.672 29.4098H40.0909V26.5018H44.0735V25.2151H40.0909V22.3213H44.6202V21.0393H38.5968V30.6918H44.672V29.4098Z" fill="white"/>
<path d="M53.8756 21.0393H46.4477V22.3213H49.417V30.6918H50.9063V22.3213H53.8756V21.0393Z" fill="white"/>
<path fill-rule="evenodd" clip-rule="evenodd" d="M63.7483 0C59.1497 0 56.5229 3.2832 56.5229 7.88037C56.5229 12.4854 59.1433 15.762 63.7378 15.7607C67.4634 15.7607 69.4336 13.5723 69.8708 10.9443L69.6516 10.7263H67.9004L67.6812 10.9443C67.2441 12.4775 66.1492 13.7903 63.7417 13.7903C60.4573 13.7903 58.7061 11.3826 58.7061 7.88037C58.7061 4.37793 60.4573 1.97046 63.7417 1.97046C65.9299 1.97046 67.2441 3.06396 67.6812 4.59717L67.9004 4.81641H69.6621L69.8813 4.59717C69.4402 1.97046 67.2505 0 63.7483 0ZM11.86 15.5437H0.69519L0.475952 15.3245V0.437012L0.69519 0.218994H11.86L12.0792 0.438232V3.28296L11.86 3.5022H4.63599L4.41675 3.72144V5.90967L4.63599 6.12891H11.4215L11.6407 6.34814V9.19409L11.4215 9.41333H4.63599L4.41675 9.63257V12.04L4.63599 12.2593H11.86L12.0792 12.4785V15.3245L11.86 15.5437ZM27.1849 15.5437H25.2145L24.7761 15.3245L20.8353 10.0698H20.6161L16.6753 15.3245L16.238 15.5437H14.2677L14.0485 15.3245V12.4851L17.9893 7.65698V7.43774L14.2677 3.28296V0.437012L14.4869 0.218994H16.4625L16.8997 0.438232L20.6161 5.03418H20.8353L24.553 0.437012L24.9954 0.218994H26.9657L27.1849 0.438232V3.28296L23.462 7.44287V7.65698L27.4028 12.4851V15.3311L27.1849 15.5437ZM30.0333 15.5437H33.5317L33.7549 15.3245V0.438232L33.537 0.218994H30.0333L29.8154 0.437012V15.3245L30.0333 15.5437ZM53.8909 15.5437H50.3899L50.1707 15.3245V8.3186H49.9514L47.1055 15.3245L46.8862 15.5437H44.0389L43.8209 15.3245L40.9736 8.3186H40.7557V15.3245L40.5365 15.5437H37.0328L36.8188 15.3245V0.437012L37.0328 0.218994H41.1929L41.4121 0.438232L45.3529 10.2903H45.5721L49.5129 0.438232L49.7374 0.218994H53.8975L54.1167 0.438232V15.3245L53.8909 15.5437ZM84.3174 15.5437H82.5676L82.3484 15.3245V8.97485L82.1292 8.75708H74.9053L74.686 8.97485V15.3245L74.4668 15.5437H72.7156L72.4963 15.3245V0.437012L72.7156 0.218994H74.4668L74.686 0.438232V6.57129L74.9053 6.79053H82.1292L82.3484 6.57129V0.438232L82.5676 0.218994H84.3174L84.5366 0.438232V15.3245L84.3174 15.5437ZM98.1104 15.5437H99.4231L99.6423 15.3232V13.79L94.3889 0.438232L94.1697 0.218994H92.1992L91.98 0.437012L86.7251 13.79V15.3245L86.9443 15.5437H88.2583L88.4763 15.3245L89.7903 12.04L90.2288 11.8208H96.1465L96.5837 12.04L97.8887 15.3245L98.1104 15.5437ZM93.0708 3.5022H93.29L95.6975 9.63525L95.4785 9.85303H90.8811L90.6621 9.63525L93.0708 3.5022ZM103.8 15.5437H102.049L101.831 15.3245V0.437012L102.049 0.218994H103.8L104.021 0.437012V15.3245L103.8 15.5437ZM117.812 15.5437H119.781L120 15.3245V0.438232L119.781 0.218994H118.03L117.812 0.437012V11.8208H117.593L110.155 0.437012L109.711 0.218994H107.74L107.521 0.437012V15.3245L107.74 15.5437H109.492L109.711 15.3245V3.94067H109.935L117.373 15.3245L117.812 15.5437Z" fill="white"/>
<rect x="60.5737" y="20" width="33" height="12" rx="2" fill="white"/>
<path d="M67.1694 29.6228H64.3V22.3501H66.9705C67.5316 22.3501 67.9956 22.4365 68.3625 22.6093C68.7319 22.7798 69.0065 23.0142 69.1864 23.3125C69.3687 23.6084 69.4599 23.9446 69.4599 24.321C69.4599 24.7471 69.3486 25.0845 69.126 25.3331C68.9059 25.5816 68.6017 25.7509 68.2134 25.8409V25.9012C68.6135 25.9486 68.952 26.1285 69.229 26.441C69.5084 26.7535 69.6481 27.1607 69.6481 27.6626C69.6481 28.2379 69.4409 28.709 69.0266 29.076C68.6147 29.4405 67.9956 29.6228 67.1694 29.6228ZM65.7027 23.5291V25.4289H66.864C67.676 25.4289 68.082 25.1105 68.082 24.4737C68.082 24.2227 67.9991 24.0026 67.8334 23.8132C67.6677 23.6238 67.3694 23.5291 66.9385 23.5291H65.7027ZM68.2773 27.5063C68.2773 27.2199 68.1826 26.9725 67.9932 26.7642C67.8062 26.5535 67.5209 26.4481 67.1374 26.4481H65.7027V28.4438H67.0841C67.5079 28.4438 67.8121 28.3586 67.9968 28.1882C68.1838 28.0153 68.2773 27.7881 68.2773 27.5063Z" fill="#267EDC"/>
<path d="M75.9133 28.4438V29.6228H71.1868V22.3501H75.8956V23.5291H72.5895V25.397H75.441V26.5724H72.5895V28.4438H75.9133Z" fill="#267EDC"/>
<path d="M83.0673 22.3501V23.5291H80.8869V29.6228H79.4948V23.5291H77.3144V22.3501H83.0673Z" fill="#267EDC"/>
<path d="M84.4897 29.6228H82.984L85.6651 22.3501H87.153L89.8341 29.6228H88.332L87.8029 28.0745H85.0188L84.4897 29.6228ZM86.3682 24.1186L85.4094 26.924H87.4123L86.4535 24.1186H86.3682Z" fill="#267EDC"/>
</svg>
