<svg height="344" viewBox="0 0 1202 344" width="1202" xmlns="http://www.w3.org/2000/svg" xmlns:xlink="http://www.w3.org/1999/xlink"><linearGradient id="a" x1="100.099854%" x2="44.15798%" y1="-45.309695%" y2="89.856524%"><stop offset=".1345" stop-color="#2b415b"/><stop offset=".3762" stop-color="#3b5676"/><stop offset=".6923" stop-color="#54769e"/><stop offset=".7901" stop-color="#52749b"/><stop offset=".8614" stop-color="#4d6c92"/><stop offset=".9244" stop-color="#436082"/><stop offset=".9822" stop-color="#364f6c"/><stop offset="1" stop-color="#314863"/></linearGradient><linearGradient id="b" x1="99.788765%" x2="-4.607295%" y1="63.350741%" y2="7.425395%"><stop offset="0" stop-color="#54769e"/><stop offset=".4802" stop-color="#53749c"/><stop offset=".6878" stop-color="#4f6f95"/><stop offset=".8423" stop-color="#486588"/><stop offset=".9095" stop-color="#435f80"/></linearGradient><linearGradient id="c" x1="725.856983%" x2="-347.124022%" y1="50.022946%" y2="50.022946%"><stop offset=".2539" stop-color="#20344c"/><stop offset=".4072" stop-color="#273d57"/><stop offset=".6733" stop-color="#395373"/><stop offset="1" stop-color="#54769e"/></linearGradient><linearGradient id="d" x1="-653.788268%" x2="455.494413%" y1="50.021456%" y2="50.021456%"><stop offset=".2539" stop-color="#54769e"/><stop offset=".4133" stop-color="#4d6e93"/><stop offset=".6897" stop-color="#3c5777"/><stop offset="1" stop-color="#233850"/></linearGradient><linearGradient id="e" x1="50.974388%" x2="48.883227%" y1="-209.335792%" y2="235.965027%"><stop offset=".006545247" stop-color="#54769e"/><stop offset=".1993" stop-color="#507198"/><stop offset=".4502" stop-color="#466488"/><stop offset=".7318" stop-color="#354f6d"/><stop offset="1" stop-color="#21354d"/></linearGradient><linearGradient id="f"><stop offset=".2539" stop-color="#54769e"/><stop offset=".4102" stop-color="#4d6e93"/><stop offset=".6813" stop-color="#3c5777"/><stop offset="1" stop-color="#22364e"/></linearGradient><linearGradient id="g" x1="183.910652%" x2="-71.302862%" xlink:href="#f" y1="-95.576724%" y2="173.049483%"/><linearGradient id="h" x1="-60.8048%" x2="153.24144%" xlink:href="#f" y1="-60.146354%" y2="146.957292%"/><linearGradient id="i" x1="-19.377002%" x2="154.804612%" y1="31.600705%" y2="103.798097%"><stop offset=".2664" stop-color="#54769e"/><stop offset="1" stop-color="#425e7f"/></linearGradient><linearGradient id="j" x1="-71.276129%" x2="149.174581%" y1="-81.307255%" y2="102.757074%"><stop offset=".4609" stop-color="#54769e" stop-opacity="0"/><stop offset=".5699" stop-color="#52739a" stop-opacity=".2156"/><stop offset=".6764" stop-color="#4a698e" stop-opacity=".4266"/><stop offset=".782" stop-color="#3d597b" stop-opacity=".6356"/><stop offset=".8863" stop-color="#2c435f" stop-opacity=".8422"/><stop offset=".9661" stop-color="#1b2e45"/></linearGradient><linearGradient id="k" x1="50.309375%" x2="50.309375%" xlink:href="#f" y1="295.997443%" y2="-124.649242%"/><g fill="none"><g fill="#fff"><g transform="translate(249 93)"><path d="m59.9876543 15.8852761c-17.6707819 0-36.6203703 6.9570552-36.6203703 23.8858895 0 15.0736197 17.3220164 19.4797546 37.8991769 22.8423313 27.9012346 4.406135 55.3374481 9.9717792 55.3374481 41.2785281-.23251 31.190797-30.1100818 41.278527-56.7325098 41.278527-24.6460906 0-48.2458848-8.928221-58.94135805-32.234356l14.29938275-8.348466c8.9516461 16.465031 27.6687242 24.465644 44.8744856 24.465644 16.973251 0 39.4104938-5.333742 39.4104938-25.857055.2325103-17.2766871-19.2983539-22.2625767-40.2242798-25.3932515-26.8549383-4.1742331-53.01234572-10.3196319-53.01234572-38.4957055-.34876543-28.9877301 29.29629632-38.95950924 53.36111112-38.95950924 20.6934156 0 40.4567901 4.17423313 52.7798351 25.27730064l-13.136831 8.1165644c-7.5565844-12.0588957-23.7160494-17.6245399-39.2942387-17.8564417z"/><path d="m145.08642 3.59447853v57.04785277c8.37037-12.8705522 21.507201-17.2766871 34.062757-17.508589 27.668724 0 41.270576 18.3202454 41.270576 45.3368098v54.0331289h-16.159465v-53.801227c0-19.2478528-9.997942-30.1472393-27.901235-30.1472393-17.903292 0-31.040123 13.9141105-31.040123 31.8865031v52.0619632h-16.27572v-139.14110431h16.159465v.23190184z"/><path d="m320.166667 142.851534-.348766-17.856442c-7.789094 13.566258-22.669753 19.827607-36.271605 19.827607-28.25 0-50.338477-19.479754-50.338477-51.4822082 0-31.7705521 22.553498-50.902454 50.570988-50.6705521 14.764403 0 29.296296 6.7251533 36.504115 19.4797546l.23251-17.8564418h15.926955v98.0944785h-15.694445zm-35.92284-84.644172c-19.530864 0-35.225308 13.9141104-35.225308 35.7128834 0 21.7987726 15.694444 35.9447856 35.225308 35.9447856 47.432099 0 47.432099-71.8895709.23251-71.8895709z"/><path d="m349.346708 44.7570552h15.578189l.813786 18.9c7.789095-13.102454 22.320988-20.6392638 37.899177-20.6392638 28.25.5797546 48.943416 20.407362 48.943416 50.6705522 0 30.9588954-20.460906 51.0184044-49.989712 51.0184044-13.950617 0-29.528807-5.913496-37.201646-19.827607v64.004908h-15.926955v-144.1269938zm86.842592 49.1631902c0-22.0306748-14.531893-35.1331288-34.644033-35.1331288-20.460905 0-34.411522 15.0736196-34.411522 35.1331288 0 20.0595096 14.531893 35.1331286 34.411522 35.3650306 19.64712 0 34.644033-13.218405 34.644033-35.3650306z"/><path d="m557.908436 126.734356c-9.997942 11.711043-27.087448 17.508589-42.433127 17.508589-30.458848 0-51.733539-20.059509-51.733539-51.250307 0-29.5674846 21.274691-50.902454 51.036008-50.902454 30.110082 0 53.012345 18.4361964 49.175926 57.6276074h-83.703704c1.743827 18.0883436 16.740741 29.4515336 35.690329 29.4515336 11.160494 0 24.646091-4.406135 31.272634-12.290797l10.927984 9.971779h-.232511zm-9.649177-40.4668713c-.813786-19.015951-13.950617-29.4515338-33.248971-29.4515338-17.089506 0-32.08642 10.3196319-34.876543 29.2196319h68.125514z"/></g><g transform="translate(820 93)"><path d="m59.4480243 15.8746032c-17.6486322 0-36.5744681 6.9523809-36.5744681 23.8698412 0 15.0634921 17.300304 19.4666667 37.8516718 22.8269842 27.8662614 4.4031746 55.268085 9.9650793 55.268085 41.2507934-.232219 31.169841-30.0723404 41.250794-56.6613981 41.250794-24.6151976 0-48.1854103-8.922222-58.86747721-32.212699l14.28145901-8.342857c8.9404255 16.453969 27.6340425 24.449207 44.818237 24.449207 16.9519757 0 39.3610943-5.330159 39.3610943-25.839683.2322188-17.2650792-19.2741642-22.2476189-40.1738602-25.3761903-26.8212766-4.1714286-52.94589668-10.3126985-52.94589668-38.4698413-.34832826-28.968254 29.25957448-38.93333335 53.29422488-38.93333335 20.6674773 0 40.4060791 4.17142857 52.713678 25.26031745l-13.1203649 8.1111111c-7.5471124-12.0507936-23.6863222-17.6126984-39.2449848-17.8444444z"/><path d="m144.440122 3.59206349v57.00952381c8.359878-12.8619048 21.480243-17.2650794 34.02006-17.4968254 27.634043 0 41.218845 18.3079365 41.218845 45.3063492v53.9968259h-16.139209v-53.7650799c0-19.2349206-9.985411-30.1269841-27.866262-30.1269841s-31.001216 14.136508-31.001216 31.9809524v52.0269846h-16.255319v-139.16349254h16.13921v.23174603z"/><path d="m232.915502 142.292063h16.255319v-96.6380947h-16.255319zm8.359878-111.3539678-12.888146-14.1365079 12.888146-14.13650793 12.888146 14.13650793z"/><g transform="translate(260.085106 2.15873)"><path d="m19.506383 140.365079v-.231746h-.1161094z"/><path d="m35.6455927 35.615873c0-14.715873 6.7343465-21.2047619 17.300304-21.2047619h.5805471l3.7155015-14.02063491c-1.5094225-.23174603-3.1349544-.34761905-4.6443769-.34761905-20.6674772 0-32.975076 13.09365076-32.975076 35.57301586v7.7634921h-19.27416413v14.2523809h19.27416413v82.61746h16.1392097v-82.61746h19.506383v-14.2523809h-19.506383v-7.7634921z"/></g><path d="m378.632827 128.734921c-1.277204.231746-2.554408.347619-3.831611.347619-11.727052 0-15.558663-7.3-15.558663-18.887302v-50.5206348h20.899696v-14.136508h-20.783586v-29.8952381l-16.25532 1.7380953v28.0412698h-19.738601v14.136508h19.738601v50.5206348c0 21.668254 9.985411 33.950794 31.001216 33.603175 2.554408-.115873 5.108815-.347619 7.547113-.926984z"/></g></g><path d="m216 83.1 14.5-82.8-60.6 25.3h-66.6l-60.6-25.4 14.6 82.9-13.7 46.2 12.9 8.1-56.5 49.6v46.6l64.6 89 60.9 20.4.1.1 47.6-24.4.1-.1v-36.1l-27-14.8 42.4-112.9h-.3l41.2-25.5z" fill="#273c51"/><path d="m97.7 101.3-97.7 85.7 136.1 78.3.5-161.4z" fill="url(#a)"/><path d="m83.8 154.3 52.4 140.1.4-132.3z" fill="#466284"/><path d="m188.7 154.8-52.5 139.6.4-132.3z" fill="#354d6a"/><path d="m230.5.3-52.1 27.4-41.7 9.1-42.1-9.1-51.9-27.5 17.9 82.7-17 46.4 59.6 37 33.1 36v.3l.2-.2.2.2v-.3l33.1-36 59.8-37-17-46.3z" fill="url(#b)"/><path d="m230.5.3-14.5 82.8 13.6 46.2-17-46.3z" fill="url(#c)"/><path d="m42.7.2 14.6 82.9-13.7 46.2 17-46.4z" fill="url(#d)"/><path d="m42.7.2 60.6 25.4h66.6l60.6-25.3-52.1 27.4-41.7 9.1-42.1-9.1z" fill="url(#e)"/><path d="m60.6 82.9-3 8.3 62.9-58z" fill="url(#g)"/><path d="m212.6 83-59.6-49.8 62.5 57.6z" fill="url(#h)"/><path d="m0 187 146.3 80.7 18.5 46.3-39.2 14.9-61-6.3-64.6-89z" fill="url(#i)"/><path d="m121.1 253.8-56.3 68.6-.2.2 60.9 20.4.1.1 47.6-24.4.1-.1v-36.1z" fill="#fff"/><path d="m212.6 83 17.9-82.7-52.1 27.4-25.4 5.5z" fill="url(#j)"/><path d="m136.6 202.6-16.5-18.1 16.5-18.2 16.6 18.2z" fill="#fff"/><path d="m135 36.4 1.7.4 1.5-.3-1.6 105.5z" fill="url(#k)"/></g></svg>