<svg width="200" height="27" viewBox="0 0 200 27" fill="none" xmlns="http://www.w3.org/2000/svg">
<path fill-rule="evenodd" clip-rule="evenodd" d="M105.874 0C98.1791 0 93.7837 5.42582 93.7837 13.0233C93.7837 20.6336 98.1682 26.0487 105.856 26.0465C112.09 26.0465 115.387 22.43 116.119 18.0868L115.752 17.7266H112.822L112.455 18.0868C111.723 20.6207 109.891 22.7902 105.863 22.7902C100.367 22.7902 97.4367 18.8114 97.4367 13.0233C97.4367 7.23514 100.367 3.25635 105.863 3.25635C109.525 3.25635 111.723 5.06352 112.455 7.59744L112.822 7.95973H115.769L116.136 7.59744C115.398 3.25635 111.734 0 105.874 0ZM19.0489 25.6885H0.366828L0 25.3262V0.722429L0.366828 0.362289H19.0489L19.4157 0.724586V5.42581L19.0489 5.78811H6.961L6.59417 6.1504V9.7669L6.961 10.1292H18.3152L18.682 10.4915V15.1949L18.3152 15.5572H6.961L6.59417 15.9195V19.8982L6.961 20.2605H19.0489L19.4157 20.6228V25.3262L19.0489 25.6885ZM44.692 25.6885H41.3949L40.6613 25.3262L34.0671 16.6419H33.7003L27.1061 25.3262L26.3746 25.6885H23.0775L22.7107 25.3262V20.6336L29.3049 12.6545V12.2922L23.0775 5.42581V0.722429L23.4443 0.362289H26.7502L27.4816 0.724586L33.7003 8.31987H34.0671L40.2879 0.722429L41.0281 0.362289H44.3252L44.692 0.724586V5.42581L38.4625 12.3008V12.6545L45.0566 20.6336V25.337L44.692 25.6885ZM49.4584 25.6885H55.3124L55.6857 25.3262V0.724586L55.3211 0.362289H49.4584L49.0937 0.722429V25.3262L49.4584 25.6885ZM89.3795 25.6885H83.5212L83.1543 25.3262V13.7478H82.7875L78.0253 25.3262L77.6585 25.6885H72.8941L72.5294 25.3262L67.765 13.7478H67.4004V25.3262L67.0335 25.6885H61.1708L60.8127 25.3262V0.722429L61.1708 0.362289H68.1318L68.4987 0.724586L75.0928 17.0063H75.4597L82.0538 0.724586L82.4294 0.362289H89.3904L89.7572 0.724586V25.3262L89.3795 25.6885ZM140.292 25.6885H137.364L136.997 25.3262V14.8326L136.63 14.4724H124.542L124.176 14.8326V25.3262L123.809 25.6885H120.879L120.512 25.3262V0.722429L120.879 0.362289H123.809L124.176 0.724586V10.8603L124.542 11.2226H136.63L136.997 10.8603V0.724586L137.364 0.362289H140.292L140.659 0.724586V25.3262L140.292 25.6885ZM163.372 25.6885H165.568L165.935 25.3241V22.7901L157.145 0.724586L156.778 0.362289H153.481L153.114 0.722429L144.321 22.7901V25.3262L144.688 25.6885H146.886L147.251 25.3262L149.45 19.8982L150.184 19.536H160.086L160.817 19.8982L163.001 25.3262L163.372 25.6885ZM154.939 5.78811H155.306L159.335 15.9238L158.968 16.2839H151.275L150.908 15.9238L154.939 5.78811ZM172.892 25.6885H169.962L169.597 25.3262V0.722429L169.962 0.362289H172.892L173.263 0.722429V25.3262L172.892 25.6885ZM196.338 25.6885H199.633L200 25.3262V0.724586L199.633 0.362289H196.703L196.338 0.722429V19.536H195.971L183.525 0.722429L182.783 0.362289H179.486L179.119 0.722429V25.3262L179.486 25.6885H182.416L182.783 25.3262V6.5127H183.159L195.605 25.3262L196.338 25.6885Z" fill="#1F2F47"/>
</svg>
