<svg fill="none" height="18" viewBox="0 0 170 18" width="170" xmlns="http://www.w3.org/2000/svg"><g fill="#fff"><path d="m15 14v-13.599986l-.2-.200002h-3l-.2.200002-4 9.799986h-.2l-4-9.799986-.2-.200002h-3l-.2.200002v13.599986l.2.2h2.4l.2-.2v-7.79999h.2l3.2 7.79999.2.2h2.2l.2-.2 3.2-7.79999h.2v7.79999l.2.2h2.4z"/><path d="m26.6031 6.40001v-2l-.2-.2h-1.8l-.2.2-2.4 6.79999h-.2l-2.4-6.79999-.2-.2h-1.8l-.2.2v2l3.2 7.79999v.2c-.2.6-.4.8-1.4.8h-1l-.2.2v2l.2.2h1c2.8 0 3.6-1.2 4.4-3.2z"/><path d="m33.0085 7.2c0 4.2 2.4 7.2 6.8 7.2 1.6 0 3-.4 4-1h.2l.8.8h1.4l.2-.2v-2l-.6-.6v-.4c.4-.8.8-2 .8-3.8 0-4.2-2.4-7.2-6.8-7.2s-6.8 3-6.8 7.2zm2.8 0c0-2.8 1.2-4.8 4-4.8s4 2 4 4.8c0 .6 0 1.2-.2 1.8h-.2l-1.4-1.4-.4-.2h-3.4l-.2.2v1.80001l.2.2h2l1.6 1.59999v.4c-.4.2-1 .4-2 .4-2.8 0-4-2-4-4.8z"/><path d="m48.4038 4.40001v5.99999c0 2.4 1.4 4 3.8 4 1.8 0 2.4-1 2.4-1h.2l.2.6.2.2h2.2l.2-.2v-9.59999l-.2-.2h-2.4l-.2.2v5.20001c0 1.39998-.6 2.39998-2 2.39998-1.2 0-1.6-.8-1.6-1.8v-5.79999l-.2-.2h-2.4z"/><path d="m69.4102 9.2c0-3.2-2-5.2-5-5.2s-5 2-5 5.2 2 5.2 5 5.2 5-2 5-5.2zm-2.8 0c0 1.8-.8 2.8-2.2 2.8s-2.2-1-2.2-2.8.8-2.8 2.2-2.8 2.2 1 2.2 2.8z"/><path d="m77.8014 6.40001v-2l-.2-.2h-1.2c-1.8 0-2.2.8-2.2.8h-.2l-.2-.6-.2-.2h-2.2l-.2.2v9.59999l.2.2h2.4l.2-.2v-4.79999c0-1.8.6-2.6 2.2-2.6h1.4z"/><path d="m79.2048 4.40001v5.99999c0 2.4 1.4 4 3.8 4 1.8 0 2.4-1 2.4-1h.2l.2.6.2.2h2.2l.2-.2v-9.59999l-.2-.2h-2.4l-.2.2v5.20001c0 1.39998-.6 2.39998-2 2.39998-1.2 0-1.6-.8-1.6-1.8v-5.79999l-.2-.2h-2.4z"/><path d="m106.011 14v-6c0-2.6-1.4-4-3.8-4-2.2 0-3 1.4-3 1.4h-.2c-.4-.6-1.2-1.4-2.8-1.4-1.8 0-2.4 1-2.4 1h-.2l-.2-.6-.2-.2h-2.2l-.2.2v9.6l.2.2h2.4l.2-.2v-5.4c0-1.4.6-2.2 1.8-2.2s1.6.8 1.6 1.8v5.8l.2.2h2.4001l.2-.2v-5.4c0-1.4.5999-2.2 1.7999-2.2s1.6.8 1.6 1.8v5.8l.2.2h2.4z"/><path d="m120.409.200012-.2.200002-2.6 9.200006h-.2l-2-9.200006-.2-.200002h-2l-.2.200002v1.999996l3 11.59999.2.2h2.6l.2-.2 2.6-9.59999h.2l2.6 9.59999.2.2h2.6l.2-.2 3-11.59999v-1.999996l-.2-.200002h-2l-.2.200002-2 9.200006h-.2l-2.6-9.200006-.2-.200002z"/><path d="m139.616 14v-5.4c0-3-1-4.6-4.2-4.6s-4.2 1.8-4.2 3l.2.2h2.4l.2-.2c.2-.6.8-.6 1.4-.6 1.2 0 1.4.2 1.4 1.2v.2l-.2.2s-.6-.2-1.4-.2c-1.6 0-4.4.4-4.4 3.4 0 2 1.4 3.2 3.6 3.2 1.4 0 2.2-.8 2.2-.8h.2l.2.4.2.2h2.2zm-2.8-3.8v.4c0 .8-.8 1.4-1.8 1.4s-1.4-.4-1.4-1c0-.8.6-1.19999 1.8-1.19999.8 0 1.2.19999 1.2.19999z"/><path d="m144.607 14v-13.599986l-.2-.200002h-2.4l-.2.200002v13.599986l.2.2h2.4z"/><path d="m149.802 14v-13.599986l-.2-.200002h-2.4l-.2.200002v13.599986l.2.2h2.4z"/><path d="m161.198 9.2c0-2.8-1.6-5.2-4.8-5.2s-4.8 2.4-4.8 5.2 1.6 5.2 5 5.2c3 0 4-1.8 4.2-3l-.2-.2h-2.4l-.2.2c-.2.4-.8.6-1.4.6-1.6 0-2-1.2-2-1.6l.2-.2h6.2l.2-.2zm-3.2-1h-3.2l-.2-.2c0-.2.2-1.6 1.8-1.6s1.8 1.4 1.8 1.6z"/><path d="m166.603 6.8.2-.2h2.2l.2-.2v-2l-.2-.2h-2.2l-.2-.2v-1.8l-.2-.2h-2.4l-.2.2v1.8l-.2.2h-1.4l-.2.2v2l.2.2h1.4l.2.2v4.4c0 2.2 1.6 3 3.4 3h1.8l.2-.2v-2l-.2-.2h-1.8c-.4 0-.6-.2-.6-.6z"/></g></svg>