<svg fill="none" height="19" viewBox="0 0 170 19" width="170" xmlns="http://www.w3.org/2000/svg"><g fill="#214885"><path d="m15.6 14.8v-13.60001l-.2-.200002h-3l-.2.200002-4.00002 9.80001h-.2l-4-9.80001-.2-.200002h-3.000004l-.2.200002v13.60001l.2.2h2.400004l.2-.2v-7.80001h.2l3.2 7.80001.2.2h2.2l.2-.2 3.20002-7.80001h.2v7.80001l.2.2h2.4z"/><path d="m27.2031 7.19999v-2l-.2-.2h-1.8l-.2.2-2.4 6.80001h-.2l-2.4-6.80001-.2-.2h-1.8l-.2.2v2l3.2 7.80001v.2c-.2.6-.4.8-1.4.8h-1l-.2.2v2l.2.2h1c2.8 0 3.6-1.2 4.4-3.2z"/><path d="m33.6086 7.99999c0 4.20001 2.4 7.20001 6.8 7.20001 1.6 0 3-.4 4-1h.2l.8.8h1.4l.2-.2v-2l-.6-.6v-.4c.4-.8.8-2.00001.8-3.80001 0-4.2-2.4-7.200002-6.8-7.200002s-6.8 3.000002-6.8 7.200002zm2.8 0c0-2.8 1.2-4.8 4-4.8s4 2 4 4.8c0 .6 0 1.2-.2 1.8h-.2l-1.4-1.4-.4-.2h-3.4l-.2.2v1.80001l.2.2h2l1.6 1.6v.4c-.4.2-1 .4-2 .4-2.8 0-4-2-4-4.80001z"/><path d="m49.0039 5.19999v6.00001c0 2.4 1.4 4 3.8 4 1.8 0 2.4-1 2.4-1h.2l.2.6.2.2h2.2l.2-.2v-9.60001l-.2-.2h-2.4l-.2.2v5.20001c0 1.4-.6 2.4-2 2.4-1.2 0-1.6-.8-1.6-1.8v-5.80001l-.2-.2h-2.4z"/><path d="m70.0101 9.99999c0-3.2-2-5.2-5-5.2s-5 2-5 5.2c0 3.20001 2 5.20001 5 5.20001s5-2 5-5.20001zm-2.8 0c0 1.80001-.8 2.80001-2.2 2.80001s-2.2-1-2.2-2.80001c0-1.8.8-2.8 2.2-2.8s2.2 1 2.2 2.8z"/><path d="m78.4015 7.19999v-2l-.2-.2h-1.2c-1.8 0-2.2.8-2.2.8h-.2l-.2-.6-.2-.2h-2.2l-.2.2v9.60001l.2.2h2.4l.2-.2v-4.80001c0-1.8.6-2.6 2.2-2.6h1.4z"/><path d="m79.8047 5.19999v6.00001c0 2.4 1.4 4 3.8 4 1.8 0 2.4-1 2.4-1h.2l.2.6.2.2h2.2l.2-.2v-9.60001l-.2-.2h-2.4l-.2.2v5.20001c0 1.4-.6 2.4-2 2.4-1.2 0-1.6-.8-1.6-1.8v-5.80001l-.2-.2h-2.4z"/><path d="m106.611 14.8v-6.00001c0-2.6-1.4-4-3.8-4-2.2 0-3.0001 1.4-3.0001 1.4h-.2c-.4-.6-1.2-1.4-2.8-1.4-1.8 0-2.4 1-2.4 1h-.2l-.2-.6-.2-.2h-2.2l-.2.2v9.60001l.2.2h2.4l.2-.2v-5.40001c0-1.4.6-2.2 1.8-2.2s1.6.8 1.6 1.8v5.80001l.2.2h2.4001l.2-.2v-5.40001c0-1.4.6-2.2 1.8-2.2s1.6.8 1.6 1.8v5.80001l.2.2h2.4z"/><path d="m121.009.999988-.2.200002-2.6 9.20001h-.2l-2-9.20001-.2-.200002h-2l-.2.200002v2l3 11.60001.2.2h2.6l.2-.2 2.6-9.60001h.2l2.6 9.60001.2.2h2.6l.2-.2 3-11.60001v-2l-.2-.200002h-2l-.2.200002-2 9.20001h-.2l-2.6-9.20001-.2-.200002z"/><path d="m140.216 14.8v-5.40001c0-3-1-4.6-4.2-4.6s-4.2 1.8-4.2 3l.2.2h2.4l.2-.2c.2-.6.8-.6 1.4-.6 1.2 0 1.4.2 1.4 1.2v.2l-.2.2s-.6-.2-1.4-.2c-1.6 0-4.4.4-4.4 3.40001 0 2 1.4 3.2 3.6 3.2 1.4 0 2.2-.8 2.2-.8h.2l.2.4.2.2h2.2zm-2.8-3.8v.4c0 .8-.8 1.4-1.8 1.4s-1.4-.4-1.4-1c0-.8.6-1.2 1.8-1.2.8 0 1.2.2 1.2.2z"/><path d="m145.207 14.8v-13.60001l-.2-.200002h-2.4l-.2.200002v13.60001l.2.2h2.4z"/><path d="m150.402 14.8v-13.60001l-.2-.200002h-2.4l-.2.200002v13.60001l.2.2h2.4z"/><path d="m161.798 9.99999c0-2.8-1.6-5.2-4.8-5.2s-4.8 2.4-4.8 5.2c0 2.80001 1.6 5.20001 5 5.20001 3 0 4-1.8 4.2-3l-.2-.2h-2.4l-.2.2c-.2.4-.8.6-1.4.6-1.6 0-2-1.2-2-1.6l.2-.2h6.2l.2-.2zm-3.2-1h-3.2l-.2-.2c0-.2.2-1.6 1.8-1.6s1.8 1.4 1.8 1.6z"/><path d="m167.203 7.59999.2-.2h2.2l.2-.2v-2l-.2-.2h-2.2l-.2-.2v-1.8l-.2-.2h-2.4l-.2.2v1.8l-.2.2h-1.4l-.2.2v2l.2.2h1.4l.2.2v4.40001c0 2.2 1.6 3 3.4 3h1.8l.2-.2v-2l-.2-.2h-1.8c-.4 0-.6-.2-.6-.6z"/></g></svg>