<svg height="242" viewBox="0 0 1000 242" width="1000" xmlns="http://www.w3.org/2000/svg"><g fill="none"><circle cx="120.18" cy="121" fill="#007896" r="120.18"/><g fill="#fff"><g transform="translate(39 51)"><path d="m93.7 100.26c-3.2391479 3.293832-7.665324 5.148954-12.285 5.148954s-9.0458521-1.855122-12.285-5.148954l-15.66-15.83c-2.0154237-2.0503398-4.769965-3.2051896-7.645-3.2051896s-5.6295763 1.1548498-7.645 3.2051896c-6.7837223 6.9022169-6.7837223 17.967783 0 24.87l31 31.29c3.2391479 3.293832 7.665324 5.148954 12.285 5.148954s9.0458521-1.855122 12.285-5.148954l30.92-31.33c6.783722-6.902217 6.783722-17.9677831 0-24.87-2.015424-2.0503398-4.769965-3.2051896-7.645-3.2051896s-5.629576 1.1548498-7.645 3.2051896z"/><path d="m34.94 45.16c3.0890939-3.2097721 7.338052-5.0441565 11.7925922-5.0911652 4.4545402-.0470086 8.7412641 1.6972989 11.8974078 4.8411652l14.94 15.09c1.9619997 1.9549457 4.6268754 3.0401122 7.3964349 3.0119089 2.7695596-.0282032 5.4117838-1.1674135 7.3335651-3.1619089 6.6182507-6.5962257 6.7162179-17.2835583.22-24l-29.52-29.85c-3.1561437-3.14386628-7.4428676-4.88817383-11.8974078-4.84116517-4.4545402.04700865-8.7034983 1.88139305-11.7925922 5.09116517l-30.09 30.49c-6.61825067 6.5962257-6.71621789 17.2835583-.22 24 1.96199966 1.9549457 4.62687538 3.0401122 7.3964349 3.0119089 2.7695596-.0282032 5.4117838-1.1674135 7.3335651-3.1619089z"/><path d="m103.8 44.48c3.089094-3.2097721 7.338052-5.0441565 11.792592-5.0911652 4.45454-.0470086 8.741264 1.6972989 11.897408 4.8411652l14.94 15.11c1.962 1.9549457 4.626875 3.0401122 7.396435 3.0119089 2.769559-.0282032 5.411784-1.1674135 7.333565-3.1619089 6.618251-6.5962257 6.716218-17.2835583.22-24l-29.54-29.87c-3.156144-3.14386628-7.442868-4.88817383-11.897408-4.84116517-4.45454.04700865-8.703498 1.88139305-11.792592 5.09116517l-30.09 30.49c-6.6182507 6.5962257-6.7162179 17.2835583-.22 24 1.9619997 1.9549457 4.6268754 3.0401122 7.3964349 3.0119089 2.7695596-.0282032 5.4117838-1.1674135 7.3335651-3.1619089z"/></g><g transform="translate(313 48)"><path d="m90.57 34.35-33.31 42.87c-.1992153.2566413-.5051209.4077513-.83.41h-4.07c-.3231775.0001653-.6287763-.1471112-.83-.4l-33.31-42.53c-.2793499-.3517115-.750038-.489183-1.1747733-.34311s-.7113001.5439753-.7152267.99311v79.76c0 .585422-.4745782 1.06-1.06 1.06h-13.56c-.58542183 0-1.06-.474578-1.06-1.06l.19-111.23c.00548621-.58151285.47846128-1.05002588 1.06-1.05h9.76c.3248791.00224872.6307847.15335873.83.41l41.16 52.92c.2008989.2569024.5088724.407026.835.407026s.6341011-.1501236.835-.407026l41-52.92c.2013729-.25940678.5116066-.41083035.84-.41h9.76c.585422 0 1.06.47457817 1.06 1.06v111.22c0 .585422-.474578 1.06-1.06 1.06h-13.4c-.5854218 0-1.06-.474578-1.06-1.06v-80.11c-.0039266-.4491347-.2904914-.847037-.7152267-.99311s-.8954234-.0086015-1.1747733.34311z"/><path d="m153.09 145.63h-13.76c-.36128.021077-.705756-.154686-.900719-.459574-.194963-.304889-.209986-.691322-.039281-1.010426l14.8-32.11c.129561-.272028.129561-.587972 0-.86l-33.14-72.91c-.165566-.3183589-.147862-.7010226.046391-1.0027348s.535272-.4762137.893609-.4572652h14.7c.437612-.0290354.843076.2304613 1 .64l22.59 55.08c.861442 1.7085788 1.374718 3.5713296 1.51 5.48h.76c.093757-1.859835.471459-3.6943852 1.12-5.44v-.08l22.58-55c.156924-.4095387.562388-.6690354 1-.64h13.59c.357183-.0206856.698204.1510305.894277.450301.196074.2992705.217323.680492.055723.999699l-46.79 106.69c-.148875.374023-.50751.622309-.91.63z"/><path d="m308.69 103.73c.328865.40929.285194 1.003215-.1 1.36l-.87.87c-1.408938 1.251002-2.891597 2.416426-4.44 3.49-2.343252 1.708663-4.84073 3.195098-7.46 4.44-3.396099 1.505363-6.942728 2.645112-10.58 3.4-4.525329 1.019874-9.151199 1.526405-13.79 1.51-16.746667 0-30.413333-5.666667-41-17-10.586667-11.3333333-15.876667-25.3766667-15.87-42.13 0-16.8733333 5.256667-30.9766667 15.77-42.31 10.513333-11.33333333 24.21-17 41.09-17 7.094188-.06704954 14.140594 1.16666466 20.79 3.64 6.3 2.39333333 10.706667 4.78666667 13.22 7.18l3.1 2.95c.403703.3533365.456655.9622846.12 1.38l-7.73 10.31c-.171822.2580963-.453647.4218906-.762958.4434249-.30931.0215342-.611113-.1016278-.817042-.3334249l-.43-.39c-.566667-.5066667-1.793333-1.42-3.68-2.74-1.878175-1.3152332-3.835175-2.5141464-5.86-3.59-2.494193-1.245462-5.125365-2.1952346-7.84-2.83-3.242228-.823179-6.57491-1.2364047-9.92-1.23-11.966667 0-21.79 4.2833333-29.47 12.85s-11.52 19.1466667-11.52 31.74c0 12.4666667 3.84 22.9833333 11.52 31.55s17.503333 12.85 29.47 12.85c5.179748.020185 10.313214-.975252 15.11-2.93 4.76-1.94 8.21-3.85 10.35-5.73l.07-.06 2.14-2.14c.205994-.2279074.505311-.3484854.811765-.3270141.306455.0214713.586034.1826089.758235.4370141z"/><path d="m365.76 48.25c0 .5522847-.447715 1-1 1h-7.34c-5.467401-.0846593-10.715891 2.1454948-14.45 6.14-3.998074 4.1121362-6.162285 9.6669448-6 15.4v44.29c0 .552285-.447715 1-1 1h-13.44c-.552285 0-1-.447715-1-1v-77.21c0-.5522847.447715-1 1-1h9.59c.552285 0 1 .4477153 1 1l.41 12.4h.94c1.81808-4.1948671 4.929502-7.6987208 8.88-10 4.251016-2.4533038 9.092982-3.6949223 14-3.59h7.34c.552285 0 1 .4477153 1 1z"/><path d="m406.77 145.63h-13.77c-.36601.02725-.717536-.14819-.915795-.457057s-.211389-.701522-.034205-1.022943l14.8-32.09c.132759-.274806.132759-.595194 0-.87l-33.13-72.9c-.171883-.3207309-.155977-.7095144.041532-1.0151326.197508-.3056182.54544-.4798269.908468-.4548674h14.68c.440204-.0275762.84649.2365095 1 .65l22.59 55.08c1 2.27 2.41 4.09 2.41 5.48h-1c0-1.39 1.27-3.21 2-5.48l22.59-55.08c.15351-.4134905.559796-.6775762 1-.65h13.57c.368713-.0429055.730854.1219568.940616.4282085.209761.3062518.232624.7034962.059384 1.0317915l-46.78 106.72c-.155531.391103-.539306.642955-.96.63z"/><path d="m477.66 106.15v38.44c0 .552285-.447715 1-1 1h-13.46c-.552285 0-1-.447715-1-1v-106.73c0-.5522847.447715-1 1-1h10.3c.552285 0 1 .4477153 1 1l.09 10.49h.77c.347077.0063277.672605-.1677923.86-.46l.64-1c.909596-1.1510472 1.913031-2.2247226 3-3.21 1.660279-1.5931811 3.499149-2.9891116 5.48-4.16 2.587997-1.4245159 5.35153-2.5037057 8.22-3.21 3.603565-.9637959 7.319835-1.4413618 11.05-1.42 10.06076-.2250425 19.719386 3.9487985 26.45 11.43 7.053333 7.62 10.58 17.6633333 10.58 30.13 0 12.2133333-3.493333 22.1933333-10.48 29.94-6.513774 7.538522-16.038685 11.795425-26 11.62-3.656256.027552-7.302521-.385422-10.86-1.23-2.754693-.581973-5.400474-1.594389-7.84-3-1.687818-1.050614-3.29857-2.220247-4.82-3.5-1.014517-.815141-1.924711-1.752204-2.71-2.79l-.06-.09-.73-1.27zm6.23-8.78c4.803432 5.441117 11.870596 8.329372 19.11 7.81 5.354512-.232207 10.442814-2.39971 14.32-6.1 5.786667-5.5866667 8.68-13.1166667 8.68-22.59 0-8.3133333-2.296667-15.1766667-6.89-20.59-4.259076-5.2565131-10.705906-8.252979-17.47-8.12-6.783848-.1204747-13.277916 2.7462761-17.76 7.84-4.786667 5.2266667-7.18 12.1833333-7.18 20.87s2.396667 15.6466667 7.19 20.88z"/><path d="m560.18 35.77v-22.07c0-.579899.470101-1.05 1.05-1.05h13.38c.579899 0 1.05.470101 1.05 1.05v22.07c0 .579899.470101 1.05 1.05 1.05h20.56c.579899 0 1.05.470101 1.05 1.05v10.17c0 .579899-.470101 1.05-1.05 1.05h-20.56c-.579899 0-1.05.470101-1.05 1.05v42.77c0 7.933333 3.666667 11.9 11 11.9 1.766232-.020038 3.519318-.3066 5.2-.85 1.485128-.418935 2.912658-1.020177 4.25-1.79l.51-.26c.259745-.130851.562128-.148103.835071-.047645.272942.100458.49199.309626.604929.577645l4 9.22c.208775.434052.078473.95526-.31 1.24-.677164.497755-1.385256.952003-2.12 1.36-1.626297.851766-3.330829 1.544964-5.09 2.07-3.721295 1.219199-7.62574 1.784227-11.54 1.67-7.506667-.233333-13.133333-2.43-16.88-6.59-4-4.406667-6-10.513333-6-18.32v-43c0-.579899-.470101-1.05-1.05-1.05h-12.38c-.278477 0-.545549-.1106247-.742462-.3075379s-.307538-.4639848-.307538-.7424621v-10.11c0-.579899.470101-1.05 1.05-1.05h12.44c.280219.0000127.548817-.1119836.74602-.311065.197203-.1990813.306649-.4687291.30398-.748935z"/><path d="m675.29 106.72c-7.806667 7.553333-17.376667 11.33-28.71 11.33-11.46 0-21.03-3.776667-28.71-11.33-7.68-7.5533333-11.52-17.5033333-11.52-29.85 0-12.4666667 3.873333-22.5733333 11.62-30.32s17.286667-11.62 28.62-11.62c10.777065-.2321135 21.169568 4.0066958 28.71 11.71 7.8 7.8133333 11.7 17.89 11.7 30.23s-3.903333 22.29-11.71 29.85zm-11-9c4.786667-5.2266667 7.18-12.2466667 7.18-21.06 0-8.6666667-2.393333-15.72-7.18-21.16-4.399073-5.2378842-10.920603-8.2195748-17.76-8.12-6.839435-.1001208-13.373318 2.8282301-17.85 8-4.846667 5.3333333-7.27 12.4166667-7.27 21.25s2.393333 15.8533333 7.18 21.06c4.590499 4.996412 11.064956 7.840149 17.85 7.840149s13.259501-2.843737 17.85-7.840149z"/></g></g></g></svg>