<svg height="723" viewBox="0 0 2568 723" width="2568" xmlns="http://www.w3.org/2000/svg"><path d="m249 0c-99.1 0-179.3 80.2-179.3 179.3v67.2c-34.8 6.3-69.7 14.7-69.7 25.6v350.7s0 9.7 10.9 14.3c39.5 16 194.9 71 230.6 83.6 4.6 1.7 5.9 1.7 7.1 1.7 1.7 0 2.5 0 7.1-1.7 35.7-12.6 191.5-67.6 231-83.6 10.1-4.2 10.5-13.9 10.5-13.9v-351.1c0-10.9-34.4-19.7-69.3-25.6v-67.2c.5-99.1-80.2-179.3-178.9-179.3zm0 85.7c58.4 0 93.7 35.3 93.7 93.7v58.4c-65.5-4.6-121.4-4.6-187.3 0v-58.4c0-58.5 35.3-93.7 93.6-93.7zm-.4 238.1c81.5 0 149.9 6.3 149.9 17.6v218.8c0 3.4-.4 3.8-3.4 5-2.9 1.3-139 50.4-139 50.4s-5.5 1.7-7.1 1.7c-1.7 0-7.1-2.1-7.1-2.1s-136.1-49.1-139-50.4-3.4-1.7-3.4-5v-218.8c-.8-11.3 67.6-17.2 149.1-17.2zm479.947 238.728v-239.606h-87.547v-85.922h272.962v85.922h-86.686v239.606zm405.847 0-44.92-102.36h-35.745v102.36h-98.729v-325.528h173.755c76.27 0 117.175 50.56 117.175 111.536 0 56.198-32.495 85.922-58.587 98.729l58.97 115.168h-111.919zm11.66-213.992c0-17.681-15.674-25.327-32.113-25.327h-60.212v51.419h60.212c16.44-.382 32.113-8.028 32.113-26.092zm151.946 213.992v-325.528h246.87v85.922h-148.523v32.113h144.891v85.922h-144.891v35.745h148.523v85.826zm298 1v-78.275l124.056-161.331h-124.056v-85.922h254.038v77.511l-124.438 162.191h128.07v85.922zm282-162.934c0-99.971 77.511-168.594 178.247-168.594 100.354 0 178.248 68.24 178.248 168.594 0 99.972-77.512 168.212-178.248 168.212s-178.247-68.24-178.247-168.212zm256.141 0c0-45.398-30.87-81.525-78.276-81.525-47.405 0-78.276 36.127-78.276 81.525s30.87 81.526 78.276 81.526c47.788 0 78.276-36.128 78.276-81.526zm321.253 162.934-44.92-102.36h-35.745v102.36h-98.729v-325.528h173.755c76.27 0 117.175 50.56 117.175 111.536 0 56.198-32.495 85.922-58.587 98.729l58.97 115.168h-111.919zm12.043-214.374c0-17.682-15.675-25.328-32.113-25.328h-60.213v51.42h60.213c16.534-.383 32.113-8.029 32.113-26.092z" fill="#fff"/></svg>