<svg width="121" height="31" viewBox="0 0 121 31" fill="none" xmlns="http://www.w3.org/2000/svg">
<path d="M1.86836 21.0393H0.426147L3.00893 30.6918H4.54069L6.50135 23.5231H6.57676L8.53741 30.6918H10.0692L12.6472 21.0393H11.2097L9.31507 28.4672H9.23024L7.29315 21.0393H5.78024L3.84787 28.4625H3.75832L1.86836 21.0393Z" fill="white"/>
<path d="M14.4912 30.6918L15.3019 28.3541H19.1761L19.9867 30.6918H21.5751L18.0261 21.0393H16.4566L12.9076 30.6918H14.4912ZM17.1824 22.9528H17.2955L18.733 27.0909H15.7449L17.1824 22.9528Z" fill="white"/>
<path d="M29.1066 29.4098H24.8082V21.0393H23.3142V30.6918H29.1066V29.4098Z" fill="white"/>
<path d="M36.961 29.4098H32.6626V21.0393H31.1686V30.6918H36.961V29.4098Z" fill="white"/>
<path d="M45.0982 29.4098H40.517V26.5018H44.4996V25.2151H40.517V22.3213H45.0463V21.0393H39.023V30.6918H45.0982V29.4098Z" fill="white"/>
<path d="M54.3017 21.0393H46.8738V22.3213H49.8431V30.6918H51.3324V22.3213H54.3017V21.0393Z" fill="white"/>
<path fill-rule="evenodd" clip-rule="evenodd" d="M64.1743 0C59.5759 0 56.9491 3.2832 56.9491 7.88037C56.9491 12.4854 59.5693 15.762 64.1639 15.7607C67.8894 15.7607 69.8599 13.5723 70.297 10.9443L70.0778 10.7263H68.3265L68.1073 10.9443C67.6702 12.4775 66.5753 13.7903 64.1678 13.7903C60.8834 13.7903 59.1322 11.3826 59.1322 7.88037C59.1322 4.37793 60.8834 1.97046 64.1678 1.97046C66.3562 1.97046 67.6702 3.06396 68.1073 4.59717L68.3265 4.81641H70.0881L70.3074 4.59717C69.8663 1.97046 67.6768 0 64.1743 0ZM12.2861 15.5437H1.12134L0.9021 15.3245V0.437012L1.12134 0.218994H12.2861L12.5054 0.438232V3.28296L12.2861 3.5022H5.06213L4.8429 3.72144V5.90967L5.06213 6.12891H11.8477L12.0669 6.34814V9.19409L11.8477 9.41333H5.06213L4.8429 9.63257V12.04L5.06213 12.2593H12.2861L12.5054 12.4785V15.3245L12.2861 15.5437ZM27.6111 15.5437H25.6406L25.2023 15.3245L21.2615 10.0698H21.0422L17.1014 15.3245L16.6642 15.5437H14.6938L14.4746 15.3245V12.4851L18.4154 7.65698V7.43774L14.6938 3.28296V0.437012L14.9131 0.218994H16.8887L17.3258 0.438232L21.0422 5.03418H21.2615L24.9791 0.437012L25.4215 0.218994H27.3918L27.6111 0.438232V3.28296L23.8882 7.44287V7.65698L27.829 12.4851V15.3311L27.6111 15.5437ZM30.4595 15.5437H33.9579L34.181 15.3245V0.438232L33.9631 0.218994H30.4595L30.2416 0.437012V15.3245L30.4595 15.5437ZM54.317 15.5437H50.816L50.5968 15.3245V8.3186H50.3776L47.5316 15.3245L47.3124 15.5437H44.4651L44.2471 15.3245L41.3998 8.3186H41.1819V15.3245L40.9626 15.5437H37.459L37.245 15.3245V0.437012L37.459 0.218994H41.619L41.8383 0.438232L45.7791 10.2903H45.9983L49.9391 0.438232L50.1636 0.218994H54.3236L54.5428 0.438232V15.3245L54.317 15.5437ZM84.7437 15.5437H82.9938L82.7745 15.3245V8.97485L82.5553 8.75708H75.3313L75.1121 8.97485V15.3245L74.8929 15.5437H73.1417L72.9225 15.3245V0.437012L73.1417 0.218994H74.8929L75.1121 0.438232V6.57129L75.3313 6.79053H82.5553L82.7745 6.57129V0.438232L82.9938 0.218994H84.7437L84.9629 0.438232V15.3245L84.7437 15.5437ZM98.5365 15.5437H99.8492L100.068 15.3232V13.79L94.8149 0.438232L94.5957 0.218994H92.6254L92.4061 0.437012L87.1512 13.79V15.3245L87.3705 15.5437H88.6846L88.9025 15.3245L90.2164 12.04L90.6549 11.8208H96.5726L97.0098 12.04L98.3147 15.3245L98.5365 15.5437ZM93.4969 3.5022H93.7162L96.1238 9.63525L95.9045 9.85303H91.3074L91.0881 9.63525L93.4969 3.5022ZM104.226 15.5437H102.475L102.257 15.3245V0.437012L102.475 0.218994H104.226L104.448 0.437012V15.3245L104.226 15.5437ZM118.238 15.5437H120.207L120.426 15.3245V0.438232L120.207 0.218994H118.456L118.238 0.437012V11.8208H118.019L110.581 0.437012L110.137 0.218994H108.167L107.947 0.437012V15.3245L108.167 15.5437H109.918L110.137 15.3245V3.94067H110.361L117.799 15.3245L118.238 15.5437Z" fill="white"/>
</svg>
