<svg width="96" height="36" viewBox="0 0 96 36" fill="none" xmlns="http://www.w3.org/2000/svg">
<path d="M31.1122 17H32.6634L34.8061 9.37358H34.8857L37.0284 17H38.5746L41.4034 6.81818H39.7827L37.804 14.7081H37.7095L35.6463 6.81818H34.0455L31.9822 14.7031H31.8878L29.9041 6.81818H28.2884L31.1122 17ZM43.9552 17.169C45.218 17.169 45.9289 16.5277 46.2123 15.956H46.2719V17H47.7237V11.929C47.7237 9.70668 45.9737 9.2642 44.7606 9.2642C43.3785 9.2642 42.1058 9.82102 41.6086 11.2131L43.0056 11.5312C43.2244 10.9893 43.7812 10.4673 44.7805 10.4673C45.74 10.4673 46.2322 10.9695 46.2322 11.8345V11.8693C46.2322 12.4112 45.6754 12.4013 44.3032 12.5604C42.8565 12.7294 41.3749 13.1072 41.3749 14.8423C41.3749 16.3438 42.5035 17.169 43.9552 17.169ZM44.2783 15.9759C43.4381 15.9759 42.8316 15.598 42.8316 14.8622C42.8316 14.0668 43.5376 13.7834 44.3977 13.669C44.8799 13.6044 46.0234 13.4751 46.2371 13.2614V14.2457C46.2371 15.1506 45.5163 15.9759 44.2783 15.9759ZM50.9901 6.81818H49.5036V17H50.9901V6.81818ZM54.2764 6.81818H52.7899V17H54.2764V6.81818ZM59.3674 17.1541C61.0329 17.1541 62.2112 16.3338 62.5493 15.0909L61.1423 14.8374C60.8738 15.5582 60.2275 15.9261 59.3824 15.9261C58.1096 15.9261 57.2545 15.1009 57.2147 13.6293H62.6437V13.1023C62.6437 10.343 60.9931 9.2642 59.263 9.2642C57.1352 9.2642 55.7332 10.8849 55.7332 13.2315C55.7332 15.603 57.1153 17.1541 59.3674 17.1541ZM57.2197 12.5156C57.2794 11.4318 58.0649 10.4922 59.273 10.4922C60.4264 10.4922 61.1821 11.3473 61.187 12.5156H57.2197ZM67.6577 9.36364H66.0916V7.53409H64.6051V9.36364H63.4865V10.5568H64.6051V15.0611C64.6001 16.4432 65.6591 17.1143 66.8324 17.0945C67.3047 17.0895 67.6229 17 67.7969 16.9354L67.5284 15.7074C67.429 15.7273 67.245 15.772 67.0064 15.772C66.5241 15.772 66.0916 15.6129 66.0916 14.7528V10.5568H67.6577V9.36364Z" fill="white"/>
<rect x="73.4" y="7.4" width="22.2" height="10.2" rx="2.6" stroke="white" stroke-width="0.8"/>
<path d="M76.6488 15H78.4151C79.4144 15 79.9044 14.4908 79.9044 13.8111C79.9044 13.1506 79.4357 12.7628 78.9712 12.7393V12.6967C79.3973 12.5966 79.734 12.2983 79.734 11.7678C79.734 11.1179 79.2652 10.6364 78.3192 10.6364H76.6488V15ZM77.4392 14.3395V13.0611H78.3107C78.7986 13.0611 79.1012 13.3594 79.1012 13.7493C79.1012 14.0966 78.8625 14.3395 78.2894 14.3395H77.4392ZM77.4392 12.4922V11.2884H78.2382C78.7027 11.2884 78.9435 11.5334 78.9435 11.87C78.9435 12.2536 78.6324 12.4922 78.2212 12.4922H77.4392ZM80.8921 15H83.7472V14.3374H81.6826V13.1463H83.5832V12.4837H81.6826V11.299H83.7302V10.6364H80.8921V15ZM84.6449 11.299H85.9936V15H86.7777V11.299H88.1264V10.6364H84.6449V11.299ZM89.1306 15L89.4907 13.924H91.1313L91.4935 15H92.3373L90.7989 10.6364H89.8231L88.2869 15H89.1306ZM89.7038 13.2891L90.294 11.5312H90.3281L90.9183 13.2891H89.7038Z" fill="white"/>
<path fill-rule="evenodd" clip-rule="evenodd" d="M35.9564 28.6001C34.3316 28.6001 33.4035 29.7458 33.4035 31.3501C33.4035 32.9571 34.3293 34.1006 35.9528 34.1001C37.2691 34.1001 37.9653 33.3364 38.1198 32.4193L38.0423 32.3433H37.4236L37.3461 32.4193C37.1917 32.9544 36.8048 33.4125 35.9541 33.4125C34.7936 33.4125 34.1749 32.5723 34.1749 31.3501C34.1749 30.1279 34.7936 29.2877 35.9541 29.2877C36.7274 29.2877 37.1917 29.6693 37.3461 30.2044L37.4236 30.2809H38.046L38.1235 30.2044C37.9676 29.2877 37.194 28.6001 35.9564 28.6001ZM17.6225 34.0245H13.6776L13.6001 33.948V28.7527L13.6776 28.6766H17.6225L17.6999 28.7531V29.7459L17.6225 29.8224H15.07L14.9925 29.8989V30.6625L15.07 30.739H17.4676L17.545 30.8155V31.8087L17.4676 31.8852H15.07L14.9925 31.9617V32.8019L15.07 32.8784H17.6225L17.6999 32.9549V33.948L17.6225 34.0245ZM23.0372 34.0245H22.341L22.1861 33.948L20.7937 32.1142H20.7162L19.3238 33.948L19.1693 34.0245H18.4731L18.3956 33.948V32.9571L19.7881 31.2723V31.1958L18.4731 29.7459V28.7527L18.5505 28.6766H19.2486L19.4031 28.7531L20.7162 30.357H20.7937L22.1072 28.7527L22.2635 28.6766H22.9598L23.0372 28.7531V29.7459L21.7218 31.1976V31.2723L23.1142 32.9571V33.9503L23.0372 34.0245ZM24.0438 34.0245H25.2799L25.3588 33.948V28.7531L25.2818 28.6766H24.0438L23.9668 28.7527V33.948L24.0438 34.0245ZM32.4735 34.0245H31.2364L31.1589 33.948V31.5031H31.0815L30.0759 33.948L29.9984 34.0245H28.9924L28.9154 33.948L27.9093 31.5031H27.8323V33.948L27.7549 34.0245H26.5169L26.4413 33.948V28.7527L26.5169 28.6766H27.9868L28.0642 28.7531L29.4567 32.1912H29.5341L30.9266 28.7531L31.0059 28.6766H32.4758L32.5532 28.7531V33.948L32.4735 34.0245ZM43.2242 34.0245H42.6059L42.5284 33.948V31.7322L42.451 31.6561H39.8985L39.821 31.7322V33.948L39.7436 34.0245H39.1248L39.0474 33.948V28.7527L39.1248 28.6766H39.7436L39.821 28.7531V30.8934L39.8985 30.9699H42.451L42.5284 30.8934V28.7531L42.6059 28.6766H43.2242L43.3016 28.7531V33.948L43.2242 34.0245ZM48.0979 34.0245H48.5617L48.6392 33.9476V33.4125L46.7829 28.7531L46.7055 28.6766H46.0093L45.9318 28.7527L44.0751 33.4125V33.948L44.1525 34.0245H44.6168L44.6938 33.948L45.1581 32.8019L45.313 32.7254H47.404L47.5585 32.8019L48.0195 33.948L48.0979 34.0245ZM46.3173 29.8224H46.3947L47.2454 31.9626L47.1679 32.0387H45.5436L45.4661 31.9626L46.3173 29.8224ZM50.108 34.0245H49.4892L49.4122 33.948V28.7527L49.4892 28.6766H50.108L50.1864 28.7527V33.948L50.108 34.0245ZM55.0591 34.0245H55.7548L55.8323 33.948V28.7531L55.7548 28.6766H55.1361L55.0591 28.7527V32.7254H54.9816L52.3535 28.7527L52.1968 28.6766H51.5006L51.4231 28.7527V33.948L51.5006 34.0245H52.1193L52.1968 33.948V29.9754H52.2761L54.9042 33.948L55.0591 34.0245Z" fill="#E8F2FE"/>
<path d="M6.4 32.125C6.4 30.925 5.725 30.175 4.75 30.175C4.075 30.175 3.775 30.625 3.775 30.625H3.7V28.825L3.625 28.75H3.025L2.95 28.825V33.925L3.025 34H3.55L3.625 33.925L3.7 33.625H3.775C3.775 33.625 4.075 34.075 4.75 34.075C5.725 34.075 6.4 33.25 6.4 32.125ZM5.65 32.125C5.65 32.95 5.275 33.4 4.675 33.4C4.075 33.4 3.7 33.025 3.7 32.125C3.7 31.225 4.075 30.85 4.675 30.85C5.275 30.85 5.65 31.3 5.65 32.125ZM10.3503 30.85V30.325L10.2753 30.25H9.82529L9.75029 30.325L8.70029 33.1H8.62529L7.57529 30.325L7.50029 30.25H7.05029L6.97529 30.325V30.85L8.25029 34V34.075C8.10029 34.45 7.87529 34.525 7.50029 34.525H7.35029L7.27529 34.6V35.125L7.35029 35.2H7.50029C8.40029 35.2 8.70029 34.975 9.15029 33.85L10.3503 30.85Z" fill="#E8F2FE"/>
<path d="M4.5 8.25H21.5025V11.2462C21.5025 11.7992 21.0542 12.2475 20.5013 12.2475V12.2475C19.9483 12.2475 19.5 12.6958 19.5 13.2487V14.25V15.2512C19.5 15.8042 19.9483 16.2525 20.5013 16.2525V16.2525C21.0542 16.2525 21.5025 16.7008 21.5025 17.2537V19.5H4.5V8.25Z" fill="#79B4F2"/>
<path d="M4.5 6.24988H19.5C20.0304 6.24988 20.5391 6.46059 20.9142 6.83566C21.2893 7.21074 21.5 7.71945 21.5 8.24988V9.74988V11.2499C21.5 11.5151 21.3946 11.7694 21.2071 11.957C21.0196 12.1445 20.7652 12.2499 20.5 12.2499C20.2348 12.2499 19.9804 12.1445 19.7929 11.957C19.6054 11.7694 19.5 11.5151 19.5 11.2499V8.24988H4.5V19.2499H19.5V17.2499C19.5 16.9847 19.6054 16.7303 19.7929 16.5428C19.9804 16.3552 20.2348 16.2499 20.5 16.2499C20.7652 16.2499 21.0196 16.3552 21.2071 16.5428C21.3946 16.7303 21.5 16.9847 21.5 17.2499V19.2499C21.5 19.7803 21.2893 20.289 20.9142 20.6641C20.5391 21.0392 20.0304 21.2499 19.5 21.2499H4.5C3.96957 21.2499 3.46086 21.0392 3.08579 20.6641C2.71071 20.289 2.5 19.7803 2.5 19.2499V5.74988C2.5 4.95423 2.81607 4.19117 3.37868 3.62856C3.94129 3.06595 4.70435 2.74988 5.5 2.74988H18.5C18.7652 2.74988 19.0196 2.85523 19.2071 3.04277C19.3946 3.23031 19.5 3.48466 19.5 3.74988C19.5 4.01509 19.3946 4.26945 19.2071 4.45698C19.0196 4.64452 18.7652 4.74988 18.5 4.74988H5.5C5.23478 4.74988 4.98043 4.85524 4.79289 5.04277C4.60536 5.23031 4.5 5.48466 4.5 5.74988V6.24988ZM22.5 14.2499C22.5 13.9847 22.3946 13.7303 22.2071 13.5428C22.0196 13.3552 21.7652 13.2499 21.5 13.2499H15.5C15.2348 13.2499 14.9804 13.3552 14.7929 13.5428C14.6054 13.7303 14.5 13.9847 14.5 14.2499C14.5 14.5151 14.6054 14.7694 14.7929 14.957C14.9804 15.1445 15.2348 15.2499 15.5 15.2499H21.5C21.7652 15.2499 22.0196 15.1445 22.2071 14.957C22.3946 14.7694 22.5 14.5151 22.5 14.2499Z" fill="white"/>
</svg>
