<svg viewBox="0 0 242 32" xmlns="http://www.w3.org/2000/svg"><path d="m128.107 0c-9.31 0-14.629 6.56524-14.629 15.7581 0 9.2086 5.305 15.7608 14.608 15.7582 7.543 0 11.533-4.376 12.418-9.6313l-.444-.4358h-3.546l-.444.4358c-.885 3.066-3.101 5.6911-7.976 5.6911-6.65 0-10.196-4.8144-10.196-11.818 0-7.00358 3.546-11.81791 10.196-11.81791 4.431 0 7.091 2.18667 7.976 5.25271l.444.43837h3.567l.444-.43837c-.893-5.25271-5.327-9.1929-12.418-9.1929zm-105.0579 31.0831h-22.605252l-.443848-.4384v-29.770562l.443848-.435768h22.605252l.4439.438377v5.688483l-.4439.43838h-14.62631l-.44385.43838v4.37591l.44385.4384h13.73861l.4439.4384v5.6911l-.4439.4384h-13.73861l-.44385.4383v4.8144l.44385.4384h14.62631l.4439.4383v5.6911zm31.0282 0h-3.9895l-.8877-.4384-7.979-10.508h-.4438l-7.979 10.508-.885.4384h-3.9895l-.4439-.4384v-5.678l7.979-9.6548v-.4383l-7.5351-8.30837v-5.691092l.4438-.435768h4.0001l.885.438377 7.5246 9.190253h.4438l7.5272-9.192862.8957-.435768h3.9894l.4439.438377v5.688483l-7.5377 8.31877v.4279l7.9789 9.6548v5.6911zm5.7674 0h7.0833l.4518-.4384v-29.767953l-.4413-.438377h-7.0938l-.4413.435768v29.770562zm48.3043 0h-7.088l-.444-.4384v-14.0098h-.444l-5.7624 14.0098-.4439.4384h-5.7649l-.4412-.4384-5.7649-14.0098h-.4413v14.0098l-.4438.4384h-7.0939l-.4333-.4384v-29.770562l.4333-.435768h8.4228l.4439.438377 7.979 19.700953h.4438l7.979-19.700953.4544-.438377h8.4224l.444.438377v29.767953zm61.604 0h-3.543l-.443-.4384v-12.6973l-.444-.4358h-14.627l-.443.4358v12.6973l-.444.4384h-3.546l-.444-.4384v-29.770562l.444-.435768h3.546l.444.438377v12.264153l.443.4384h14.627l.444-.4384v-12.264153l.443-.438377h3.543l.444.438377v29.767953zm27.927 0h2.658l.444-.441v-3.066l-10.637-26.699353-.444-.438377h-3.989l-.444.435768-10.64 26.701962v3.0686l.444.4384h2.661l.441-.4384 2.66-6.5678.888-.4384h11.982l.885.4384 2.642 6.5678zm-10.204-24.07949h.444l4.875 12.26419-.444.4357h-9.308l-.444-.4357zm21.723 24.07949h-3.545l-.442-.4384v-29.770562l.442-.435768h3.545l.449.435768v29.770562zm28.37 0h3.987l.444-.4384v-29.767953l-.444-.438377h-3.546l-.441.435768v22.764362h-.444l-15.059-22.764362-.899-.435768h-3.989l-.444.435768v29.770562l.444.4384h3.546l.443-.4384v-22.76434h.455l15.06 22.76434z" fill="#0667d0"/></svg>