<svg width="200" height="27" viewBox="0 0 200 27" fill="none" xmlns="http://www.w3.org/2000/svg">
<path fill-rule="evenodd" clip-rule="evenodd" d="M105.874 0C98.179 0 93.7836 5.49369 93.7836 13.1862C93.7836 20.8917 98.168 26.3745 105.856 26.3723C112.09 26.3723 115.387 22.7106 116.119 18.313L115.752 17.9484H112.822L112.455 18.313C111.723 20.8786 109.891 23.0752 105.863 23.0752C100.367 23.0752 97.4366 19.0467 97.4366 13.1862C97.4366 7.32565 100.367 3.29709 105.863 3.29709C109.524 3.29709 111.723 5.12686 112.455 7.69248L112.822 8.0593H115.769L116.136 7.69248C115.398 3.29709 111.734 0 105.874 0ZM19.0489 26.0099H0.366828L0 25.643V0.731466L0.366828 0.366821H19.0489L19.4157 0.73365V5.49368L19.0489 5.86051H6.961L6.59417 6.22734V9.88907L6.961 10.2559H18.3152L18.682 10.6227V15.3849L18.3152 15.7518H6.961L6.59417 16.1186V20.1472L6.961 20.514H19.0489L19.4157 20.8808V25.643L19.0489 26.0099ZM44.6919 26.0099H41.3948L40.6611 25.643L34.067 16.8501H33.7001L27.106 25.643L26.3745 26.0099H23.0774L22.7106 25.643V20.8917L29.3047 12.8128V12.446L23.0774 5.49368V0.731466L23.4442 0.366821H26.75L27.4815 0.73365L33.7001 8.42394H34.067L40.2878 0.731466L41.028 0.366821H44.3251L44.6919 0.73365V5.49368L38.4623 12.4547V12.8128L45.0565 20.8917V25.654L44.6919 26.0099ZM49.4585 26.0099H55.3125L55.6859 25.643V0.73365L55.3212 0.366821H49.4585L49.0939 0.731466V25.643L49.4585 26.0099ZM89.3794 26.0099H83.5211L83.1543 25.643V13.9198H82.7874L78.0252 25.643L77.6584 26.0099H72.894L72.5294 25.643L67.765 13.9198H67.4003V25.643L67.0335 26.0099H61.1708L60.8127 25.643V0.731466L61.1708 0.366821H68.1318L68.4986 0.73365L75.0928 17.2191H75.4596L82.0538 0.73365L82.4293 0.366821H89.3904L89.7572 0.73365V25.643L89.3794 26.0099ZM140.292 26.0099H137.364L136.997 25.643V15.0181L136.63 14.6535H124.543L124.176 15.0181V25.643L123.809 26.0099H120.879L120.512 25.643V0.731466L120.879 0.366821H123.809L124.176 0.73365V10.9961L124.543 11.3629H136.63L136.997 10.9961V0.73365L137.364 0.366821H140.292L140.659 0.73365V25.643L140.292 26.0099ZM163.372 26.0099H165.568L165.935 25.6409V23.0752L157.144 0.73365L156.778 0.366821H153.48L153.114 0.731466L144.321 23.0752V25.643L144.688 26.0099H146.886L147.251 25.643L149.45 20.1472L150.183 19.7803H160.086L160.817 20.1472L163.001 25.643L163.372 26.0099ZM154.939 5.86051H155.306L159.334 16.123L158.968 16.4876H151.275L150.908 16.123L154.939 5.86051ZM172.892 26.0099H169.962L169.597 25.643V0.731466L169.962 0.366821H172.892L173.263 0.731466V25.643L172.892 26.0099ZM196.338 26.0099H199.633L200 25.643V0.73365L199.633 0.366821H196.703L196.338 0.731466V19.7803H195.971L183.525 0.731466L182.783 0.366821H179.486L179.119 0.731466V25.643L179.486 26.0099H182.416L182.783 25.643V6.59417H183.159L195.605 25.643L196.338 26.0099Z" fill="white"/>
</svg>
