<svg width="200" height="200" viewBox="0 0 200 200" fill="none" xmlns="http://www.w3.org/2000/svg">
<path d="M88.7867 163.574L100.787 158.241C100.96 158.168 101.146 158.131 101.333 158.131C101.521 158.131 101.707 158.168 101.88 158.241L113.88 163.574C114.114 163.679 114.313 163.85 114.452 164.065C114.592 164.28 114.666 164.531 114.667 164.788V177.881C114.666 178.137 114.592 178.388 114.452 178.603C114.313 178.819 114.114 178.989 113.88 179.094L101.88 184.428C101.707 184.5 101.521 184.538 101.333 184.538C101.146 184.538 100.96 184.5 100.787 184.428L88.7867 179.094C88.5527 178.989 88.3541 178.819 88.2146 178.603C88.075 178.388 88.0005 178.137 88 177.881V164.788C88.0005 164.531 88.075 164.28 88.2146 164.065C88.3541 163.85 88.5527 163.679 88.7867 163.574Z" fill="white"/>
<path d="M114.667 178V167.333C114.556 167.054 114.341 166.829 114.067 166.707L103.533 162.027C103.386 161.954 103.224 161.916 103.06 161.916C102.896 161.916 102.734 161.954 102.587 162.027L92.04 166.707C91.8341 166.799 91.6592 166.949 91.5362 167.138C91.4133 167.327 91.3474 167.548 91.3467 167.773V179.333C91.3491 179.559 91.4155 179.779 91.5383 179.968C91.6611 180.156 91.8351 180.306 92.04 180.4L101.133 184.4C101.454 184.53 101.813 184.53 102.133 184.4L113.893 179.173C114.119 179.069 114.311 178.904 114.447 178.697C114.584 178.49 114.66 178.248 114.667 178V178Z" fill="#CFE6FF"/>
<path d="M101.333 185.214C101.053 185.211 100.777 185.152 100.52 185.041L88.52 179.707C88.1669 179.55 87.8668 179.294 87.6562 178.97C87.4456 178.646 87.3335 178.267 87.3334 177.881V164.787C87.3335 164.401 87.4456 164.023 87.6562 163.698C87.8668 163.374 88.1669 163.118 88.52 162.961L100.52 157.627C100.776 157.515 101.053 157.457 101.333 157.457C101.613 157.457 101.89 157.515 102.147 157.627L114.147 162.961C114.5 163.118 114.8 163.374 115.011 163.698C115.221 164.023 115.333 164.401 115.333 164.787V177.881C115.333 178.267 115.221 178.646 115.011 178.97C114.8 179.294 114.5 179.55 114.147 179.707L102.147 185.041C101.89 185.152 101.613 185.211 101.333 185.214V185.214ZM101.333 158.787C101.241 158.789 101.149 158.812 101.067 158.854L89.0667 164.187C88.9495 164.239 88.8495 164.322 88.7786 164.429C88.7077 164.535 88.6688 164.66 88.6667 164.787V177.881C88.6688 178.009 88.7077 178.133 88.7786 178.239C88.8495 178.346 88.9495 178.43 89.0667 178.481L101.067 183.814C101.15 183.853 101.241 183.874 101.333 183.874C101.426 183.874 101.517 183.853 101.6 183.814L113.6 178.481C113.717 178.43 113.817 178.346 113.888 178.239C113.959 178.133 113.998 178.009 114 177.881V164.787C113.998 164.66 113.959 164.535 113.888 164.429C113.817 164.322 113.717 164.239 113.6 164.187L101.6 158.854C101.517 158.812 101.426 158.789 101.333 158.787V158.787Z" fill="#256FC7"/>
<path d="M165.453 58.9062L177.453 53.5729C177.626 53.5003 177.812 53.4629 178 53.4629C178.188 53.4629 178.374 53.5003 178.547 53.5729L190.547 58.9062C190.781 59.0114 190.979 59.1818 191.119 59.397C191.258 59.6122 191.333 59.8631 191.333 60.1196V73.2129C191.333 73.4694 191.258 73.7203 191.119 73.9355C190.979 74.1507 190.781 74.3211 190.547 74.4262L178.547 79.7596C178.374 79.8322 178.188 79.8696 178 79.8696C177.812 79.8696 177.626 79.8322 177.453 79.7596L165.453 74.4262C165.219 74.3211 165.021 74.1507 164.881 73.9355C164.742 73.7203 164.667 73.4694 164.667 73.2129V60.1196C164.667 59.8631 164.742 59.6122 164.881 59.397C165.021 59.1818 165.219 59.0114 165.453 58.9062Z" fill="white"/>
<path d="M191.333 73.3322V62.6655C191.223 62.3861 191.008 62.1611 190.733 62.0388L180.2 57.3588C180.053 57.286 179.891 57.248 179.727 57.248C179.562 57.248 179.4 57.286 179.253 57.3588L168.707 62.0388C168.501 62.1311 168.326 62.2808 168.203 62.47C168.08 62.6592 168.014 62.8798 168.013 63.1055V74.6655C168.016 74.8908 168.082 75.1107 168.205 75.2996C168.328 75.4885 168.502 75.6385 168.707 75.7322L177.8 79.7322C178.121 79.8619 178.479 79.8619 178.8 79.7322L190.56 74.5055C190.785 74.4013 190.977 74.2363 191.114 74.029C191.25 73.8217 191.326 73.5803 191.333 73.3322V73.3322Z" fill="#CFE6FF"/>
<path d="M178 80.5461C177.72 80.5426 177.444 80.4837 177.187 80.3728L165.187 75.0394C164.833 74.8822 164.533 74.626 164.323 74.3018C164.112 73.9776 164 73.5994 164 73.2128V60.1194C164 59.7328 164.112 59.3546 164.323 59.0304C164.533 58.7062 164.833 58.45 165.187 58.2928L177.187 52.9594C177.443 52.8471 177.72 52.7891 178 52.7891C178.28 52.7891 178.557 52.8471 178.813 52.9594L190.813 58.2928C191.167 58.45 191.467 58.7062 191.677 59.0304C191.888 59.3546 192 59.7328 192 60.1194V73.2128C192 73.5994 191.888 73.9776 191.677 74.3018C191.467 74.626 191.167 74.8822 190.813 75.0394L178.813 80.3728C178.556 80.4837 178.28 80.5426 178 80.5461V80.5461ZM178 54.1194C177.907 54.1212 177.816 54.144 177.733 54.1861L165.733 59.5194C165.616 59.5705 165.516 59.6543 165.445 59.7607C165.374 59.8671 165.335 59.9916 165.333 60.1194V73.2128C165.335 73.3406 165.374 73.4651 165.445 73.5715C165.516 73.6779 165.616 73.7616 165.733 73.8128L177.733 79.1461C177.817 79.1853 177.908 79.2057 178 79.2057C178.092 79.2057 178.183 79.1853 178.267 79.1461L190.267 73.8128C190.384 73.7616 190.484 73.6779 190.555 73.5715C190.626 73.4651 190.665 73.3406 190.667 73.2128V60.1194C190.665 59.9916 190.626 59.8671 190.555 59.7607C190.484 59.6543 190.384 59.5705 190.267 59.5194L178.267 54.1861C178.184 54.144 178.093 54.1212 178 54.1194V54.1194Z" fill="#256FC7"/>
<path d="M165.453 125.574L177.453 120.241C177.626 120.168 177.812 120.131 178 120.131C178.188 120.131 178.374 120.168 178.547 120.241L190.547 125.574C190.781 125.679 190.979 125.85 191.119 126.065C191.258 126.28 191.333 126.531 191.333 126.788V139.881C191.333 140.137 191.258 140.388 191.119 140.603C190.979 140.819 190.781 140.989 190.547 141.094L178.547 146.428C178.374 146.5 178.188 146.538 178 146.538C177.812 146.538 177.626 146.5 177.453 146.428L165.453 141.094C165.219 140.989 165.021 140.819 164.881 140.603C164.742 140.388 164.667 140.137 164.667 139.881V126.788C164.667 126.531 164.742 126.28 164.881 126.065C165.021 125.85 165.219 125.679 165.453 125.574Z" fill="white"/>
<path d="M191.333 140V129.333C191.223 129.054 191.008 128.829 190.733 128.707L180.2 124.027C180.053 123.954 179.891 123.916 179.727 123.916C179.562 123.916 179.4 123.954 179.253 124.027L168.707 128.707C168.501 128.799 168.326 128.949 168.203 129.138C168.08 129.327 168.014 129.548 168.013 129.773V141.333C168.016 141.559 168.082 141.779 168.205 141.968C168.328 142.156 168.502 142.306 168.707 142.4L177.8 146.4C178.121 146.53 178.479 146.53 178.8 146.4L190.56 141.173C190.785 141.069 190.977 140.904 191.114 140.697C191.25 140.49 191.326 140.248 191.333 140V140Z" fill="#CFE6FF"/>
<path d="M178 147.214C177.72 147.211 177.444 147.152 177.187 147.041L165.187 141.707C164.833 141.55 164.533 141.294 164.323 140.97C164.112 140.646 164 140.267 164 139.881V126.787C164 126.401 164.112 126.023 164.323 125.698C164.533 125.374 164.833 125.118 165.187 124.961L177.187 119.627C177.443 119.515 177.72 119.457 178 119.457C178.28 119.457 178.557 119.515 178.813 119.627L190.813 124.961C191.167 125.118 191.467 125.374 191.677 125.698C191.888 126.023 192 126.401 192 126.787V139.881C192 140.267 191.888 140.646 191.677 140.97C191.467 141.294 191.167 141.55 190.813 141.707L178.813 147.041C178.556 147.152 178.28 147.211 178 147.214V147.214ZM178 120.787C177.907 120.789 177.816 120.812 177.733 120.854L165.733 126.187C165.616 126.239 165.516 126.322 165.445 126.429C165.374 126.535 165.335 126.66 165.333 126.787V139.881C165.335 140.009 165.374 140.133 165.445 140.239C165.516 140.346 165.616 140.43 165.733 140.481L177.733 145.814C177.817 145.853 177.908 145.874 178 145.874C178.092 145.874 178.183 145.853 178.267 145.814L190.267 140.481C190.384 140.43 190.484 140.346 190.555 140.239C190.626 140.133 190.665 140.009 190.667 139.881V126.787C190.665 126.66 190.626 126.535 190.555 126.429C190.484 126.322 190.384 126.239 190.267 126.187L178.267 120.854C178.184 120.812 178.093 120.789 178 120.787V120.787Z" fill="#256FC7"/>
<path d="M12.1199 125.574L24.1199 120.241C24.293 120.168 24.4789 120.131 24.6666 120.131C24.8543 120.131 25.0401 120.168 25.2133 120.241L37.2133 125.574C37.4472 125.679 37.6458 125.85 37.7854 126.065C37.9249 126.28 37.9994 126.531 37.9999 126.788V139.881C37.9994 140.137 37.9249 140.388 37.7854 140.603C37.6458 140.819 37.4472 140.989 37.2133 141.094L25.2133 146.428C25.0401 146.5 24.8543 146.538 24.6666 146.538C24.4789 146.538 24.293 146.5 24.1199 146.428L12.1199 141.094C11.886 140.989 11.6873 140.819 11.5478 140.603C11.4083 140.388 11.3338 140.137 11.3333 139.881V126.788C11.3338 126.531 11.4083 126.28 11.5478 126.065C11.6873 125.85 11.886 125.679 12.1199 125.574Z" fill="white"/>
<path d="M37.9999 140V129.333C37.8897 129.054 37.6743 128.829 37.3999 128.707L26.8666 124.027C26.7195 123.954 26.5575 123.916 26.3933 123.916C26.2291 123.916 26.0671 123.954 25.9199 124.027L15.3733 128.707C15.1674 128.799 14.9925 128.949 14.8695 129.138C14.7465 129.327 14.6807 129.548 14.6799 129.773V141.333C14.6823 141.559 14.7488 141.779 14.8716 141.968C14.9943 142.156 15.1684 142.306 15.3733 142.4L24.4666 146.4C24.7873 146.53 25.1459 146.53 25.4666 146.4L37.2266 141.173C37.452 141.069 37.6438 140.904 37.7804 140.697C37.917 140.49 37.9931 140.248 37.9999 140V140Z" fill="#CFE6FF"/>
<path d="M24.6666 147.214C24.3867 147.211 24.1103 147.152 23.8533 147.041L11.8533 141.707C11.5001 141.55 11.2001 141.294 10.9895 140.97C10.7789 140.646 10.6667 140.267 10.6666 139.881V126.787C10.6667 126.401 10.7789 126.023 10.9895 125.698C11.2001 125.374 11.5001 125.118 11.8533 124.961L23.8533 119.627C24.1097 119.515 24.3867 119.457 24.6666 119.457C24.9466 119.457 25.2235 119.515 25.48 119.627L37.48 124.961C37.8331 125.118 38.1332 125.374 38.3438 125.698C38.5544 126.023 38.6665 126.401 38.6666 126.787V139.881C38.6665 140.267 38.5544 140.646 38.3438 140.97C38.1332 141.294 37.8331 141.55 37.48 141.707L25.48 147.041C25.2229 147.152 24.9465 147.211 24.6666 147.214V147.214ZM24.6666 120.787C24.5738 120.789 24.4827 120.812 24.4 120.854L12.4 126.187C12.2828 126.239 12.1828 126.322 12.1118 126.429C12.0409 126.535 12.0021 126.66 12 126.787V139.881C12.0021 140.009 12.0409 140.133 12.1118 140.239C12.1828 140.346 12.2828 140.43 12.4 140.481L24.4 145.814C24.4834 145.853 24.5744 145.874 24.6666 145.874C24.7588 145.874 24.8499 145.853 24.9333 145.814L36.9333 140.481C37.0505 140.43 37.1505 140.346 37.2214 140.239C37.2923 140.133 37.3312 140.009 37.3333 139.881V126.787C37.3312 126.66 37.2923 126.535 37.2214 126.429C37.1505 126.322 37.0505 126.239 36.9333 126.187L24.9333 120.854C24.8506 120.812 24.7594 120.789 24.6666 120.787V120.787Z" fill="#256FC7"/>
<path d="M12.1199 58.9062L24.1199 53.5729C24.293 53.5003 24.4789 53.4629 24.6666 53.4629C24.8543 53.4629 25.0401 53.5003 25.2133 53.5729L37.2133 58.9062C37.4472 59.0114 37.6458 59.1818 37.7854 59.397C37.9249 59.6122 37.9994 59.8631 37.9999 60.1196V73.2129C37.9994 73.4694 37.9249 73.7203 37.7854 73.9355C37.6458 74.1507 37.4472 74.3211 37.2133 74.4262L25.2133 79.7596C25.0401 79.8322 24.8543 79.8696 24.6666 79.8696C24.4789 79.8696 24.293 79.8322 24.1199 79.7596L12.1199 74.4262C11.886 74.3211 11.6873 74.1507 11.5478 73.9355C11.4083 73.7203 11.3338 73.4694 11.3333 73.2129V60.1196C11.3338 59.8631 11.4083 59.6122 11.5478 59.397C11.6873 59.1818 11.886 59.0114 12.1199 58.9062Z" fill="white"/>
<path d="M37.9999 73.3322V62.6655C37.8897 62.3861 37.6743 62.1611 37.3999 62.0388L26.8666 57.3588C26.7195 57.286 26.5575 57.248 26.3933 57.248C26.2291 57.248 26.0671 57.286 25.9199 57.3588L15.3733 62.0388C15.1674 62.1311 14.9925 62.2808 14.8695 62.47C14.7465 62.6592 14.6807 62.8798 14.6799 63.1055V74.6655C14.6823 74.8908 14.7488 75.1107 14.8716 75.2996C14.9943 75.4885 15.1684 75.6385 15.3733 75.7322L24.4666 79.7322C24.7873 79.8619 25.1459 79.8619 25.4666 79.7322L37.2266 74.5055C37.452 74.4013 37.6438 74.2363 37.7804 74.029C37.917 73.8217 37.9931 73.5803 37.9999 73.3322V73.3322Z" fill="#CFE6FF"/>
<path d="M24.6666 80.5461C24.3867 80.5426 24.1103 80.4837 23.8533 80.3728L11.8533 75.0394C11.5001 74.8822 11.2001 74.626 10.9895 74.3018C10.7789 73.9776 10.6667 73.5994 10.6666 73.2128V60.1194C10.6667 59.7328 10.7789 59.3546 10.9895 59.0304C11.2001 58.7062 11.5001 58.45 11.8533 58.2928L23.8533 52.9594C24.1097 52.8471 24.3867 52.7891 24.6666 52.7891C24.9466 52.7891 25.2235 52.8471 25.48 52.9594L37.48 58.2928C37.8331 58.45 38.1332 58.7062 38.3438 59.0304C38.5544 59.3546 38.6665 59.7328 38.6666 60.1194V73.2128C38.6665 73.5994 38.5544 73.9776 38.3438 74.3018C38.1332 74.626 37.8331 74.8822 37.48 75.0394L25.48 80.3728C25.2229 80.4837 24.9465 80.5426 24.6666 80.5461V80.5461ZM24.6666 54.1194C24.5738 54.1212 24.4827 54.144 24.4 54.1861L12.4 59.5194C12.2828 59.5705 12.1828 59.6543 12.1118 59.7607C12.0409 59.8671 12.0021 59.9916 12 60.1194V73.2128C12.0021 73.3406 12.0409 73.4651 12.1118 73.5715C12.1828 73.6779 12.2828 73.7616 12.4 73.8128L24.4 79.1461C24.4834 79.1853 24.5744 79.2057 24.6666 79.2057C24.7588 79.2057 24.8499 79.1853 24.9333 79.1461L36.9333 73.8128C37.0505 73.7616 37.1505 73.6779 37.2214 73.5715C37.2923 73.4651 37.3312 73.3406 37.3333 73.2128V60.1194C37.3312 59.9916 37.2923 59.8671 37.2214 59.7607C37.1505 59.6543 37.0505 59.5705 36.9333 59.5194L24.9333 54.1861C24.8506 54.144 24.7594 54.1212 24.6666 54.1194V54.1194Z" fill="#256FC7"/>
<path d="M88.7867 22.9062L100.787 17.5729C100.96 17.5003 101.146 17.4629 101.333 17.4629C101.521 17.4629 101.707 17.5003 101.88 17.5729L113.88 22.9062C114.114 23.0114 114.313 23.1818 114.452 23.397C114.592 23.6122 114.666 23.8631 114.667 24.1196V37.2129C114.666 37.4694 114.592 37.7203 114.452 37.9355C114.313 38.1507 114.114 38.3211 113.88 38.4262L101.88 43.7596C101.707 43.8322 101.521 43.8696 101.333 43.8696C101.146 43.8696 100.96 43.8322 100.787 43.7596L88.7867 38.4262C88.5527 38.3211 88.3541 38.1507 88.2146 37.9355C88.075 37.7203 88.0005 37.4694 88 37.2129V24.1196C88.0005 23.8631 88.075 23.6122 88.2146 23.397C88.3541 23.1818 88.5527 23.0114 88.7867 22.9062Z" fill="white"/>
<path d="M114.667 37.3322V26.6655C114.556 26.3861 114.341 26.1611 114.067 26.0388L103.533 21.3588C103.386 21.286 103.224 21.248 103.06 21.248C102.896 21.248 102.734 21.286 102.587 21.3588L92.04 26.0388C91.8341 26.1311 91.6592 26.2808 91.5362 26.47C91.4133 26.6592 91.3474 26.8798 91.3467 27.1055V38.6655C91.3491 38.8908 91.4155 39.1107 91.5383 39.2996C91.6611 39.4885 91.8351 39.6385 92.04 39.7322L101.133 43.7322C101.454 43.8619 101.813 43.8619 102.133 43.7322L113.893 38.5055C114.119 38.4013 114.311 38.2363 114.447 38.029C114.584 37.8217 114.66 37.5803 114.667 37.3322V37.3322Z" fill="#CFE6FF"/>
<path d="M101.333 44.5461C101.053 44.5426 100.777 44.4837 100.52 44.3728L88.52 39.0394C88.1669 38.8822 87.8668 38.626 87.6562 38.3018C87.4456 37.9776 87.3335 37.5993 87.3334 37.2128V24.1194C87.3335 23.7328 87.4456 23.3546 87.6562 23.0304C87.8668 22.7062 88.1669 22.45 88.52 22.2928L100.52 16.9594C100.776 16.8471 101.053 16.7891 101.333 16.7891C101.613 16.7891 101.89 16.8471 102.147 16.9594L114.147 22.2928C114.5 22.45 114.8 22.7062 115.011 23.0304C115.221 23.3546 115.333 23.7328 115.333 24.1194V37.2128C115.333 37.5993 115.221 37.9776 115.011 38.3018C114.8 38.626 114.5 38.8822 114.147 39.0394L102.147 44.3728C101.89 44.4837 101.613 44.5426 101.333 44.5461V44.5461ZM101.333 18.1194C101.241 18.1212 101.149 18.144 101.067 18.1861L89.0667 23.5194C88.9495 23.5705 88.8495 23.6543 88.7786 23.7607C88.7077 23.8671 88.6688 23.9916 88.6667 24.1194V37.2128C88.6688 37.3406 88.7077 37.4651 88.7786 37.5715C88.8495 37.6779 88.9495 37.7616 89.0667 37.8128L101.067 43.1461C101.15 43.1853 101.241 43.2057 101.333 43.2057C101.426 43.2057 101.517 43.1853 101.6 43.1461L113.6 37.8128C113.717 37.7616 113.817 37.6779 113.888 37.5715C113.959 37.4651 113.998 37.3406 114 37.2128V24.1194C113.998 23.9916 113.959 23.8671 113.888 23.7607C113.817 23.6543 113.717 23.5705 113.6 23.5194L101.6 18.1861C101.517 18.144 101.426 18.1212 101.333 18.1194V18.1194Z" fill="#256FC7"/>
<path d="M101.467 141.332C107.034 141.332 111.547 136.819 111.547 131.252C111.547 125.685 107.034 121.172 101.467 121.172C95.8996 121.172 91.3866 125.685 91.3866 131.252C91.3866 136.819 95.8996 141.332 101.467 141.332Z" fill="white"/>
<path d="M119.333 118.466C118.67 118.466 118.012 118.336 117.399 118.082C116.786 117.828 116.229 117.455 115.76 116.986C111.977 113.205 106.848 111.082 101.5 111.082C96.1519 111.082 91.0228 113.205 87.2399 116.986C86.2905 117.906 85.0174 118.416 83.6951 118.407C82.3728 118.397 81.1073 117.868 80.1714 116.934C79.2355 116 78.7042 114.735 78.6921 113.413C78.68 112.091 79.188 110.817 80.1066 109.866C82.915 107.054 86.25 104.824 89.9208 103.303C93.5916 101.781 97.5263 100.998 101.5 100.998C105.474 100.998 109.408 101.781 113.079 103.303C116.75 104.824 120.085 107.054 122.893 109.866C123.597 110.57 124.075 111.468 124.269 112.444C124.463 113.421 124.363 114.433 123.982 115.353C123.602 116.273 122.957 117.06 122.129 117.614C121.302 118.168 120.329 118.464 119.333 118.466V118.466Z" fill="white"/>
<path d="M131.173 103.226C130.511 103.228 129.856 103.098 129.244 102.844C128.633 102.59 128.079 102.216 127.613 101.746C120.677 94.8135 111.273 90.9194 101.467 90.9194C91.6605 90.9194 82.2557 94.8135 75.32 101.746C74.359 102.576 73.1201 103.013 71.8509 102.969C70.5818 102.925 69.376 102.404 68.4747 101.509C67.5734 100.614 67.043 99.4126 66.9896 98.1438C66.9362 96.875 67.3637 95.6328 68.1866 94.6657C72.5551 90.2943 77.7421 86.8266 83.4513 84.4606C89.1605 82.0947 95.28 80.877 101.46 80.877C107.64 80.877 113.759 82.0947 119.469 84.4606C125.178 86.8266 130.365 90.2943 134.733 94.6657C135.435 95.3723 135.912 96.2703 136.105 97.2471C136.297 98.2239 136.197 99.2359 135.817 100.156C135.437 101.076 134.793 101.863 133.967 102.419C133.141 102.975 132.169 103.274 131.173 103.279V103.226Z" fill="white"/>
<path d="M59.8666 87.9994C58.8709 87.9979 57.8979 87.7015 57.0705 87.1476C56.2431 86.5937 55.5983 85.8071 55.2175 84.8871C54.8366 83.9671 54.7368 82.9549 54.9307 81.9782C55.1245 81.0016 55.6033 80.1042 56.3066 79.3994C68.2028 67.5022 84.3131 60.7796 101.137 60.6923C117.962 60.6049 134.141 67.1597 146.16 78.9327C146.633 79.3967 147.009 79.9493 147.269 80.5589C147.528 81.1685 147.664 81.8232 147.671 82.4856C147.677 83.148 147.552 83.8051 147.305 84.4194C147.057 85.0338 146.691 85.5933 146.227 86.0661C145.763 86.5388 145.21 86.9155 144.6 87.1747C143.991 87.434 143.336 87.5706 142.674 87.5767C142.011 87.5829 141.354 87.4586 140.74 87.2108C140.126 86.9631 139.566 86.5967 139.093 86.1327C128.974 76.2179 115.351 70.698 101.184 70.7729C87.0178 70.8478 73.4535 76.5115 63.4399 86.5327C62.4884 87.473 61.2044 88.0001 59.8666 87.9994V87.9994Z" fill="white"/>
<path d="M111.333 133.333C111.277 131.877 110.806 130.466 109.976 129.268C109.146 128.07 107.99 127.134 106.646 126.57C105.302 126.007 103.825 125.838 102.388 126.085C100.952 126.333 99.6156 126.985 98.5371 127.965C97.4586 128.946 96.6825 130.214 96.3002 131.621C95.918 133.027 95.9453 134.514 96.3791 135.906C96.8129 137.297 97.6351 138.536 98.7489 139.476C99.8628 140.416 101.222 141.019 102.667 141.213C104.752 140.966 106.708 140.074 108.262 138.661C109.816 137.248 110.89 135.386 111.333 133.333V133.333Z" fill="#FB8686"/>
<path d="M101.467 111.08C104.115 111.071 106.739 111.589 109.186 112.603C111.633 113.617 113.854 115.107 115.72 116.986C116.188 117.455 116.744 117.827 117.356 118.081C117.968 118.335 118.624 118.465 119.287 118.465C119.949 118.465 120.605 118.335 121.217 118.081C121.829 117.827 122.385 117.455 122.853 116.986C122.853 116.986 122.973 116.84 123.04 116.76C122.993 115.63 122.516 114.562 121.707 113.773C116.724 108.796 109.969 106 102.927 106C95.8839 106 89.1293 108.796 84.1466 113.773C83.5518 114.371 83.1404 115.127 82.9609 115.952C82.7813 116.776 82.8412 117.635 83.1333 118.426C83.8649 118.495 84.6026 118.401 85.294 118.153C85.9853 117.904 86.6133 117.506 87.1333 116.986C89.0122 115.102 91.2468 113.609 93.7074 112.595C96.1679 111.581 98.8054 111.066 101.467 111.08V111.08Z" fill="#FB8686"/>
<path d="M75.3333 101.746C82.2691 94.8143 91.6738 90.9202 101.48 90.9202C111.286 90.9202 120.691 94.8143 127.627 101.746C128.094 102.215 128.648 102.587 129.259 102.84C129.87 103.094 130.525 103.224 131.187 103.224C131.848 103.224 132.503 103.094 133.114 102.84C133.725 102.587 134.28 102.215 134.747 101.746C135.007 101.482 135.24 101.192 135.44 100.88C135.239 100.038 134.81 99.2672 134.2 98.6531C125.889 90.345 114.618 85.6777 102.867 85.6777C91.115 85.6777 79.8444 90.345 71.5333 98.6531C70.9694 99.2028 70.5521 99.8848 70.3192 100.637C70.0863 101.389 70.0453 102.188 70.1999 102.96C71.0842 103.251 72.0319 103.292 72.938 103.078C73.8441 102.864 74.6732 102.403 75.3333 101.746V101.746Z" fill="#FB8686"/>
<path d="M101.467 70.7467C115.542 70.7145 129.062 76.2337 139.093 86.1067C140.04 87.0504 141.323 87.5802 142.66 87.5802C143.997 87.5802 145.279 87.0504 146.227 86.1067C146.279 86.0471 146.328 85.9848 146.373 85.92C146.366 85.2979 146.237 84.6833 145.992 84.1113C145.747 83.5394 145.392 83.0213 144.947 82.5867C133.623 71.4957 118.38 65.3208 102.53 65.4032C86.6791 65.4855 71.5014 71.8186 60.2933 83.0267C59.6611 83.6629 59.2227 84.4657 59.0291 85.3415C58.8356 86.2172 58.8948 87.13 59.2 87.9734C59.4218 87.993 59.6449 87.993 59.8666 87.9734C61.2044 87.9741 62.4884 87.447 63.44 86.5067C68.4209 81.4951 74.3467 77.5217 80.8741 74.8164C87.4016 72.1112 94.4009 70.7279 101.467 70.7467V70.7467Z" fill="#FB8686"/>
<path d="M101.467 142.001C99.3411 142.001 97.2634 141.371 95.4961 140.19C93.7288 139.009 92.3514 137.331 91.538 135.367C90.7246 133.403 90.5118 131.243 90.9265 129.158C91.3411 127.073 92.3647 125.158 93.8676 123.655C95.3705 122.152 97.2854 121.129 99.3701 120.714C101.455 120.3 103.616 120.512 105.579 121.326C107.543 122.139 109.221 123.517 110.402 125.284C111.583 127.051 112.213 129.129 112.213 131.254C112.206 134.103 111.072 136.832 109.058 138.846C107.044 140.86 104.315 141.994 101.467 142.001V142.001ZM101.467 121.841C99.6049 121.841 97.7849 122.393 96.2369 123.428C94.6889 124.462 93.4823 125.932 92.7699 127.652C92.0574 129.372 91.871 131.265 92.2342 133.091C92.5974 134.917 93.4939 136.594 94.8104 137.911C96.1269 139.227 97.8042 140.124 99.6302 140.487C101.456 140.85 103.349 140.664 105.069 139.951C106.789 139.239 108.259 138.032 109.294 136.484C110.328 134.936 110.88 133.116 110.88 131.254C110.876 128.759 109.884 126.367 108.119 124.602C106.354 122.838 103.962 121.845 101.467 121.841Z" fill="#256FC7"/>
<path d="M119.333 119.135C117.833 119.127 116.396 118.528 115.333 117.468C113.524 115.655 111.375 114.217 109.009 113.236C106.644 112.255 104.108 111.75 101.547 111.75C98.9856 111.75 96.4497 112.255 94.084 113.236C91.7183 114.217 89.5693 115.655 87.76 117.468C87.226 118.004 86.5916 118.429 85.8932 118.72C85.1948 119.01 84.4459 119.161 83.6894 119.162C82.9329 119.163 82.1836 119.015 81.4842 118.727C80.7849 118.439 80.1491 118.015 79.6133 117.481C79.0775 116.947 78.6522 116.313 78.3615 115.614C78.0709 114.916 77.9207 114.167 77.9194 113.411C77.9182 112.654 78.066 111.905 78.3543 111.205C78.6427 110.506 79.066 109.87 79.6 109.335C82.4713 106.463 85.8803 104.184 89.6322 102.63C93.3841 101.075 97.4055 100.275 101.467 100.275C105.528 100.275 109.549 101.075 113.301 102.63C117.053 104.184 120.462 106.463 123.333 109.335C124.403 110.407 125.004 111.86 125.004 113.375C125.004 114.889 124.403 116.342 123.333 117.415C122.813 117.951 122.192 118.38 121.506 118.675C120.819 118.97 120.081 119.127 119.333 119.135V119.135ZM101.467 110.415C104.193 110.416 106.892 110.956 109.409 112.004C111.926 113.052 114.211 114.587 116.133 116.521C116.969 117.318 118.079 117.762 119.233 117.762C120.388 117.762 121.498 117.318 122.333 116.521C123.151 115.699 123.61 114.587 123.61 113.428C123.61 112.269 123.151 111.157 122.333 110.335C116.785 104.787 109.26 101.67 101.413 101.67C93.5669 101.67 86.0418 104.787 80.4933 110.335C79.6729 111.155 79.212 112.268 79.212 113.428C79.212 114.588 79.6729 115.701 80.4933 116.521C81.3137 117.342 82.4264 117.803 83.5867 117.803C84.7469 117.803 85.8596 117.342 86.68 116.521C88.6161 114.573 90.9207 113.03 93.4593 111.981C95.998 110.933 98.72 110.4 101.467 110.415V110.415Z" fill="#256FC7"/>
<path d="M131.173 103.894C130.429 103.891 129.693 103.741 129.006 103.452C128.32 103.164 127.697 102.743 127.173 102.214C120.363 95.4085 111.128 91.5853 101.5 91.5853C91.8717 91.5853 82.6373 95.4085 75.8267 102.214C73.8565 104.183 70.0555 104.548 67.7022 102.214C65.349 99.8806 66.0739 95.9018 67.76 94.2144C72.1905 89.7806 77.4513 86.2633 83.2417 83.8635C89.0321 81.4637 95.2387 80.2285 101.507 80.2285C107.775 80.2285 113.981 81.4637 119.772 83.8635C125.562 86.2633 130.823 89.7806 135.253 94.2144C136.045 95.0126 136.583 96.0262 136.802 97.1286C137.02 98.231 136.91 99.3734 136.483 100.413C136.056 101.453 135.333 102.344 134.403 102.975C133.473 103.606 132.377 103.949 131.253 103.961L131.173 103.894ZM101.467 90.2544C106.421 90.2311 111.33 91.194 115.908 93.0872C120.487 94.9803 124.642 97.7657 128.133 101.281C128.967 102.077 130.075 102.52 131.227 102.52C132.379 102.52 133.487 102.077 134.32 101.281C134.726 100.875 135.049 100.393 135.269 99.862C135.489 99.3312 135.602 98.7623 135.602 98.1878C135.602 97.6132 135.489 97.0443 135.269 96.5136C135.049 95.9828 134.726 95.5006 134.32 95.0944C130.015 90.7824 124.903 87.3614 119.274 85.0273C113.646 82.6932 107.613 81.4918 101.52 81.4918C95.427 81.4918 89.3939 82.6932 83.7657 85.0273C78.1375 87.3614 73.0248 90.7824 68.72 95.0944C68.2988 95.496 67.9626 95.9781 67.7312 96.5122C67.4998 97.0462 67.378 97.6212 67.373 98.2032C67.3681 98.7851 67.48 99.3621 67.7022 99.9C67.9245 100.438 68.2524 100.926 68.6667 101.334C69.5001 102.13 70.6079 102.574 71.76 102.574C72.9122 102.574 74.02 102.13 74.8534 101.334C78.3336 97.8158 82.4786 95.0242 87.0475 93.1221C91.6163 91.2199 96.5177 90.2451 101.467 90.2544Z" fill="#256FC7"/>
<path d="M59.8666 88.6404C59.1228 88.6408 58.3863 88.4937 57.6997 88.2076C57.0131 87.9215 56.3901 87.5022 55.8666 86.9738C55.3337 86.4446 54.9107 85.8152 54.6221 85.1218C54.3334 84.4284 54.1848 83.6848 54.1848 82.9338C54.1848 82.1827 54.3334 81.4391 54.6221 80.7457C54.9107 80.0523 55.3337 79.4229 55.8666 78.8937C67.8892 66.8762 84.168 60.0876 101.167 60.0028C118.166 59.9179 134.511 66.5435 146.653 78.4404C147.46 79.2347 148.012 80.251 148.24 81.3601C148.468 82.4692 148.36 83.6208 147.931 84.6687C147.502 85.7165 146.772 86.613 145.832 87.2443C144.892 87.8756 143.785 88.2131 142.653 88.2138C141.161 88.2052 139.728 87.6228 138.653 86.5871C128.661 76.8121 115.218 71.3706 101.241 71.443C87.2626 71.5154 73.8767 77.0958 63.9866 86.9738C63.4481 87.5155 62.8054 87.9425 62.0973 88.2289C61.3891 88.5154 60.6303 88.6554 59.8666 88.6404V88.6404ZM101.467 61.3337C93.1636 61.3122 84.9387 62.9367 77.2674 66.1132C69.5961 69.2898 62.6305 73.9554 56.7733 79.8404C56.3669 80.2466 56.0445 80.7288 55.8246 81.2595C55.6046 81.7903 55.4914 82.3592 55.4914 82.9338C55.4914 83.5083 55.6046 84.0772 55.8246 84.608C56.0445 85.1387 56.3669 85.6209 56.7733 86.0271C57.6067 86.8226 58.7145 87.2664 59.8666 87.2664C61.0187 87.2664 62.1266 86.8226 62.9599 86.0271C73.1021 75.8847 86.8372 70.1547 101.18 70.0823C115.524 70.0099 129.316 75.6009 139.56 85.6404C139.97 86.0426 140.455 86.3594 140.989 86.5723C141.522 86.7851 142.092 86.8899 142.667 86.8804C143.244 86.8787 143.814 86.7596 144.344 86.5304C144.873 86.3012 145.35 85.9666 145.747 85.5471C146.152 85.1392 146.472 84.6542 146.688 84.1206C146.903 83.587 147.009 83.0157 147 82.4404C146.992 81.8644 146.87 81.2956 146.642 80.767C146.413 80.2383 146.081 79.7603 145.667 79.3604C133.876 67.7742 117.997 61.2979 101.467 61.3337V61.3337Z" fill="#256FC7"/>
<path d="M84.6667 143.56C83.1832 143.558 81.7295 143.144 80.468 142.363C79.2064 141.583 78.1867 140.467 77.5227 139.141C76.8587 137.814 76.5767 136.329 76.7081 134.851C76.8394 133.374 77.3791 131.962 78.2667 130.773L131.6 59.4133C132.869 57.7124 134.763 56.5855 136.863 56.2804C138.964 55.9753 141.099 56.5171 142.8 57.7867C144.501 59.0562 145.628 60.9494 145.933 63.0498C146.238 65.1502 145.696 67.2857 144.427 68.9867L91.0933 140.347C90.3469 141.346 89.3769 142.157 88.261 142.715C87.1452 143.273 85.9143 143.563 84.6667 143.56V143.56Z" fill="white"/>
<path d="M142.64 64.0008C141.669 63.5476 140.573 63.4421 139.534 63.7018C138.494 63.9616 137.576 64.5709 136.933 65.4275L83.5999 136.788C82.9617 137.658 82.6459 138.723 82.7066 139.801C83.6752 140.264 84.7751 140.375 85.8168 140.115C86.8585 139.855 87.7767 139.239 88.4133 138.374L141.747 67.0142C142.389 66.1458 142.705 65.079 142.64 64.0008V64.0008Z" fill="#FB8686"/>
<path d="M84.6667 140.894C83.6762 140.894 82.7053 140.618 81.8628 140.097C81.0203 139.577 80.3394 138.832 79.8964 137.946C79.4535 137.06 79.266 136.068 79.3549 135.082C79.4439 134.095 79.8058 133.153 80.4 132.361L133.733 61.0006C134.141 60.4097 134.663 59.9072 135.27 59.5231C135.876 59.1391 136.554 58.8813 137.262 58.7654C137.971 58.6494 138.695 58.6776 139.392 58.8483C140.089 59.019 140.745 59.3287 141.319 59.7588C141.894 60.1889 142.376 60.7305 142.736 61.3513C143.097 61.972 143.328 62.6592 143.416 63.3715C143.505 64.0837 143.449 64.8066 143.251 65.4966C143.054 66.1866 142.719 66.8297 142.267 67.3873L88.9334 138.747C88.438 139.412 87.7944 139.952 87.0538 140.325C86.3131 140.698 85.4958 140.892 84.6667 140.894V140.894ZM138 60.2006C137.379 60.2006 136.767 60.3452 136.211 60.6229C135.656 60.9006 135.173 61.3038 134.8 61.8006L81.4667 133.161C81.1522 133.582 80.9238 134.061 80.7945 134.57C80.6652 135.079 80.6375 135.609 80.713 136.129C80.7886 136.649 80.9658 137.149 81.2347 137.601C81.5036 138.052 81.8588 138.446 82.28 138.761C82.7011 139.075 83.18 139.303 83.6893 139.433C84.1987 139.562 84.7285 139.59 85.2486 139.514C85.7686 139.439 86.2687 139.261 86.7202 138.993C87.1717 138.724 87.5659 138.369 87.88 137.947L141.213 66.5873C141.655 65.9929 141.923 65.2876 141.988 64.5499C142.053 63.8121 141.911 63.0709 141.58 62.4087C141.248 61.7466 140.739 61.1896 140.109 60.7997C139.48 60.4099 138.754 60.2024 138.013 60.2006H138Z" fill="#256FC7"/>
<path d="M156.213 160.454C156.585 160.83 156.793 161.338 156.793 161.867C156.793 162.396 156.585 162.904 156.213 163.28L153.853 165.64L156.213 168C156.585 168.377 156.793 168.885 156.793 169.414C156.793 169.943 156.585 170.45 156.213 170.827C156.028 171.014 155.806 171.163 155.563 171.265C155.319 171.366 155.057 171.419 154.793 171.419C154.529 171.419 154.268 171.366 154.024 171.265C153.781 171.163 153.559 171.014 153.373 170.827L151.027 168.467L148.667 170.827C148.482 171.014 148.262 171.163 148.019 171.264C147.777 171.365 147.516 171.417 147.253 171.417C146.991 171.417 146.73 171.365 146.488 171.264C146.245 171.163 146.025 171.014 145.84 170.827V170.827C145.653 170.642 145.505 170.422 145.403 170.18C145.302 169.937 145.25 169.677 145.25 169.414C145.25 169.151 145.302 168.89 145.403 168.648C145.505 168.405 145.653 168.185 145.84 168L148.2 165.64L145.84 163.28C145.653 163.096 145.505 162.875 145.403 162.633C145.302 162.39 145.25 162.13 145.25 161.867C145.25 161.604 145.302 161.344 145.403 161.101C145.505 160.859 145.653 160.638 145.84 160.454C146.217 160.082 146.725 159.874 147.253 159.874C147.782 159.874 148.29 160.082 148.667 160.454L151.027 162.814L153.373 160.454C153.752 160.082 154.262 159.873 154.793 159.873C155.325 159.873 155.834 160.082 156.213 160.454V160.454Z" fill="white"/>
<path d="M151.493 167.999L154.32 170.826C154.57 171.074 154.908 171.213 155.26 171.213C155.612 171.213 155.95 171.074 156.2 170.826C156.448 170.576 156.588 170.238 156.588 169.886C156.588 169.533 156.448 169.195 156.2 168.946L153.373 166.119L156.04 162.506C156.165 162.382 156.264 162.234 156.332 162.072C156.4 161.909 156.434 161.735 156.434 161.559C156.434 161.383 156.4 161.209 156.332 161.046C156.264 160.884 156.165 160.736 156.04 160.612V160.612C155.79 160.364 155.452 160.225 155.1 160.225C154.748 160.225 154.41 160.364 154.16 160.612L150.547 163.279C150.297 163.031 149.959 162.891 149.607 162.891C149.254 162.891 148.916 163.031 148.667 163.279V163.279C148.418 163.529 148.279 163.867 148.279 164.219C148.279 164.571 148.418 164.909 148.667 165.159V166.106L145.84 168.932C145.592 169.182 145.452 169.52 145.452 169.872C145.452 170.225 145.592 170.563 145.84 170.812V170.812C146.09 171.061 146.428 171.2 146.78 171.2C147.132 171.2 147.47 171.061 147.72 170.812L150.547 167.999H151.493Z" fill="#CFE6FF"/>
<path d="M154.8 172.08C154.448 172.08 154.1 172.011 153.775 171.876C153.45 171.741 153.155 171.543 152.907 171.293L151.027 169.413L149.133 171.293C148.886 171.541 148.592 171.738 148.268 171.872C147.944 172.006 147.597 172.075 147.247 172.075C146.896 172.075 146.549 172.006 146.226 171.872C145.902 171.738 145.608 171.541 145.36 171.293C144.863 170.794 144.585 170.118 144.585 169.413C144.585 168.709 144.863 168.033 145.36 167.533L147.253 165.64L145.36 163.76C144.901 163.252 144.655 162.587 144.674 161.903C144.692 161.218 144.972 160.567 145.457 160.084C145.942 159.601 146.594 159.323 147.278 159.307C147.963 159.291 148.627 159.54 149.133 160L151.027 161.88L152.907 160C153.406 159.503 154.082 159.225 154.787 159.225C155.491 159.225 156.167 159.503 156.667 160V160C156.915 160.248 157.111 160.542 157.246 160.866C157.38 161.189 157.449 161.536 157.449 161.887C157.449 162.237 157.38 162.584 157.246 162.908C157.111 163.232 156.915 163.526 156.667 163.773L154.8 165.64L156.667 167.533C157.037 167.906 157.29 168.38 157.392 168.896C157.494 169.412 157.441 169.946 157.24 170.432C157.039 170.918 156.699 171.334 156.262 171.627C155.826 171.92 155.313 172.078 154.787 172.08H154.8ZM151.027 167.8C151.114 167.801 151.2 167.819 151.28 167.853C151.36 167.887 151.433 167.937 151.493 168L153.853 170.36C154.103 170.608 154.441 170.748 154.793 170.748C155.146 170.748 155.484 170.608 155.733 170.36C155.858 170.236 155.958 170.089 156.025 169.926C156.093 169.764 156.128 169.589 156.128 169.413C156.128 169.237 156.093 169.063 156.025 168.901C155.958 168.738 155.858 168.591 155.733 168.467L153.373 166.12C153.25 165.993 153.182 165.823 153.182 165.647C153.182 165.47 153.25 165.3 153.373 165.173L155.733 162.813C155.982 162.564 156.121 162.226 156.121 161.873C156.121 161.521 155.982 161.183 155.733 160.933V160.933C155.484 160.685 155.146 160.546 154.793 160.546C154.441 160.546 154.103 160.685 153.853 160.933L151.493 163.28C151.431 163.343 151.358 163.392 151.276 163.426C151.195 163.46 151.108 163.477 151.02 163.477C150.932 163.477 150.845 163.46 150.764 163.426C150.682 163.392 150.609 163.343 150.547 163.28L148.2 160.933C148.076 160.808 147.929 160.709 147.766 160.642C147.604 160.574 147.429 160.539 147.253 160.539C147.077 160.539 146.903 160.574 146.741 160.642C146.578 160.709 146.431 160.808 146.307 160.933C146.058 161.183 145.919 161.521 145.919 161.873C145.919 162.226 146.058 162.564 146.307 162.813L148.667 165.173C148.79 165.3 148.858 165.47 148.858 165.647C148.858 165.823 148.79 165.993 148.667 166.12L146.307 168.467C146.182 168.591 146.083 168.738 146.015 168.901C145.947 169.063 145.912 169.237 145.912 169.413C145.912 169.589 145.947 169.764 146.015 169.926C146.083 170.089 146.182 170.236 146.307 170.36C146.431 170.485 146.578 170.584 146.741 170.652C146.903 170.72 147.077 170.754 147.253 170.754C147.429 170.754 147.604 170.72 147.766 170.652C147.929 170.584 148.076 170.485 148.2 170.36L150.547 168C150.674 167.872 150.847 167.8 151.027 167.8V167.8Z" fill="#256FC7"/>
<path d="M45.5466 97.7877C45.9179 98.1644 46.126 98.6721 46.126 99.201C46.126 99.7299 45.9179 100.238 45.5466 100.614L43.1866 102.974L45.5466 105.334C45.9179 105.711 46.126 106.219 46.126 106.748C46.126 107.277 45.9179 107.784 45.5466 108.161C45.3607 108.348 45.1394 108.497 44.8957 108.599C44.652 108.7 44.3906 108.753 44.1266 108.753C43.8626 108.753 43.6011 108.7 43.3574 108.599C43.1137 108.497 42.8925 108.348 42.7066 108.161L40.3599 105.801L37.9999 108.161C37.8151 108.348 37.5951 108.497 37.3524 108.598C37.1098 108.699 36.8495 108.751 36.5866 108.751C36.3236 108.751 36.0633 108.699 35.8207 108.598C35.5781 108.497 35.358 108.348 35.1732 108.161V108.161C34.9862 107.976 34.8377 107.756 34.7363 107.514C34.635 107.271 34.5828 107.011 34.5828 106.748C34.5828 106.485 34.635 106.224 34.7363 105.982C34.8377 105.739 34.9862 105.519 35.1732 105.334L37.5332 102.974L35.1732 100.614C34.9862 100.43 34.8377 100.209 34.7363 99.9669C34.635 99.7243 34.5828 99.4639 34.5828 99.201C34.5828 98.9381 34.635 98.6778 34.7363 98.4351C34.8377 98.1925 34.9862 97.9725 35.1732 97.7877C35.5499 97.4164 36.0576 97.2082 36.5866 97.2082C37.1155 97.2082 37.6232 97.4164 37.9999 97.7877L40.3599 100.148L42.7066 97.7877C43.0855 97.4155 43.5954 97.207 44.1266 97.207C44.6577 97.207 45.1676 97.4155 45.5466 97.7877V97.7877Z" fill="white"/>
<path d="M40.8267 105.333L43.6534 108.16C43.9032 108.408 44.2411 108.547 44.5934 108.547C44.9456 108.547 45.2835 108.408 45.5334 108.16C45.7817 107.91 45.9211 107.572 45.9211 107.22C45.9211 106.867 45.7817 106.529 45.5334 106.28L42.7067 103.453L45.3734 99.8396C45.4983 99.7157 45.5975 99.5682 45.6652 99.4058C45.7329 99.2433 45.7678 99.069 45.7678 98.893C45.7678 98.717 45.7329 98.5427 45.6652 98.3802C45.5975 98.2177 45.4983 98.0703 45.3734 97.9463V97.9463C45.1235 97.698 44.7856 97.5586 44.4334 97.5586C44.0811 97.5586 43.7432 97.698 43.4934 97.9463L39.88 100.613C39.6302 100.365 39.2923 100.225 38.94 100.225C38.5878 100.225 38.2499 100.365 38 100.613V100.613C37.7517 100.863 37.6123 101.201 37.6123 101.553C37.6123 101.905 37.7517 102.243 38 102.493V103.44L35.1734 106.266C34.925 106.516 34.7856 106.854 34.7856 107.206C34.7856 107.559 34.925 107.897 35.1734 108.146V108.146C35.4232 108.395 35.7611 108.534 36.1134 108.534C36.4656 108.534 36.8036 108.395 37.0534 108.146L39.88 105.333H40.8267Z" fill="#CFE6FF"/>
<path d="M44.1333 109.414C43.7814 109.414 43.433 109.345 43.108 109.21C42.7831 109.075 42.488 108.877 42.24 108.627L40.36 106.747L38.4666 108.627C38.219 108.875 37.9249 109.072 37.6011 109.206C37.2774 109.34 36.9304 109.409 36.58 109.409C36.2295 109.409 35.8825 109.34 35.5588 109.206C35.2351 109.072 34.941 108.875 34.6933 108.627C34.1966 108.128 33.9178 107.452 33.9178 106.747C33.9178 106.043 34.1966 105.367 34.6933 104.867L36.5866 102.974L34.6933 101.094C34.2345 100.586 33.9887 99.9209 34.0068 99.2366C34.0248 98.5523 34.3054 97.9012 34.7903 97.418C35.2752 96.9348 35.9273 96.6566 36.6117 96.641C37.296 96.6253 37.9602 96.8735 38.4666 97.334L40.36 99.2141L42.24 97.334C42.7396 96.8374 43.4155 96.5586 44.12 96.5586C44.8245 96.5586 45.5003 96.8374 46 97.334V97.334C46.2479 97.5817 46.4446 97.8758 46.5788 98.1995C46.713 98.5233 46.7821 98.8703 46.7821 99.2207C46.7821 99.5712 46.713 99.9182 46.5788 100.242C46.4446 100.566 46.2479 100.86 46 101.107L44.1333 102.974L46 104.867C46.3706 105.24 46.6228 105.714 46.7248 106.23C46.8268 106.746 46.774 107.28 46.5731 107.766C46.3722 108.252 46.0321 108.668 45.5956 108.961C45.1592 109.254 44.6457 109.412 44.12 109.414H44.1333ZM40.36 105.134C40.4472 105.135 40.5334 105.153 40.6135 105.187C40.6937 105.221 40.7661 105.271 40.8266 105.334L43.1866 107.694C43.4364 107.942 43.7744 108.082 44.1266 108.082C44.4789 108.082 44.8168 107.942 45.0666 107.694C45.1916 107.57 45.2908 107.423 45.3585 107.26C45.4262 107.098 45.461 106.923 45.461 106.747C45.461 106.571 45.4262 106.397 45.3585 106.235C45.2908 106.072 45.1916 105.925 45.0666 105.801L42.7066 103.454C42.5836 103.327 42.5148 103.157 42.5148 102.981C42.5148 102.804 42.5836 102.634 42.7066 102.507L45.0666 100.147C45.315 99.8976 45.4544 99.5596 45.4544 99.2074C45.4544 98.8551 45.315 98.5172 45.0666 98.2674V98.2674C44.8168 98.019 44.4789 97.8797 44.1266 97.8797C43.7744 97.8797 43.4364 98.019 43.1866 98.2674L40.8266 100.614C40.7647 100.677 40.6909 100.726 40.6097 100.76C40.5284 100.794 40.4413 100.811 40.3533 100.811C40.2653 100.811 40.1781 100.794 40.0969 100.76C40.0157 100.726 39.9419 100.677 39.88 100.614L37.5333 98.2674C37.4093 98.1424 37.2619 98.0432 37.0994 97.9755C36.9369 97.9078 36.7626 97.873 36.5866 97.873C36.4106 97.873 36.2363 97.9078 36.0739 97.9755C35.9114 98.0432 35.7639 98.1424 35.64 98.2674C35.3916 98.5172 35.2522 98.8551 35.2522 99.2074C35.2522 99.5596 35.3916 99.8976 35.64 100.147L38 102.507C38.123 102.634 38.1917 102.804 38.1917 102.981C38.1917 103.157 38.123 103.327 38 103.454L35.64 105.801C35.515 105.925 35.4158 106.072 35.3481 106.235C35.2804 106.397 35.2456 106.571 35.2456 106.747C35.2456 106.923 35.2804 107.098 35.3481 107.26C35.4158 107.423 35.515 107.57 35.64 107.694C35.7639 107.819 35.9114 107.918 36.0739 107.986C36.2363 108.054 36.4106 108.088 36.5866 108.088C36.7626 108.088 36.9369 108.054 37.0994 107.986C37.2619 107.918 37.4093 107.819 37.5333 107.694L39.88 105.334C40.0071 105.206 40.1798 105.134 40.36 105.134V105.134Z" fill="#256FC7"/>
<path d="M59.3335 152.561V140.774C59.3022 140.195 59.4611 139.62 59.786 139.139C60.1109 138.658 60.584 138.296 61.1335 138.108C61.5381 137.969 61.9703 137.929 62.3935 137.992C62.8167 138.055 63.2185 138.219 63.565 138.47C63.9115 138.721 64.1925 139.052 64.3842 139.434C64.576 139.817 64.6729 140.24 64.6668 140.668V152.668C64.6686 153.093 64.5685 153.513 64.3749 153.892C64.1814 154.271 63.8999 154.598 63.554 154.846C63.2081 155.094 62.8079 155.256 62.3868 155.318C61.9657 155.379 61.5359 155.339 61.1335 155.201C60.5886 155.014 60.1187 154.656 59.7943 154.181C59.4698 153.705 59.3081 153.137 59.3335 152.561V152.561Z" fill="white"/>
<path d="M62.0002 165.335C63.4729 165.335 64.6668 164.141 64.6668 162.669C64.6668 161.196 63.4729 160.002 62.0002 160.002C60.5274 160.002 59.3335 161.196 59.3335 162.669C59.3335 164.141 60.5274 165.335 62.0002 165.335Z" fill="white"/>
<path d="M59.3335 152.56V146.106C59.3022 145.527 59.4611 144.952 59.786 144.471C60.1109 143.99 60.584 143.628 61.1335 143.44C61.5381 143.301 61.9703 143.261 62.3935 143.324C62.8167 143.387 63.2185 143.551 63.565 143.802C63.9115 144.053 64.1925 144.384 64.3842 144.766C64.576 145.149 64.6729 145.572 64.6668 146V152.666C64.6686 153.092 64.5685 153.512 64.3749 153.891C64.1814 154.27 63.8999 154.597 63.554 154.845C63.2081 155.093 62.8079 155.255 62.3868 155.316C61.9657 155.378 61.5359 155.338 61.1335 155.2C60.5886 155.013 60.1187 154.655 59.7943 154.179C59.4698 153.703 59.3081 153.135 59.3335 152.56V152.56Z" fill="#CFE6FF"/>
<path d="M62.0002 165.333C63.4729 165.333 64.6668 164.139 64.6668 162.667C64.6668 161.194 63.4729 160 62.0002 160C60.5274 160 59.3335 161.194 59.3335 162.667C59.3335 164.139 60.5274 165.333 62.0002 165.333Z" fill="#CFE6FF"/>
<path d="M62.0001 156C61.6373 156.003 61.2768 155.944 60.9334 155.827C60.2594 155.591 59.6773 155.148 59.2702 154.561C58.8632 153.975 58.6519 153.274 58.6667 152.56V140.774C58.6526 139.89 58.9902 139.036 59.6053 138.401C60.2205 137.766 61.0627 137.401 61.9467 137.387C62.8308 137.373 63.6843 137.711 64.3194 138.326C64.9545 138.941 65.3193 139.783 65.3334 140.667V152.667C65.3314 153.184 65.21 153.694 64.9787 154.156C64.7475 154.619 64.4125 155.022 64.0001 155.334C63.4235 155.767 62.7215 156.001 62.0001 156V156ZM62.0001 138.667C61.7738 138.67 61.5492 138.706 61.3334 138.774C60.9304 138.927 60.5852 139.201 60.3461 139.56C60.107 139.919 59.986 140.343 60.0001 140.774V152.56C59.986 152.991 60.107 153.416 60.3461 153.774C60.5852 154.133 60.9304 154.408 61.3334 154.56C61.6357 154.664 61.9583 154.694 62.2746 154.649C62.5909 154.603 62.8918 154.483 63.1523 154.298C63.4129 154.113 63.6257 153.868 63.7731 153.585C63.9205 153.301 63.9983 152.987 64.0001 152.667V140.667C64.0002 140.352 63.9252 140.041 63.7815 139.761C63.6377 139.48 63.4293 139.238 63.1734 139.054C62.8351 138.8 62.423 138.664 62.0001 138.667V138.667Z" fill="#256FC7"/>
<path d="M62.0001 166.001C61.3408 166.001 60.6964 165.805 60.1482 165.439C59.6 165.073 59.1728 164.552 58.9205 163.943C58.6682 163.334 58.6022 162.664 58.7308 162.017C58.8594 161.37 59.1769 160.776 59.6431 160.31C60.1092 159.844 60.7032 159.527 61.3498 159.398C61.9964 159.269 62.6666 159.335 63.2757 159.588C63.8848 159.84 64.4054 160.267 64.7717 160.815C65.1379 161.364 65.3334 162.008 65.3334 162.667C65.3334 163.551 64.9822 164.399 64.3571 165.024C63.732 165.649 62.8841 166.001 62.0001 166.001ZM62.0001 160.667C61.6045 160.667 61.2178 160.785 60.8889 161.004C60.56 161.224 60.3037 161.536 60.1523 161.902C60.001 162.267 59.9613 162.67 60.0385 163.057C60.1157 163.445 60.3062 163.802 60.5859 164.082C60.8656 164.361 61.2219 164.552 61.6099 164.629C61.9979 164.706 62.4 164.666 62.7655 164.515C63.1309 164.364 63.4433 164.107 63.663 163.778C63.8828 163.45 64.0001 163.063 64.0001 162.667C64.0001 162.137 63.7894 161.628 63.4143 161.253C63.0392 160.878 62.5305 160.667 62.0001 160.667V160.667Z" fill="#256FC7"/>
<path d="M135.333 40.5611V28.7744C135.302 28.1946 135.461 27.6204 135.786 27.139C136.111 26.6577 136.584 26.2956 137.133 26.1077C137.538 25.9686 137.97 25.9289 138.393 25.992C138.817 26.0551 139.218 26.2191 139.565 26.4701C139.911 26.7212 140.192 27.0519 140.384 27.4344C140.576 27.8169 140.673 28.2399 140.667 28.6677V40.6677C140.669 41.0933 140.569 41.5132 140.375 41.8922C140.181 42.2712 139.9 42.5984 139.554 42.8464C139.208 43.0944 138.808 43.256 138.387 43.3177C137.966 43.3794 137.536 43.3394 137.133 43.2011C136.589 43.0144 136.119 42.6564 135.794 42.1805C135.47 41.7046 135.308 41.1365 135.333 40.5611V40.5611Z" fill="white"/>
<path d="M138 53.3353C139.473 53.3353 140.667 52.1414 140.667 50.6686C140.667 49.1959 139.473 48.002 138 48.002C136.527 48.002 135.333 49.1959 135.333 50.6686C135.333 52.1414 136.527 53.3353 138 53.3353Z" fill="white"/>
<path d="M135.333 40.5598V34.1064C135.302 33.5266 135.461 32.9524 135.786 32.4711C136.111 31.9898 136.584 31.6277 137.133 31.4398C137.538 31.3007 137.97 31.261 138.393 31.3241C138.817 31.3871 139.218 31.5511 139.565 31.8021C139.911 32.0532 140.192 32.3839 140.384 32.7664C140.576 33.1489 140.673 33.5719 140.667 33.9998V40.6664C140.669 41.092 140.569 41.5119 140.375 41.8909C140.181 42.2699 139.9 42.5971 139.554 42.8451C139.208 43.0931 138.808 43.2547 138.387 43.3164C137.966 43.3781 137.536 43.3381 137.133 43.1998C136.589 43.0131 136.119 42.6551 135.794 42.1792C135.47 41.7033 135.308 41.1352 135.333 40.5598V40.5598Z" fill="#CFE6FF"/>
<path d="M138 53.3333C139.473 53.3333 140.667 52.1394 140.667 50.6667C140.667 49.1939 139.473 48 138 48C136.527 48 135.333 49.1939 135.333 50.6667C135.333 52.1394 136.527 53.3333 138 53.3333Z" fill="#CFE6FF"/>
<path d="M138 44.0005C137.637 44.0026 137.277 43.944 136.933 43.8271C136.259 43.5911 135.677 43.1481 135.27 42.5615C134.863 41.9748 134.652 41.2744 134.667 40.5605V28.7738C134.653 27.8898 134.99 27.0363 135.605 26.4012C136.22 25.766 137.063 25.4013 137.947 25.3871C138.831 25.373 139.684 25.7106 140.319 26.3257C140.955 26.9409 141.319 27.7831 141.333 28.6671V40.6671C141.331 41.1843 141.21 41.6939 140.979 42.1565C140.747 42.619 140.413 43.0219 140 43.3338C139.424 43.7674 138.721 44.0014 138 44.0005V44.0005ZM138 26.6671C137.774 26.67 137.549 26.7059 137.333 26.7738C136.93 26.9265 136.585 27.2014 136.346 27.56C136.107 27.9186 135.986 28.343 136 28.7738V40.5605C135.986 40.9913 136.107 41.4156 136.346 41.7743C136.585 42.1329 136.93 42.4078 137.333 42.5605C137.636 42.6642 137.958 42.6944 138.275 42.6488C138.591 42.6031 138.892 42.4828 139.152 42.2977C139.413 42.1127 139.626 41.8684 139.773 41.5848C139.921 41.3013 139.998 40.9867 140 40.6671V28.6671C140 28.3519 139.925 28.0412 139.781 27.7607C139.638 27.4802 139.429 27.2379 139.173 27.0538C138.835 26.8001 138.423 26.6642 138 26.6671V26.6671Z" fill="#256FC7"/>
<path d="M138 54.0007C137.341 54.0007 136.696 53.8052 136.148 53.4389C135.6 53.0726 135.173 52.552 134.92 51.9429C134.668 51.3338 134.602 50.6636 134.731 50.017C134.859 49.3704 135.177 48.7765 135.643 48.3103C136.109 47.8441 136.703 47.5267 137.35 47.398C137.996 47.2694 138.667 47.3354 139.276 47.5877C139.885 47.84 140.405 48.2673 140.772 48.8154C141.138 49.3636 141.333 50.008 141.333 50.6673C141.333 51.5514 140.982 52.3992 140.357 53.0243C139.732 53.6495 138.884 54.0007 138 54.0007ZM138 48.6673C137.605 48.6673 137.218 48.7846 136.889 49.0044C136.56 49.2241 136.304 49.5365 136.152 49.902C136.001 50.2674 135.961 50.6695 136.039 51.0575C136.116 51.4455 136.306 51.8018 136.586 52.0815C136.866 52.3612 137.222 52.5517 137.61 52.6289C137.998 52.7061 138.4 52.6665 138.765 52.5151C139.131 52.3637 139.443 52.1074 139.663 51.7785C139.883 51.4496 140 51.0629 140 50.6673C140 50.1369 139.789 49.6282 139.414 49.2531C139.039 48.878 138.531 48.6673 138 48.6673V48.6673Z" fill="#256FC7"/>
<path d="M164.667 59.7204C164.583 59.7393 164.497 59.7393 164.413 59.7204L151.747 54.3871C151.591 54.3138 151.469 54.1829 151.408 54.0219C151.346 53.8609 151.349 53.6823 151.417 53.5237C151.484 53.365 151.61 53.2385 151.768 53.1708C151.927 53.1031 152.106 53.0994 152.267 53.1604L164.92 58.4938C165.001 58.5259 165.076 58.5741 165.138 58.6354C165.2 58.6968 165.25 58.77 165.284 58.8509C165.317 58.9317 165.334 59.0185 165.333 59.106C165.333 59.1936 165.315 59.2801 165.28 59.3604C165.221 59.4712 165.132 59.5635 165.024 59.627C164.916 59.6906 164.792 59.7229 164.667 59.7204V59.7204Z" fill="#256FC7"/>
<path d="M125.253 43.121C125.17 43.1399 125.083 43.1399 125 43.121L114.413 38.6677C114.324 38.6406 114.242 38.5952 114.172 38.5345C114.102 38.4738 114.045 38.399 114.005 38.315C113.965 38.2309 113.943 38.1395 113.941 38.0466C113.939 37.9537 113.956 37.8613 113.991 37.7754C114.027 37.6895 114.08 37.612 114.147 37.5478C114.214 37.4836 114.294 37.4342 114.382 37.4027C114.469 37.3712 114.562 37.3584 114.655 37.365C114.748 37.3716 114.838 37.3975 114.92 37.441L125.587 41.8944C125.667 41.9292 125.74 41.9796 125.802 42.0427C125.863 42.1058 125.911 42.1804 125.943 42.2622C125.975 42.344 125.991 42.4314 125.989 42.5193C125.988 42.6072 125.969 42.6939 125.933 42.7744C125.871 42.8961 125.771 42.9951 125.649 43.0573C125.527 43.1195 125.389 43.1418 125.253 43.121V43.121Z" fill="#256FC7"/>
<path d="M178 120.787C177.823 120.787 177.654 120.717 177.529 120.592C177.404 120.467 177.333 120.297 177.333 120.121V106.001C177.333 105.824 177.404 105.654 177.529 105.529C177.654 105.404 177.823 105.334 178 105.334C178.177 105.334 178.346 105.404 178.471 105.529C178.596 105.654 178.667 105.824 178.667 106.001V120.121C178.667 120.297 178.596 120.467 178.471 120.592C178.346 120.717 178.177 120.787 178 120.787Z" fill="#256FC7"/>
<path d="M178 89.3349C177.823 89.3349 177.654 89.2646 177.529 89.1396C177.404 89.0146 177.333 88.845 177.333 88.6682V79.8815C177.333 79.7047 177.404 79.5351 177.529 79.4101C177.654 79.2851 177.823 79.2148 178 79.2148C178.177 79.2148 178.346 79.2851 178.471 79.4101C178.596 79.5351 178.667 79.7047 178.667 79.8815V88.6682C178.667 88.845 178.596 89.0146 178.471 89.1396C178.346 89.2646 178.177 89.3349 178 89.3349Z" fill="#256FC7"/>
<path d="M70.7601 45.9336C70.5849 45.9651 70.4043 45.9266 70.2571 45.8264C70.11 45.7262 70.008 45.5723 69.973 45.3977C69.9381 45.2231 69.9731 45.0418 70.0704 44.8927C70.1677 44.7436 70.3196 44.6386 70.4934 44.6003L87.7468 37.3336C87.9053 37.2853 88.0762 37.2978 88.226 37.3687C88.3758 37.4395 88.4939 37.5637 88.5572 37.7168C88.6204 37.87 88.6244 38.0413 88.5682 38.1972C88.5121 38.3532 88.3999 38.4826 88.2534 38.5603L71.0134 45.8803C70.9321 45.9106 70.8467 45.9286 70.7601 45.9336V45.9336Z" fill="#256FC7"/>
<path d="M37.88 59.773C37.7484 59.7723 37.6199 59.7327 37.5107 59.6591C37.4016 59.5856 37.3167 59.4814 37.2666 59.3596C37.2319 59.2793 37.2138 59.1927 37.2132 59.1052C37.2125 59.0177 37.2295 58.9309 37.2631 58.8501C37.2967 58.7692 37.3462 58.6959 37.4086 58.6346C37.4711 58.5733 37.5452 58.5251 37.6266 58.493L53.08 51.9996C53.1621 51.9561 53.2524 51.9302 53.3451 51.9236C53.4378 51.917 53.5308 51.9298 53.6183 51.9613C53.7057 51.9928 53.7856 52.0422 53.8528 52.1064C53.9201 52.1706 53.9731 52.2481 54.0086 52.334C54.0441 52.4199 54.0612 52.5123 54.0589 52.6052C54.0565 52.6981 54.0348 52.7895 53.9951 52.8735C53.9554 52.9576 53.8985 53.0324 53.8281 53.0931C53.7578 53.1538 53.6755 53.1992 53.5866 53.2263L38.1333 59.7196C38.052 59.75 37.9666 59.768 37.88 59.773V59.773Z" fill="#256FC7"/>
<path d="M88.36 164.16C88.2677 164.179 88.1724 164.179 88.08 164.16L74.3867 157.867C74.2258 157.792 74.101 157.657 74.0397 157.491C73.9785 157.325 73.9858 157.141 74.06 156.98C74.1343 156.819 74.2694 156.694 74.4357 156.633C74.602 156.572 74.7858 156.579 74.9467 156.653L88.6667 162.893C88.825 162.969 88.9481 163.102 89.0102 163.266C89.0723 163.43 89.0687 163.612 89 163.773C88.9442 163.894 88.8534 163.996 88.7393 164.065C88.6253 164.134 88.4931 164.167 88.36 164.16V164.16Z" fill="#256FC7"/>
<path d="M50.6667 146.855C50.5743 146.873 50.4792 146.873 50.3867 146.855L38 141.082C37.8408 141.004 37.7174 140.868 37.6554 140.702C37.5934 140.535 37.5975 140.352 37.6667 140.189C37.7039 140.108 37.7566 140.037 37.8218 139.977C37.887 139.918 37.9634 139.872 38.0465 139.842C38.1296 139.812 38.2178 139.799 38.306 139.804C38.3941 139.808 38.4805 139.83 38.56 139.869L50.9867 145.575C51.0663 145.611 51.1379 145.662 51.1973 145.726C51.2567 145.79 51.3026 145.866 51.3325 145.948C51.3623 146.03 51.3754 146.117 51.371 146.204C51.3665 146.291 51.3447 146.377 51.3067 146.455C51.2545 146.58 51.1649 146.685 51.0503 146.757C50.9357 146.829 50.8017 146.863 50.6667 146.855V146.855Z" fill="#256FC7"/>
<path d="M146.8 149.626C146.67 149.627 146.542 149.589 146.434 149.518C146.325 149.447 146.239 149.345 146.187 149.226C146.118 149.065 146.114 148.883 146.177 148.719C146.239 148.555 146.362 148.422 146.52 148.346L164.573 140.28C164.653 140.242 164.739 140.221 164.827 140.217C164.914 140.214 165.002 140.228 165.084 140.259C165.166 140.29 165.241 140.338 165.305 140.398C165.368 140.459 165.419 140.532 165.453 140.613C165.525 140.774 165.531 140.957 165.468 141.122C165.406 141.287 165.281 141.42 165.12 141.493L147.067 149.573C146.983 149.611 146.892 149.629 146.8 149.626V149.626Z" fill="#256FC7"/>
<path d="M114.213 164.201C114.126 164.219 114.036 164.22 113.948 164.204C113.86 164.187 113.776 164.153 113.701 164.105C113.626 164.056 113.562 163.992 113.511 163.919C113.461 163.845 113.425 163.762 113.407 163.674C113.388 163.587 113.387 163.496 113.404 163.408C113.42 163.32 113.454 163.237 113.503 163.162C113.552 163.087 113.615 163.022 113.689 162.972C113.763 162.921 113.846 162.886 113.933 162.868L135.627 153.161C135.707 153.118 135.796 153.093 135.886 153.086C135.977 153.079 136.068 153.091 136.154 153.12C136.24 153.15 136.32 153.197 136.387 153.258C136.454 153.319 136.508 153.394 136.545 153.477C136.583 153.56 136.603 153.65 136.604 153.741C136.606 153.832 136.588 153.922 136.553 154.006C136.519 154.09 136.467 154.166 136.402 154.229C136.336 154.293 136.259 154.342 136.173 154.374L114.48 164.081C114.402 164.141 114.31 164.182 114.213 164.201V164.201Z" fill="#256FC7"/>
<path d="M136.667 154.667C137.403 154.667 138 154.07 138 153.333C138 152.597 137.403 152 136.667 152C135.93 152 135.333 152.597 135.333 153.333C135.333 154.07 135.93 154.667 136.667 154.667Z" fill="#256FC7"/>
<path d="M51.3333 148.001C52.0697 148.001 52.6667 147.404 52.6667 146.667C52.6667 145.931 52.0697 145.334 51.3333 145.334C50.597 145.334 50 145.931 50 146.667C50 147.404 50.597 148.001 51.3333 148.001Z" fill="#256FC7"/>
<path d="M54.0001 53.3346C54.7365 53.3346 55.3334 52.7377 55.3334 52.0013C55.3334 51.2649 54.7365 50.668 54.0001 50.668C53.2637 50.668 52.6667 51.2649 52.6667 52.0013C52.6667 52.7377 53.2637 53.3346 54.0001 53.3346Z" fill="#256FC7"/>
<path d="M47.3333 38.6667C48.0697 38.6667 48.6667 38.0697 48.6667 37.3333C48.6667 36.597 48.0697 36 47.3333 36C46.597 36 46 36.597 46 37.3333C46 38.0697 46.597 38.6667 47.3333 38.6667Z" fill="#256FC7"/>
<path d="M70.0001 24.0007C70.7365 24.0007 71.3334 23.4037 71.3334 22.6673C71.3334 21.9309 70.7365 21.334 70.0001 21.334C69.2637 21.334 68.6667 21.9309 68.6667 22.6673C68.6667 23.4037 69.2637 24.0007 70.0001 24.0007Z" fill="#256FC7"/>
<path d="M158 109.335C158.736 109.335 159.333 108.738 159.333 108.001C159.333 107.265 158.736 106.668 158 106.668C157.264 106.668 156.667 107.265 156.667 108.001C156.667 108.738 157.264 109.335 158 109.335Z" fill="#256FC7"/>
<path d="M24.6667 120.44C24.4899 120.44 24.3203 120.37 24.1953 120.245C24.0702 120.12 24 119.95 24 119.773V104.667C24 104.49 24.0702 104.32 24.1953 104.195C24.3203 104.07 24.4899 104 24.6667 104C24.8435 104 25.013 104.07 25.1381 104.195C25.2631 104.32 25.3333 104.49 25.3333 104.667V119.773C25.3333 119.95 25.2631 120.12 25.1381 120.245C25.013 120.37 24.8435 120.44 24.6667 120.44Z" fill="#256FC7"/>
<path d="M24.6667 94.028C24.4899 94.028 24.3203 93.9577 24.1953 93.8327C24.0702 93.7077 24 93.5381 24 93.3613V80.028C24 79.8512 24.0702 79.6816 24.1953 79.5566C24.3203 79.4316 24.4899 79.3613 24.6667 79.3613C24.8435 79.3613 25.013 79.4316 25.1381 79.5566C25.2631 79.6816 25.3333 79.8512 25.3333 80.028V93.3347C25.3369 93.4244 25.3223 93.514 25.2905 93.598C25.2586 93.682 25.21 93.7586 25.1478 93.8234C25.0855 93.8882 25.0108 93.9397 24.9281 93.9748C24.8454 94.01 24.7565 94.0281 24.6667 94.028Z" fill="#256FC7"/>
<path d="M24.6667 96.0006C25.4031 96.0006 26 95.4037 26 94.6673C26 93.9309 25.4031 93.334 24.6667 93.334C23.9303 93.334 23.3334 93.9309 23.3334 94.6673C23.3334 95.4037 23.9303 96.0006 24.6667 96.0006Z" fill="#256FC7"/>
<path d="M24.6667 106.667C25.4031 106.667 26 106.07 26 105.333C26 104.597 25.4031 104 24.6667 104C23.9303 104 23.3334 104.597 23.3334 105.333C23.3334 106.07 23.9303 106.667 24.6667 106.667Z" fill="#256FC7"/>
<path d="M70.0001 46.6667C70.7365 46.6667 71.3334 46.0697 71.3334 45.3333C71.3334 44.597 70.7365 44 70.0001 44C69.2637 44 68.6667 44.597 68.6667 45.3333C68.6667 46.0697 69.2637 46.6667 70.0001 46.6667Z" fill="#256FC7"/>
<path d="M126 44.0007C126.736 44.0007 127.333 43.4037 127.333 42.6673C127.333 41.9309 126.736 41.334 126 41.334C125.264 41.334 124.667 41.9309 124.667 42.6673C124.667 43.4037 125.264 44.0007 126 44.0007Z" fill="#256FC7"/>
<path d="M151.333 54.6667C152.07 54.6667 152.667 54.0697 152.667 53.3333C152.667 52.597 152.07 52 151.333 52C150.597 52 150 52.597 150 53.3333C150 54.0697 150.597 54.6667 151.333 54.6667Z" fill="#256FC7"/>
<path d="M75.3333 158.667C76.0697 158.667 76.6667 158.07 76.6667 157.333C76.6667 156.597 76.0697 156 75.3333 156C74.597 156 74 156.597 74 157.333C74 158.07 74.597 158.667 75.3333 158.667Z" fill="#256FC7"/>
<path d="M146 150.667C146.736 150.667 147.333 150.07 147.333 149.333C147.333 148.597 146.736 148 146 148C145.264 148 144.667 148.597 144.667 149.333C144.667 150.07 145.264 150.667 146 150.667Z" fill="#256FC7"/>
<path d="M178 90.6667C178.736 90.6667 179.333 90.0697 179.333 89.3333C179.333 88.597 178.736 88 178 88C177.264 88 176.667 88.597 176.667 89.3333C176.667 90.0697 177.264 90.6667 178 90.6667Z" fill="#256FC7"/>
<path d="M178 106.667C178.736 106.667 179.333 106.07 179.333 105.333C179.333 104.597 178.736 104 178 104C177.264 104 176.667 104.597 176.667 105.333C176.667 106.07 177.264 106.667 178 106.667Z" fill="#256FC7"/>
<path d="M60.0001 42.6678C59.9126 42.6688 59.8259 42.6516 59.7456 42.6172C59.6652 42.5827 59.5929 42.5318 59.5334 42.4678L58.2001 41.1344C58.1363 41.0746 58.0855 41.0023 58.0507 40.922C58.016 40.8418 57.998 40.7552 57.998 40.6678C57.998 40.5803 58.016 40.4938 58.0507 40.4135C58.0855 40.3333 58.1363 40.261 58.2001 40.2011L60.3867 38.0011L58.2001 35.8011C58.1363 35.7413 58.0855 35.669 58.0507 35.5887C58.016 35.5084 57.998 35.4219 57.998 35.3344C57.998 35.247 58.016 35.1604 58.0507 35.0802C58.0855 34.9999 58.1363 34.9276 58.2001 34.8678L60.3867 32.6678L58.2001 30.4678C58.1363 30.4079 58.0855 30.3356 58.0507 30.2554C58.016 30.1751 57.998 30.0886 57.998 30.0011C57.998 29.9136 58.016 29.8271 58.0507 29.7469C58.0855 29.6666 58.1363 29.5943 58.2001 29.5344L59.5334 28.2011C59.6572 28.0773 59.825 28.0078 60.0001 28.0078C60.1751 28.0078 60.343 28.0773 60.4667 28.2011C60.5905 28.3249 60.66 28.4927 60.66 28.6678C60.66 28.8428 60.5905 29.0107 60.4667 29.1344L59.6134 30.0011L61.8001 32.2011C61.8638 32.261 61.9147 32.3333 61.9494 32.4135C61.9842 32.4938 62.0021 32.5803 62.0021 32.6678C62.0021 32.7552 61.9842 32.8418 61.9494 32.922C61.9147 33.0023 61.8638 33.0746 61.8001 33.1344L59.6134 35.3344L61.8001 37.5344C61.8638 37.5943 61.9147 37.6666 61.9494 37.7469C61.9842 37.8271 62.0021 37.9136 62.0021 38.0011C62.0021 38.0886 61.9842 38.1751 61.9494 38.2554C61.9147 38.3356 61.8638 38.4079 61.8001 38.4678L59.6134 40.6678L60.4667 41.5344C60.5305 41.5943 60.5813 41.6666 60.6161 41.7469C60.6508 41.8271 60.6688 41.9136 60.6688 42.0011C60.6688 42.0886 60.6508 42.1751 60.6161 42.2554C60.5813 42.3356 60.5305 42.4079 60.4667 42.4678C60.4072 42.5318 60.3349 42.5827 60.2546 42.6172C60.1742 42.6516 60.0875 42.6688 60.0001 42.6678V42.6678Z" fill="#256FC7"/>
<path d="M166.667 105.334C166.579 105.335 166.493 105.318 166.412 105.283C166.332 105.249 166.26 105.198 166.2 105.134L164.867 103.8C164.803 103.741 164.752 103.668 164.717 103.588C164.683 103.508 164.665 103.421 164.665 103.334C164.665 103.246 164.683 103.16 164.717 103.08C164.752 102.999 164.803 102.927 164.867 102.867L167.053 100.667L164.867 98.4671C164.803 98.4073 164.752 98.335 164.717 98.2547C164.683 98.1745 164.665 98.0879 164.665 98.0005C164.665 97.913 164.683 97.8265 164.717 97.7462C164.752 97.6659 164.803 97.5937 164.867 97.5338L167.053 95.3338L164.867 93.1338C164.803 93.0739 164.752 93.0017 164.717 92.9214C164.683 92.8411 164.665 92.7546 164.665 92.6671C164.665 92.5797 164.683 92.4931 164.717 92.4129C164.752 92.3326 164.803 92.2603 164.867 92.2005L166.2 90.8671C166.324 90.7434 166.492 90.6738 166.667 90.6738C166.842 90.6738 167.01 90.7434 167.133 90.8671C167.257 90.9909 167.327 91.1588 167.327 91.3338C167.327 91.5088 167.257 91.6767 167.133 91.8005L166.28 92.6671L168.467 94.8671C168.53 94.927 168.581 94.9993 168.616 95.0795C168.651 95.1598 168.669 95.2463 168.669 95.3338C168.669 95.4213 168.651 95.5078 168.616 95.5881C168.581 95.6683 168.53 95.7406 168.467 95.8005L166.28 98.0005L168.467 100.2C168.53 100.26 168.581 100.333 168.616 100.413C168.651 100.493 168.669 100.58 168.669 100.667C168.669 100.755 168.651 100.841 168.616 100.921C168.581 101.002 168.53 101.074 168.467 101.134L166.28 103.334L167.133 104.2C167.197 104.26 167.248 104.333 167.283 104.413C167.317 104.493 167.335 104.58 167.335 104.667C167.335 104.755 167.317 104.841 167.283 104.921C167.248 105.002 167.197 105.074 167.133 105.134C167.074 105.198 167.002 105.249 166.921 105.283C166.841 105.318 166.754 105.335 166.667 105.334V105.334Z" fill="#256FC7"/>
</svg>
