<svg width="35" height="35" viewBox="0 0 35 35" fill="none" xmlns="http://www.w3.org/2000/svg">
<rect width="35" height="35" fill="white"/>
<path fill-rule="evenodd" clip-rule="evenodd" d="M27.7301 16.8954C28.1074 17.2861 28.0866 17.9196 27.6836 18.3104L21.1172 24.6778C20.7143 25.0685 20.0818 25.0685 19.7045 24.6778C19.3273 24.2871 19.3481 23.6535 19.7511 23.2628L24.556 18.6034L7.96764 18.6034C7.41596 18.6034 6.98345 18.1555 7.00162 17.6029C7.01979 17.0503 7.48174 16.6023 8.03343 16.6023L24.6218 16.6023L20.1232 11.943C19.7459 11.5522 19.7668 10.9187 20.1697 10.528C20.5727 10.1373 21.2051 10.1373 21.5824 10.528L27.7301 16.8954Z" fill="#B4BAC4"/>
</svg>
