<svg width="374" height="25" viewBox="0 0 374 25" fill="none" xmlns="http://www.w3.org/2000/svg">
<path fill-rule="evenodd" clip-rule="evenodd" d="M98.0717 3.9274e-09C90.944 3.64196e-09 86.8726 5.02138 86.8726 12.0525C86.8726 19.0956 90.9339 24.107 98.0555 24.105C103.83 24.105 106.884 20.7581 107.562 16.7386L107.222 16.4053L104.508 16.4053L104.168 16.7386C103.49 19.0836 101.793 21.0914 98.0616 21.0914C92.9707 21.0914 90.2564 17.4092 90.2564 12.0525C90.2564 6.69584 92.9707 3.01363 98.0616 3.01363C101.453 3.01363 103.49 4.68609 104.168 7.03113L104.508 7.36642L107.238 7.36642L107.578 7.03113C106.894 3.01363 103.5 4.14479e-09 98.0717 3.9274e-09ZM17.6451 23.7739L0.339796 23.7739L9.40451e-10 23.4386L0 0.668744L0.339796 0.335449L17.6451 0.335449L17.9849 0.67074L17.9849 5.02154L17.6451 5.35683L6.44804 5.35683L6.10824 5.69212L6.10824 9.03904L6.44804 9.37433L16.9655 9.37433L17.3053 9.70962L17.3053 14.0624L16.9655 14.3977L6.44804 14.3977L6.10824 14.733L6.10824 18.4152L6.44804 18.7505L17.6451 18.7505L17.9849 19.0858L17.9849 23.4386L17.6451 23.7739ZM41.3985 23.7739L38.3444 23.7739L37.6648 23.4386L31.5565 15.4016L31.2167 15.4016L25.1085 23.4386L24.4309 23.7739L21.3768 23.7739L21.037 23.4386L21.037 19.0958L27.1452 11.7114L27.1452 11.3761L21.3768 5.02154L21.3768 0.668744L21.7166 0.335449L24.7788 0.335449L25.4564 0.67074L31.2167 7.69987L31.5565 7.69987L37.3189 0.668744L38.0046 0.335449L41.0587 0.335449L41.3985 0.67074L41.3985 5.02154L35.628 11.3841L35.628 11.7114L41.7362 19.0958L41.7362 23.4486L41.3985 23.7739ZM45.8138 23.7739L51.2364 23.7739L51.5823 23.4386L51.5823 0.67074L51.2445 0.335449L45.8138 0.335449L45.4761 0.668744L45.4761 23.4386L45.8138 23.7739ZM82.7929 23.7739L77.3663 23.7739L77.0265 23.4386L77.0265 12.7232L76.6867 12.7232L72.2754 23.4386L71.9356 23.7739L67.5223 23.7739L67.1846 23.4386L62.7712 12.7232L62.4335 12.7232L62.4335 23.4386L62.0937 23.7739L56.663 23.7739L56.3313 23.4386L56.3313 0.668744L56.663 0.335449L63.111 0.335449L63.4508 0.67074L69.5591 15.7389L69.8989 15.7389L76.0071 0.67074L76.355 0.335449L82.8031 0.335449L83.1429 0.67074L83.1429 23.4386L82.7929 23.7739ZM129.954 23.7739L127.241 23.7739L126.902 23.4386L126.902 13.7271L126.562 13.3938L115.365 13.3938L115.025 13.7271L115.025 23.4386L114.685 23.7739L111.971 23.7739L111.631 23.4386L111.631 0.668744L111.971 0.335449L114.685 0.335449L115.025 0.67074L115.025 10.0509L115.365 10.3862L126.562 10.3862L126.902 10.0509L126.902 0.67074L127.241 0.335449L129.954 0.335449L130.293 0.67074L130.293 23.4386L129.954 23.7739ZM151.333 23.7739L153.368 23.7739L153.707 23.4366L153.707 21.0916L145.564 0.67074L145.225 0.335449L142.17 0.335449L141.831 0.668744L133.686 21.0916L133.686 23.4386L134.025 23.7739L136.062 23.7739L136.4 23.4386L138.437 18.4152L139.116 18.0799L148.289 18.0799L148.966 18.4152L150.989 23.4386L151.333 23.7739ZM143.522 5.35683L143.861 5.35683L147.593 14.737L147.253 15.0703L140.128 15.0703L139.788 14.737L143.522 5.35683ZM160.151 23.7739L157.437 23.7739L157.099 23.4386L157.099 0.668744L157.437 0.335449L160.151 0.335449L160.495 0.668744L160.495 23.4386L160.151 23.7739ZM181.87 23.7739L184.922 23.7739L185.262 23.4386L185.262 0.67074L184.922 0.335449L182.208 0.335449L181.87 0.668744L181.87 18.0799L181.53 18.0799L170.001 0.668744L169.313 0.335449L166.259 0.335449L165.92 0.668744L165.92 23.4386L166.259 23.7739L168.974 23.7739L169.313 23.4386L169.313 6.02741L169.661 6.02741L181.19 23.4386L181.87 23.7739Z" fill="white"/>
<path d="M246.35 0L246.006 0.344428L242.217 14.466H241.872L238.773 0.344428L238.428 0H233.606L233.262 0.344428V4.822L238.773 23.7656L239.117 24.11H244.972L245.317 23.7656L249.105 9.644H249.45L253.239 23.7656L253.583 24.11H259.438L259.783 23.7656L265.294 4.822V0.344428L264.949 0H260.127L259.783 0.344428L256.683 14.466H256.338L252.55 0.344428L252.205 0H246.35Z" fill="white"/>
<path d="M283.186 23.7656L283.531 24.11H287.664L288.008 23.7656V19.288L280.431 0.344428L280.087 0H274.231L273.887 0.344428L266.309 19.288V23.7656L266.654 24.11H270.787L271.131 23.7656L272.509 19.9769L273.198 19.6324H281.12L281.809 19.9769L283.186 23.7656ZM276.987 7.57743H277.331L279.742 14.1216L279.398 14.466H274.92L274.576 14.1216L276.987 7.57743Z" fill="white"/>
<path d="M307.983 23.7656V19.288L307.638 18.9436H297.65L297.305 18.5991V0.344428L296.961 0H291.45L291.106 0.344428V23.7656L291.45 24.11H307.638L307.983 23.7656Z" fill="white"/>
<path d="M327.962 23.7656V19.288L327.618 18.9436H317.629L317.285 18.5991V0.344428L316.94 0H311.43L311.085 0.344428V23.7656L311.43 24.11H327.618L327.962 23.7656Z" fill="white"/>
<path d="M349.319 23.7656V19.288L348.975 18.9436H337.609L337.264 18.5991V14.8104L337.609 14.466H348.286L348.63 14.1216V9.644L348.286 9.29957H337.609L337.264 8.95514V5.51086L337.609 5.16643H348.975L349.319 4.822V0.344428L348.975 0H331.409L331.065 0.344428V23.7656L331.409 24.11H348.975L349.319 23.7656Z" fill="white"/>
<path d="M373.098 4.822V0.344428L372.754 0H352.088L351.744 0.344428V4.822L352.088 5.16643H358.977L359.321 5.51086V23.7656L359.666 24.11H365.177L365.521 23.7656V5.51086L365.865 5.16643H372.754L373.098 4.822Z" fill="white"/>
<path fill-rule="evenodd" clip-rule="evenodd" d="M209 22L209 2L210 2L210 22L209 22Z" fill="#D8DBE0"/>
</svg>
