<svg width="404" height="1112" viewBox="0 0 404 1112" fill="none" xmlns="http://www.w3.org/2000/svg">
<path d="M0 0H404V1112H0V0Z" fill="#267EDC"/>
<path d="M235.262 946.385L235.262 956L299.612 938.781L299.612 928.57L251.821 915.499L251.821 914.996L299.612 901.925L299.612 891.713L235.262 874.526L235.262 884.109L284.781 896.74L284.781 897.306L235.262 910.22L235.262 920.306L284.75 933.189L284.75 933.786L235.262 946.385Z" fill="white"/>
<path d="M299.612 862.233L284.027 856.828L284.027 831L299.612 825.596L299.612 815.007L235.262 838.667L235.262 849.13L299.612 872.79L299.612 862.233ZM248.019 844.291L248.019 843.537L275.606 833.954L275.606 853.875L248.019 844.291Z" fill="white"/>
<path d="M291.065 764.797L291.065 793.453L235.262 793.453L235.262 803.413L299.612 803.413L299.612 764.797L291.065 764.797Z" fill="white"/>
<path d="M291.065 712.434L291.065 741.09L235.262 741.09L235.262 751.05L299.612 751.05L299.612 712.434L291.065 712.434Z" fill="white"/>
<path d="M291.065 658.186L291.065 688.727L271.679 688.727L271.679 662.177L263.101 662.177L263.101 688.727L243.809 688.727L243.809 658.532L235.262 658.532L235.262 698.688L299.612 698.688L299.612 658.186L291.065 658.186Z" fill="white"/>
<path d="M235.262 596.83L235.262 646.349L243.809 646.349L243.809 626.554L299.612 626.554L299.612 616.625L243.809 616.625L243.809 596.83L235.262 596.83Z" fill="white"/>
<path fill-rule="evenodd" clip-rule="evenodd" d="M198.625 170.589L198.625 157.461L197.164 156L97.9214 156L96.4599 157.461L96.4599 169.136L97.9128 170.589L173.806 170.589L173.806 172.05L97.9128 221.636L96.4599 224.594V237.73L97.9128 239.192H197.164L198.625 237.73L198.625 226.056L197.164 224.594L121.27 224.594L121.27 223.098L197.164 173.512L198.625 170.589ZM198.625 264.002L198.625 275.677L197.164 277.129H97.9128L96.4599 275.677L96.4599 264.002L97.9128 262.523L197.164 262.523L198.625 264.002ZM198.625 301.931L198.625 293.179L197.155 291.718H186.933L97.9214 326.741L96.4599 328.203V341.339L97.9128 342.8L186.933 377.833H197.164L198.625 376.371L198.625 367.611L197.164 366.158L175.268 357.398L173.806 354.475L173.806 315.023L175.268 312.109L197.164 303.409L198.625 301.931ZM118.348 335.528L118.348 334.066L159.235 318.016L160.687 319.477L160.687 350.125L159.235 351.586L118.348 335.528ZM198.625 393.882L198.625 405.548L197.164 407.009L154.833 407.009L153.38 408.471L153.38 456.63L154.833 458.092L197.164 458.092L198.625 459.553L198.625 471.228L197.164 472.689H97.9128L96.4599 471.228L96.4599 459.553L97.9214 458.092L138.808 458.092L140.27 456.63L140.27 408.471L138.808 407.009L97.9214 407.009L96.4599 405.548L96.4599 393.882L97.9214 392.42L197.164 392.42L198.625 393.882ZM95 531.012C95 561.668 116.888 579.18 147.535 579.18C178.236 579.18 200.08 561.712 200.071 531.082C200.071 506.245 185.482 493.109 167.962 490.194L166.509 491.656L166.509 503.331L167.962 504.792C178.183 507.706 186.935 515.005 186.935 531.055C186.935 552.952 170.885 564.626 147.535 564.626C124.186 564.626 108.136 552.952 108.136 531.055C108.136 516.467 115.426 507.706 125.648 504.792L127.109 503.331L127.109 491.586L125.648 490.125C108.136 493.065 95 507.663 95 531.012ZM198.625 596.726L198.625 620.066L197.164 621.528H150.457L150.457 622.989L197.164 641.962L198.625 643.424L198.625 662.406L197.164 663.859L150.457 682.841L150.457 684.293H197.164L198.625 685.755L198.625 709.113L197.164 710.54H97.9128L96.4599 709.113L96.4599 681.379L97.9214 679.918L163.602 653.646L163.602 652.184L97.9214 625.912L96.4599 624.416L96.4599 596.682L97.9214 595.221L197.164 595.221L198.625 596.726ZM198.625 755.776L198.625 732.453L197.164 730.966L97.9214 730.966L96.4599 732.418L96.4599 755.776L97.9128 757.229H197.164L198.625 755.776ZM198.625 774.766V787.902L197.164 790.825L162.131 817.097L162.131 818.559L197.164 844.831L198.625 847.745L198.625 860.881L197.164 862.343L178.234 862.343L146.046 836.071H144.585L116.886 860.881L97.9128 860.881L96.4599 859.42L96.4599 846.249L97.9214 843.335L128.561 818.559L128.561 817.097L97.9128 792.313L96.4599 789.364V776.228L97.9214 774.766H116.886L144.62 799.585L146.046 799.585L178.234 773.313H197.207L198.625 774.766ZM198.625 876.933L198.625 951.365L197.164 952.826H97.9128L96.4599 951.365L96.4599 876.933L97.9214 875.471L116.886 875.471L118.348 876.933L118.348 925.093L119.809 926.554L134.398 926.554L135.859 925.093L135.859 879.856L137.321 878.394L156.294 878.394L157.756 879.856L157.756 925.093L159.217 926.554H175.268L176.729 925.093L176.729 876.933L178.19 875.471L197.164 875.471L198.625 876.933Z" fill="white"/>
<rect x="228.333" y="552.175" width="220" height="80" rx="12" transform="rotate(-90 228.333 552.175)" fill="white"/>
<path d="M292.485 508.204L292.485 527.333L244 527.333L244 509.53C244 505.789 244.577 502.696 245.729 500.25C246.865 497.788 248.428 495.957 250.416 494.757C252.389 493.542 254.63 492.934 257.14 492.934C259.981 492.934 262.23 493.676 263.887 495.16C265.544 496.628 266.673 498.656 267.272 501.244L267.675 501.244C267.99 498.577 269.19 496.32 271.273 494.473C273.357 492.611 276.071 491.68 279.417 491.68C283.252 491.68 286.393 493.061 288.84 495.823C291.27 498.569 292.485 502.696 292.485 508.204ZM251.86 517.982L264.526 517.982L264.526 510.24C264.526 504.827 262.403 502.12 258.158 502.12C256.485 502.12 255.017 502.672 253.754 503.777C252.492 504.882 251.86 506.871 251.86 509.743L251.86 517.982ZM278.375 500.818C276.466 500.818 274.816 501.449 273.428 502.712C272.023 503.959 271.321 505.86 271.321 508.417L271.321 517.982L284.625 517.982L284.625 508.772C284.625 505.947 284.057 503.919 282.921 502.688C281.769 501.441 280.254 500.818 278.375 500.818Z" fill="#267EDC"/>
<path d="M284.625 449.911L292.485 449.911L292.485 481.422L244 481.422L244 450.03L251.86 450.03L251.86 472.07L264.313 472.07L264.313 453.06L272.149 453.06L272.149 472.07L284.625 472.07L284.625 449.911Z" fill="#267EDC"/>
<path d="M244 402.218L251.86 402.218L251.86 416.754L292.485 416.754L292.485 426.034L251.86 426.034L251.86 440.57L244 440.57L244 402.218Z" fill="#267EDC"/>
<path d="M292.485 392.735L292.485 402.773L244 384.899L244 374.98L292.485 357.106L292.485 367.12L282.163 370.647L282.163 389.208L292.485 392.735ZM255.79 380.212L274.493 386.604L274.493 373.252L255.79 379.644L255.79 380.212Z" fill="#267EDC"/>
</svg>
