<svg width="404" height="1112" viewBox="0 0 404 1112" fill="none" xmlns="http://www.w3.org/2000/svg">
<path d="M0 20C0 8.95427 8.95431 0 20 0H404V1112H20C8.9543 1112 0 1103.05 0 1092V20Z" fill="#1F2F47"/>
<path d="M188.461 751.276L188.461 734.671L123.266 716.024L123.266 715.298L188.461 696.697L188.461 680.092L95.5459 653.869L95.5459 671.971L163.871 688.712L163.871 689.529L95.5459 707.449L95.5459 723.918L163.826 741.794L163.826 742.656L95.5459 759.397L95.5459 777.499L188.461 751.276Z" fill="white"/>
<path d="M189.868 630.142C189.868 619.208 184.741 612.675 178.889 609.68L178.889 609.136L188.461 609.136L188.461 593.347L141.822 593.347C123.402 593.347 117.867 608.365 117.867 621.658C117.867 636.312 124.401 647.563 137.104 651.193L139.282 635.858C134.518 634.225 130.435 629.597 130.435 621.567C130.435 613.945 134.336 609.771 141.187 609.771L141.459 609.771C146.178 609.771 146.404 614.716 147.72 627.011C149.172 640.531 153.21 653.461 168.907 653.461C182.609 653.461 189.868 643.435 189.868 630.142ZM177.8 625.877C177.8 632.728 174.669 637.628 168.635 637.628C162.329 637.628 159.698 632.138 158.654 624.788C158.064 620.478 156.975 611.858 155.251 609.726L163.463 609.726C171.221 609.726 177.8 615.987 177.8 625.877Z" fill="white"/>
<path d="M95.5459 560.569L95.5459 576.993L188.461 576.993L188.461 560.569L95.5459 560.569Z" fill="white"/>
<path d="M95.5459 527.417L95.5459 543.84L188.461 543.84L188.461 527.417L95.5459 527.417Z" fill="white"/>
<path d="M189.823 479.837C189.823 463.595 181.883 452.434 169.769 449.531L168.045 464.865C173.943 467.088 177.028 472.533 177.028 479.61C177.028 490.227 170.042 497.259 158.11 497.395L158.11 448.85L153.074 448.85C128.62 448.85 117.867 463.55 117.867 480.699C117.867 500.661 132.522 513.682 154.026 513.682C175.894 513.682 189.823 500.843 189.823 479.837ZM147.04 497.35C138.147 496.851 130.661 490.272 130.661 480.472C130.661 471.036 137.558 464.684 147.04 464.593L147.04 497.35Z" fill="white"/>
<path d="M118.775 400.318L118.775 414.064L102.079 414.064L102.079 430.488L118.775 430.488L118.775 440.378L131.478 440.378L131.478 430.488L170.087 430.488C183.244 430.579 189.686 421.051 189.278 408.711C189.187 404.038 188.28 400.817 187.645 399.047L174.851 401.815C175.032 402.722 175.486 404.582 175.486 406.624C175.486 410.753 174.034 414.064 167.41 414.064L131.478 414.064L131.478 400.318L118.775 400.318Z" fill="white"/>
<path fill-rule="evenodd" clip-rule="evenodd" d="M107.947 180.126L107.947 333.836C107.947 341.921 114.501 348.475 122.586 348.475L166.503 348.475C174.588 348.475 181.142 341.921 181.142 333.836L181.142 180.126C181.142 172.042 174.588 165.487 166.503 165.487L122.586 165.487C114.501 165.487 107.947 172.042 107.947 180.126ZM100.627 333.836C100.627 345.964 110.458 355.795 122.586 355.795L166.503 355.795C178.63 355.795 188.461 345.964 188.461 333.836L188.461 180.126C188.461 167.999 178.63 158.168 166.503 158.168L122.586 158.168C110.458 158.168 100.627 167.999 100.627 180.126L100.627 333.836Z" fill="white"/>
<path d="M164.507 323.691L164.507 308.608C164.507 300.075 160.158 295.89 154.354 295.89C148.714 295.89 145.402 299.893 145.202 303.859L144.838 303.859C143.983 300.22 141.436 297.345 136.905 297.345C131.356 297.345 127.244 301.348 127.244 309.427L127.244 323.691L164.507 323.691ZM158.867 316.941L147.95 316.941L147.95 309.499C147.95 305.333 150.497 302.749 153.827 302.749C156.792 302.749 158.867 304.787 158.867 309.681L158.867 316.941ZM143.092 316.941L132.812 316.941L132.812 310.118C132.812 306.152 134.904 304.096 137.779 304.096C141.054 304.096 143.092 306.752 143.092 310.264L143.092 316.941Z" fill="white"/>
<path d="M164.507 287.622L164.507 263.241L158.848 263.241L158.848 280.872L148.677 280.872L148.677 264.642L143.019 264.642L143.019 280.872L132.902 280.872L132.902 263.386L127.244 263.386L127.244 287.622L164.507 287.622Z" fill="white"/>
<path d="M132.902 255.742L132.902 244.224L164.507 244.224L164.507 237.529L132.902 237.529L132.902 226.011L127.244 226.011L127.244 255.742L132.902 255.742Z" fill="white"/>
<path d="M164.507 217.602L155.319 214.528L155.319 200.517L164.507 197.424L164.507 190.219L127.244 203.356L127.244 211.689L164.507 224.808L164.507 217.602ZM149.896 212.708L134.886 207.668L134.886 207.377L149.896 202.337L149.896 212.708Z" fill="white"/>
<path fill-rule="evenodd" clip-rule="evenodd" d="M269.109 671.089C269.109 685.243 279.089 693.328 293.064 693.328C307.062 693.328 317.022 685.263 317.018 671.122C317.018 659.655 310.366 653.59 302.377 652.245L301.715 652.92L301.715 658.31L302.377 658.984C307.038 660.33 311.029 663.699 311.029 671.109C311.029 681.218 303.71 686.608 293.064 686.608C282.417 686.608 275.099 681.218 275.099 671.109C275.099 664.374 278.423 660.33 283.083 658.984L283.75 658.31L283.75 652.888L283.083 652.213C275.099 653.57 269.109 660.31 269.109 671.089ZM316.36 830.794L316.36 865.157L315.694 865.832L270.438 865.832L269.775 865.157L269.775 830.794L270.442 830.119L279.089 830.119L279.755 830.794L279.755 853.028L280.422 853.703L287.074 853.703L287.74 853.028L287.74 832.143L288.407 831.469L297.058 831.469L297.724 832.143L297.724 853.028L298.391 853.703L305.709 853.703L306.376 853.028L306.376 830.794L307.042 830.119L315.694 830.119L316.36 830.794ZM316.36 783.626L316.36 789.691L315.694 791.04L299.72 803.17L299.72 803.844L315.694 815.974L316.36 817.319L316.36 823.384L315.694 824.058L307.062 824.058L292.385 811.929L291.719 811.929L279.089 823.384L270.438 823.384L269.775 822.709L269.775 816.628L270.442 815.283L284.412 803.844L284.412 803.17L270.438 791.727L269.775 790.366L269.775 784.301L270.442 783.626L279.089 783.626L291.735 795.085L292.385 795.085L307.062 782.956L315.713 782.956L316.36 783.626ZM316.36 774.859L316.36 764.091L315.694 763.404L270.442 763.404L269.775 764.075L269.775 774.859L270.438 775.53L315.694 775.53L316.36 774.859ZM316.36 701.428L316.36 712.204L315.694 712.879L294.396 712.879L294.396 713.554L315.694 722.313L316.36 722.988L316.36 731.751L315.694 732.422L294.396 741.186L294.396 741.856L315.694 741.856L316.36 742.531L316.36 753.315L315.694 753.974L270.438 753.974L269.775 753.315L269.775 740.511L270.442 739.836L300.39 727.707L300.39 727.032L270.442 714.903L269.775 714.212L269.775 701.408L270.442 700.734L315.694 700.734L316.36 701.428ZM316.36 607.781L316.36 613.167L315.694 613.841L296.392 613.841L295.729 614.516L295.729 636.75L296.392 637.425L315.694 637.425L316.36 638.1L316.36 643.49L315.694 644.165L270.438 644.165L269.775 643.49L269.775 638.1L270.442 637.425L289.085 637.425L289.751 636.75L289.751 614.516L289.085 613.841L270.442 613.841L269.775 613.167L269.775 607.781L270.442 607.106L315.694 607.106L316.36 607.781ZM316.36 565.328L316.36 561.287L315.69 560.613L311.029 560.613L270.442 576.782L269.775 577.457L269.775 583.522L270.438 584.196L311.029 600.37L315.694 600.37L316.36 599.695L316.36 595.651L315.694 594.98L305.709 590.936L305.043 589.586L305.043 571.372L305.709 570.027L315.694 566.011L316.36 565.328ZM279.755 580.839L279.755 580.164L298.399 572.754L299.061 573.429L299.061 587.578L298.399 588.253L279.755 580.839ZM316.36 547.818L316.36 553.207L315.694 553.878L270.438 553.878L269.775 553.207L269.775 547.818L270.438 547.135L315.694 547.135L316.36 547.818ZM316.36 504.69L316.36 498.63L315.694 497.955L270.442 497.955L269.775 498.63L269.775 504.02L270.438 504.69L305.043 504.69L305.043 505.365L270.438 528.258L269.775 529.624L269.775 535.688L270.438 536.363L315.694 536.363L316.36 535.688L316.36 530.298L315.694 529.624L281.088 529.624L281.088 528.933L315.694 506.04L316.36 504.69Z" fill="#F0F2F4"/>
<path d="M301.248 922.422C291.667 922.422 285.678 927.812 285.678 935.597C285.678 940.987 289.271 943.382 289.271 943.382L289.271 943.981L274.898 943.981L274.299 944.58L274.299 949.371L274.898 949.97L315.621 949.97L316.22 949.371L316.22 945.179L315.621 944.58L313.226 943.981L313.226 943.382C313.226 943.382 316.819 940.987 316.819 935.597C316.819 927.812 310.232 922.422 301.248 922.422ZM301.248 928.41C307.836 928.41 311.429 931.405 311.429 936.196C311.429 940.987 308.435 943.981 301.248 943.981C294.062 943.981 291.068 940.987 291.068 936.196C291.068 931.405 294.661 928.41 301.248 928.41Z" fill="#F0F2F4"/>
<path d="M291.068 890.08L286.876 890.08L286.277 890.679L286.277 894.272L286.876 894.871L309.034 903.256L309.034 903.854L286.876 912.239L286.277 912.837L286.277 916.431L286.876 917.03L291.068 917.03L316.22 906.849L316.819 906.849C319.813 908.046 320.412 909.843 320.412 912.837L320.412 914.035L321.011 914.634L325.203 914.634L325.802 914.035L325.802 912.837C325.802 905.651 324.006 903.256 315.022 899.662L291.068 890.08Z" fill="#F0F2F4"/>
<path d="M102.289 941.692L102.289 841.88C102.289 838.351 103.691 834.966 106.187 832.47C108.683 829.974 112.068 828.572 115.598 828.572L125.579 828.572L135.56 828.572C137.325 828.572 139.017 829.273 140.265 830.521C141.513 831.769 142.214 833.461 142.214 835.226C142.214 836.991 141.513 838.683 140.265 839.931C139.017 841.179 137.325 841.88 135.56 841.88L115.598 841.88L115.598 941.692L188.793 941.692L188.793 841.88L175.485 841.88C173.72 841.88 172.027 841.179 170.779 839.931C169.532 838.683 168.83 836.991 168.83 835.226C168.83 833.461 169.532 831.769 170.779 830.521C172.027 829.273 173.72 828.572 175.485 828.572L188.793 828.572C192.322 828.572 195.707 829.974 198.203 832.47C200.699 834.966 202.101 838.351 202.101 841.88L202.101 941.692C202.101 945.221 200.699 948.606 198.203 951.102C195.707 953.598 192.322 955 188.793 955L98.9623 955C93.668 955 88.5905 952.897 84.8468 949.153C81.1032 945.41 79 940.332 79 935.038L79 848.534C79 846.769 79.7011 845.077 80.9489 843.829C82.1968 842.581 83.8893 841.88 85.6541 841.88C87.4189 841.88 89.1114 842.581 90.3593 843.829C91.6072 845.077 92.3082 846.769 92.3082 848.534L92.3082 935.038C92.3082 936.802 93.0093 938.495 94.2572 939.743C95.505 940.991 97.1975 941.692 98.9623 941.692L102.289 941.692ZM155.522 821.918C153.757 821.918 152.065 822.619 150.817 823.867C149.569 825.115 148.868 826.807 148.868 828.572L148.868 868.497C148.868 870.261 149.569 871.954 150.817 873.202C152.065 874.45 153.757 875.151 155.522 875.151C157.287 875.151 158.98 874.45 160.227 873.202C161.475 871.954 162.176 870.261 162.176 868.497L162.176 828.572C162.176 826.807 161.475 825.115 160.227 823.867C158.98 822.619 157.287 821.918 155.522 821.918Z" fill="white"/>
</svg>
