<svg fill="none" height="1112" viewBox="0 0 404 1112" width="404" xmlns="http://www.w3.org/2000/svg"><path d="m0 0h404v1112h-404z" fill="#214885"/><g fill="#fff"><path d="m232.932 960.768h-79.591l-1.171 1.163v17.446l1.171 1.163 57.352 23.26v1.17l-57.352 23.26-1.171 1.16v17.45l1.171 1.16h79.591l1.17-1.16v-13.96l-1.17-1.16h-45.648v-1.17l45.648-18.61 1.17-1.16v-12.793l-1.17-1.163-45.648-18.61v-1.163h45.648l1.17-1.163v-13.957z"/><path d="m188.455 893.29h-11.705l-1.17 1.163v10.468l1.17 1.163 39.795 13.957v1.163l-39.795 13.957-1.17 1.163v10.468l1.17 1.163h11.705l45.647-18.609h1.171c3.511 1.163 4.682 2.326 4.682 8.141v5.816l1.17 1.163h11.705l1.17-1.163v-5.816c0-16.283-7.023-20.935-18.727-25.588z"/><path d="m193.136 856.039c24.58 0 42.137-13.958 42.137-39.546 0-9.305-2.341-17.446-5.853-23.262v-1.163l4.682-4.652v-8.142l-1.17-1.163h-11.705l-3.511 3.489h-2.341c-4.682-2.326-11.705-4.652-22.239-4.652-24.579 0-42.136 13.957-42.136 39.545s17.557 39.546 42.136 39.546zm0-16.284c-16.386 0-28.091-6.978-28.091-23.262 0-16.283 11.705-23.262 28.091-23.262 3.512 0 7.023 0 10.534 1.163v1.164l-8.193 8.141-1.17 2.326v19.773l1.17 1.163h10.534l1.171-1.163v-11.631l9.363-9.305h2.341c1.171 2.327 2.341 5.816 2.341 11.631 0 16.284-11.704 23.262-28.091 23.262z"/><path d="m176.75 766.507h35.114c14.045 0 23.409-8.141 23.409-22.099 0-10.467-5.853-13.957-5.853-13.957v-1.163l3.512-1.163 1.17-1.163v-12.794l-1.17-1.163h-56.182l-1.17 1.163v13.957l1.17 1.163h30.432c8.193 0 14.045 3.489 14.045 11.631 0 6.979-4.682 9.305-10.534 9.305h-33.943l-1.17 1.163v13.957z"/><path d="m204.841 644.346c-18.727 0-30.432 11.631-30.432 29.077 0 17.447 11.705 29.078 30.432 29.078s30.432-11.631 30.432-29.078c0-17.446-11.705-29.077-30.432-29.077zm0 16.283c10.534 0 16.386 4.652 16.386 12.794s-5.852 12.794-16.386 12.794-16.386-4.652-16.386-12.794 5.852-12.794 16.386-12.794z"/><path d="m188.455 595.545h-11.705l-1.17 1.163v6.979c0 10.468 4.681 12.794 4.681 12.794v1.163l-3.511 1.163-1.17 1.163v12.795l1.17 1.163h56.182l1.17-1.163v-13.958l-1.17-1.163h-28.091c-10.534 0-15.216-3.489-15.216-12.794v-8.142z"/><path d="m176.75 587.385h35.114c14.045 0 23.409-8.141 23.409-22.098 0-10.468-5.853-13.958-5.853-13.958v-1.163l3.512-1.163 1.17-1.163v-12.794l-1.17-1.163h-56.182l-1.17 1.163v13.957l1.17 1.163h30.432c8.193 0 14.045 3.49 14.045 11.631 0 6.979-4.682 9.305-10.534 9.305h-33.943l-1.17 1.163v13.957z"/><path d="m232.932 431.494h-35.114c-15.216 0-23.409 8.142-23.409 22.099 0 12.794 8.193 17.446 8.193 17.446v1.163c-3.511 2.327-8.193 6.979-8.193 16.284 0 10.468 5.852 13.957 5.852 13.957v1.163l-3.511 1.163-1.17 1.163v12.794l1.17 1.163h56.182l1.17-1.163v-13.957l-1.17-1.163h-31.602c-8.194 0-12.875-3.489-12.875-10.468 0-6.978 4.681-9.305 10.534-9.305h33.943l1.17-1.163v-13.957l-1.17-1.163h-31.602c-8.194 0-12.875-3.489-12.875-10.468s4.681-9.305 10.534-9.305h33.943l1.17-1.163v-13.957z"/><path d="m152.17 347.764 1.171 1.163 53.841 15.121v1.163l-53.841 11.631-1.171 1.163v11.631l1.171 1.163h11.704l67.887-17.446 1.17-1.164v-15.12l-1.17-1.163-56.182-15.12v-1.163l56.182-15.121 1.17-1.163v-15.12l-1.17-1.163-67.887-17.447h-11.704l-1.171 1.164v11.631l1.171 1.163 53.841 11.631v1.163l-53.841 15.12-1.171 1.163z"/><path d="m232.932 236.061h-31.602c-17.557 0-26.921 5.816-26.921 24.426 0 18.609 10.534 24.425 17.557 24.425l1.17-1.163v-13.958l-1.17-1.163c-3.511-1.163-3.511-4.652-3.511-8.141 0-6.979 1.17-8.142 7.022-8.142h1.171l1.17 1.163s-1.17 3.489-1.17 8.142c0 9.304 2.341 25.588 19.897 25.588 11.705 0 18.728-8.142 18.728-20.936 0-8.142-4.682-12.794-4.682-12.794v-1.163l2.341-1.163 1.17-1.163v-12.794zm-22.239 16.284h2.341c4.682 0 8.193 4.652 8.193 10.468 0 5.815-2.341 8.141-5.852 8.141-4.682 0-7.023-3.489-7.023-10.467 0-4.653 1.171-6.979 1.171-6.979z"/><path d="m232.932 207.038h-79.591l-1.171 1.164v13.957l1.171 1.163h79.591l1.17-1.163v-13.957z"/><path d="m232.932 176.825h-79.591l-1.171 1.163v13.958l1.171 1.163h79.591l1.17-1.163v-13.958z"/><path d="m204.841 110.556c-16.386 0-30.432 9.305-30.432 27.914 0 18.61 14.046 27.915 30.432 27.915s30.432-9.305 30.432-29.078c0-17.446-10.534-23.262-17.557-24.425l-1.171 1.163v13.957l1.171 1.163c2.341 1.163 3.511 4.653 3.511 8.142 0 9.305-7.022 11.631-9.363 11.631l-1.171-1.163v-36.056l-1.17-1.163zm-5.852 18.609v18.61l-1.171 1.163c-1.17 0-9.363-1.163-9.363-10.468s8.193-10.468 9.363-10.468z"/><path d="m190.795 79.1203-1.17-1.1631v-12.794l-1.17-1.1632h-11.705l-1.17 1.1632v12.794l-1.171 1.1631h-10.534l-1.17 1.1631v13.9572l1.17 1.1631h10.534l1.171 1.1631v8.1412l1.17 1.164h11.705l1.17-1.164v-8.1412l1.17-1.1631h25.75c12.875 0 17.557-9.3048 17.557-19.7727v-10.4678l-1.17-1.1632h-11.705l-1.17 1.1632v10.4678c0 2.3262-1.171 3.4893-3.512 3.4893z"/></g></svg>