<svg viewBox="0 0 400 132.95" xmlns="http://www.w3.org/2000/svg" xmlns:xlink="http://www.w3.org/1999/xlink"><linearGradient id="a" gradientUnits="userSpaceOnUse" x2="66.12" y1="102.53" y2="102.53"><stop offset=".27" stop-color="#55769d"/><stop offset="1" stop-color="#435f80"/></linearGradient><linearGradient id="b" gradientUnits="userSpaceOnUse" x1="52.18" x2="23.04" y1="10.2" y2="94.73"><stop offset=".13" stop-color="#2c415b"/><stop offset=".38" stop-color="#3c5676"/><stop offset=".69" stop-color="#55769d"/><stop offset=".79" stop-color="#53749a"/><stop offset=".86" stop-color="#4d6c91"/><stop offset=".93" stop-color="#436081"/><stop offset=".98" stop-color="#364f6b"/><stop offset="1" stop-color="#314963"/></linearGradient><linearGradient id="c" gradientUnits="userSpaceOnUse" x1="87.78" x2="13.02" y1="48.88" y2="5.72"><stop offset="0" stop-color="#55769d"/><stop offset=".48" stop-color="#54749b"/><stop offset=".69" stop-color="#506f94"/><stop offset=".85" stop-color="#486587"/><stop offset=".91" stop-color="#445f80"/></linearGradient><linearGradient id="d" gradientUnits="userSpaceOnUse" x1="130.65" x2="57.41" y1="24.63" y2="24.63"><stop offset=".25" stop-color="#20344c"/><stop offset=".41" stop-color="#273d57"/><stop offset=".68" stop-color="#395473"/><stop offset="1" stop-color="#55769d"/></linearGradient><linearGradient id="e" gradientUnits="userSpaceOnUse" x1="-28.31" x2="47.41" y1="24.61" y2="24.61"><stop offset=".25" stop-color="#55769d"/><stop offset=".41" stop-color="#4e6d92"/><stop offset=".69" stop-color="#3c5776"/><stop offset="1" stop-color="#233850"/></linearGradient><linearGradient id="f" gradientUnits="userSpaceOnUse" x1="52.82" x2="51.33" y1="-29.23" y2="32.92"><stop offset=".01" stop-color="#55769d"/><stop offset=".2" stop-color="#517197"/><stop offset=".45" stop-color="#476487"/><stop offset=".74" stop-color="#354e6c"/><stop offset="1" stop-color="#21354d"/></linearGradient><linearGradient id="g" gradientUnits="userSpaceOnUse" x1="66.11" x2="4.9" y1="-8.57" y2="50.84"><stop offset=".25" stop-color="#55769d"/><stop offset=".41" stop-color="#4e6d92"/><stop offset=".69" stop-color="#3c5676"/><stop offset="1" stop-color="#22364e"/></linearGradient><linearGradient id="h" x1="43.89" x2="94.9" xlink:href="#g" y1="-.64" y2="44.85"/><linearGradient id="i" x1="-12.14" x2="97.32" xlink:href="#a" y1="88.32" y2="127.38"/><linearGradient id="j" gradientUnits="userSpaceOnUse" x1="37.32" x2="102.47" y1="-25.62" y2="32.43"><stop offset=".46" stop-color="#55769d" stop-opacity="0"/><stop offset=".58" stop-color="#527298" stop-opacity=".06"/><stop offset=".71" stop-color="#486689" stop-opacity=".23"/><stop offset=".82" stop-color="#385170" stop-opacity=".51"/><stop offset=".94" stop-color="#21354d" stop-opacity=".91"/><stop offset=".97" stop-color="#1c2e45"/></linearGradient><linearGradient id="k" x1="52.13" x2="52.13" xlink:href="#g" y1="132.98" y2="-36.4"/><path d="m107.06 76.06c-5.81 0-12 2.29-12 7.84 0 5 5.68 6.4 12.41 7.51 9.15 1.44 18.16 3.27 18.16 13.59s-9.88 13.6-18.63 13.6c-8.1 0-15.81-2.94-19.34-10.58l4.7-2.74c2.94 5.42 9.08 8 14.7 8s12.94-1.74 12.94-8.47c.07-5.68-6.34-7.32-13.2-8.36-8.8-1.37-17.38-3.4-17.38-12.68-.13-9.54 9.58-12.77 17.51-12.77 6.8 0 13.26 1.37 17.31 8.3l-4.31 2.68c-2.49-3.98-7.78-5.85-12.87-5.92z" fill="#354e6b"/><path d="m134.94 72v18.76c2.74-4.25 7.06-5.68 11.17-5.75 9.08 0 13.52 6 13.52 14.9v17.77h-5.29v-17.68c0-6.34-3.27-9.93-9.15-9.93a10.16 10.16 0 0 0 -10.19 10.49v17.12h-5.36v-45.73h5.29z" fill="#354e6b"/><path d="m192.36 117.81-.13-5.88a13.66 13.66 0 0 1 -11.89 6.53c-9.28 0-16.53-6.4-16.53-16.92s7.38-16.73 16.59-16.66c4.83 0 9.6 2.22 12 6.4l.07-5.88h5.23v32.27h-5.16zm-11.76-27.81c-6.4 0-11.6 4.55-11.6 11.74s5.16 11.83 11.56 11.83c15.55 0 15.55-23.65.07-23.65z" fill="#354e6b"/><path d="m201.94 85.54h5.06l.26 6.21a14.27 14.27 0 0 1 12.41-6.79c9.28.2 16.07 6.73 16.07 16.66 0 10.19-6.73 16.79-16.4 16.79-4.57 0-9.67-2-12.22-6.53v21h-5.23zm28.49 16.2c0-7.25-4.77-11.56-11.37-11.56s-11.3 5-11.3 11.56a11.22 11.22 0 0 0 11.3 11.63c6.46 0 11.36-4.37 11.36-11.63z" fill="#354e6b"/><path d="m270.35 112.52c-3.27 3.85-8.89 5.75-13.92 5.75-10 0-17-6.6-17-16.86 0-9.73 7-16.73 16.73-16.73s17.38 6.08 16.14 18.95h-27.43c.59 5.95 5.49 9.67 11.69 9.67 3.66 0 8.1-1.44 10.26-4.05l3.59 3.27zm-3.14-13.33c-.26-6.27-4.57-9.67-10.91-9.67-5.62 0-10.52 3.4-11.43 9.6h22.34z" fill="#354e6b"/><g fill="#55769d"><path d="m294.13 76.06c-5.81 0-12 2.29-12 7.84 0 5 5.68 6.4 12.41 7.51 9.15 1.44 18.16 3.27 18.16 13.59s-9.87 13.59-18.62 13.59c-8.1 0-15.81-2.94-19.34-10.58l4.7-2.74c2.94 5.42 9.08 8 14.7 8s12.94-1.76 12.94-8.49c.07-5.68-6.34-7.32-13.2-8.36-8.82-1.37-17.38-3.4-17.38-12.67-.14-9.52 9.59-12.75 17.5-12.75 6.8 0 13.26 1.37 17.31 8.3l-4.31 2.64c-2.48-3.94-7.77-5.81-12.87-5.88z"/><path d="m322 72v18.76c2.74-4.25 7.06-5.68 11.17-5.75 9.08 0 13.52 6 13.52 14.9v17.77h-5.29v-17.68c0-6.34-3.27-9.93-9.15-9.93a10.16 10.16 0 0 0 -10.19 10.52v17.12h-5.36v-45.76h5.3z"/><path d="m351.07 117.68h5.36v-31.82h-5.36zm2.75-36.68-4.24-4.64 4.24-4.64 4.24 4.64z"/><path d="m366.43 117.75v-.07h-.06z"/><path d="m371.72 83.25c0-4.83 2.22-7 5.68-7h.2l1.21-4.6a12 12 0 0 0 -1.54-.11c-6.79 0-10.85 4.31-10.85 11.69v2.57h-6.32v4.7h6.34v27.18h5.29v-27.18h6.41v-4.7h-6.41z"/><path d="m398.94 113.2a8 8 0 0 1 -1.24.11c-3.85 0-5.1-2.42-5.1-6.21v-16.64h6.88v-4.64h-6.81v-9.82l-5.36.59v9.23h-6.47v4.64h6.47v16.64c0 7.12 3.27 11.17 10.19 11a14.34 14.34 0 0 0 2.49-.3z"/></g><path d="m.02 72.12-.02 16.88 23.14 36.08 24.82 7.87 18.16-11.53z" fill="url(#a)"/><path d="m37.28 38.53-37.23 32.68 51.89 29.87.19-61.57z" fill="url(#b)"/><path d="m31.98 58.74 20.01 53.43.14-50.45z" fill="#466284"/><path d="m72 58.93-20.01 53.24.14-50.45z" fill="#354e6b"/><path d="m87.92.03-19.86 10.43-15.9 3.49-16.04-3.49-19.8-10.46 6.82 31.52-6.49 17.7 22.73 14.11 12.65 13.71v.13l.06-.07.06.07v-.13l12.65-13.71 22.78-14.1-6.47-17.68z" fill="url(#c)"/><path d="m87.92.03-5.52 31.58 5.18 17.62-6.47-17.68z" fill="url(#d)"/><path d="m16.32 0 5.55 31.59-5.22 17.63 6.49-17.7z" fill="url(#e)"/><path d="m16.32 0 23.12 9.66h25.37l23.11-9.63-19.86 10.43-15.9 3.49-16.04-3.49z" fill="url(#f)"/><path d="m23.14 31.52-1.15 3.15 23.99-22.08z" fill="url(#g)"/><path d="m81.11 31.55-22.73-18.96 23.83 21.94z" fill="url(#h)"/><path d="m.05 71.21 55.77 30.77 7.06 17.65-14.94 5.71-23.26-2.42-24.64-33.92z" fill="url(#i)"/><path d="m46.2 96.71-21.46 26.13-.06.08 23.23 7.8.03.01 18.14-9.29.04-.02v-13.79z" fill="#fff"/><path d="m81.11 31.55 6.81-31.52-19.86 10.43-9.68 2.13z" fill="url(#j)"/><path d="m52.13 77.17-6.31-6.92 6.31-6.91 6.32 6.91z" fill="#fff"/><path d="m51.52 13.8.64.15.58-.13-.62 40.24z" fill="url(#k)"/></svg>