<svg height="620" viewBox="0 0 620 620" width="620" xmlns="http://www.w3.org/2000/svg" xmlns:xlink="http://www.w3.org/1999/xlink"><mask id="a" fill="#fff"><circle cx="170" cy="170" fill="none" r="170"/></mask><mask id="b" fill="#fff"><circle cx="170" cy="170" fill="none" r="170"/></mask><g fill="none" fill-rule="evenodd"><g transform="translate(0 280)"><circle cx="170" cy="170" r="160" stroke="#007896" stroke-width="20"/><path d="m-1.133333 1.133333h173.4v340h-173.4z" fill="#ffe14d" mask="url(#a)"/><path d="m171.133333 1.133333h173.4v340h-173.4z" fill="#fc3" mask="url(#a)"/><g stroke-width="20"><circle cx="170" cy="170" mask="url(#a)" r="160" stroke="#333"/><circle cx="170" cy="170" mask="url(#a)" r="96.333333" stroke="#f28618"/></g></g><g transform="translate(280)"><circle cx="170" cy="170" r="160" stroke="#007896" stroke-width="20"/><path d="m-1.133333 1.133333h173.4v340h-173.4z" fill="#6ea6e8" mask="url(#b)"/><path d="m171.133333 1.133333h173.4v340h-173.4z" fill="#5c9be4" mask="url(#b)"/><g stroke-width="20"><circle cx="170" cy="170" mask="url(#b)" r="160" stroke="#333"/><circle cx="170" cy="170" mask="url(#b)" r="96.333333" stroke="#2f79cf"/></g></g><g fill-rule="nonzero"><g transform="translate(226 320)"><path d="m311.67 8h73.75v163.31h-240.71v63.22l-131.71-100.09 131.71-100.1v63.22h166.96z" fill="#0492be"/><path d="m348.54 134.44h-335.54l131.71 100.09v-63.22h240.71v-163.31h-36.88z" fill="#103957" opacity=".2"/><path d="m152.66 250.36-152.66-116 152.66-116v71.25h151.16v-89.61h89.56v179.11h-240.72zm-126.55-116 110.74 84.16v-55.21h240.73v-147.51h-57.95v89.56h-182.77v-55.19z" fill="#000"/></g><g transform="matrix(-1 0 0 -1 394 300)"><path d="m311.67 8h73.75v163.31h-240.71v63.22l-131.71-100.09 131.71-100.1v63.22h166.96z" fill="#0492be"/><path d="m348.54 134.44h-335.54l131.71 100.09v-63.22h240.71v-163.31h-36.88z" fill="#103957" opacity=".2"/><path d="m152.66 250.36-152.66-116 152.66-116v71.25h151.16v-89.61h89.56v179.11h-240.72zm-126.55-116 110.74 84.16v-55.21h240.73v-147.51h-57.95v89.56h-182.77v-55.19z" fill="#000"/></g></g></g></svg>