<svg width="80" height="80" viewBox="0 0 80 80" fill="none" xmlns="http://www.w3.org/2000/svg">
<path d="M80 0H0V80H80V0Z" fill="white"/>
<path d="M63.0056 25.2714V25.5705C63.0056 26.0227 62.8276 26.4567 62.5099 26.7785C62.1922 27.1004 61.7606 27.2842 61.3084 27.2901H54.2056V23.5518H61.3084C61.7606 23.5577 62.1922 23.7414 62.5099 24.0633C62.8276 24.3851 63.0056 24.8192 63.0056 25.2714Z" fill="#CFE6FF"/>
<path d="M61.3084 27.6637H54.2056C54.1065 27.6637 54.0114 27.6243 53.9413 27.5542C53.8712 27.4841 53.8318 27.389 53.8318 27.2899V23.5516C53.8318 23.4524 53.8712 23.3573 53.9413 23.2872C54.0114 23.2171 54.1065 23.1777 54.2056 23.1777H61.3084C61.8636 23.1777 62.3961 23.3983 62.7887 23.7909C63.1813 24.1835 63.4019 24.716 63.4019 25.2712V25.5703C63.4019 25.8452 63.3477 26.1174 63.2425 26.3714C63.1373 26.6254 62.9831 26.8562 62.7887 27.0506C62.5943 27.2449 62.3635 27.3992 62.1096 27.5044C61.8556 27.6096 61.5833 27.6637 61.3084 27.6637ZM54.5795 26.9161H61.3084C61.6647 26.9141 62.0059 26.7717 62.2579 26.5197C62.5098 26.2677 62.6523 25.9266 62.6542 25.5703V25.2712C62.6523 24.9149 62.5098 24.5737 62.2579 24.3217C62.0059 24.0698 61.6647 23.9274 61.3084 23.9254H54.5795V26.9161Z" fill="#256FC7"/>
<path d="M60.5009 23.7763V24.0753C60.5009 24.5314 60.3198 24.9688 59.9973 25.2913C59.6748 25.6138 59.2374 25.795 58.7813 25.795H54.2056V22.0566H58.7813C59.2374 22.0566 59.6748 22.2378 59.9973 22.5603C60.3198 22.8828 60.5009 23.3202 60.5009 23.7763Z" fill="#CFE6FF"/>
<path d="M58.7813 26.1686H54.2056C54.1065 26.1686 54.0114 26.1292 53.9413 26.0591C53.8712 25.989 53.8318 25.8939 53.8318 25.7948V22.0564C53.8318 21.9573 53.8712 21.8622 53.9413 21.7921C54.0114 21.722 54.1065 21.6826 54.2056 21.6826H58.7813C59.3365 21.6826 59.869 21.9032 60.2616 22.2958C60.6542 22.6884 60.8748 23.2209 60.8748 23.7761V24.0751C60.8748 24.6304 60.6542 25.1628 60.2616 25.5554C59.869 25.948 59.3365 26.1686 58.7813 26.1686ZM54.5795 25.4209H58.7813C59.1376 25.419 59.4788 25.2766 59.7308 25.0246C59.9827 24.7726 60.1251 24.4315 60.1271 24.0751V23.7761C60.1251 23.4198 59.9827 23.0786 59.7308 22.8266C59.4788 22.5747 59.1376 22.4322 58.7813 22.4303H54.5795V25.4209Z" fill="#256FC7"/>
<path d="M78.0262 15.3049L75.514 15.6563C75.0851 15.6998 74.6518 15.6513 74.243 15.5143L63.4019 11.8582C62.77 11.6453 62.0913 11.6122 61.4418 11.7627C60.7922 11.9133 60.1972 12.2414 59.7234 12.7105L52.2841 20.1872C52.0528 20.4184 51.8694 20.6929 51.7442 20.995C51.6191 21.2971 51.5546 21.6209 51.5546 21.9479C51.5546 22.2749 51.6191 22.5987 51.7442 22.9008C51.8694 23.203 52.0528 23.4775 52.2841 23.7087L61.1888 24.075C62.1574 25.5124 63.5428 26.6186 65.1589 27.2451C66.8493 27.9299 68.7374 27.9432 70.4374 27.2825C71.9687 26.7016 73.3021 25.6951 74.2804 24.3816L74.4598 24.3292H79.6262" fill="white"/>
<path d="M67.843 28.1127C66.8849 28.1081 65.9363 27.9229 65.0467 27.5669C63.4213 26.9327 62.0176 25.8357 61.0093 24.4118L52.2916 24.0529C52.1987 24.0457 52.1114 24.006 52.0449 23.9408C51.5093 23.4039 51.2086 22.6766 51.2086 21.9183C51.2086 21.1601 51.5093 20.4327 52.0449 19.8959L59.5215 12.4567C60.038 11.9386 60.689 11.5751 61.4011 11.4074C62.1131 11.2396 62.8579 11.2741 63.5514 11.5071L74.4075 15.1632C74.7637 15.2811 75.1409 15.3218 75.514 15.2828L77.9738 14.9539C78.0221 14.9454 78.0717 14.9469 78.1194 14.9583C78.1671 14.9697 78.2119 14.9908 78.2512 15.0202C78.2904 15.0497 78.3232 15.0868 78.3475 15.1294C78.3718 15.172 78.3871 15.2191 78.3925 15.2679C78.4 15.3165 78.3977 15.3661 78.386 15.4138C78.3742 15.4616 78.3531 15.5065 78.3239 15.5461C78.2948 15.5857 78.2581 15.6191 78.216 15.6445C78.1738 15.6699 78.1271 15.6867 78.0785 15.694L75.5738 16.038C75.0896 16.0914 74.5996 16.0378 74.1383 15.881L63.2822 12.2099C62.7176 12.0152 62.1097 11.982 61.5271 12.1141C60.9446 12.2462 60.4105 12.5383 59.9851 12.9576L52.5533 20.3894C52.1746 20.7686 51.9539 21.2775 51.9359 21.8132C51.9178 22.3489 52.1037 22.8714 52.4561 23.2753L61.2037 23.6417C61.2627 23.6451 61.3201 23.6616 61.3719 23.6901C61.4236 23.7186 61.4684 23.7582 61.5028 23.8062C62.4298 25.1816 63.755 26.2407 65.3009 26.8417C66.892 27.4935 68.6705 27.5202 70.2804 26.9165C71.7458 26.3612 73.022 25.3988 73.9589 24.1426C74.009 24.0746 74.0798 24.0247 74.1608 24.0006L74.3477 23.9557C74.3794 23.9468 74.4131 23.9468 74.4449 23.9557H79.6262C79.7253 23.9557 79.8204 23.9951 79.8905 24.0652C79.9606 24.1353 80 24.2304 80 24.3296C80 24.4287 79.9606 24.5238 79.8905 24.5939C79.8204 24.664 79.7253 24.7034 79.6262 24.7034H74.5047C73.4904 26.0239 72.1287 27.0361 70.572 27.6267C69.701 27.9591 68.7751 28.124 67.843 28.1127Z" fill="#256FC7"/>
<path d="M73.6822 25.4216C73.585 25.4206 73.4916 25.3833 73.4206 25.3169C73.3855 25.2821 73.3577 25.2408 73.3387 25.1952C73.3198 25.1497 73.31 25.1008 73.31 25.0515C73.31 25.0021 73.3198 24.9533 73.3387 24.9077C73.3577 24.8621 73.3855 24.8208 73.4206 24.786C74.0807 24.0611 74.5756 23.2014 74.871 22.2664C74.9008 22.1673 74.9687 22.084 75.0598 22.0349C75.151 21.9859 75.2579 21.975 75.357 22.0047C75.4562 22.0345 75.5394 22.1024 75.5885 22.1935C75.6376 22.2847 75.6484 22.3916 75.6187 22.4907C75.2823 23.5411 74.721 24.5056 73.9738 25.3169C73.9355 25.3542 73.8897 25.3828 73.8394 25.4009C73.7891 25.4189 73.7355 25.426 73.6822 25.4216Z" fill="#256FC7"/>
<path d="M61.6822 18.692C61.6075 18.6925 61.5344 18.6705 61.4723 18.629C61.4102 18.5875 61.3619 18.5283 61.3337 18.4591C61.3056 18.3899 61.2988 18.3138 61.3143 18.2407C61.3297 18.1676 61.3668 18.1009 61.4206 18.049L63.0355 16.449C63.1069 16.3796 63.2029 16.3414 63.3025 16.3428C63.402 16.3442 63.497 16.3851 63.5664 16.4565C63.6358 16.5279 63.674 16.6239 63.6726 16.7235C63.6712 16.823 63.6303 16.9179 63.5589 16.9873L61.9439 18.5649C61.8764 18.6395 61.7826 18.6851 61.6822 18.692Z" fill="#256FC7"/>
<path d="M19.4243 29.4806L43.3121 5.59277L59.9626 22.3105L36.1047 46.161L19.4243 29.4806Z" fill="#CFE6FF"/>
<path d="M24.9794 28.1042L45.3981 7.68555L59.9626 22.3024L38.5196 43.7528L24.9794 30.2126V28.1042Z" fill="#B1D4F8"/>
<path d="M36.1047 46.5344C36.0071 46.5349 35.9132 46.4974 35.843 46.4297L19.1551 29.7418C19.0866 29.672 19.0483 29.578 19.0483 29.4802C19.0483 29.3823 19.0866 29.2883 19.1551 29.2185L43.0804 5.33062C43.1437 5.27191 43.2258 5.23748 43.3121 5.23342C43.3612 5.23283 43.4098 5.2425 43.4548 5.26181C43.4999 5.28113 43.5404 5.30966 43.5738 5.34557L60.2243 22.0409C60.2593 22.0757 60.2871 22.117 60.3061 22.1626C60.3251 22.2081 60.3349 22.257 60.3349 22.3063C60.3349 22.3557 60.3251 22.4045 60.3061 22.4501C60.2871 22.4956 60.2593 22.537 60.2243 22.5717L36.3663 46.4297C36.2953 46.4961 36.2019 46.5334 36.1047 46.5344ZM19.9476 29.4802L36.1047 45.6073L59.4318 22.2727L43.3121 6.12314L19.9476 29.4802Z" fill="#256FC7"/>
<path d="M63.1775 24.2997H51.3869C50.5937 24.2997 49.833 23.9846 49.2722 23.4237C48.7113 22.8629 48.3962 22.1022 48.3962 21.309C48.3962 20.5158 48.7113 19.7552 49.2722 19.1943C49.833 18.6334 50.5937 18.3184 51.3869 18.3184H63.9252" fill="white"/>
<path d="M63.1775 24.6733H51.3869C50.4946 24.6733 49.6388 24.3188 49.0078 23.6879C48.3769 23.0569 48.0224 22.2011 48.0224 21.3088C48.0224 20.4165 48.3769 19.5607 49.0078 18.9298C49.6388 18.2988 50.4946 17.9443 51.3869 17.9443H63.9252C64.0243 17.9443 64.1194 17.9837 64.1895 18.0538C64.2596 18.1239 64.299 18.219 64.299 18.3182C64.299 18.4173 64.2596 18.5124 64.1895 18.5825C64.1194 18.6526 64.0243 18.692 63.9252 18.692H51.3869C50.6929 18.692 50.0273 18.9677 49.5365 19.4584C49.0458 19.9492 48.7701 20.6148 48.7701 21.3088C48.7701 22.0028 49.0458 22.6684 49.5365 23.1592C50.0273 23.6499 50.6929 23.9256 51.3869 23.9256H63.1775C63.2767 23.9256 63.3718 23.965 63.4419 24.0351C63.512 24.1052 63.5514 24.2003 63.5514 24.2995C63.5514 24.3986 63.512 24.4937 63.4419 24.5638C63.3718 24.6339 63.2767 24.6733 63.1775 24.6733Z" fill="#256FC7"/>
<path d="M51.5888 22.8119C52.4146 22.8119 53.0841 22.1425 53.0841 21.3166C53.0841 20.4908 52.4146 19.8213 51.5888 19.8213C50.7629 19.8213 50.0934 20.4908 50.0934 21.3166C50.0934 22.1425 50.7629 22.8119 51.5888 22.8119Z" fill="#CFE6FF"/>
<path d="M51.5888 23.559C51.1454 23.5586 50.7121 23.4268 50.3436 23.1803C49.9752 22.9339 49.688 22.5837 49.5184 22.1741C49.3488 21.7645 49.3043 21.3138 49.3907 20.879C49.4771 20.4441 49.6904 20.0446 50.0037 19.7309C50.4316 19.325 50.9989 19.0986 51.5888 19.0986C52.1786 19.0986 52.7459 19.325 53.1738 19.7309C53.4871 20.0446 53.7004 20.4441 53.7868 20.879C53.8732 21.3138 53.8288 21.7645 53.6591 22.1741C53.4895 22.5837 53.2024 22.9339 52.8339 23.1803C52.4654 23.4268 52.0321 23.5586 51.5888 23.559ZM51.5888 19.8207C51.1922 19.8207 50.8118 19.9782 50.5314 20.2586C50.251 20.5391 50.0934 20.9194 50.0934 21.316C50.0924 21.5624 50.1522 21.8052 50.2677 22.0228C50.3831 22.2405 50.5505 22.4262 50.755 22.5636C50.9595 22.701 51.1948 22.7857 51.4399 22.8102C51.6851 22.8347 51.9325 22.7983 52.1601 22.7041C52.3878 22.61 52.5887 22.4611 52.7449 22.2706C52.9011 22.0801 53.0079 21.854 53.0557 21.6123C53.1035 21.3706 53.0908 21.1208 53.0188 20.8852C52.9468 20.6496 52.8177 20.4355 52.643 20.2618C52.3638 19.981 51.9847 19.8223 51.5888 19.8207Z" fill="#256FC7"/>
<path d="M51.4392 73.6446H20.3364L18.3177 71.611V45.2334H53.4579V71.611L51.4392 73.6446Z" fill="#E8F2FE"/>
<path d="M53.4579 48.9717H23.5514L21.3084 51.2147V71.6109L23.3271 73.6446H51.4392L53.4579 71.6109V48.9717Z" fill="white"/>
<path d="M51.4392 74.0183H20.3364C20.2874 74.0188 20.2388 74.0092 20.1937 73.9899C20.1487 73.9706 20.1081 73.942 20.0748 73.9061L18.0561 71.8799C18.0199 71.8451 17.9914 71.8033 17.9721 71.757C17.9528 71.7107 17.9432 71.6609 17.9439 71.6108V45.2332C17.9439 45.1341 17.9833 45.039 18.0534 44.9689C18.1235 44.8988 18.2186 44.8594 18.3177 44.8594H53.4579C53.5571 44.8594 53.6522 44.8988 53.7223 44.9689C53.7924 45.039 53.8318 45.1341 53.8318 45.2332V71.6108C53.8325 71.6609 53.8229 71.7107 53.8036 71.757C53.7843 71.8033 53.7557 71.8451 53.7196 71.8799L51.7009 73.9061C51.6675 73.942 51.627 73.9706 51.5819 73.9899C51.5369 74.0092 51.4883 74.0188 51.4392 74.0183ZM20.4934 73.2706H51.2822L53.0841 71.4612V45.607H18.6916V71.4612L20.4934 73.2706Z" fill="#256FC7"/>
<path d="M15.9028 40L15.3271 40.6131V44.6206L15.9028 45.2336H55.1252L55.7009 44.6206V40.6131L55.1252 40H15.9028Z" fill="#E8F2FE"/>
<path d="M18.4822 41.8691L17.9439 42.2654V44.8374L18.4822 45.2336H55.1626L55.7009 44.8374V42.2654L55.1626 41.8691H18.4822Z" fill="white"/>
<path d="M55.1252 45.6073H15.9028C15.852 45.6075 15.8018 45.597 15.7554 45.5764C15.709 45.5557 15.6675 45.5255 15.6336 45.4877L15.0579 44.8596C14.9914 44.7917 14.9538 44.7005 14.9533 44.6054V40.6129C14.9538 40.5178 14.9914 40.4266 15.0579 40.3587L15.6336 39.7456C15.6675 39.7078 15.709 39.6775 15.7554 39.6569C15.8018 39.6363 15.852 39.6257 15.9028 39.626H55.1252C55.176 39.6257 55.2262 39.6363 55.2726 39.6569C55.319 39.6775 55.3605 39.7078 55.3944 39.7456L55.9701 40.3587C56.0366 40.4266 56.0742 40.5178 56.0747 40.6129V44.6204C56.0742 44.7155 56.0366 44.8066 55.9701 44.8746L55.3944 45.4877C55.3605 45.5255 55.319 45.5557 55.2726 45.5764C55.2262 45.597 55.176 45.6075 55.1252 45.6073ZM16.0673 44.8596H54.9458L55.3121 44.4708V40.7325L54.9607 40.3736H16.0822L15.7159 40.7624V44.5007L16.0673 44.8596Z" fill="#256FC7"/>
<path d="M52.9196 34.5715C52.8465 34.5705 52.7752 34.548 52.7147 34.5069C52.6542 34.4657 52.6071 34.4077 52.5792 34.3401C52.5514 34.2724 52.544 34.1981 52.558 34.1262C52.572 34.0544 52.6067 33.9883 52.658 33.936L56.7776 29.8164C56.847 29.747 56.9411 29.708 57.0393 29.708C57.1374 29.708 57.2315 29.747 57.3009 29.8164C57.3703 29.8858 57.4093 29.9799 57.4093 30.0781C57.4093 30.1762 57.3703 30.2704 57.3009 30.3398L53.1888 34.4594C53.1175 34.531 53.0207 34.5713 52.9196 34.5715Z" fill="#256FC7"/>
<path d="M50.1607 37.3305C50.1117 37.3311 50.0631 37.3214 50.018 37.3021C49.973 37.2828 49.9324 37.2543 49.8991 37.2183C49.8633 37.1848 49.8348 37.1442 49.8153 37.0992C49.7958 37.0542 49.7858 37.0057 49.7858 36.9567C49.7858 36.9076 49.7958 36.8591 49.8153 36.8141C49.8348 36.7691 49.8633 36.7285 49.8991 36.695L50.8411 35.7529C50.9105 35.6835 51.0047 35.6445 51.1028 35.6445C51.201 35.6445 51.2951 35.6835 51.3645 35.7529C51.4339 35.8223 51.4729 35.9165 51.4729 36.0146C51.4729 36.1128 51.4339 36.2069 51.3645 36.2763L50.4224 37.2183C50.3891 37.2543 50.3485 37.2828 50.3035 37.3021C50.2584 37.3214 50.2098 37.3311 50.1607 37.3305Z" fill="#256FC7"/>
<path d="M57.3234 33.5544C57.2502 33.5534 57.1789 33.5309 57.1184 33.4897C57.0579 33.4486 57.0108 33.3906 56.9829 33.3229C56.9551 33.2553 56.9477 33.1809 56.9617 33.1091C56.9757 33.0373 57.0105 32.9711 57.0617 32.9189L57.286 32.6946C57.3207 32.6595 57.3621 32.6317 57.4076 32.6127C57.4532 32.5938 57.5021 32.584 57.5514 32.584C57.6008 32.584 57.6496 32.5938 57.6952 32.6127C57.7407 32.6317 57.7821 32.6595 57.8168 32.6946C57.8853 32.7644 57.9237 32.8584 57.9237 32.9562C57.9237 33.0541 57.8853 33.148 57.8168 33.2179L57.5925 33.4422C57.5212 33.5138 57.4244 33.5541 57.3234 33.5544Z" fill="#79B4F2"/>
<path d="M54.0112 36.8666C53.938 36.8656 53.8668 36.8431 53.8063 36.8019C53.7458 36.7608 53.6987 36.7028 53.6708 36.6351C53.6429 36.5675 53.6355 36.4931 53.6495 36.4213C53.6635 36.3495 53.6983 36.2833 53.7495 36.2311L55.514 34.4591C55.5852 34.3901 55.6804 34.3516 55.7794 34.3516C55.8785 34.3516 55.9737 34.3901 56.0449 34.4591C56.0799 34.4939 56.1077 34.5352 56.1267 34.5808C56.1457 34.6263 56.1554 34.6752 56.1554 34.7245C56.1554 34.7739 56.1457 34.8227 56.1267 34.8683C56.1077 34.9138 56.0799 34.9552 56.0449 34.9899L54.2729 36.7619C54.2027 36.8296 54.1088 36.8672 54.0112 36.8666Z" fill="#79B4F2"/>
<path d="M36.7402 65.2198C36.5911 65.217 36.4473 65.1637 36.3325 65.0686C36.2177 64.9734 36.1386 64.8421 36.1082 64.6962C36.0778 64.5502 36.0979 64.3982 36.1651 64.2651C36.2324 64.1321 36.3429 64.0258 36.4785 63.9637L40.3738 62.2366V57.2721L38.1308 56.2777C38.052 56.2437 37.9809 56.1943 37.9215 56.1324C37.8621 56.0705 37.8158 55.9973 37.7851 55.9172C37.7544 55.837 37.7401 55.7516 37.743 55.6659C37.7459 55.5801 37.7659 55.4958 37.8018 55.4179C37.8723 55.2602 38.0019 55.1365 38.1628 55.0736C38.3237 55.0106 38.5029 55.0135 38.6616 55.0815L40.9046 56.0908C41.1258 56.1856 41.3144 56.343 41.4472 56.5436C41.58 56.7441 41.6513 56.9792 41.6523 57.2198V62.2815C41.6513 62.5221 41.58 62.7571 41.4472 62.9577C41.3144 63.1583 41.1258 63.3157 40.9046 63.4104L37.0093 65.16C36.9244 65.1975 36.8329 65.2178 36.7402 65.2198Z" fill="#256FC7"/>
<path d="M33.8991 57.8841C33.7756 57.8788 33.6561 57.8388 33.5542 57.7687C33.4524 57.6987 33.3724 57.6013 33.3234 57.4878L31.9327 54.3177C31.8836 54.2031 31.8681 54.0769 31.8879 53.9538C31.9078 53.8307 31.9622 53.7158 32.0449 53.6224C32.1268 53.5292 32.2337 53.4614 32.3529 53.4269C32.4721 53.3925 32.5987 53.3929 32.7178 53.428L35.3196 54.1757C35.4119 54.2025 35.4973 54.2491 35.5696 54.3124C35.6419 54.3757 35.6995 54.4541 35.7383 54.542C35.7771 54.6291 35.7971 54.7234 35.7971 54.8187C35.7971 54.914 35.7771 55.0082 35.7383 55.0953L34.5196 57.5103C34.4649 57.6271 34.3767 57.725 34.2662 57.7916C34.1557 57.8581 34.0279 57.8903 33.8991 57.8841ZM33.6449 55.0729L33.914 55.686L34.1533 55.2149L33.6449 55.0729Z" fill="#256FC7"/>
<path d="M33.1738 64.4712C33.0815 64.4719 32.99 64.4541 32.9047 64.4188L30.6617 63.4095C30.4417 63.3131 30.2541 63.1554 30.1215 62.9551C29.9889 62.7549 29.9169 62.5207 29.914 62.2805V57.2188C29.9133 56.9769 29.9829 56.7401 30.1143 56.537C30.2457 56.3339 30.4333 56.1734 30.6542 56.0749L34.8636 54.2057C34.9435 54.1598 35.0321 54.1311 35.1238 54.1217C35.2155 54.1122 35.3082 54.1221 35.3958 54.1507C35.4834 54.1793 35.564 54.226 35.6324 54.2878C35.7008 54.3495 35.7555 54.425 35.7929 54.5092C35.8303 54.5935 35.8496 54.6847 35.8495 54.7768C35.8494 54.869 35.8299 54.9601 35.7923 55.0443C35.7547 55.1285 35.6999 55.2038 35.6314 55.2654C35.5628 55.327 35.4821 55.3736 35.3944 55.402L31.215 57.2711V62.2356L33.4579 63.2226C33.5374 63.2558 33.6093 63.3047 33.6694 63.3664C33.7296 63.428 33.7768 63.5011 33.8082 63.5812C33.8395 63.6614 33.8545 63.7471 33.8521 63.8332C33.8498 63.9193 33.8301 64.004 33.7944 64.0824C33.7411 64.2014 33.6537 64.3019 33.5432 64.3711C33.4327 64.4403 33.3042 64.4751 33.1738 64.4712Z" fill="#256FC7"/>
<path d="M39.0804 66.1091C39.0208 66.1163 38.9605 66.1163 38.9009 66.1091L36.299 65.3614C36.2067 65.3346 36.1214 65.2879 36.0491 65.2246C35.9767 65.1614 35.9192 65.083 35.8804 64.995C35.8416 64.908 35.8216 64.8137 35.8216 64.7184C35.8216 64.6231 35.8416 64.5288 35.8804 64.4418L37.099 62.0193C37.1505 61.9058 37.2352 61.8107 37.3421 61.7465C37.449 61.6824 37.5728 61.6524 37.6972 61.6605C37.8211 61.6637 37.9417 61.7019 38.0448 61.7707C38.148 61.8395 38.2297 61.9361 38.2804 62.0492L39.6635 65.2268C39.7092 65.3259 39.729 65.4349 39.7209 65.5437C39.7128 65.6525 39.6772 65.7575 39.6174 65.8487C39.5575 65.94 39.4755 66.0145 39.3789 66.0652C39.2824 66.116 39.1745 66.1414 39.0654 66.139L39.0804 66.1091ZM37.4205 64.2997L37.9215 64.4492L37.6523 63.8287L37.4205 64.2997Z" fill="#256FC7"/>
</svg>
