<svg width="80" height="80" viewBox="0 0 80 80" fill="none" xmlns="http://www.w3.org/2000/svg">
<path d="M63.0056 25.2714V25.5705C63.0056 26.0227 62.8276 26.4567 62.5099 26.7785C62.1922 27.1004 61.7606 27.2842 61.3084 27.2901H54.2056V23.5518H61.3084C61.7606 23.5577 62.1922 23.7414 62.5099 24.0633C62.8276 24.3851 63.0056 24.8192 63.0056 25.2714Z" fill="#CFE6FF"/>
<path d="M61.3084 27.6637H54.2056C54.1065 27.6637 54.0114 27.6243 53.9413 27.5542C53.8712 27.4841 53.8318 27.389 53.8318 27.2899V23.5516C53.8318 23.4524 53.8712 23.3573 53.9413 23.2872C54.0114 23.2171 54.1065 23.1777 54.2056 23.1777H61.3084C61.8636 23.1777 62.3961 23.3983 62.7887 23.7909C63.1813 24.1835 63.4019 24.716 63.4019 25.2712V25.5703C63.4019 25.8452 63.3477 26.1174 63.2425 26.3714C63.1373 26.6254 62.9831 26.8562 62.7887 27.0506C62.5943 27.2449 62.3635 27.3992 62.1096 27.5044C61.8556 27.6096 61.5833 27.6637 61.3084 27.6637ZM54.5795 26.9161H61.3084C61.6647 26.9141 62.0059 26.7717 62.2579 26.5197C62.5098 26.2677 62.6523 25.9266 62.6542 25.5703V25.2712C62.6523 24.9149 62.5098 24.5737 62.2579 24.3217C62.0059 24.0698 61.6647 23.9274 61.3084 23.9254H54.5795V26.9161Z" fill="#256FC7"/>
<path d="M60.5009 23.7763V24.0753C60.5009 24.5314 60.3198 24.9688 59.9973 25.2913C59.6748 25.6138 59.2374 25.795 58.7813 25.795H54.2056V22.0566H58.7813C59.2374 22.0566 59.6748 22.2378 59.9973 22.5603C60.3198 22.8828 60.5009 23.3202 60.5009 23.7763Z" fill="#CFE6FF"/>
<path d="M58.7813 26.1686H54.2056C54.1065 26.1686 54.0114 26.1292 53.9413 26.0591C53.8712 25.989 53.8318 25.8939 53.8318 25.7948V22.0564C53.8318 21.9573 53.8712 21.8622 53.9413 21.7921C54.0114 21.722 54.1065 21.6826 54.2056 21.6826H58.7813C59.3365 21.6826 59.869 21.9032 60.2616 22.2958C60.6542 22.6884 60.8748 23.2209 60.8748 23.7761V24.0751C60.8748 24.6304 60.6542 25.1628 60.2616 25.5554C59.869 25.948 59.3365 26.1686 58.7813 26.1686ZM54.5795 25.4209H58.7813C59.1376 25.419 59.4788 25.2766 59.7308 25.0246C59.9827 24.7726 60.1251 24.4315 60.1271 24.0751V23.7761C60.1251 23.4198 59.9827 23.0786 59.7308 22.8266C59.4788 22.5747 59.1376 22.4322 58.7813 22.4303H54.5795V25.4209Z" fill="#256FC7"/>
<path d="M78.0263 15.3049L75.5141 15.6563C75.0852 15.6998 74.6519 15.6513 74.2431 15.5143L63.402 11.8582C62.7701 11.6453 62.0914 11.6122 61.4419 11.7627C60.7923 11.9133 60.1973 12.2414 59.7235 12.7105L52.2842 20.1872C52.0529 20.4184 51.8695 20.6929 51.7443 20.995C51.6192 21.2971 51.5547 21.6209 51.5547 21.9479C51.5547 22.2749 51.6192 22.5987 51.7443 22.9008C51.8695 23.203 52.0529 23.4775 52.2842 23.7087L61.1889 24.075C62.1575 25.5124 63.5429 26.6186 65.159 27.2451C66.8494 27.9299 68.7375 27.9432 70.4375 27.2825C71.9688 26.7016 73.3022 25.6951 74.2805 24.3816L74.4599 24.3292H79.6263" fill="white"/>
<path d="M67.8429 28.1127C66.8848 28.1081 65.9362 27.9229 65.0466 27.5669C63.4212 26.9327 62.0175 25.8357 61.0092 24.4118L52.2915 24.0529C52.1986 24.0457 52.1113 24.006 52.0448 23.9408C51.5092 23.4039 51.2085 22.6766 51.2085 21.9183C51.2085 21.1601 51.5092 20.4327 52.0448 19.8959L59.5214 12.4567C60.0379 11.9386 60.6889 11.5751 61.401 11.4074C62.113 11.2396 62.8578 11.2741 63.5513 11.5071L74.4074 15.1632C74.7636 15.2811 75.1408 15.3218 75.5139 15.2828L77.9737 14.9539C78.022 14.9454 78.0716 14.9469 78.1193 14.9583C78.167 14.9697 78.2118 14.9908 78.2511 15.0202C78.2903 15.0497 78.3231 15.0868 78.3474 15.1294C78.3717 15.172 78.387 15.2191 78.3924 15.2679C78.3999 15.3165 78.3976 15.3661 78.3859 15.4138C78.3741 15.4616 78.353 15.5065 78.3238 15.5461C78.2947 15.5857 78.258 15.6191 78.2159 15.6445C78.1737 15.6699 78.127 15.6867 78.0784 15.694L75.5737 16.038C75.0895 16.0914 74.5995 16.0378 74.1382 15.881L63.2821 12.2099C62.7175 12.0152 62.1096 11.982 61.527 12.1141C60.9445 12.2462 60.4104 12.5383 59.985 12.9576L52.5532 20.3894C52.1745 20.7686 51.9538 21.2775 51.9358 21.8132C51.9177 22.3489 52.1036 22.8714 52.456 23.2753L61.2036 23.6417C61.2626 23.6451 61.32 23.6616 61.3718 23.6901C61.4235 23.7186 61.4683 23.7582 61.5027 23.8062C62.4297 25.1816 63.7549 26.2407 65.3008 26.8417C66.8919 27.4935 68.6704 27.5202 70.2803 26.9165C71.7457 26.3612 73.0219 25.3988 73.9588 24.1426C74.0089 24.0746 74.0797 24.0247 74.1607 24.0006L74.3476 23.9557C74.3793 23.9468 74.413 23.9468 74.4448 23.9557H79.6261C79.7252 23.9557 79.8203 23.9951 79.8904 24.0652C79.9605 24.1353 79.9999 24.2304 79.9999 24.3296C79.9999 24.4287 79.9605 24.5238 79.8904 24.5939C79.8203 24.664 79.7252 24.7034 79.6261 24.7034H74.5046C73.4903 26.0239 72.1286 27.0361 70.5719 27.6267C69.7009 27.9591 68.775 28.124 67.8429 28.1127Z" fill="#256FC7"/>
<path d="M73.6823 25.4216C73.5851 25.4206 73.4917 25.3833 73.4207 25.3169C73.3856 25.2821 73.3578 25.2408 73.3388 25.1952C73.3199 25.1497 73.3101 25.1008 73.3101 25.0515C73.3101 25.0021 73.3199 24.9533 73.3388 24.9077C73.3578 24.8621 73.3856 24.8208 73.4207 24.786C74.0808 24.0611 74.5757 23.2014 74.8711 22.2664C74.9009 22.1673 74.9688 22.084 75.0599 22.0349C75.1511 21.9859 75.258 21.975 75.3571 22.0047C75.4563 22.0345 75.5395 22.1024 75.5886 22.1935C75.6377 22.2847 75.6485 22.3916 75.6188 22.4907C75.2824 23.5411 74.7211 24.5056 73.9739 25.3169C73.9356 25.3542 73.8898 25.3828 73.8395 25.4009C73.7892 25.4189 73.7356 25.426 73.6823 25.4216Z" fill="#256FC7"/>
<path d="M61.6822 18.692C61.6075 18.6925 61.5344 18.6705 61.4723 18.629C61.4102 18.5875 61.3619 18.5283 61.3337 18.4591C61.3056 18.3899 61.2988 18.3138 61.3143 18.2407C61.3297 18.1676 61.3668 18.1009 61.4206 18.049L63.0355 16.449C63.1069 16.3796 63.2029 16.3414 63.3025 16.3428C63.402 16.3442 63.497 16.3851 63.5664 16.4565C63.6358 16.5279 63.674 16.6239 63.6726 16.7235C63.6712 16.823 63.6303 16.9179 63.5589 16.9873L61.9439 18.5649C61.8764 18.6395 61.7826 18.6851 61.6822 18.692Z" fill="#256FC7"/>
<path d="M19.4243 29.4806L43.3121 5.59277L59.9626 22.3105L36.1047 46.161L19.4243 29.4806Z" fill="#CFE6FF"/>
<path d="M24.9795 28.1042L45.3982 7.68555L59.9627 22.3024L38.5197 43.7528L24.9795 30.2126V28.1042Z" fill="#B1D4F8"/>
<path d="M36.1047 46.5344C36.0071 46.5349 35.9132 46.4974 35.843 46.4297L19.1551 29.7418C19.0866 29.672 19.0483 29.578 19.0483 29.4802C19.0483 29.3823 19.0866 29.2883 19.1551 29.2185L43.0804 5.33062C43.1437 5.27191 43.2258 5.23748 43.3121 5.23342C43.3612 5.23283 43.4098 5.2425 43.4548 5.26181C43.4999 5.28113 43.5404 5.30966 43.5738 5.34557L60.2243 22.0409C60.2593 22.0757 60.2871 22.117 60.3061 22.1626C60.3251 22.2081 60.3349 22.257 60.3349 22.3063C60.3349 22.3557 60.3251 22.4045 60.3061 22.4501C60.2871 22.4956 60.2593 22.537 60.2243 22.5717L36.3663 46.4297C36.2953 46.4961 36.2019 46.5334 36.1047 46.5344ZM19.9476 29.4802L36.1047 45.6073L59.4318 22.2727L43.3121 6.12314L19.9476 29.4802Z" fill="#256FC7"/>
<path d="M63.1775 24.2997H51.3869C50.5937 24.2997 49.833 23.9846 49.2722 23.4237C48.7113 22.8629 48.3962 22.1022 48.3962 21.309C48.3962 20.5158 48.7113 19.7552 49.2722 19.1943C49.833 18.6334 50.5937 18.3184 51.3869 18.3184H63.9252" fill="white"/>
<path d="M63.1776 24.6733H51.387C50.4947 24.6733 49.6389 24.3188 49.0079 23.6879C48.377 23.0569 48.0225 22.2011 48.0225 21.3088C48.0225 20.4165 48.377 19.5607 49.0079 18.9298C49.6389 18.2988 50.4947 17.9443 51.387 17.9443H63.9253C64.0244 17.9443 64.1195 17.9837 64.1896 18.0538C64.2597 18.1239 64.2991 18.219 64.2991 18.3182C64.2991 18.4173 64.2597 18.5124 64.1896 18.5825C64.1195 18.6526 64.0244 18.692 63.9253 18.692H51.387C50.693 18.692 50.0274 18.9677 49.5366 19.4584C49.0459 19.9492 48.7702 20.6148 48.7702 21.3088C48.7702 22.0028 49.0459 22.6684 49.5366 23.1592C50.0274 23.6499 50.693 23.9256 51.387 23.9256H63.1776C63.2768 23.9256 63.3719 23.965 63.442 24.0351C63.5121 24.1052 63.5515 24.2003 63.5515 24.2995C63.5515 24.3986 63.5121 24.4937 63.442 24.5638C63.3719 24.6339 63.2768 24.6733 63.1776 24.6733Z" fill="#256FC7"/>
<path d="M51.5889 22.8119C52.4147 22.8119 53.0842 22.1425 53.0842 21.3166C53.0842 20.4908 52.4147 19.8213 51.5889 19.8213C50.763 19.8213 50.0935 20.4908 50.0935 21.3166C50.0935 22.1425 50.763 22.8119 51.5889 22.8119Z" fill="#CFE6FF"/>
<path d="M51.5887 23.559C51.1453 23.5586 50.712 23.4268 50.3435 23.1803C49.9751 22.9339 49.6879 22.5837 49.5183 22.1741C49.3487 21.7645 49.3042 21.3138 49.3906 20.879C49.477 20.4441 49.6903 20.0446 50.0036 19.7309C50.4315 19.325 50.9988 19.0986 51.5887 19.0986C52.1785 19.0986 52.7458 19.325 53.1737 19.7309C53.487 20.0446 53.7003 20.4441 53.7867 20.879C53.8731 21.3138 53.8287 21.7645 53.659 22.1741C53.4894 22.5837 53.2023 22.9339 52.8338 23.1803C52.4653 23.4268 52.032 23.5586 51.5887 23.559ZM51.5887 19.8207C51.1921 19.8207 50.8117 19.9782 50.5313 20.2586C50.2509 20.5391 50.0933 20.9194 50.0933 21.316C50.0923 21.5624 50.1521 21.8052 50.2676 22.0228C50.383 22.2405 50.5504 22.4262 50.7549 22.5636C50.9594 22.701 51.1947 22.7857 51.4398 22.8102C51.685 22.8347 51.9324 22.7983 52.16 22.7041C52.3877 22.61 52.5886 22.4611 52.7448 22.2706C52.901 22.0801 53.0078 21.854 53.0556 21.6123C53.1034 21.3706 53.0907 21.1208 53.0187 20.8852C52.9467 20.6496 52.8176 20.4355 52.6429 20.2618C52.3637 19.981 51.9846 19.8223 51.5887 19.8207Z" fill="#256FC7"/>
<path d="M51.4391 73.6446H20.3363L18.3176 71.611V45.2334H53.4578V71.611L51.4391 73.6446Z" fill="#E8F2FE"/>
<path d="M53.4579 48.9717H23.5513L21.3083 51.2147V71.6109L23.3271 73.6446H51.4392L53.4579 71.6109V48.9717Z" fill="white"/>
<path d="M51.4392 74.0183H20.3364C20.2874 74.0188 20.2388 74.0092 20.1937 73.9899C20.1487 73.9706 20.1081 73.942 20.0748 73.9061L18.0561 71.8799C18.0199 71.8451 17.9914 71.8033 17.9721 71.757C17.9528 71.7107 17.9432 71.6609 17.9439 71.6108V45.2332C17.9439 45.1341 17.9833 45.039 18.0534 44.9689C18.1235 44.8988 18.2186 44.8594 18.3177 44.8594H53.4579C53.5571 44.8594 53.6522 44.8988 53.7223 44.9689C53.7924 45.039 53.8318 45.1341 53.8318 45.2332V71.6108C53.8325 71.6609 53.8229 71.7107 53.8036 71.757C53.7843 71.8033 53.7557 71.8451 53.7196 71.8799L51.7009 73.9061C51.6675 73.942 51.627 73.9706 51.5819 73.9899C51.5369 74.0092 51.4883 74.0188 51.4392 74.0183ZM20.4934 73.2706H51.2822L53.0841 71.4612V45.607H18.6916V71.4612L20.4934 73.2706Z" fill="#256FC7"/>
<path d="M15.9028 40L15.3271 40.6131V44.6206L15.9028 45.2336H55.1252L55.701 44.6206V40.6131L55.1252 40H15.9028Z" fill="#E8F2FE"/>
<path d="M18.4821 41.8691L17.9438 42.2654V44.8374L18.4821 45.2336H55.1626L55.7009 44.8374V42.2654L55.1626 41.8691H18.4821Z" fill="white"/>
<path d="M55.1253 45.6073H15.9029C15.8521 45.6075 15.8019 45.597 15.7555 45.5764C15.7091 45.5557 15.6676 45.5255 15.6337 45.4877L15.058 44.8596C14.9915 44.7917 14.9539 44.7005 14.9534 44.6054V40.6129C14.9539 40.5178 14.9915 40.4266 15.058 40.3587L15.6337 39.7456C15.6676 39.7078 15.7091 39.6775 15.7555 39.6569C15.8019 39.6363 15.8521 39.6257 15.9029 39.626H55.1253C55.1761 39.6257 55.2263 39.6363 55.2727 39.6569C55.3191 39.6775 55.3606 39.7078 55.3945 39.7456L55.9702 40.3587C56.0367 40.4266 56.0743 40.5178 56.0748 40.6129V44.6204C56.0743 44.7155 56.0367 44.8066 55.9702 44.8746L55.3945 45.4877C55.3606 45.5255 55.3191 45.5557 55.2727 45.5764C55.2263 45.597 55.1761 45.6075 55.1253 45.6073ZM16.0674 44.8596H54.9459L55.3122 44.4708V40.7325L54.9608 40.3736H16.0823L15.716 40.7624V44.5007L16.0674 44.8596Z" fill="#256FC7"/>
<path d="M52.9195 34.5715C52.8464 34.5705 52.7751 34.548 52.7146 34.5069C52.6541 34.4657 52.607 34.4077 52.5791 34.3401C52.5513 34.2724 52.5439 34.1981 52.5579 34.1262C52.5719 34.0544 52.6066 33.9883 52.6579 33.936L56.7775 29.8164C56.8469 29.747 56.941 29.708 57.0392 29.708C57.1373 29.708 57.2314 29.747 57.3008 29.8164C57.3702 29.8858 57.4092 29.9799 57.4092 30.0781C57.4092 30.1762 57.3702 30.2704 57.3008 30.3398L53.1887 34.4594C53.1174 34.531 53.0206 34.5713 52.9195 34.5715Z" fill="#256FC7"/>
<path d="M50.1608 37.3305C50.1118 37.3311 50.0632 37.3214 50.0181 37.3021C49.9731 37.2828 49.9325 37.2543 49.8992 37.2183C49.8634 37.1848 49.8349 37.1442 49.8154 37.0992C49.7959 37.0542 49.7859 37.0057 49.7859 36.9567C49.7859 36.9076 49.7959 36.8591 49.8154 36.8141C49.8349 36.7691 49.8634 36.7285 49.8992 36.695L50.8412 35.7529C50.9106 35.6835 51.0048 35.6445 51.1029 35.6445C51.2011 35.6445 51.2952 35.6835 51.3646 35.7529C51.434 35.8223 51.473 35.9165 51.473 36.0146C51.473 36.1128 51.434 36.2069 51.3646 36.2763L50.4225 37.2183C50.3892 37.2543 50.3486 37.2828 50.3036 37.3021C50.2585 37.3214 50.2099 37.3311 50.1608 37.3305Z" fill="#256FC7"/>
<path d="M57.3234 33.5544C57.2502 33.5534 57.1789 33.5309 57.1184 33.4897C57.0579 33.4486 57.0108 33.3906 56.9829 33.3229C56.9551 33.2553 56.9477 33.1809 56.9617 33.1091C56.9757 33.0373 57.0105 32.9711 57.0617 32.9189L57.286 32.6946C57.3207 32.6595 57.3621 32.6317 57.4076 32.6127C57.4532 32.5938 57.5021 32.584 57.5514 32.584C57.6008 32.584 57.6496 32.5938 57.6952 32.6127C57.7407 32.6317 57.7821 32.6595 57.8168 32.6946C57.8853 32.7644 57.9237 32.8584 57.9237 32.9562C57.9237 33.0541 57.8853 33.148 57.8168 33.2179L57.5925 33.4422C57.5212 33.5138 57.4244 33.5541 57.3234 33.5544Z" fill="#79B4F2"/>
<path d="M54.0112 36.8666C53.938 36.8656 53.8668 36.8431 53.8063 36.8019C53.7458 36.7608 53.6987 36.7028 53.6708 36.6351C53.6429 36.5675 53.6355 36.4931 53.6495 36.4213C53.6635 36.3495 53.6983 36.2833 53.7495 36.2311L55.514 34.4591C55.5852 34.3901 55.6804 34.3516 55.7794 34.3516C55.8785 34.3516 55.9737 34.3901 56.0449 34.4591C56.0799 34.4939 56.1077 34.5352 56.1267 34.5808C56.1457 34.6263 56.1554 34.6752 56.1554 34.7245C56.1554 34.7739 56.1457 34.8227 56.1267 34.8683C56.1077 34.9138 56.0799 34.9552 56.0449 34.9899L54.2729 36.7619C54.2027 36.8296 54.1088 36.8672 54.0112 36.8666Z" fill="#79B4F2"/>
<path d="M36.7403 65.2198C36.5912 65.217 36.4474 65.1637 36.3326 65.0686C36.2178 64.9734 36.1387 64.8421 36.1083 64.6962C36.0779 64.5502 36.098 64.3982 36.1652 64.2651C36.2325 64.1321 36.343 64.0258 36.4786 63.9637L40.3739 62.2366V57.2721L38.1309 56.2777C38.0521 56.2437 37.981 56.1943 37.9216 56.1324C37.8622 56.0705 37.8159 55.9973 37.7852 55.9172C37.7545 55.837 37.7402 55.7516 37.7431 55.6659C37.746 55.5801 37.766 55.4958 37.8019 55.4179C37.8724 55.2602 38.002 55.1365 38.1629 55.0736C38.3238 55.0106 38.503 55.0135 38.6617 55.0815L40.9047 56.0908C41.1259 56.1856 41.3145 56.343 41.4473 56.5436C41.5801 56.7441 41.6514 56.9792 41.6524 57.2198V62.2815C41.6514 62.5221 41.5801 62.7571 41.4473 62.9577C41.3145 63.1583 41.1259 63.3157 40.9047 63.4104L37.0094 65.16C36.9245 65.1975 36.833 65.2178 36.7403 65.2198Z" fill="#256FC7"/>
<path d="M33.8992 57.8841C33.7757 57.8788 33.6562 57.8388 33.5543 57.7687C33.4525 57.6987 33.3725 57.6013 33.3235 57.4878L31.9328 54.3177C31.8837 54.2031 31.8682 54.0769 31.888 53.9538C31.9079 53.8307 31.9623 53.7158 32.045 53.6224C32.1269 53.5292 32.2338 53.4614 32.353 53.4269C32.4722 53.3925 32.5988 53.3929 32.7179 53.428L35.3197 54.1757C35.412 54.2025 35.4974 54.2491 35.5697 54.3124C35.642 54.3757 35.6996 54.4541 35.7384 54.542C35.7772 54.6291 35.7972 54.7234 35.7972 54.8187C35.7972 54.914 35.7772 55.0082 35.7384 55.0953L34.5197 57.5103C34.465 57.6271 34.3768 57.725 34.2663 57.7916C34.1558 57.8581 34.028 57.8903 33.8992 57.8841ZM33.645 55.0729L33.9141 55.686L34.1534 55.2149L33.645 55.0729Z" fill="#256FC7"/>
<path d="M33.1739 64.4712C33.0816 64.4719 32.9901 64.4541 32.9048 64.4188L30.6618 63.4095C30.4418 63.3131 30.2542 63.1554 30.1216 62.9551C29.989 62.7549 29.917 62.5207 29.9141 62.2805V57.2188C29.9134 56.9769 29.983 56.7401 30.1144 56.537C30.2458 56.3339 30.4334 56.1734 30.6543 56.0749L34.8637 54.2057C34.9436 54.1598 35.0322 54.1311 35.1239 54.1217C35.2156 54.1122 35.3083 54.1221 35.3959 54.1507C35.4835 54.1793 35.5641 54.226 35.6325 54.2878C35.7009 54.3495 35.7556 54.425 35.793 54.5092C35.8304 54.5935 35.8497 54.6847 35.8496 54.7768C35.8495 54.869 35.83 54.9601 35.7924 55.0443C35.7548 55.1285 35.7 55.2038 35.6315 55.2654C35.5629 55.327 35.4822 55.3736 35.3945 55.402L31.2151 57.2711V62.2356L33.458 63.2226C33.5375 63.2558 33.6094 63.3047 33.6695 63.3664C33.7297 63.428 33.7769 63.5011 33.8083 63.5812C33.8396 63.6614 33.8546 63.7471 33.8522 63.8332C33.8499 63.9193 33.8302 64.004 33.7945 64.0824C33.7412 64.2014 33.6538 64.3019 33.5433 64.3711C33.4328 64.4403 33.3043 64.4751 33.1739 64.4712Z" fill="#256FC7"/>
<path d="M39.0803 66.1091C39.0207 66.1163 38.9604 66.1163 38.9008 66.1091L36.2989 65.3614C36.2066 65.3346 36.1213 65.2879 36.049 65.2246C35.9766 65.1614 35.9191 65.083 35.8803 64.995C35.8415 64.908 35.8215 64.8137 35.8215 64.7184C35.8215 64.6231 35.8415 64.5288 35.8803 64.4418L37.0989 62.0193C37.1504 61.9058 37.2351 61.8107 37.342 61.7465C37.4489 61.6824 37.5727 61.6524 37.6971 61.6605C37.821 61.6637 37.9416 61.7019 38.0447 61.7707C38.1479 61.8395 38.2296 61.9361 38.2803 62.0492L39.6634 65.2268C39.7091 65.3259 39.7289 65.4349 39.7208 65.5437C39.7127 65.6525 39.6771 65.7575 39.6173 65.8487C39.5574 65.94 39.4754 66.0145 39.3788 66.0652C39.2823 66.116 39.1744 66.1414 39.0653 66.139L39.0803 66.1091ZM37.4204 64.2997L37.9214 64.4492L37.6522 63.8287L37.4204 64.2997Z" fill="#256FC7"/>
</svg>
