<svg width="24" height="24" viewBox="0 0 24 24" fill="none" xmlns="http://www.w3.org/2000/svg">
<path fill-rule="evenodd" clip-rule="evenodd" d="M14.5981 2.75C13.4434 0.75 10.5566 0.75 9.40192 2.75L1.60769 16.25C0.452993 18.25 1.89637 20.75 4.20577 20.75H19.7942C22.1036 20.75 23.547 18.25 22.3923 16.25L14.5981 2.75ZM11.134 3.75C11.5189 3.08333 12.4811 3.08333 12.866 3.75L20.6603 17.25C21.0452 17.9167 20.564 18.75 19.7942 18.75H4.20577C3.43597 18.75 2.95484 17.9167 3.33974 17.25L11.134 3.75ZM11.1685 15.6944C11.0586 15.8589 11 16.0522 11 16.25C11 16.5152 11.1054 16.7696 11.2929 16.9571C11.4804 17.1446 11.7348 17.25 12 17.25C12.1978 17.25 12.3911 17.1914 12.5556 17.0815C12.72 16.9716 12.8482 16.8154 12.9239 16.6327C12.9996 16.45 13.0194 16.2489 12.9808 16.0549C12.9422 15.8609 12.847 15.6827 12.7071 15.5429C12.5673 15.403 12.3891 15.3078 12.1951 15.2692C12.0011 15.2306 11.8 15.2504 11.6173 15.3261C11.4346 15.4018 11.2784 15.53 11.1685 15.6944ZM11 12.25V8.25C11 7.98478 11.1054 7.73043 11.2929 7.54289C11.4804 7.35536 11.7348 7.25 12 7.25C12.2652 7.25 12.5196 7.35536 12.7071 7.54289C12.8946 7.73043 13 7.98478 13 8.25V12.25C13 12.5152 12.8946 12.7696 12.7071 12.9571C12.5196 13.1446 12.2652 13.25 12 13.25C11.7348 13.25 11.4804 13.1446 11.2929 12.9571C11.1054 12.7696 11 12.5152 11 12.25Z" fill="white"/>
</svg>
