<svg width="497" height="497" viewBox="0 0 497 497" fill="none" xmlns="http://www.w3.org/2000/svg">
<path d="M496.16 248.09C496.16 111.06 385.09 0 248.08 0C111.07 0 0 111.06 0 248.09C0 385.12 111.07 496.16 248.08 496.16C385.09 496.16 496.16 385.09 496.16 248.09Z" fill="#267EDC"/>
<path d="M66 199.229L99.0909 232.278C181.322 150.15 314.678 150.15 396.909 232.278L430 199.229C329.569 98.9238 166.596 98.9238 66 199.229ZM198.364 331.426L248 381L297.636 331.426C270.336 303.995 225.829 303.995 198.364 331.426ZM132.182 265.327L165.273 298.377C210.938 252.769 285.062 252.769 330.727 298.377L363.818 265.327C299.953 201.542 196.213 201.542 132.182 265.327Z" fill="white"/>
<path d="M426 497C465.212 497 497 465.212 497 426C497 386.788 465.212 355 426 355C386.788 355 355 386.788 355 426C355 465.212 386.788 497 426 497Z" fill="#27A96B"/>
<path d="M412.676 442.617L395.64 425.581C393.723 423.665 390.618 423.659 388.695 425.569V425.569C386.762 427.488 386.757 430.612 388.683 432.538L407.195 451.05C410.222 454.077 415.13 454.077 418.157 451.05L463.292 405.915C465.207 404 465.207 400.896 463.292 398.981V398.981C461.378 397.067 458.275 397.066 456.359 398.979L412.676 442.617Z" fill="white"/>
</svg>
