<svg width="497" height="497" viewBox="0 0 497 497" fill="none" xmlns="http://www.w3.org/2000/svg">
<path d="M496.16 248.09C496.16 111.06 385.09 0 248.08 0C111.07 0 0 111.06 0 248.09C0 385.12 111.07 496.16 248.08 496.16C385.09 496.16 496.16 385.09 496.16 248.09Z" fill="#267EDC"/>
<path d="M66 199.229L99.0909 232.278C181.322 150.15 314.678 150.15 396.909 232.278L430 199.229C329.569 98.9238 166.596 98.9238 66 199.229ZM198.364 331.426L248 381L297.636 331.426C270.336 303.995 225.829 303.995 198.364 331.426ZM132.182 265.327L165.273 298.377C210.938 252.769 285.062 252.769 330.727 298.377L363.818 265.327C299.953 201.542 196.213 201.542 132.182 265.327Z" fill="white"/>
<path d="M426 497C465.212 497 497 465.212 497 426C497 386.788 465.212 355 426 355C386.788 355 355 386.788 355 426C355 465.212 386.788 497 426 497Z" fill="#CC4149"/>
<path d="M460.909 391.664C458.764 389.519 455.299 389.519 453.154 391.664L426.259 418.504L399.364 391.609C397.219 389.464 393.754 389.464 391.609 391.609C389.464 393.754 389.464 397.219 391.609 399.364L418.504 426.259L391.609 453.154C389.464 455.299 389.464 458.764 391.609 460.909C393.754 463.054 397.219 463.054 399.364 460.909L426.259 434.014L453.154 460.909C455.299 463.054 458.764 463.054 460.909 460.909C463.054 458.764 463.054 455.299 460.909 453.154L434.014 426.259L460.909 399.364C462.999 397.274 462.999 393.754 460.909 391.664V391.664Z" fill="white"/>
</svg>
