<svg viewBox="0 0 496.16 496.16" xmlns="http://www.w3.org/2000/svg"><path d="m496.16 248.09c0-137.03-111.07-248.09-248.08-248.09s-248.08 111.06-248.08 248.09 111.07 248.07 248.08 248.07 248.08-111.07 248.08-248.07z" fill="#04778d"/><g fill="#fff"><circle cx="248.08" cy="332.81" r="49.15"/><path d="m172.13 289.13c20.29-23.3 47.26-36.13 76-36.13s55.66 12.83 76 36.13l16-18.34c-24.55-28.2-57.2-43.73-91.93-43.73s-67.37 15.53-91.92 43.73l16 18.34z"/><path d="m138.56 248.41c29.26-33.6 68.15-52.1 109.52-52.1s80.27 18.5 109.52 52.1l16-18.34c-33.52-38.49-78.09-59.7-125.49-59.7s-92 21.2-125.49 59.7l16 18.34z"/><path d="m105.31 208.06c38.14-43.8 88.84-67.92 142.77-67.92s104.64 24.12 142.77 67.92l16-18.34c-42.43-48.72-98.85-75.51-158.77-75.51s-116.34 26.79-158.74 75.51l16 18.34zm142.77 168.31h.01v.01h-.01z"/></g><circle cx="340.29" cy="343.74" fill="#00e65f" r="63.78"/><path d="m383.53 317.43c-1.85-4.77-5.61-4-9.7-3.21-2.44.51-13.28 3.68-30.44 21.77a144.85 144.85 0 0 0 -14.91 18.06c-1.89-2.32-4.05-4.8-6.33-7.08a91.5 91.5 0 0 0 -15.11-12 6.95 6.95 0 0 0 -7.26 11.85 78.31 78.31 0 0 1 12.54 10 107.89 107.89 0 0 1 11.29 14 6.95 6.95 0 0 0 12.52-2.17c0-.06 2.77-7.68 17.32-23 11.72-12.36 19.54-16.29 22.25-17.38h.08l.25-.12a7.69 7.69 0 0 1 .73-.24h-.2l3.65-1.58c3.55-1.54 4.7-5.33 3.32-8.9z" fill="#fff"/></svg>