<svg viewBox="0 0 694.11 499.03" xmlns="http://www.w3.org/2000/svg" xmlns:xlink="http://www.w3.org/1999/xlink"><linearGradient id="a" gradientTransform="matrix(22.97 0 0 -26.91 -4269.09 10304.39)" gradientUnits="userSpaceOnUse" x1="185.1" x2="203.63" y1="377.23" y2="370.75"><stop offset="0" stop-color="#fff" stop-opacity=".2"/><stop offset="1" stop-color="#fff" stop-opacity="0"/></linearGradient><linearGradient id="b" gradientTransform="matrix(11 0 0 -11 -1915.52 3832.21)" x1="218.04" x2="237" xlink:href="#a" y1="315.68" y2="309.05"/><path d="m144.56 272.93a18.1 18.1 0 0 1 3-21.86 67.81 67.81 0 0 1 -5.52-26.84c0-39.53 34-71.57 75.89-71.57 29.43 0 54.95 15.8 67.54 38.89a68.06 68.06 0 0 1 2.83 59.52 18.18 18.18 0 0 1 -12.77 31.1h-16.1v18.83a7.44 7.44 0 0 1 -7.42 7.42h-69.32a7.44 7.44 0 0 1 -7.42-7.42v-18.83h-14.89a18.24 18.24 0 0 1 -15.82-9.24zm73.44-256.78a812.25 812.25 0 0 1 -199.25 83.77v104.72c0 196.47 171.39 278.24 199.22 278.24s199.22-81.77 199.22-278.24v-104.72a837.21 837.21 0 0 1 -199.19-83.77z" fill="#ff2434"/><path d="m147.6 251.07a18.18 18.18 0 0 0 12.77 31.1h14.89v18.83a7.44 7.44 0 0 0 7.42 7.42h69.37a7.44 7.44 0 0 0 7.42-7.42v-18.83h16.1a18.23 18.23 0 0 0 15.82-9.24 18.1 18.1 0 0 0 -3-21.86 68 68 0 0 0 -2.84-59.52c-12.59-23.1-38.11-38.89-67.54-38.89s-54.95 15.8-67.54 38.89a68.05 68.05 0 0 0 -2.83 59.52z" fill="#fff"/><path d="m218 143.17c-29.35 0-55.3 14.14-70.67 35.62l-20.71-12-2.82-10.52a9.49 9.49 0 1 0 -18.33 4.91l1.38 5.15-5.15 1.38a9.49 9.49 0 1 0 4.91 18.33l10.52-2.82 21.06 12.16a77.38 77.38 0 0 0 -1.35 54.05 27.41 27.41 0 0 0 -4.14 14.57 27.74 27.74 0 0 0 .39 4.61l-16 9.23-10.5-2.84a9.49 9.49 0 0 0 -4.91 18.33l5.15 1.38-1.38 5.15a9.49 9.49 0 1 0 18.33 4.91l2.82-10.52 15.89-9.18a27.55 27.55 0 0 0 17.89 6.58h5.41v9.35a16.92 16.92 0 0 0 16.9 16.9h69.37a16.92 16.92 0 0 0 16.94-16.9v-9.36h6.61a27.55 27.55 0 0 0 17.88-6.58l15.9 9.18 2.82 10.52a9.49 9.49 0 1 0 18.33-4.91l-1.38-5.15 5.15-1.38a9.49 9.49 0 0 0 -4.96-18.32l-10.52 2.82-16-9.23a27.69 27.69 0 0 0 .39-4.61 27.41 27.41 0 0 0 -4.12-14.51 77.36 77.36 0 0 0 -1.35-54.05l21.06-12.16 10.52 2.82a9.49 9.49 0 1 0 4.91-18.33l-5.15-1.38 1.38-5.15a9.49 9.49 0 1 0 -18.33-4.91l-2.82 10.51-20.71 12c-15.34-21.51-41.28-35.65-70.61-35.65zm57.6 129.51h-16.1a9.49 9.49 0 0 0 -9.49 9.49v16.77h-22.55v-10.81a9.49 9.49 0 1 0 -19 0v10.81h-23.71v-16.77a9.49 9.49 0 0 0 -9.49-9.49h-14.89a8.7 8.7 0 0 1 -7.55-4.4l-.05-.1-.07-.1a8.64 8.64 0 0 1 1.57-10.27 9.49 9.49 0 0 0 2-10.49 58.23 58.23 0 0 1 -4.75-23.1c0-34.23 29.79-62.09 66.41-62.09s66.4 27.85 66.4 62.09a58.22 58.22 0 0 1 -4.75 23.1 9.49 9.49 0 0 0 2 10.49 8.64 8.64 0 0 1 1.57 10.25l-.08.12-.06.12a8.7 8.7 0 0 1 -7.44 4.38z"/><path d="m218 16.15a812.25 812.25 0 0 1 -199.25 83.77v104.72c0 196.47 171.39 278.24 199.22 278.24s199.22-81.77 199.22-278.24v-104.72a837.21 837.21 0 0 1 -199.19-83.77z" fill="url(#a)"/><path d="m191.12 220.22a14.83 14.83 0 1 0 14.88 14.83 14.86 14.86 0 0 0 -14.88-14.83z"/><path d="m244.82 220.22a14.83 14.83 0 1 0 14.83 14.83 14.86 14.86 0 0 0 -14.83-14.83z"/><path d="m419.68 90.76a822.07 822.07 0 0 1 -196.92-82.76 9.49 9.49 0 0 0 -9.58 0 799.63 799.63 0 0 1 -196.91 82.76 9.49 9.49 0 0 0 -7 9.15v104.73c0 107.6 50.06 178.81 92.05 219.6 45.15 43.87 97.68 68.13 116.68 68.13s71.5-24.26 116.65-68.13c42-40.79 92-112 92-219.6v-104.72a9.49 9.49 0 0 0 -6.97-9.16zm-12 113.88c0 101-46.93 167.75-86.3 206-44.72 43.46-92.72 62.76-103.38 62.76s-58.69-19.3-103.43-62.76c-39.37-38.24-86.3-105-86.3-206v-97.5a817.17 817.17 0 0 0 189.73-80.02 842.92 842.92 0 0 0 189.73 80v97.51z"/><path d="m305.6 386.46a9.49 9.49 0 0 0 13.41-.54 263.81 263.81 0 0 0 41.76-59.92 9.49 9.49 0 0 0 -16.94-8.55 244.83 244.83 0 0 1 -38.77 55.6 9.49 9.49 0 0 0 .54 13.41z"/><path d="m141.79 97.18a9.49 9.49 0 0 0 -12.4-5.11c-15.11 6.29-30.58 12.21-46 17.59a9.49 9.49 0 1 0 6.25 17.91c15.75-5.5 31.56-11.55 47-18a9.49 9.49 0 0 0 5.15-12.39z"/><path d="m158.94 99a9.46 9.46 0 0 0 3.62-.72l.45-.2a9.49 9.49 0 0 0 -7.77-17.31h-.1a9.49 9.49 0 0 0 3.8 18.23z"/><path d="m286.43 391.36-.07.07a9.49 9.49 0 0 0 12.33 14.42l.31-.28a9.49 9.49 0 0 0 -12.57-14.21z"/><path d="m527.59 147.75-13.28-15.17-21.11-14.71-77.79 17.55-106.95 64.27 15.89 49.81 22.05 29.87 18.97 26.8 37.47 24.28 17.08 6.07 38.66-1.66 79.21-76.83 10.43-58.81z" fill="#ffe9c4"/><path d="m533 69.89-27.79-26.56-37.94-20.87-48.68-3.16h-46.18l-37.94 9.49 12.66 17.07s-24.66 19.59-24.66 21.49-28.47 52.51-28.47 52.51l-19 59.43 13.9 27.84 118.3-75.25 63.24-14.56 32.87-3.16 30.35 30.35 14.56-.64v-36.66z" fill="#33373c"/><path d="m371.3 158.43-50.78 28.6-6.13 14.56 2.84 18.02 230.99-4.74v-56.44z" fill="#656d78"/><g fill="#ffe9c4"><path d="m404.5 189.18c0 9.92-10.73 17.95-24 17.95s-24-8-24-17.95 10.73-17.95 24-17.95 24 8.04 24 17.95z"/><path d="m507.43 189.18c0 9.92-10.94 17.95-24.43 17.95s-24.43-8-24.43-17.95 10.94-17.95 24.43-17.95 24.43 8.04 24.43 17.95z"/><path d="m513.1 333.92s-3.65-47.92-4.1-50.28-12.1 13-12.1 13l-34 31.78-39.26 8.06s-29.44-4.74-30.36-6.08-41.28-39.88-43.38-42.49l-3.2 42.54-16.43 15.32 12.1 16.84 53.63 28.56s62.54-6.27 63.91-6.74 36.75-8.78 36.75-8.78l24.19-22.29z"/></g><path d="m537.79 462.94-15.5-17.4-9.16-23.71-5.69-55.18-24.44 15.35-44.19 6.64s-40.17-2.22-42.38-2.53-39.84-11.69-39.84-11.69-20.23-21.51-23.72-25.3l-94.22 36.06-16.13 11.69-9.81 30.67-5.71 56.27 338-4.28z" fill="#2a93e7"/><path d="m639.48 331.91c-19.48-15.2-48.12-25.16-78.48-17.91q-38.79 9.22-44.8 9.52v-21.3c4.74-16.38 44.8-52.68 45.36-114.31.05-5.72-.24-9.93-.56-14.05-3.38-78.2-6.76-102.23-52.11-138.3-27.39-21.79-60-28.86-90.84-28.86-56.65 0-107 23.91-107 23.91l21.68 15.19s-79.36 52.4-59.42 183.51a1.47 1.47 0 0 0 1.6 1.42c3.69 0 13.47-7.54 27.86-18.59 4.89 27.88 17.73 54.22 34.21 76.3l-.24 35.07c-2.9 5.72-13.22 16.6-52.87 31.72-11.18 4.24-19.67 10.73-44.78 17.46l-1.72.5a55.5 55.5 0 0 0 -38.24 52.68v66.5h394.63c50.22 0 69.62-35 77.91-66.5 7.56-28.79-4.01-71.97-32.19-93.96zm-282.48-8.28.09-12.12c24.35 24.1 52.2 39.19 74 39.19s49.69-15.09 74.06-39.19l.06 12.12v4.27l1.69 3.74c.15.33.42.95.77 1.66a42.12 42.12 0 0 0 8.72 11.13c-1.78 3.85-3.38 7.77-4.83 11.71a143.34 143.34 0 0 1 -80.46 24.5c-26.81 0-51.43-7-73.18-20.81a128 128 0 0 1 -16-12c5.44-4.43 9.83-9.25 12.51-14.47.37-.71.64-1.33.79-1.68l1.69-3.75zm184.35-135.75a120.18 120.18 0 0 1 -2 21.15h-27.3c6.28-5.34 10.08-12.39 10.08-20.23s-3.79-14.9-10.08-20.23h28.07a158.19 158.19 0 0 1 1.23 19.31zm-59.64-9.2c12.33 0 20.22 6 20.22 10.12s-7.93 10.12-20.23 10.12-20.25-6-20.25-10.12 7.89-10.13 20.25-10.13zm-79.05-30.36c27.9-12.81 58.45-21.88 89.69-21.89q4.62 0 9.25.28l21.55 21.61zm-22.14 30.36c12.35 0 20.23 6 20.23 10.12s-7.89 10.12-20.23 10.12-20.25-6-20.25-10.12 7.88-10.13 20.24-10.13zm30.38-10.11h40.4c-6.3 5.33-10.08 12.43-10.08 20.23s3.78 14.89 10.08 20.2h-40.41c6.3-5.34 10.08-12.39 10.08-20.23s-3.78-14.87-10.08-20.21zm123.25 60.71c-6.94 20.4-18.68 40.52-34.39 58.46-11.62 13.24-24.63 24.31-37.65 32-11.61 6.89-22.63 10.69-31 10.69s-19.4-3.79-31-10.69c-13-7.72-26-18.79-37.65-32-15.73-17.93-27.46-38.06-34.39-58.46zm-240.4-78.56a162.7 162.7 0 0 1 18.16-50.25c14.27-25.08 30.89-37.05 32-37.86l25.15-16.08-14.42-10.12c17.55-5 40-9.52 63.44-9.52 31.51 0 57.84 8.24 78.24 24.46 11 8.78 18.76 16.27 24.37 23.66a70.7 70.7 0 0 1 11.73 23.09c3.05 10 4.86 22 6.14 37l-22.62-22.68-5.45-5.42-7.71-.46c-3.44-.21-6.94-.3-10.44-.3-20.19 0-41.43 3.44-63.13 10.2a320.76 320.76 0 0 0 -56.26 24.16c-34 18.38-63 40.58-82.48 55.49a205.94 205.94 0 0 1 3.27-45.37zm46.7 33.68a24 24 0 0 0 -.42 4.4c0 7.84 3.78 14.9 10.08 20.23h-27.32c-.65-3.68-1.16-7.32-1.48-11 5.94-4.36 12.34-8.97 19.13-13.64zm-97.05 208.1 1.14-.33a196.25 196.25 0 0 0 37.76-14.17c3.25-1.56 6-2.89 8.78-3.93a279.94 279.94 0 0 0 33.39-14.88c14.5 14.05 50.14 41.63 106.66 41.63a162.88 162.88 0 0 0 73-17 112.33 112.33 0 0 0 -1.48 17.42 91 91 0 0 0 2.35 20.27h-285.37a35.28 35.28 0 0 1 23.76-29.02zm187.7 79.62h-211.74v-30.36h292.85a91.34 91.34 0 0 0 24.4 30.35z" fill="#0d0d0d"/><circle cx="589.44" cy="396.97" r="95.41"/><circle cx="589.44" cy="396.97" fill="#ffce00" r="76.33"/><path d="m524.66 407.26a75 75 0 0 1 122-58.49 75 75 0 1 0 -105.42 105.44 74.68 74.68 0 0 1 -16.58-46.95z" fill="#ffa21a" opacity=".25"/><path d="m589.44 492.37a95.41 95.41 0 1 0 -95.44-95.37 95.51 95.51 0 0 0 95.44 95.37z" fill="url(#b)"/><path d="m606 354.79a15.6 15.6 0 0 1 .76 5.22q-.2 1.65-1.33 2l-45.09 12.08q-1.13.3-2.1-1a16.38 16.38 0 0 1 -1.92-4.91 16 16 0 0 1 -.79-5.21q.18-1.58 1.31-1.88l45.09-12.08a1.68 1.68 0 0 1 1.07-.01 2.47 2.47 0 0 1 1 .9 8.86 8.86 0 0 1 1 1.88 27 27 0 0 1 1 3.01zm3 32.33a14.24 14.24 0 0 1 .71 5 2 2 0 0 1 -1.35 1.86l-34.61 9.27a1.64 1.64 0 0 1 -1.1-.06 2.61 2.61 0 0 1 -1-.88 8.27 8.27 0 0 1 -1-1.82 24.93 24.93 0 0 1 -.93-2.88 24.15 24.15 0 0 1 -.63-2.93 8.22 8.22 0 0 1 -.06-2 2.61 2.61 0 0 1 .43-1.26 1.64 1.64 0 0 1 .92-.6l34.62-9.26a1.64 1.64 0 0 1 1.1.06 2.61 2.61 0 0 1 1 .88 8.22 8.22 0 0 1 1 1.79 24.15 24.15 0 0 1 .9 2.84zm14.77 31.54a14.91 14.91 0 0 1 .73 5.23q-.23 1.66-1.36 2l-46.14 12.34q-1.13.3-2.13-1a15.6 15.6 0 0 1 -2-4.9 15.83 15.83 0 0 1 -.78-5.31q.2-1.62 1.34-1.92l46.16-12.37a2 2 0 0 1 2.15 1 15.12 15.12 0 0 1 2.01 4.94z" fill="#1a1e22"/></svg>