<svg height="871" viewBox="0 0 562 871" width="562" xmlns="http://www.w3.org/2000/svg"><g fill="none" transform="translate(20 20)"><path d="m299.29 380.47h46.5v10.5h-46.5z" fill="#ffce00"/><path d="m482.94 406v145.19h-.86c-4.142136 0-7.5 3.357864-7.5 7.5v2.83h-48c-1.047245-.839741-2.005593-1.784686-2.86-2.82-1.87-2.34-3.29-5.82-4.8-9.5-2.41-5.88-5.13-12.54-10.84-17.1s-12.76-5.71-19-6.75c-3.94-.66-7.66-1.28-10.39-2.59s-5.37-3.76-8.28-6.39c-4.75-4.29-10.13-9.16-17.36-10.8-7-1.59-13.81.41-19.84 2.17-3.89 1.14-7.57 2.22-10.7 2.22s-6.81-1.08-10.71-2.22c-6-1.76-12.86-3.76-19.83-2.17-7.23 1.64-12.62 6.51-17.36 10.8-2.91 2.63-5.66 5.12-8.28 6.39s-6.46 1.93-10.4 2.59c-6.25 1-13.33 2.22-19 6.75s-8.43 11.22-10.84 17.1c-1.5 3.68-2.93 7.16-4.8 9.51-.854926 1.031827-1.813257 1.973403-2.86 2.81h-48v-2.83c0-4.142136-3.357864-7.5-7.5-7.5h-.86v-145.19zm-18.94 125.38c3.763656-1.621939 5.532032-5.961756 3.973814-9.752238-1.558218-3.790481-5.867586-5.631816-9.683814-4.137762l-25.36 10.51c-3.267253 1.391431-5.110808 4.883571-4.416686 8.366273.694122 3.482703 3.735635 6.001222 7.286686 6.033727.984431-.003568 1.95892-.197107 2.87-.57zm-34.63-45.75c1.942873-1.859373 2.741526-4.616648 2.093199-7.226571-.648327-2.609922-2.644389-4.672966-5.231499-5.407053s-5.369235-.026842-7.2917 1.853624l-.18.18-12.76 12.74c-2.929871 2.929871-2.929871 7.680129 0 10.61s7.680129 2.929871 10.61 0zm-42.49-39.48c1.593342-3.832856-.222144-8.231658-4.055-9.825s-8.231658.222144-9.825 4.055l-10.48 25.32c-.761389 1.83793-.76137 3.903063.000052 5.740978.761423 1.837916 2.221859 3.298019 4.059948 4.059022.907892.371873 1.878911.565398 2.86.57 3.036647.001687 5.77548-1.825517 6.94-4.63zm-56.88 9.35v-18c0-4.142136-3.357864-7.5-7.5-7.5s-7.5 3.357864-7.5 7.5v18c0 4.142136 3.357864 7.5 7.5 7.5s7.5-3.357864 7.5-7.5zm-51.54 20c3.819245-1.593137 5.633625-5.972675 4.06-9.8l-10.49-25.32c-1.025352-2.475851-3.293667-4.216612-5.950493-4.566556-2.656826-.349945-5.298527.744093-6.93 2.87-1.631474 2.125906-2.004859 4.960705-.979507 7.436556l10.49 25.32c1.158756 2.804706 3.895353 4.633053 6.93 4.63.984431-.003568 1.95892-.197107 2.87-.57zm-39.45 22.88c2.923388-2.924745 2.923388-7.665255 0-10.59l-12.73-12.79c-1.861354-1.927448-4.609597-2.715463-7.209492-2.067207-2.599896.648256-4.656458 2.634296-5.395 5.21-.738542 2.575703-.046862 5.349759 1.814492 7.277207l.18.18 12.77 12.78c1.406661 1.407563 3.315044 2.198399 5.305 2.198399s3.898339-.790836 5.305-2.198399zm-22.84 39.4c1.579562-3.827331-.236553-8.211058-4.06-9.8l-25.32-10.49c-2.48121-1.025353-5.320961-.649108-7.449547.987007-2.128586 1.636114-3.222624 4.283533-2.87 6.945s2.098337 4.932641 4.579547 5.957993l25.32 10.49c.915069.352619 1.889468.52577 2.87.51 3.040271.018884 5.791981-1.797166 6.97-4.6z" fill="#8b572a"/><path d="m474.58 610.17v110.21c-14.746169 10.884216-24.302368 27.410138-26.38 45.62h-251.32c-2.090924-18.191818-11.645758-34.697268-26.38-45.57v-110.26h108.56v43.11c0 4.142136 3.357864 7.5 7.5 7.5h72c4.142136 0 7.5-3.357864 7.5-7.5v-43.11z" fill="#8b572a"/><path d="m322.54 604c4.091124.005521 7.403676 3.325532 7.399997 7.416658-.003679 4.091125-3.322199 7.405172-7.413326 7.403335-4.091127-.001838-7.406667-3.318866-7.406671-7.409993-.000002-1.966988.782065-3.853268 2.173873-5.2432s3.279141-2.169455 5.246127-2.1668z" fill="#ffce00"/><path d="m351 577v68.82h-56.94v-68.82zm-6 34.38c.005522-12.382222-10.027776-22.424473-22.409999-22.429996-12.382222-.005522-22.424473 10.027775-22.429997 22.409997-.005523 12.382223 10.027774 22.424475 22.409996 22.429999 12.377659-.005505 22.413454-10.032351 22.43-22.41z" fill="#dfdfe3"/><g fill="#ffce00"><path d="m155.5 566.19v145.87c-5.352586-2.116976-10.960906-3.519056-16.68-4.17v-141.7z"/><path d="m279.06 576.52v18.65h-108.56v-18.65h2.03z"/><path d="m366.01 576.52h108.57v18.65h-108.57z"/><path d="m506.28 566.19v141.7c-5.719532.648526-11.328165 2.050685-16.68 4.17v-145.87z"/><path d="m506.28 723v43h-43c3.319783-22.22873 20.77127-39.680217 43-43z"/><path d="m181.76 766h-42.94v-43c22.203862 3.346921 39.624086 20.791486 42.94 43z"/></g><path d="m408 561.52h-170.91c1.08-2.19 2-4.43 2.91-6.64 1.88-4.6 3.65-8.94 6.31-11.06s7.23-2.86 12.11-3.67 9.79-1.63 14.46-3.88 8.25-5.55 11.82-8.77 7.22-6.53 10.62-7.31c3.17-.72 7.61.58 12.3 1.95 4.52 1.32 9.64 2.82 14.92 2.82s10.4-1.5 14.92-2.82c4.69-1.37 9.12-2.67 12.3-1.94 3.4.77 6.9 3.94 10.61 7.3s7.26 6.56 11.83 8.77 9.64 3.07 14.45 3.88 9.49 1.57 12.12 3.67 4.43 6.46 6.3 11c.93 2.26 1.83 4.56 2.93 6.7z" fill="#ffa21a"/><path d="m521.28 558.69v214.76c0 4.142136-3.357864 7.5-7.5 7.5h-382.5c-4.142136 0-7.5-3.357864-7.5-7.5v-214.76c0-4.142136 3.357864-7.5 7.5-7.5h15.82v-152.72c0-4.142136 3.357864-7.5 7.5-7.5h129.68v-17.97c0-4.142136 3.357864-7.5 7.5-7.5h61.5c4.142136 0 7.5 3.357864 7.5 7.5v18h129.66c4.142136 0 7.5 3.357864 7.5 7.5v152.69h15.82c1.989126-.005311 3.898891.779776 5.309167 2.182549 1.410275 1.402774 2.205536 3.308325 2.210833 5.297451zm-15 207.31v-43c-22.210052 3.31286-39.656131 20.734596-43 42.94zm0-58.06v-141.75h-16.7v145.87c5.358207-2.121022 10.973677-3.523208 16.7-4.17zm-23.28-156.75v-145.19h-320.86v145.19h.86c4.142136 0 7.5 3.357864 7.5 7.5v2.83h48c1.046743-.836597 2.005074-1.778173 2.86-2.81 1.87-2.35 3.3-5.83 4.8-9.51 2.41-5.88 5.13-12.54 10.84-17.1s12.76-5.71 19-6.75c3.94-.66 7.67-1.28 10.4-2.59s5.37-3.76 8.28-6.39c4.74-4.29 10.13-9.16 17.36-10.8 7-1.59 13.8.41 19.83 2.17 3.9 1.14 7.58 2.22 10.71 2.22s6.81-1.08 10.7-2.22c6-1.76 12.87-3.76 19.84-2.17 7.23 1.64 12.61 6.51 17.36 10.8 2.91 2.63 5.65 5.12 8.28 6.39s6.45 1.93 10.39 2.59c6.25 1 13.34 2.22 19 6.75s8.43 11.22 10.84 17.1c1.51 3.68 2.93 7.16 4.8 9.5.854459 1.035267 1.812802 1.980207 2.86 2.82h48v-2.83c0-4.142136 3.357864-7.5 7.5-7.5zm-8.38 169.19v-110.21h-108.62v43.11c0 4.142136-3.357864 7.5-7.5 7.5h-71.94c-4.142136 0-7.5-3.357864-7.5-7.5v-43.11h-108.56v110.21c14.746169 10.884216 24.302368 27.410138 26.38 45.62h251.32c2.077632-18.209862 11.633831-34.735784 26.38-45.62zm0-125.21v-18.65h-108.62v18.65zm-237.53-33.65h170.91c-1.08-2.19-2-4.44-2.91-6.65-1.87-4.59-3.65-8.93-6.3-11s-7.24-2.86-12.12-3.67-9.79-1.63-14.45-3.88-8.26-5.55-11.83-8.77-7.21-6.53-10.61-7.3c-3.18-.73-7.61.57-12.3 1.94-4.52 1.32-9.64 2.82-14.92 2.82s-10.4-1.5-14.92-2.82c-4.69-1.37-9.13-2.67-12.3-1.95-3.4.78-6.91 3.95-10.62 7.31s-7.26 6.56-11.82 8.77-9.65 3.07-14.46 3.88-9.48 1.57-12.11 3.67-4.43 6.46-6.31 11.06c-.93 2.16-1.85 4.45-2.93 6.59zm113.91 84.26v-68.78h-56.94v68.82zm-5.21-254.78v-10.5h-46.51v10.5zm-66.73 204.2v-18.68h-108.56v18.65zm-116.06 170.8h18.76c-3.315914-22.208514-20.736138-39.653079-42.94-43v43zm-7.5-53.89v-145.92h-16.68v141.7c5.719094.650944 11.327414 2.053024 16.68 4.17z" fill="#000"/><path d="m435.8 548.38c-6.465707.02937-12.044405-4.529802-13.303064-10.871884-1.25866-6.342082 2.15617-12.686124 8.143064-15.128116l25.36-10.49c6.847639-2.615125 14.532449.698265 17.33166 7.472736 2.799212 6.774471-.305305 14.546011-7.00166 17.527264l-25.33 10.49c-1.651661.668825-3.41808 1.008521-5.2 1z" fill="#ffa21a"/><path d="m461.12 516.92c3.609825-.04183 6.737262 2.493969 7.44243 6.034495.705167 3.540527-1.212045 7.081069-4.56243 8.425505l-25.32 10.49c-.91108.372893-1.885569.566432-2.87.57-3.590318.017501-6.689444-2.511945-7.391695-6.032958-.702252-3.521013 1.189372-7.045844 4.511695-8.407042l25.35-10.52c.909038-.380769 1.884439-.577888 2.87-.58zm.03-12.02c-2.564023-.002114-5.103006.504323-7.47 1.49l-25.31 10.49c-9.466626 4.379797-13.803424 15.439192-9.837326 25.086456 3.966097 9.647264 14.827493 14.458514 24.637326 10.913544l25.32-10.49c8.525462-3.605048 13.341747-12.70688 11.526895-21.783564-1.814852-9.076683-9.760686-15.626773-19.016895-15.676436z" fill="#000"/><path d="m411.28 506.54c-5.436195-.026339-10.327057-3.308435-12.411724-8.329099-2.084667-5.020665-.957-10.801759 2.861724-14.670901l12.73-12.74c5.194238-5.348878 13.741122-5.474238 19.09-.28s5.474238 13.741122.28 19.09l-.27.27-12.69 12.7c-2.535848 2.553268-5.991487 3.980206-9.59 3.96z" fill="#ffa21a"/><path d="m424.06 472.8c3.035812-.001379 5.773046 1.827484 6.933666 4.632679 1.160619 2.805196.51569 6.033393-1.633666 8.177321l-12.73 12.77c-2.927109 2.935393-7.679607 2.942109-10.615.015s-2.942109-7.679607-.015-10.615l12.75-12.78c1.40409-1.415859 3.315978-2.211579 5.31-2.21zm0-12.01c-5.169953-.015121-10.131413 2.037152-13.78 5.7l-12.72 12.73c-7.451319 7.643166-7.372598 19.856833.176622 27.403316s19.762915 7.620774 27.403378.166684l12.73-12.74c5.578158-5.57701 7.24705-13.96531 4.228328-21.252711-3.018722-7.2874-10.130433-12.038436-18.018328-12.037289z" fill="#000"/><path d="m369.44 482.07c-4.504717-.013874-8.706168-2.27209-11.203095-6.021494-2.496926-3.749403-2.960797-8.496672-1.236905-12.658506l10.49-25.31c1.84349-4.46582 5.929432-7.608917 10.718691-8.245318 4.789259-.6364 9.554232 1.330581 12.5 5.16 2.945769 3.82942 3.6248 8.939498 1.781309 13.405318l-10.49 25.33c-2.095285 5.080288-7.064735 8.380066-12.56 8.34z" fill="#ffa21a"/><path d="m379.93 435.75c2.505685.003326 4.844656 1.256099 6.235951 3.34003s1.651618 4.724472.694049 7.03997l-10.48 25.31c-1.16452 2.804483-3.903353 4.631687-6.94 4.63-.981089-.004602-1.952108-.198127-2.86-.57-1.838089-.761003-3.298525-2.221106-4.059948-4.059022-.761422-1.837915-.761441-3.903048-.000052-5.740978l10.48-25.32c1.155633-2.808629 3.892915-4.641384 6.93-4.64zm0-12.01c-7.892528-.00894-15.006286 4.757278-18 12.06l-10.48 25.3c-1.979958 4.777864-1.980764 10.146585-.002242 14.925043 1.978522 4.778459 5.774292 8.575206 10.552242 10.554957h.1c9.932759 4.059792 21.279174-.668254 25.39-10.58l10.51-25.33c2.502268-6.018466 1.833801-12.88897-1.78169-18.312207s-9.700392-8.682785-16.21831-8.687793z" fill="#000"/><path d="m322.54 589c12.374096.005523 22.401838 10.039235 22.399998 22.413332-.001841 12.374097-10.032569 22.404825-22.406666 22.406666-12.374097.00184-22.407809-10.025902-22.413332-22.399998-.002654-5.946967 2.358594-11.651124 6.563735-15.856265s9.909298-6.566389 15.856265-6.563735zm7.46 22.38c.005519-4.097947-3.312048-7.424465-7.409996-7.429987-4.097947-.005521-7.424466 3.312044-7.429991 7.409992-.005524 4.097947 3.31204 7.424468 7.409987 7.429995 1.967907.002654 3.856268-.77655 5.249663-2.166195 1.393396-1.389645 2.177687-3.275898 2.180337-5.243805z" fill="#000"/><path d="m322.54 469c-7.451277-.011014-13.488986-6.048723-13.5-13.5v-18c0-7.455844 6.044156-13.5 13.5-13.5s13.5 6.044156 13.5 13.5v18c-.011014 7.451277-6.048723 13.488986-13.5 13.5z" fill="#ffa21a"/><path d="m322.54 430c4.142136 0 7.5 3.357864 7.5 7.5v18c0 4.142136-3.357864 7.5-7.5 7.5s-7.5-3.357864-7.5-7.5v-18c-.002654-1.986472.783925-3.892637 2.186697-5.299161 1.402773-1.406523 3.306831-2.198189 5.293303-2.200839zm-.02-12c-10.764983.011024-19.488976 8.735017-19.5 19.5v18c0 10.769553 8.730447 19.5 19.5 19.5s19.5-8.730447 19.5-19.5v-18c-.010999-10.757189-8.722828-19.477962-19.48-19.5z" fill="#000"/><path d="m275.63 482.07c-5.471093.013993-10.40547-3.287453-12.48-8.35l-10.49-25.34c-1.964311-4.448408-1.384429-9.609502 1.518058-13.511094 2.902487-3.901591 7.679012-5.940703 12.504337-5.338138 4.825325.602566 8.953716 3.753685 10.807605 8.249232l.11.26 10.5 25.34c2.823751 6.881445-.436958 14.751812-7.3 17.62-1.637507.688984-3.393537 1.052417-5.17 1.07z" fill="#ffa21a"/><path d="m265.13 435.75c3.035438.004031 5.769987 1.834956 6.93 4.64l10.49 25.32c1.573625 3.827325-.240755 8.206863-4.06 9.8-.91108.372893-1.885569.566432-2.87.57-3.034647.003053-5.771244-1.825294-6.93-4.63l-10.49-25.32c-.957569-2.315498-.697246-4.956039.694049-7.03997s3.730266-3.336704 6.235951-3.34003zm0-12c-6.519887 0-12.608398 3.258472-16.224981 8.683346-3.616582 5.424874-4.282668 12.298297-1.775019 18.316654l10.49 25.31c4.106908 9.910166 15.447264 14.642017 25.38 10.59h.12c9.923326-4.143327 14.633756-15.526121 10.54-25.47l-10.49-25.33c-3.019046-7.273782-10.124568-12.010797-18-12z" fill="#000"/><path d="m233.75 506.54c-3.577218.006555-7.009904-1.411138-9.54-3.94l-12.75-12.76c-3.47604-3.359459-4.890485-8.321127-3.708392-13.008502 1.182094-4.687374 4.780278-8.384924 9.43372-9.694236 4.653442-1.309313 9.651791-.03052 13.104672 3.352738l.27.27 12.72 12.74c3.827548 3.8644 4.962188 9.648328 2.878298 14.672381s-6.979247 8.306843-12.418298 8.327619z" fill="#ffa21a"/><path d="m221 472.8c1.992138-.002006 3.903003.789689 5.31 2.2l12.73 12.74c2.938154 2.929871 2.94487 7.686845.015 10.625-2.929871 2.938154-7.686845 2.94487-10.625.015l-12.73-12.74c-2.142203-2.144868-2.782582-5.368421-1.62287-8.169235s3.891453-4.628099 6.92287-4.630765zm0-11.96c-7.887895-.001147-14.999606 4.749889-18.018328 12.037289-3.018722 7.287401-1.34983 15.675701 4.228328 21.252711l12.79 12.74c7.516595 7.712657 19.862343 7.871595 27.575.355s7.871595-19.862343.355-27.575l-.35-.35-12.78-12.74c-3.651435-3.673232-8.620671-5.732944-13.8-5.72z" fill="#000"/><path d="m209.28 548.38c-1.751866-.000856-3.487042-.340421-5.11-1l-25.37-10.51c-4.744261-1.603481-8.211075-5.701453-9.006195-10.645839-.795121-4.944385 1.212118-9.922655 5.214465-12.932702s9.342083-3.557218 13.87173-1.421459l.26.11 25.32 10.49c5.990526 2.443327 9.405486 8.79308 8.141379 15.138021-1.264108 6.344941-6.851857 10.901077-13.321379 10.861979z" fill="#ffa21a"/><path d="m184 516.92c.985534.002375 1.960884.199484 2.87.58l25.27 10.5c3.252866 1.397869 5.085127 4.880121 4.394954 8.352705-.690172 3.472583-3.714771 5.989538-7.254954 6.037295-.981089-.004602-1.952108-.198127-2.86-.57l-25.33-10.43c-3.341902-1.354793-5.246574-4.896119-4.53466-8.431222.711913-3.535103 3.838858-6.063142 7.44466-6.018778zm0-11.98c-9.308509-.008689-17.325256 6.563056-19.142851 15.692392-1.817594 9.129336 3.070826 18.27042 11.672851 21.827608l25.29 10.54c9.91702 3.906736 21.13342-.873095 25.184191-10.732158s-.565176-21.143895-10.364191-25.337842l-25.22-10.5c-2.366917-.985932-4.905951-1.492379-7.47-1.49z" fill="#000"/><path d="m190.54 673.38h64c5.763008-.17649 10.343389-4.899291 10.343389-10.665s-4.580381-10.48851-10.343389-10.665h-64c-5.878016-.161258-10.778552 4.463486-10.957661 10.340985-.179108 5.8775 4.430733 10.792058 10.307661 10.989015z" fill="#4d3325" opacity=".5"/><path d="m251.13 722.73h64c5.763008-.17649 10.343389-4.899291 10.343389-10.665s-4.580381-10.48851-10.343389-10.665h-64c-3.817599-.127941-7.412372 1.794597-9.425404 5.040846-2.013032 3.24625-2.137202 7.320943-.325571 10.683744 1.811631 3.3628 5.282669 5.500658 9.100975 5.60541z" fill="#4d3325" opacity=".5"/><path d="m385.69 692.49h64c5.878016.161258 10.778552-4.463486 10.957661-10.340985.179108-5.8775-4.430733-10.792058-10.307661-10.989015h-64.65c-5.878016-.161258-10.778552 4.463486-10.957661 10.340985-.179108 5.8775 4.430733 10.792058 10.307661 10.989015z" fill="#4d3325" opacity=".5"/><path d="m343 768.82h64c5.878016.161258 10.778552-4.463486 10.957661-10.340985.179108-5.8775-4.430733-10.792058-10.307661-10.989015h-64.65c-5.878016-.161258-10.778552 4.463486-10.957661 10.340985-.179108 5.8775 4.430733 10.792058 10.307661 10.989015z" fill="#4d3325" opacity=".5"/><path d="m170.59 628.91-81.76-28.86c-1.0354052-.365215-2.1645948-.365215-3.2 0l-81.76 28.86c-1.92299826.68147-3.20866243 2.499823-3.21 4.54v57.71c0 74.68 11.07 102 84.4 139 1.3609656.689591 2.9690344.689591 4.33 0 73.33-37 84.4-64.27 84.4-139v-57.71c.000168-2.037588-1.280946-3.855168-3.2-4.54z" fill="#000"/><path d="m87.23 612.92-72.23 23.93-2.08 54.31c0 8.7.14 16.66.49 24h73.81z" fill="#81cc3b"/><path d="m163.68 715.2c.36-7.38.5-15.34.5-24l-2.18-54.31-74.8-25v103.31z" fill="#7bba38"/><path d="m87.23 713.05v103.07c59.57-30.37 73.85-49.8 76.45-103.07z" fill="#81cc3b"/><path d="m12.94 713.05c2.59 53.27 14.72 72.7 74.29 103.07v-103.07z" fill="#7bba38"/><path d="m87.23 799.62c-67.83-34.62-76.95-48.12-76.95-119.62v9c0 71.53 9.12 94.69 77 129.27 67.83-34.58 77-57.73 77-129.27v-9c-.1 71.5-9.22 85-77.05 119.62z" fill="#000" opacity=".1"/><path d="m58.38 686.38c-.0017097 8.583096 3.826256 16.719357 10.44 22.19l-5.58 39.66c-.1939006 1.37846.2188931 2.773322 1.1317441 3.824251.912851 1.05093 2.2362255 1.65485 3.6282559 1.655749h38.5c1.39203-.000899 2.715405-.604819 3.628256-1.655749.912851-1.050929 1.325645-2.445791 1.131744-3.824251l-5.58-39.66c10.289651-8.559529 13.341001-23.072054 7.369604-35.05057-5.971396-11.978517-19.3972287-18.277021-32.4259958-15.212111-13.028767 3.064909-22.2386293 14.688272-22.2436082 28.072681z" fill="#000"/><path d="m106.5 686.38c-.014992 6.442204-3.254866 12.448923-8.63 16-1.5408966 1.027071-2.3571361 2.846119-2.1 4.68l5.2 37h-27.47l5.2-37c.2571361-1.833881-.5591034-3.652929-2.1-4.68-7.6338783-5.0914-10.607023-14.867039-7.1005999-23.346629s12.5154167-13.300456 21.5156903-11.513413 15.4840746 9.684071 15.4849096 18.860042z" fill="#dfdfe3"/><path d="m82.77 744.06 4.78-34c.2571361-1.833881-.5591034-3.652929-2.1-4.68-7.0782643-4.680803-10.251577-13.44792-7.8091343-21.574802 2.4424427-8.126883 9.9231616-13.692051 18.4091343-13.695198.59 0 1.15.12 1.73.17-8.8641702-5.840411-20.7845884-3.38917-26.6249995 5.475s-3.3891704 20.784589 5.4749995 26.625c1.5408966 1.027071 2.3571361 2.846119 2.1 4.68l-5.2 37z" fill="#000" opacity=".1"/><circle cx="145" cy="145" fill="#007896" fill-rule="evenodd" r="145" transform="translate(116)"/><circle cx="145" cy="145" r="140" stroke="#000" stroke-width="10" transform="translate(116)"/><g transform="translate(116)"><path d="m188.615687 161.045517c-2.686245-.003781-5.260012 1.075406-7.136703 2.992436l-18.955447 19.133454c-4.485347 4.541322-10.60954 7.098361-17.000809 7.098361-6.391268 0-12.515461-2.557039-17.000808-7.098361l-18.909991-19.178794c-1.876691-1.91703-4.450458-2.996217-7.136703-2.992436-2.7020006-.016065-5.2944752 1.064085-7.1821598 2.992436-7.0574216 7.176573-7.0574216 18.667192 0 25.843765l37.4108708 37.813509c3.346002 3.421933 7.935619 5.35116 12.727878 5.350113 4.792259.001047 9.381876-1.92818 12.727878-5.350113l37.547241-37.813509c7.057421-7.176573 7.057421-18.667192 0-25.843765-1.87322-1.889136-4.427381-2.950636-7.091247-2.947096z" fill="#fff" fill-rule="evenodd"/><path d="m188.615845 157.045514c3.730074-.003499 7.306858 1.483764 9.943093 4.142446 8.588083 8.733078 8.588083 22.719993-.013601 31.466834l-37.525664 37.791611c-4.099054 4.192075-9.720145 6.554878-15.586983 6.553594-5.868589.001284-11.489679-2.361519-15.572279-6.536865l-37.4193486-37.822104c-8.5880832-8.733077-8.5880832-22.719992-.0064024-31.446544 2.6461863-2.703193 6.2788722-4.216746 10.034937-4.194305 3.763409-.005297 7.369894 1.50691 9.990649 4.184035l18.907585 19.176357c3.73355 3.780143 8.832701 5.909195 14.154897 5.909195 5.322197 0 10.421347-2.129052 14.159194-5.913539l18.938722-19.11647c2.629504-2.686025 6.233768-4.198069 9.995201-4.194245z" stroke="#000" stroke-width="8"/></g><g transform="translate(116)"><path d="m199.198734 68.9506492c-3.145269-3.1777565-7.4516-4.9627923-11.943101-4.950587-4.687972.0071699-9.174508 1.8896104-12.442623 5.220619l-29.698814 29.7485274-29.153882-29.298474c-3.193932-3.1064822-7.514249-4.8094388-11.988513-4.7255604-4.6879715.0071699-9.1745079 1.8896105-12.4426224 5.2206191l-36.3288252 36.4993277c-6.8263999 6.751261-6.9475188 17.674611-.2724662 24.572914 3.7809743 3.68262 9.8423352 3.68262 13.6233095 0l18.4368788-18.452188c4.3941742-4.462297 10.4198791-6.977624 16.7112595-6.975827 6.077124.001065 11.900186 2.416473 16.166327 6.705795l18.164413 18.002134c1.366893 1.390992 3.150987 2.306644 5.086035 2.61031 3.2075.617593 6.514094-.395929 8.809741-2.70032l18.436878-18.452188c4.394175-4.462297 10.41988-6.977624 16.71126-6.975827 6.077124.001065 11.900186 2.416472 16.166327 6.705795l18.164413 18.002134c1.73525 1.779455 4.133182 2.77238 6.63001 2.745326 2.619099-.007369 5.124314-1.062167 6.947888-2.925347 6.724994-6.849492 6.684623-17.772432-.090822-24.572914z" fill="#fff" fill-rule="evenodd"/><path d="m202.040474 66.1355972 35.68497 35.9961148c8.322486 8.353241 8.372129 21.784861.11583 30.194001-2.574283 2.630193-6.105713 4.11707-9.763195 4.127231-3.588694.038885-7.037539-1.389198-9.489058-3.904001l-18.184785-18.022471c-3.514595-3.533693-8.316851-5.525669-13.331389-5.526549-5.220831-.00149-10.218931 2.08488-13.880517 5.803081l-18.43268 18.44798c-3.219311 3.231574-7.841645 4.659588-12.332307 3.817955-2.755843-.447391-5.296798-1.759444-7.212976-3.7099l-18.184785-18.022471c-3.514595-3.533693-8.31685-5.525669-13.331389-5.526548-5.2208311-.001491-10.2189307 2.084879-13.8805168 5.80308l-18.4755672 18.490386c-5.3341079 5.195352-13.8710262 5.195352-19.2051341 0l-.0836471-.083921c-8.19953-8.473768-8.0505937-21.905886.3119844-30.176241l36.3086121-36.4788738c4.0198198-4.0971803 9.5332113-6.410464 15.2229027-6.4185732 5.540376-.1038648 10.892189 2.0056813 14.898902 5.9034357l26.323116 26.4536686 26.838911-26.8836431c4.01982-4.0971804 9.533211-6.4104641 15.287007-6.4192612 5.561323-.0151125 10.895633 2.1958011 14.795711 6.1355202z" stroke="#000" stroke-width="8"/></g></g></svg>