<svg viewBox="0 0 534.28 493.58" xmlns="http://www.w3.org/2000/svg"><path d="m14.92 14.37h504.44v392.23h-504.44z" fill="#ff2434"/><path d="m370.09 222.32a102.95 102.95 0 1 0 -196.2 43.68 46.35 46.35 0 0 0 16 69.89v32.63h154.46v-32.64a46.35 46.35 0 0 0 16-69.89 102.25 102.25 0 0 0 9.74-43.67zm-134.35 31.92a18 18 0 0 1 0-36l18 18a18 18 0 0 1 -18 18zm62.8 0a18 18 0 0 1 -18-18l18-18a18 18 0 0 1 0 36z" fill="#c32434"/><path d="m333.79 270.68a82.36 82.36 0 1 0 -133.3 0 25.74 25.74 0 0 0 10 49.45v27.8h113.27v-27.8a25.74 25.74 0 0 0 10-49.45zm-98-16.44a18 18 0 0 1 0-36l18 18a18 18 0 0 1 -18.05 18zm62.8 0a18 18 0 0 1 -18-18l18-18a18 18 0 0 1 0 36z" fill="#fff"/><path d="m14.92 14.37h504.44v61.77h-504.44z" fill="#e7e7e7"/><path d="m54.55 182.17h-15.44v-15.44h15.44zm0-30.88h-15.44v-46.29h15.44z" fill="#fff"/><path d="m14.92 76.14h504.44v20.59h-504.44z" fill="#c32434"/><g fill="#1a1a1a"><path d="m38.6 38.56h18.57v18.57h-18.57z"/><path d="m69.48 38.56h18.57v18.57h-18.57z"/><path d="m100.37 38.56h18.57v18.57h-18.57z"/><path d="m131.25 38.56h364.43v18.57h-364.43z"/><path d="m344.64 268.23a90.08 90.08 0 1 0 -155 0 33.47 33.47 0 0 0 13.16 58.71v28.7h128.68v-28.7a33.47 33.47 0 0 0 13.16-58.71zm-13.86 9.56a18 18 0 0 1 -7 34.62h-7.78v27.8h-12.83v-20.09h-15.44v20.08h-12.87v-20.08h-15.44v20.08h-12.87v-20.08h-15.44v20.08h-12.87v-27.8h-7.72a18 18 0 0 1 -7-34.62l8.95-3.79-5.71-7.86a74.64 74.64 0 1 1 120.81 0l-5.74 7.87z"/><path d="m298.54 210.48h-3.2l-22.54 22.52v3.2a25.74 25.74 0 1 0 25.74-25.74zm0 36a10.31 10.31 0 0 1 -9.91-7.49l12.71-12.71a10.29 10.29 0 0 1 -2.81 20.2z"/><path d="m235.74 210.48a25.74 25.74 0 1 0 25.74 25.74v-3.22l-22.54-22.54h-3.2zm0 36a10.3 10.3 0 0 1 -2.81-20.2l12.71 12.72a10.31 10.31 0 0 1 -9.9 7.52z"/><path d="m242.43 279.46h18.57v18.57h-18.57z"/><path d="m276.4 279.46h18.57v18.57h-18.57z"/><path d="m322.22 437.48h18.57v18.57h-18.57z"/><path d="m322.22 468.37h18.57v18.57h-18.57z"/><path d="m322.22 406.6h18.57v18.57h-18.57z"/><path d="m259.93 437.48h18.57v18.57h-18.57z"/><path d="m259.93 406.6h18.57v18.57h-18.57z"/><path d="m259.93 375.71h18.57v18.57h-18.57z"/><path d="m7.2 6.65v407.67h171.41v-15.44h-156v-315h489v315h-156v15.44h171.47v-407.67zm15.44 61.77v-46.33h489v46.33z"/><path d="m196.62 468.37h18.57v18.57h-18.57z"/><path d="m196.62 437.48h18.57v18.57h-18.57z"/><path d="m196.62 406.6h18.57v18.57h-18.57z"/></g></svg>