<svg height="473" viewBox="0 0 553 473" width="553" xmlns="http://www.w3.org/2000/svg"><g fill="none"><g transform="translate(20 20)"><path d="m8.72 8.52h448v400h-448z" fill="#dfdfe3"/><path d="m488.72 264.52h16v-32h-16v-32h-144v32h16v32h-16v16c-27.664827-.016334-52.892441 15.819673-64.903086 40.741296-12.010644 24.921624-8.679969 54.520918 8.568829 76.150108s45.364884 31.46267 72.334257 25.298596v1.81h144v-32h-16v-32h16v-32h-16z" fill="#ffa21a"/><path d="m266.34 368.52h-217.62v-48h24v-80h-24v-64h24v-80h-24v-48h368v144h-32v-64h16v-16h-32v80h-17.13c-7.7-58.8-58-104.38-118.86-104.38-47.600497-.1145892-90.76881 27.917069-110.028075 71.447532-19.259264 43.530463-10.96813 94.329422 21.132574 129.477185s81.941695 47.998941 127.035501 32.755283c-6.153148 14.76163-7.731309 31.030967-4.53 46.7z" fill="#a1abb8"/><path d="m288.21 295.95c-47.121207 29.926126-109.442061 17.538776-141.536894-28.13291-32.094832-45.671686-22.632478-108.503199 21.489953-142.696653 44.122431-34.1934534 107.327399-27.6767578 143.544805 14.800068 36.217405 42.476825 32.660599 105.917225-8.077864 144.079495" fill="#7d8694"/><g fill="#000"><path d="m64.72 64.52h16v16h-16z"/><path d="m384.72 64.52h16v16h-16z"/><path d="m64.72 336.52h16v16h-16z"/><path d="m224.72 272.52h16v24h-16z"/><path d="m224.72 120.52h16v24h-16z"/><path d="m144.72 200.52h24v16h-24z"/><path d="m296.72 200.52h24v16h-24z"/><path d="m278.430037 250.23702h15.99v24h-15.99z" transform="matrix(.70685991 -.70735356 .70735356 .70685991 -101.53163 279.475954)"/><path d="m170.963294 142.738867h15.99v24h-15.99z" transform="matrix(.70685991 -.70735356 .70735356 .70685991 -56.995239 171.946952)"/><path d="m166.986632 254.278271h24v15.99h-24z" transform="matrix(.70723018 -.70698336 .70698336 .70723018 -133.020954 203.326267)"/><path d="m274.451947 146.785667h24v15.99h-24z" transform="matrix(.70723018 -.70698336 .70698336 .70723018 -25.562872 247.831867)"/><path d="m280.07 201.88 14.78-15.32-21.12-2.63c-12.649045-21.160443-39.271269-29.298106-61.589443-18.826155-22.318175 10.47195-33.074561 36.148097-24.884467 59.400732 8.190095 23.252635 32.6633 36.520137 56.617774 30.693832 23.954475-5.826305 39.600364-28.851736 36.196136-53.268409zm-47.34 43.8c-20.522901 0-37.16-16.637099-37.16-37.16s16.637099-37.16 37.16-37.16 37.16 16.637099 37.16 37.16c0 9.857178-3.916433 19.310485-10.887447 26.279624-6.971015 6.96914-16.425376 10.883029-26.282553 10.880376z"/></g><path d="m344.72 304.52c-26.509668 0-48 21.490332-48 48s21.490332 48 48 48 48-21.490332 48-48-21.490332-48-48-48zm0 90.19c-23.300894 0-42.19-18.889106-42.19-42.19s18.889106-42.19 42.19-42.19 42.19 18.889106 42.19 42.19c-.022051 23.291754-18.898246 42.167949-42.19 42.19z" fill="#fff"/><path d="m496.72 288.52v-16h16v-48h-16v-32h-32v-192h-464v416h72v16h72v-16h152.21c15.964444 12.047837 35.892592 17.616574 55.79 15.59v.41h160v-48h-16v-16h16v-48h-16zm-16-80v16h-128v-16zm-57.62 160h57.62v16h-62.72c2.268921-5.135889 3.981998-10.499731 5.11-16zm-14.54-64h72.15v16h-62.71c-2.510936-5.68164-5.675626-11.051211-9.43-16zm-7.85-16h-8.21c-11.590067-8.734071-25.351508-14.125899-39.79-15.59v-.41h128v16zm-112.51 7.43c-47.131086 29.909133-109.446658 17.500654-141.525845-28.181084-32.079187-45.681739-22.596674-108.509144 21.53588-142.688277 44.132554-34.1791326 107.334484-27.6433083 143.538865 14.843611 36.20438 42.486918 32.629529 105.925245-8.1189 144.07575-5.606336 3.342172-10.784502 7.355082-15.42 11.95zm-21.87 72.57h-217.61v-48h24v-80h-24v-64h24v-80h-24v-48h368v144h-32v-64h16v-16h-32v80h-17.13c-7.7-58.8-58-104.38-118.86-104.38-47.600497-.1145892-90.76881 27.917069-110.028075 71.447532-19.259264 43.530463-10.96813 94.329422 21.132574 129.477185s81.941695 47.998941 127.035501 32.755283c-6.153148 14.76163-7.731309 31.030967-4.53 46.7zm-209.62-112v48h-16v-48zm0-144v48h-16v-48zm296 128v16h-10.26c2.279498-5.191516 4.187626-10.538285 5.71-16zm-16 27.24v5.17c-1.17.12-2.3.34-3.46.51 1.22-1.86 2.37-3.76 3.47-5.68zm-264 132.76h-56v-384h432v176h-16v-160h-400v64h-8v80h8v64h-8v80h8v64h238.74c2.507791 5.681161 5.669114 11.050712 9.42 16h-208.15zm208-48c.001634-16.438328 6.357985-32.23963 17.74-44.1 5.2183-3.461492 10.159831-7.323107 14.78-11.55 22.74479-12.964978 51.109266-10.675344 71.48 5.77v1.88h2.19c22.18524 19.449401 28.199998 51.544577 14.562639 77.70727-13.63736 26.162692-43.392626 39.612667-72.041994 32.564419-28.649367-7.048247-48.768164-32.768117-48.710645-62.271689zm216 64h-104.2c6.060386-4.553028 11.446972-9.939614 16-16h88.16zm0-64h-72c-.000325-5.374253-.543075-10.734752-1.62-16h73.62zm-128-96v-16h128v16z" fill="#000"/><path d="m40.72 112.52h16v48h-16z" fill="#ffce00"/><path d="m40.72 256.52h16v48h-16z" fill="#ffce00"/></g><circle cx="253" cy="228" fill="#007896" r="37"/><g transform="translate(216 191)"><g><path d="m48.7644589 41.0113792c-.7018118-.0009452-1.3742375.2688515-1.8645441.7481089l-4.952324 4.7833636c-1.1718475 1.1353305-2.7718619 1.7745903-4.4416528 1.7745903-1.6697908 0-3.2698052-.6392598-4.4416527-1.7745903l-4.940448-4.7946985c-.4903066-.4792575-1.1627323-.7490542-1.864544-.748109-.7059281-.0040163-1.3832413.2660214-1.8764202.748109-1.8438308 1.7941432-1.8438308 4.666798 0 6.4609412l9.7740113 9.4533773c.8741806.8554833 2.0732698 1.3377902 3.3253015 1.3375282 1.2520316.000262 2.4511208-.4820449 3.3253015-1.3375282l9.8096395-9.4533773c1.8438308-1.7941432 1.8438308-4.666798 0-6.4609412-.4893998-.472284-1.1567032-.737659-1.852668-.736774z" fill="#fff" fill-rule="evenodd"/><path d="m48.7644965 40.0113785c.953339-.0008775 1.8700111.3638437 2.5500144 1.020077 2.2473188 2.186758 2.2473188 5.7075786-.0034736 7.8977003l-9.8041277 9.4480246c-1.0623459 1.0396241-2.5130461 1.6231358-4.0245145 1.6228195-1.5118868.0003163-2.962587-.5831954-4.0207292-1.6187297l-9.7761768-9.4554781c-2.2473188-2.186758-2.2473188-5.7075786-.0016359-7.8927411.6826736-.6673207 1.6136592-1.0384949 2.5740934-1.0330059.961858-.0012954 1.886178.3695686 2.5623331 1.0304953l4.9398335 4.7941027c.9840826.9534168 2.3341114 1.4927989 3.7458248 1.4927989s2.7617422-.5393821 3.7469223-1.4938604l4.9480513-4.779212c.678408-.66312 1.6021973-1.0339483 2.5635849-1.0329911z" stroke="#000" stroke-width="2"/></g><g><path d="m50.6923119 17.2730241c-.7945945-.8171374-1.8825096-1.2761466-3.0172046-1.2730081-1.1843297.0018437-2.3177705.4858998-3.1433994 1.3424449l-7.5028584 7.6496213-7.3651913-7.5338933c-.8068881-.7988097-1.8983365-1.2367128-3.0286768-1.2151441-1.1843297.0018437-2.3177705.4858998-3.1433994 1.3424449l-9.1778085 9.3855414c-1.7245642 1.7360385-1.7551627 4.5448999-.0688336 6.3187493.9551935.9469595 2.4864847.9469595 3.4416782 0l4.6577378-4.7448484c1.1101072-1.1474478 2.6323905-1.7942461 4.2217919-1.7937841 1.5352735.0002741 3.0063628.6213788 4.0841248 1.7243473l4.5889042 4.6291204c.3453203.3576835.796039.5931369 1.2848932.6712224.8103156.1588097 1.6456658-.1018102 2.2256186-.694368l4.6577378-4.7448484c1.1101071-1.1474478 2.6323905-1.7942461 4.2217919-1.7937841 1.5352734.0002741 3.0063628.6213787 4.0841247 1.7243473l4.5889043 4.6291203c.438379.4575741 1.0441723.7128977 1.67495.7059409.661667-.0018947 1.2945634-.2731287 1.7552559-.7522321 1.6989458-1.761298 1.6887467-4.5700538-.0229445-6.3187492z" fill="#fff" fill-rule="evenodd"/><path d="m51.4089462 16.5755749 9.01519 9.2561846c2.0902069 2.135394 2.1026487 5.5617678.0291379 7.7113758-.6483011.6742095-1.5401845 1.0564348-2.4650485 1.0590499-.9075963.0100098-1.7786667-.35712-2.3961633-1.0018649l-4.5939516-4.6342487c-.8898832-.9106958-2.1032975-1.4230082-3.3691831-1.4232341-1.318004-.0003831-2.5809191.536213-3.5078741 1.4943098l-4.6566977 4.7437873c-.8152368.8329557-1.9913792 1.1998989-3.0980178.9823854-.7031319-.1123124-1.3509043-.4507058-1.8373461-.9546893l-4.5939516-4.6342487c-.8898833-.9106958-2.1032976-1.4230081-3.3691832-1.4232341-1.3180039-.0003831-2.5809191.536213-3.507874 1.4943099l-4.6673257 4.7544836c-1.3450057 1.3334115-3.504751 1.3334115-4.8704777-.0211599-2.0591516-2.1660212-2.0218248-5.5925256.0786189-7.7069005l9.1728025-9.3803852c1.0134972-1.0514482 2.4060988-1.6461836 3.8443021-1.648269 1.4007071-.0267278 2.7526999.5157091 3.7628225 1.5159067l6.6512962 6.8036462 6.7817051-6.9143127c1.0134972-1.0514482 2.4060989-1.6461836 3.8606144-1.6484472 1.4059233-.0038887 2.7533278.5645442 3.7366048 1.5755551z" stroke="#000" stroke-width="2"/></g></g></g></svg>