<svg viewBox="0 0 576.05 491.69" xmlns="http://www.w3.org/2000/svg" xmlns:xlink="http://www.w3.org/1999/xlink"><linearGradient id="a" gradientUnits="userSpaceOnUse" x1="287.22" x2="287.22" y1="-433.18" y2="678.5"><stop offset="0" stop-color="#1aa59c"/><stop offset="1" stop-color="#005daf"/></linearGradient><path d="m47.42 479.51v-467.34h479.58v467.35zm437.13-35.58v-63.93h-174.41v64zm-218 0v-63.93h-180.14v64zm218-95.76v-64h-174.41v64zm-218 0v-64h-180.14v64zm218-96.88v-64h-174.41v64zm-218 0v-64h-180.14v64zm216.87-99.14v-64h-174.42v64zm-218 0v-64h-180.13v64z" fill="url(#a)"/><path d="m521 18.17v455.35h-467.58v-455.35zm-218 140h186.42v-76h-186.42zm-223.73 0h192.15v-76h-192.13v76m224.85 99.13h186.41v-76h-186.41zm-223.73 0h192.14v-76h-192.14zm223.73 96.88h186.41v-76h-186.41zm-223.73 0h192.14v-76h-192.14zm223.73 95.76h186.41v-75.94h-186.41v76m-223.73 0h192.14v-76h-192.14zm452.59-443.83h-491.58v479.34h491.58zm-218 88h162.42v52h-162.42zm-223.73 0h168.15v52h-168.13v-52zm224.86 99.14h162.42v52h-162.41v-52zm-223.73 0h168.15v52h-168.14v-52zm223.73 96.88h162.42v52h-162.41v-52zm-223.73 0h168.15v52h-168.14v-52zm223.74 95.81h162.41v52h-162.41zm-223.73 0h168.14v52h-168.14z"/><path d="m31.63 284v-134.58h511.18v134.58zm462.71-34.58v-61.42h-415.34v61.46z" fill="#81cc3b"/><path d="m536.81 155.42v122.58h-499.18v-122.58zm-463.81 99.99h427.34v-73.41h-427.34v73.46m475.84-112h-523.21v146.54h523.18v-146.58zm-463.84 50.54h403.34v49.46h-403.34z"/><g fill="#ffa21a"><path d="m530.97 219.5 30.82-30.82v61.64z"/><path d="m45.08 219.5-30.82 30.82v-61.64z"/></g></svg>