<svg viewBox="0 0 663.74 663.69" xmlns="http://www.w3.org/2000/svg" xmlns:xlink="http://www.w3.org/1999/xlink"><linearGradient id="a" gradientUnits="userSpaceOnUse" x1="284.42" x2="198.92" y1="380.93" y2="463.42"><stop offset="0" stop-color="#1aa59c"/><stop offset="1" stop-color="#005daf"/></linearGradient><path d="m498.65 112.94h30.29v73.96h-30.29z" fill="#81cc3b" transform="matrix(.70710678 -.70710678 .70710678 .70710678 44.48 407.22)"/><path d="m150.82 642.79-129.89-129.9c49.34-58.56 70.4-81.89 99.84-109.05l139.1 139.1c-27.17 29.44-51.43 51.72-109.05 99.85z" fill="#81cc3b"/><path d="m385.36 228.33c-64.74 47.27-89.36 37.51-165.7 92.25l123.41 123.42c54.49-76.13 44.87-100.8 92.29-165.64l-39.31-10.69z" fill="#81cc3b"/><path d="m510.88 142.45h30.29v39.38h-30.29z" fill="#7bba38" transform="matrix(.70710678 -.70710678 .70710678 .70710678 39.42 419.45)"/><path d="m150.82 642.79c57.62-48.13 81.88-70.4 109-99.85l-71.2-71.24-104.45 104.44z" fill="#7bba38"/><path d="m343.07 444c54.49-76.13 44.87-100.8 92.29-165.64l-39.31-10.69-.73-2.67-115.62 115.62z" fill="#7bba38"/><path d="m343.07 444c-17.16 24-43.09 55.46-83.21 99l-139.1-139.1c43.49-40.14 75-66.09 98.9-83.26z" fill="#ffce00"/><path d="m483.55 141.1c-42.24 42.24-73.21 69-98.2 87.23l10.69 39.34 39.31 10.69c18.29-25 45-56 87.26-98.19z" fill="#ffce00"/><circle cx="237" cy="426.69" fill="url(#a)" r="35.91"/><path d="m541.74 75.59h64.22v23.14h-64.22z" fill="#ffce00" transform="matrix(.70710678 -.70710678 .70710678 .70710678 106.44 431.3)"/><path d="m589.68 153h64.21v23.14h-64.21z" fill="#ffce00" transform="matrix(.9386135 -.34497058 .34497058 .9386135 -18.61 224.56)"/><path d="m467.03 30.38h64.21v23.14h-64.21z" fill="#ffce00" transform="matrix(.34497058 -.9386135 .9386135 .34497058 287.6 495.99)"/><path d="m463.27 134.48 6.59 6.59c-35.31 34.93-64.86 60.93-90.2 79.45-30.53 22.3-51.89 31.55-74.51 41.34-23.63 10.24-48 20.81-84.41 46.13l-6.74 4.74-9.25 6.63.09.09c-23.22 17.41-50.8 40.77-83.83 71l-6.82 6.3-7.39 6.82c-27.18 25.77-49.61 51.17-93.33 103.06l-5.71 6.79 142.48 142.44 6.76-5.66c52.82-44.11 77.94-66.77 103.08-93.36l6.82-7.39 6.29-6.82c30.2-33 53.55-60.62 71-83.87l.09.09 6.63-9.26.06-.08 4.71-6.58c25.12-36.16 35.68-60.47 45.9-84 9.85-22.7 19.16-44.14 41.6-74.82 18.53-25.34 44.58-54.91 79.48-90.21l6.59 6.59 35.08-35.08-66-66zm-311.87 495.22-117.4-117.36c42.49-50.29 62.73-72.59 86.49-95.06l116.39 116.34 9.55 9.55c-23.61 25-47.22 46.47-95.03 86.53zm108.17-100.7-124.85-124.86c33.35-30.5 61-53.81 84-70.87l55.85 55.85 55.82 55.88c-17.06 23-40.39 50.64-70.82 84zm124.27-177.8c-9.57 22-19.43 44.77-42.07 77.83l-107.14-107.14c33.29-22.83 56.09-32.71 78.2-42.29 20.74-9 40.48-17.53 66.82-35.43l8.53 31.36 31.32 8.52c-18.02 26.49-26.63 46.31-35.67 67.14zm47.7-83.89-27.61-7.51-7.51-27.64c24.89-18.75 53.51-44.18 87.12-77.41l25.46 25.43c-33.24 33.6-58.69 62.22-77.47 87.12zm97.7-94.18-38.64-38.65 7.76-7.75 38.64 38.63z"/><g fill="#ffce00"><path d="m208.58 121.26h19.33v-13.18h13.18v-19.32h-13.18v-13.18h-19.33v13.18h-13.18v19.32h13.18z"/><path d="m607.6 427.28h-19.33v13.18h-13.18v19.33h13.18v13.17h19.33v-13.17h13.18v-19.33h-13.18z"/><path d="m395.82 541.84h-19.33v13.18h-13.18v19.33h13.18v13.18h19.33v-13.18h13.18v-19.33h-13.18z"/><path d="m51.55 317.96h23.14v23.14h-23.14z"/><path d="m479.3 382.86h23.14v23.14h-23.14z"/><path d="m112.79 226.81h23.14v23.14h-23.14z"/></g><path d="m151.11 618.09-36.75-36.75 13.67-13.67 24.13 24.13 36.98-31.5 12.53 14.71z" fill="#fff"/><path d="m91.84 540.83h23.14v26.37h-23.14z" fill="#fff" transform="matrix(.70710678 -.70710678 .70710678 .70710678 -361.46 235.39)"/></svg>