<svg viewBox="0 0 674.17 564.11" xmlns="http://www.w3.org/2000/svg" xmlns:xlink="http://www.w3.org/1999/xlink"><linearGradient id="a" gradientUnits="userSpaceOnUse" x1="511.07" x2="-103.62" y1="-110.01" y2="834.76"><stop offset="0" stop-color="#1aa59c"/><stop offset="1" stop-color="#005daf"/></linearGradient><path d="m331.58 547.75h-131.2l12.8-60h105.6z" fill="#dfdfe3"/><path d="m17.98 107.75h496v380h-496z" fill="#f9f9f9"/><path d="m25.98 115.75h480v301.86h-480z" fill="url(#a)" stroke="#000" stroke-miterlimit="10" stroke-width="12"/><circle cx="265.98" cy="448.55" r="13.6"/><path d="m95.58 120.55h340v238.87h-340z" fill="#fff"/><path d="m522 495.75v-396h-512v396h193.6l-9.6 44h-16v16h176v-16h-16l-9.6-44zm-312 44 9.6-44h92.8l9.6 44zm-184-424h61.6v255h356v-255h62.4v364h-480z"/><path d="m192.38 440.55h16v16h-16z"/><path d="m323.58 440.55h16v16h-16z"/><g fill="#193651"><path d="m150.78 166.95h156.8v16h-156.8z"/><path d="m332.38 166.95h48.8v16h-48.8z"/><path d="m211.58 223.75h169.6v16h-169.6z"/><path d="m150.78 223.75h35.2v16h-35.2z"/></g><path d="m90.05 70.64h351.07v294.45h-351.07z" fill="#81cc3b"/><path d="m118.36 98.95h294.45v237.82h-294.45z" fill="#f9f9f9"/><path d="m90.05 14.02h351.07v56.62h-351.07z" fill="#f9f9f9"/><path d="m84.38 8.35v362.4h362.4v-362.4zm351.08 351.08h-339.75v-283.13h339.75zm-339.75-294.43v-45.32h339.75v45.32z"/><path d="m118.36 36.67h11.32v11.32h-11.32z"/><path d="m151.77 36.67h11.32v11.32h-11.32z"/><path d="m185.18 36.67h11.32v11.32h-11.32z"/><path d="m342.33 279.81a32.09 32.09 0 0 1 15.22 33.82 34.33 34.33 0 0 0 7.31-8.62 32.47 32.47 0 1 0 -55.86-33.11 34.33 34.33 0 0 0 -4 10.55 33.19 33.19 0 0 1 37.33-2.64z" fill="#ff2434"/><path d="m346.94 298.52c23.15-11.63 33.5-37.45 23.44-64.63-28.88 4.11-46.38 25.69-45.66 51.46z" fill="#00aeef"/><path d="m329.2 288c-5 5.6-6.72 13.65-3.91 21.93 8.61-1.51 14.84-6.91 17.36-14z" fill="#ffce00"/><circle cx="357.32" cy="255.91" fill="#fff" r="7.58" transform="matrix(.5099425 -.86020849 .86020849 .5099425 -45.02 432.79)"/><path d="m151.78 169.45h121.6v70.54h-121.6z" fill="none" stroke="#000" stroke-miterlimit="10" stroke-width="9"/><path d="m212.58 123.75h169.6v19.87h-169.6z" fill="none" stroke="#000" stroke-miterlimit="10" stroke-width="9"/><path d="m151.78 123.75h35.2v19.87h-35.2z" fill="none" stroke="#000" stroke-miterlimit="10" stroke-width="9"/><path d="m653.22 417.38a35.15 35.15 0 0 1 -6.93-.69 70.65 70.65 0 0 0 1.61-15.28 16 16 0 0 0 -31.94 0c0 8.75 7 17 17 21.94a46.12 46.12 0 0 1 -5.26 9.14c-13-21.5-38.26-37.89-69.1-44.18a37.26 37.26 0 0 0 11-13.67 37.2 37.2 0 1 0 -35.16-52.9 37 37 0 0 0 -22.73 65c-17.85 2.44-34.64 8.27-48.76 17.06a37 37 0 0 0 -22.65-7.72 5.32 5.32 0 0 0 -5.32 5.32 36.92 36.92 0 0 0 6.4 20.67 70.67 70.67 0 0 0 -14.8 27.23h-2.25a21.31 21.31 0 0 0 -21.33 21.31 33.91 33.91 0 0 0 16.06 28.93l37.17 23.16v27.75a5.32 5.32 0 0 0 5.32 5.32h21.29a5.33 5.33 0 0 0 4.76-2.94l6.3-12.6a141.72 141.72 0 0 0 73.69 0l6.3 12.6a5.33 5.33 0 0 0 4.76 2.94h21.35a5.32 5.32 0 0 0 5.32-5.32v-28.18c20.34-15 31.94-35.59 31.94-57a61.29 61.29 0 0 0 -4.32-22.27 56.22 56.22 0 0 0 10.14-16.07 46.06 46.06 0 0 0 10.14 1.07 5.32 5.32 0 1 0 0-10.65zm-17-4.41c-5.92-3.36-9.57-8-9.57-11.56a5.32 5.32 0 0 1 10.65 0 60.48 60.48 0 0 1 -1.12 11.59z" fill="#1a1a1a"/><circle cx="568.05" cy="337.54" fill="#ffce00" r="26.61"/><path d="m509.5 358.83a26.55 26.55 0 0 1 21.77-26.06 36.61 36.61 0 0 0 -.48 4.76 37.13 37.13 0 0 0 .88 7.89 5.18 5.18 0 0 0 -.88 2.76v21.29a5.32 5.32 0 0 0 10.65 0v-5.94a37.18 37.18 0 0 0 16.77 9.78 26.46 26.46 0 0 1 -48.71-14.48z" fill="#ffca28"/><path d="m509.5 358.83a26.55 26.55 0 0 1 21.77-26.06 36.61 36.61 0 0 0 -.48 4.76 37.13 37.13 0 0 0 .88 7.89 5.18 5.18 0 0 0 -.88 2.76v21.29a5.32 5.32 0 0 0 10.65 0v-5.94a37.18 37.18 0 0 0 16.77 9.78 26.46 26.46 0 0 1 -48.71-14.48z" fill="#ffce00"/><path d="m541.44 363.53v5.94a5.32 5.32 0 0 1 -10.65 0v-21.29a5.18 5.18 0 0 1 .88-2.76 37.17 37.17 0 0 1 -.88-7.89 36.6 36.6 0 0 1 .48-4.76 26.89 26.89 0 0 0 -9 3.47 36.77 36.77 0 0 0 -2.14 11.94 37.54 37.54 0 0 0 25.75 35.34 26.48 26.48 0 0 0 12.31-10.21 37.19 37.19 0 0 1 -16.75-9.78z" fill="#ffa21a" opacity=".39"/><path d="m568.05 353.5a5.32 5.32 0 0 0 5.32-5.32v-21.29a5.32 5.32 0 1 0 -10.65 0v21.29a5.32 5.32 0 0 0 5.33 5.32z" fill="#303c42"/><path d="m597 515.15a5.33 5.33 0 0 0 -2.29 4.38v25.6h-12.71l-6.83-13.65a5.3 5.3 0 0 0 -6.36-2.7 130.3 130.3 0 0 1 -76 0 5.32 5.32 0 0 0 -6.36 2.7l-6.83 13.65h-12.7v-25.38a5.32 5.32 0 0 0 -2.51-4.52l-39.68-24.72a23.31 23.31 0 0 1 -11-19.9 10.66 10.66 0 0 1 10.61-10.61h6.47a5.32 5.32 0 0 0 5.22-4.3c2-10.48 7.62-20.72 16.13-29.61a5.32 5.32 0 0 0 .16-7.19 26.62 26.62 0 0 1 -6-11.43 26.57 26.57 0 0 1 12.47 6.85 5.3 5.3 0 0 0 6.7.58c17.84-12.1 41-18.77 65.3-18.77 52.83 0 95.81 31 95.81 69.2.01 18.87-10.52 36.58-29.6 49.82z" fill="#fdd1b0"/><path d="m597 515.15a5.33 5.33 0 0 0 -2.29 4.38v25.6h-12.71l-6.83-13.65a5.3 5.3 0 0 0 -6.36-2.7 130.3 130.3 0 0 1 -76 0 5.32 5.32 0 0 0 -6.36 2.7l-6.83 13.65h-12.7v-25.38a5.32 5.32 0 0 0 -2.51-4.52l-39.68-24.72a23.31 23.31 0 0 1 -11-19.9 10.66 10.66 0 0 1 10.61-10.61h6.47a5.32 5.32 0 0 0 5.22-4.3c2-10.48 7.62-20.72 16.13-29.61a5.32 5.32 0 0 0 .16-7.19 26.62 26.62 0 0 1 -6-11.43 26.57 26.57 0 0 1 12.47 6.85 5.3 5.3 0 0 0 6.7.58c17.84-12.1 41-18.77 65.3-18.77 52.83 0 95.81 31 95.81 69.2.01 18.87-10.52 36.58-29.6 49.82z" fill="#fdcab4"/><path d="m456.27 438.67a10.65 10.65 0 1 0 10.65 10.65 10.66 10.66 0 0 0 -10.65-10.65z" fill="#1a1a1a"/><path d="m452.16 426c-1 1.07-1.87 2.22-2.81 3.33 20.48-10.77 47-17.32 76.12-17.32 39.61 0 74.56 12.1 95.75 30.57-13-27-48.6-46.54-90.43-46.54-24.27 0-47.46 6.66-65.3 18.77a5.3 5.3 0 0 1 -6.7-.58 26.57 26.57 0 0 0 -12.47-6.85 26.62 26.62 0 0 0 6 11.43 5.32 5.32 0 0 1 -.16 7.19z" fill="#fff" opacity=".2"/><path d="m522.81 518.51c-28.78 0-55.21-5.43-76.34-14.47l17.95 11.18a5.32 5.32 0 0 1 2.51 4.52v25.38h12.67l6.83-13.65a5.32 5.32 0 0 1 6.36-2.7 130.3 130.3 0 0 0 76 0 5.3 5.3 0 0 1 6.36 2.7l6.85 13.66h12.68v-25.6a5.33 5.33 0 0 1 2.29-4.38 75.63 75.63 0 0 0 20.58-20.73c-22.95 14.73-56.84 24.09-94.74 24.09z" opacity=".1"/><path d="m569.71 412.32c-22.28-7.31-55.56-7.31-77.84 0a5.32 5.32 0 1 0 3.32 10.12c20.17-6.62 51-6.62 71.2 0a5.26 5.26 0 0 0 1.66.26 5.32 5.32 0 0 0 1.66-10.38z" fill="#1a1a1a"/></svg>