<svg viewBox="0 0 555.7 555.7" xmlns="http://www.w3.org/2000/svg"><path d="m101.25 439.06h100.92v-163.98h-100.92z" fill="#ffce00"/><path d="m202.17 439.06h151.37v-245.97h-151.37z" fill="#ffce00"/><path d="m353.54 439.06h100.91v-163.98h-100.91z" fill="#ffce00"/><path d="m435.53 439.06h18.92v-163.98h-18.92z" fill="#ffce00"/><path d="m101.25 439.06h18.93v-163.98h-18.93z" fill="#ffa21a" opacity=".39"/><g fill="#dfdfe3"><path d="m252.62 249.85h-12.62a6.31 6.31 0 0 1 -6.31-6.31v-12.61a6.31 6.31 0 0 1 6.31-6.31h12.61a6.31 6.31 0 0 1 6.31 6.31v12.61a6.31 6.31 0 0 1 -6.31 6.31"/><path d="m315.7 249.85h-12.62a6.31 6.31 0 0 1 -6.31-6.31v-12.61a6.31 6.31 0 0 1 6.31-6.31h12.62a6.31 6.31 0 0 1 6.31 6.31v12.61a6.31 6.31 0 0 1 -6.31 6.31"/><path d="m252.62 300.31h-12.62a6.31 6.31 0 0 1 -6.3-6.31v-12.61a6.31 6.31 0 0 1 6.31-6.31h12.61a6.31 6.31 0 0 1 6.31 6.31v12.61a6.31 6.31 0 0 1 -6.31 6.31"/><path d="m315.7 300.31h-12.62a6.31 6.31 0 0 1 -6.31-6.31v-12.61a6.31 6.31 0 0 1 6.31-6.31h12.62a6.31 6.31 0 0 1 6.31 6.31v12.61a6.31 6.31 0 0 1 -6.31 6.31"/><path d="m252.62 350.77h-12.62a6.31 6.31 0 0 1 -6.31-6.31v-12.62a6.31 6.31 0 0 1 6.31-6.31h12.61a6.31 6.31 0 0 1 6.31 6.31v12.61a6.31 6.31 0 0 1 -6.31 6.31"/><path d="m315.7 350.77h-12.62a6.31 6.31 0 0 1 -6.31-6.31v-12.62a6.31 6.31 0 0 1 6.31-6.31h12.62a6.31 6.31 0 0 1 6.31 6.31v12.61a6.31 6.31 0 0 1 -6.31 6.31"/></g><path d="m252.63 439.06h50.45v-56.76h-50.45z" fill="#ffa21a"/><path d="m132.79 413.84h37.84v-50.46h-37.84z" fill="#dfdfe3"/><path d="m132.79 338.15h37.84v-37.84h-37.84z" fill="#dfdfe3"/><path d="m385.07 413.84h37.85v-50.46h-37.85z" fill="#dfdfe3"/><path d="m385.07 338.15h37.85v-37.84h-37.85z" fill="#dfdfe3"/><path d="m284.16 174.14a25.23 25.23 0 0 1 -25.2-25.2 6.28 6.28 0 1 1 12.56 0 12.64 12.64 0 1 0 12.64-12.64 25.2 25.2 0 1 1 25.2-25.2 6.28 6.28 0 1 1 -12.56 0 12.64 12.64 0 1 0 -12.64 12.64 25.2 25.2 0 1 1 0 50.41z" fill="#ffa21a"/><path d="m284.16 199.37a6.28 6.28 0 0 1 -6.28-6.28v-119.83a6.28 6.28 0 1 1 12.56 0v119.83a6.28 6.28 0 0 1 -6.28 6.28z" fill="#ffa21a"/><path d="m353.54 445.35h-151.37a6.28 6.28 0 0 1 -6.28-6.28v-246a6.28 6.28 0 0 1 6.28-6.28h151.37a6.28 6.28 0 0 1 6.28 6.28v246a6.28 6.28 0 0 1 -6.28 6.28zm-145.09-12.57h138.8v-233.41h-138.8z"/><path d="m454.45 445.35h-100.91a6.28 6.28 0 0 1 -6.28-6.28v-164a6.28 6.28 0 0 1 6.28-6.28h100.91a6.28 6.28 0 0 1 6.28 6.28v164a6.28 6.28 0 0 1 -6.28 6.28zm-94.63-12.56h88.35v-151.43h-88.35v151.42z"/><path d="m202.17 445.35h-100.91a6.28 6.28 0 0 1 -6.26-6.29v-164a6.28 6.28 0 0 1 6.28-6.28h100.89a6.28 6.28 0 0 1 6.28 6.28v164a6.28 6.28 0 0 1 -6.28 6.29zm-94.63-12.56h88.35v-151.43h-88.35z"/><path d="m101.26 281.36h-6.31a6.28 6.28 0 1 1 0-12.56h6.31a6.28 6.28 0 0 1 0 12.56z"/><path d="m460.76 281.36h-6.31a6.28 6.28 0 1 1 0-12.56h6.31a6.28 6.28 0 0 1 0 12.56z"/><path d="m366.15 199.37h-176.6a6.28 6.28 0 0 1 0-12.56h176.6a6.28 6.28 0 0 1 0 12.56z"/><path d="m252.62 256.14h-12.62a12.6 12.6 0 0 1 -12.59-12.59v-12.62a12.6 12.6 0 0 1 12.59-12.59h12.61a12.6 12.6 0 0 1 12.59 12.59v12.61a12.6 12.6 0 0 1 -12.58 12.6zm-12.62-25.23v12.64h12.64v-12.62z"/><path d="m315.7 256.14h-12.62a12.6 12.6 0 0 1 -12.59-12.59v-12.62a12.6 12.6 0 0 1 12.59-12.59h12.62a12.6 12.6 0 0 1 12.59 12.59v12.61a12.6 12.6 0 0 1 -12.59 12.6zm-12.61-25.23v12.64h12.64v-12.62z"/><path d="m252.62 306.59h-12.62a12.6 12.6 0 0 1 -12.58-12.59v-12.61a12.6 12.6 0 0 1 12.58-12.59h12.61a12.6 12.6 0 0 1 12.59 12.59v12.61a12.6 12.6 0 0 1 -12.58 12.59zm-12.62-25.23v12.64h12.64v-12.61z"/><path d="m315.7 306.59h-12.62a12.6 12.6 0 0 1 -12.59-12.59v-12.61a12.6 12.6 0 0 1 12.59-12.59h12.62a12.6 12.6 0 0 1 12.59 12.59v12.61a12.6 12.6 0 0 1 -12.59 12.59zm-12.61-25.23v12.64h12.64v-12.61z"/><path d="m252.62 357h-12.62a12.6 12.6 0 0 1 -12.59-12.59v-12.57a12.6 12.6 0 0 1 12.59-12.58h12.61a12.6 12.6 0 0 1 12.59 12.59v12.61a12.6 12.6 0 0 1 -12.58 12.54zm-12.62-25.18v12.64h12.64v-12.62z"/><path d="m315.7 357h-12.62a12.6 12.6 0 0 1 -12.59-12.59v-12.57a12.6 12.6 0 0 1 12.59-12.59h12.62a12.6 12.6 0 0 1 12.59 12.59v12.61a12.6 12.6 0 0 1 -12.59 12.55zm-12.61-25.23v12.64h12.64v-12.57z"/><path d="m303.08 445.35h-50.46a6.28 6.28 0 0 1 -6.28-6.28v-56.77a6.28 6.28 0 0 1 6.28-6.28h50.46a6.28 6.28 0 0 1 6.28 6.28v56.76a6.28 6.28 0 0 1 -6.28 6.29zm-44.18-12.56h37.9v-44.2h-37.89v44.2z"/><path d="m277.85 174.14a25.23 25.23 0 0 1 -25.2-25.2 6.28 6.28 0 1 1 12.56 0 12.64 12.64 0 1 0 12.64-12.64 25.2 25.2 0 1 1 25.2-25.2 6.28 6.28 0 1 1 -12.56 0 12.64 12.64 0 1 0 -12.64 12.64 25.2 25.2 0 1 1 0 50.41z"/><path d="m277.85 199.37a6.28 6.28 0 0 1 -6.28-6.28v-119.83a6.28 6.28 0 1 1 12.56 0v119.83a6.28 6.28 0 0 1 -6.28 6.28z"/><path d="m170.63 420.12h-37.84a6.28 6.28 0 0 1 -6.28-6.28v-50.46a6.28 6.28 0 0 1 6.28-6.28h37.84a6.28 6.28 0 0 1 6.28 6.28v50.46a6.28 6.28 0 0 1 -6.28 6.28zm-31.56-12.56h25.28v-37.9h-25.28z"/><path d="m170.63 344.43h-37.84a6.28 6.28 0 0 1 -6.28-6.28v-37.84a6.28 6.28 0 0 1 6.28-6.28h37.84a6.28 6.28 0 0 1 6.28 6.28v37.84a6.28 6.28 0 0 1 -6.28 6.28zm-31.56-12.56h25.28v-25.28h-25.28z"/><path d="m422.91 420.12h-37.84a6.28 6.28 0 0 1 -6.28-6.28v-50.46a6.28 6.28 0 0 1 6.28-6.28h37.84a6.28 6.28 0 0 1 6.28 6.28v50.46a6.28 6.28 0 0 1 -6.28 6.28zm-31.56-12.56h25.28v-37.9h-25.28z"/><path d="m422.91 344.43h-37.84a6.28 6.28 0 0 1 -6.28-6.28v-37.84a6.28 6.28 0 0 1 6.28-6.28h37.84a6.28 6.28 0 0 1 6.28 6.28v37.84a6.28 6.28 0 0 1 -6.28 6.28zm-31.56-12.56h25.28v-25.28h-25.28z"/><path d="m277.85 16.22c-144.5 0-261.64 117.14-261.64 261.64s117.14 261.63 261.64 261.63 261.64-117.14 261.64-261.64-117.14-261.63-261.64-261.63zm-219.52 261.63c0-121.24 98.28-219.52 219.52-219.52a218.63 218.63 0 0 1 139.62 50.12l-309 309a218.63 218.63 0 0 1 -50.14-139.6zm219.52 219.52a218.63 218.63 0 0 1 -139.62-50.12l309-309a218.63 218.63 0 0 1 50.12 139.62c.02 121.22-98.26 219.5-219.5 219.5z" fill="#ff2434"/><path d="m174.15 340.61-65 65a211.65 211.65 0 0 1 8.69-266.25 7.9 7.9 0 1 0 -11.95-10.36 227.44 227.44 0 0 0 -3.53 293.48 7.9 7.9 0 0 0 5.71 2.86h.38a7.9 7.9 0 0 0 5.58-2.31l73.54-73.54.09-.09 235.4-235.4a7.9 7.9 0 0 0 -.56-11.68 227.44 227.44 0 0 0 -293.5 3.57 7.9 7.9 0 0 0 10.34 11.94 211.65 211.65 0 0 1 266.25-8.69l-25.83 25.86"/><path d="m453.35 133.2a7.9 7.9 0 0 0 -11.68-.56l-73.5 73.5-.19.19-191.46 191.46-.12.12-43.75 43.75a7.9 7.9 0 0 0 .56 11.68 227.43 227.43 0 0 0 320.14-320.14zm-71.79 81.89 65-65a212 212 0 0 1 42.91 127.77c0 116.69-94.93 211.62-211.62 211.62a212 212 0 0 1 -127.77-42.91l25.86-25.86"/><path d="m468.44 87.26a269.53 269.53 0 0 0 -381.18 381.18 269.53 269.53 0 0 0 381.18-381.18zm-190.59 444.33c-139.91 0-253.74-113.83-253.74-253.74s113.83-253.74 253.74-253.74 253.74 113.83 253.74 253.74-113.83 253.74-253.74 253.74z"/></svg>