<svg width="34" height="35" viewBox="0 0 34 35" fill="none" xmlns="http://www.w3.org/2000/svg">
<g filter="url(#filter0_d)">
<circle cx="17" cy="17" r="16" fill="white"/>
</g>
<path fill-rule="evenodd" clip-rule="evenodd" d="M31.7 17C31.7 25.1186 25.1186 31.7001 17 31.7001C8.88142 31.7001 2.3 25.1186 2.3 17C2.3 8.88146 8.88142 2.30005 17 2.30005C25.1186 2.30005 31.7 8.88146 31.7 17Z" fill="white"/>
<path fill-rule="evenodd" clip-rule="evenodd" d="M17 33C25.8366 33 33 25.8366 33 17C33 8.16344 25.8366 1 17 1C8.16344 1 1 8.16344 1 17C1 25.8366 8.16344 33 17 33ZM31.7 17C31.7 25.1186 25.1186 31.7 17 31.7C8.88141 31.7 2.3 25.1186 2.3 17C2.3 8.88141 8.88141 2.3 17 2.3C25.1186 2.3 31.7 8.88141 31.7 17Z" fill="#69594D"/>
<path d="M10.75 12.2083H23.25C23.692 12.2083 24.1159 12.3839 24.4285 12.6964C24.7411 13.009 24.9167 13.4329 24.9167 13.875V16.375C24.9167 16.596 24.8289 16.8079 24.6726 16.9642C24.5163 17.1205 24.3043 17.2083 24.0833 17.2083C23.8623 17.2083 23.6504 17.1205 23.4941 16.9642C23.3378 16.8079 23.25 16.596 23.25 16.375V13.875H10.75V23.0416H23.25V21.375C23.25 21.1539 23.3378 20.942 23.4941 20.7857C23.6504 20.6294 23.8623 20.5416 24.0833 20.5416C24.3043 20.5416 24.5163 20.6294 24.6726 20.7857C24.8289 20.942 24.9167 21.1539 24.9167 21.375V23.0416C24.9167 23.4837 24.7411 23.9076 24.4285 24.2201C24.1159 24.5327 23.692 24.7083 23.25 24.7083H10.75C10.308 24.7083 9.88404 24.5327 9.57148 24.2201C9.25892 23.9076 9.08333 23.4837 9.08333 23.0416V11.7916C9.08333 11.1286 9.34672 10.4927 9.81556 10.0239C10.2844 9.55502 10.9203 9.29163 11.5833 9.29163H22.4167C22.6377 9.29163 22.8496 9.37942 23.0059 9.5357C23.1622 9.69198 23.25 9.90395 23.25 10.125C23.25 10.346 23.1622 10.5579 23.0059 10.7142C22.8496 10.8705 22.6377 10.9583 22.4167 10.9583H11.5833C11.3623 10.9583 11.1504 11.0461 10.9941 11.2024C10.8378 11.3587 10.75 11.5706 10.75 11.7916V12.2083ZM25.75 18.875C25.75 18.6539 25.6622 18.442 25.5059 18.2857C25.3496 18.1294 25.1377 18.0416 24.9167 18.0416H19.9167C19.6956 18.0416 19.4837 18.1294 19.3274 18.2857C19.1711 18.442 19.0833 18.6539 19.0833 18.875C19.0833 19.096 19.1711 19.3079 19.3274 19.4642C19.4837 19.6205 19.6956 19.7083 19.9167 19.7083H24.9167C25.1377 19.7083 25.3496 19.6205 25.5059 19.4642C25.6622 19.3079 25.75 19.096 25.75 18.875Z" fill="white"/>
<path d="M10.75 13.875H24.9188V16.3719C24.9188 16.8327 24.5452 17.2062 24.0844 17.2062V17.2062C23.6236 17.2062 23.25 17.5798 23.25 18.0406V18.875V19.7094C23.25 20.1702 23.6236 20.5438 24.0844 20.5438V20.5438C24.5452 20.5438 24.9188 20.9173 24.9188 21.3781V23.25H10.75V13.875Z" fill="#D6C3B4"/>
<path d="M10.7499 12.2082H23.25C23.692 12.2082 24.1159 12.3838 24.4285 12.6963C24.741 13.0089 24.9166 13.4328 24.9166 13.8748V15.1248V16.3748C24.9166 16.5959 24.8288 16.8078 24.6725 16.9641C24.5163 17.1204 24.3043 17.2082 24.0833 17.2082C23.8623 17.2082 23.6503 17.1204 23.494 16.9641C23.3377 16.8078 23.25 16.5959 23.25 16.3748V13.8748H10.7499V23.0415H23.25V21.3748C23.25 21.1538 23.3377 20.9419 23.494 20.7856C23.6503 20.6293 23.8623 20.5415 24.0833 20.5415C24.3043 20.5415 24.5163 20.6293 24.6725 20.7856C24.8288 20.9419 24.9166 21.1538 24.9166 21.3748V23.0415C24.9166 23.4835 24.741 23.9075 24.4285 24.22C24.1159 24.5326 23.692 24.7082 23.25 24.7082H10.7499C10.3079 24.7082 9.884 24.5326 9.57144 24.22C9.25888 23.9075 9.08328 23.4835 9.08328 23.0415V11.7915C9.08328 11.1285 9.34667 10.4926 9.81552 10.0237C10.2844 9.5549 10.9202 9.2915 11.5833 9.2915H22.4166C22.6376 9.2915 22.8496 9.3793 23.0059 9.53558C23.1622 9.69186 23.25 9.90382 23.25 10.1248C23.25 10.3459 23.1622 10.5578 23.0059 10.7141C22.8496 10.8704 22.6376 10.9582 22.4166 10.9582H11.5833C11.3623 10.9582 11.1503 11.046 10.994 11.2022C10.8377 11.3585 10.7499 11.5705 10.7499 11.7915V12.2082ZM25.7499 18.8748C25.7499 18.6538 25.6622 18.4419 25.5059 18.2856C25.3496 18.1293 25.1376 18.0415 24.9166 18.0415H19.9166C19.6956 18.0415 19.4836 18.1293 19.3274 18.2856C19.1711 18.4419 19.0833 18.6538 19.0833 18.8748C19.0833 19.0959 19.1711 19.3078 19.3274 19.4641C19.4836 19.6204 19.6956 19.7082 19.9166 19.7082H24.9166C25.1376 19.7082 25.3496 19.6204 25.5059 19.4641C25.6622 19.3078 25.7499 19.0959 25.7499 18.8748Z" fill="#69594D"/>
<defs>
<filter id="filter0_d" x="0.1" y="0.45" width="33.8" height="33.8" filterUnits="userSpaceOnUse" color-interpolation-filters="sRGB">
<feFlood flood-opacity="0" result="BackgroundImageFix"/>
<feColorMatrix in="SourceAlpha" type="matrix" values="0 0 0 0 0 0 0 0 0 0 0 0 0 0 0 0 0 0 127 0"/>
<feOffset dy="0.35"/>
<feGaussianBlur stdDeviation="0.45"/>
<feColorMatrix type="matrix" values="0 0 0 0 0.121569 0 0 0 0 0.184314 0 0 0 0 0.278431 0 0 0 0.35 0"/>
<feBlend mode="normal" in2="BackgroundImageFix" result="effect1_dropShadow"/>
<feBlend mode="normal" in="SourceGraphic" in2="effect1_dropShadow" result="shape"/>
</filter>
</defs>
</svg>
