<?xml version="1.0" encoding="UTF-8"?>
<svg width="34px" height="34px" viewBox="0 0 34 34" version="1.1" xmlns="http://www.w3.org/2000/svg" xmlns:xlink="http://www.w3.org/1999/xlink">
    <!-- Generator: Sketch 52.6 (67491) - http://www.bohemiancoding.com/sketch -->
    <title>Eximchain Wallet</title>
    <desc>Created with Sketch.</desc>
    <defs>
        <circle id="path-1" cx="16" cy="16" r="16"></circle>
        <filter x="-4.8%" y="-3.7%" width="109.5%" height="109.5%" filterUnits="objectBoundingBox" id="filter-2">
            <feOffset dx="0" dy="0.35" in="SourceAlpha" result="shadowOffsetOuter1"></feOffset>
            <feGaussianBlur stdDeviation="0.45" in="shadowOffsetOuter1" result="shadowBlurOuter1"></feGaussianBlur>
            <feColorMatrix values="0 0 0 0 0.121568627   0 0 0 0 0.184313725   0 0 0 0 0.278431373  0 0 0 0.35 0" type="matrix" in="shadowBlurOuter1"></feColorMatrix>
        </filter>
    </defs>
    <g id="Page-1" stroke="none" stroke-width="1" fill="none" fill-rule="evenodd">
        <g id="Eximchain-Wallet" transform="translate(1.000000, 1.000000)">
            <g id="Oval">
                <use fill="black" fill-opacity="1" filter="url(#filter-2)" xlink:href="#path-1"></use>
                <use fill="#FFFFFF" fill-rule="evenodd" xlink:href="#path-1"></use>
            </g>
            <path d="M30.7,16 C30.7,24.1186 24.1186,30.7001 16,30.7001 C7.88142,30.7001 1.3,24.1186 1.3,16 C1.3,7.88146 7.88142,1.30005 16,1.30005 C24.1186,1.30005 30.7,7.88146 30.7,16 Z" id="Path" fill="#267EDC"></path>
            <path d="M16,32 C24.8366,32 32,24.8366 32,16 C32,7.16344 24.8366,0 16,0 C7.16344,0 0,7.16344 0,16 C0,24.8366 7.16344,32 16,32 Z M30.7,16 C30.7,24.1186 24.1186,30.7 16,30.7 C7.88141,30.7 1.3,24.1186 1.3,16 C1.3,7.88141 7.88141,1.3 16,1.3 C24.1186,1.3 30.7,7.88141 30.7,16 Z" id="Shape" fill="#FFFFFF" fill-rule="nonzero"></path>
            <path d="M9.75,11.2083 L22.25,11.2083 C22.692,11.2083 23.1159,11.3839 23.4285,11.6964 C23.7411,12.009 23.9167,12.4329 23.9167,12.875 L23.9167,15.375 C23.9167,15.596 23.8289,15.8079 23.6726,15.9642 C23.5163,16.1205 23.3043,16.2083 23.0833,16.2083 C22.8623,16.2083 22.6504,16.1205 22.4941,15.9642 C22.3378,15.8079 22.25,15.596 22.25,15.375 L22.25,12.875 L9.75,12.875 L9.75,22.0416 L22.25,22.0416 L22.25,20.375 C22.25,20.1539 22.3378,19.942 22.4941,19.7857 C22.6504,19.6294 22.8623,19.5416 23.0833,19.5416 C23.3043,19.5416 23.5163,19.6294 23.6726,19.7857 C23.8289,19.942 23.9167,20.1539 23.9167,20.375 L23.9167,22.0416 C23.9167,22.4837 23.7411,22.9076 23.4285,23.2201 C23.1159,23.5327 22.692,23.7083 22.25,23.7083 L9.75,23.7083 C9.308,23.7083 8.88404,23.5327 8.57148,23.2201 C8.25892,22.9076 8.08333,22.4837 8.08333,22.0416 L8.08333,10.7916 C8.08333,10.1286 8.34672,9.4927 8.81556,9.0239 C9.2844,8.55502 9.9203,8.29163 10.5833,8.29163 L21.4167,8.29163 C21.6377,8.29163 21.8496,8.37942 22.0059,8.5357 C22.1622,8.69198 22.25,8.90395 22.25,9.125 C22.25,9.346 22.1622,9.5579 22.0059,9.7142 C21.8496,9.8705 21.6377,9.9583 21.4167,9.9583 L10.5833,9.9583 C10.3623,9.9583 10.1504,10.0461 9.9941,10.2024 C9.8378,10.3587 9.75,10.5706 9.75,10.7916 L9.75,11.2083 Z M24.75,17.875 C24.75,17.6539 24.6622,17.442 24.5059,17.2857 C24.3496,17.1294 24.1377,17.0416 23.9167,17.0416 L18.9167,17.0416 C18.6956,17.0416 18.4837,17.1294 18.3274,17.2857 C18.1711,17.442 18.0833,17.6539 18.0833,17.875 C18.0833,18.096 18.1711,18.3079 18.3274,18.4642 C18.4837,18.6205 18.6956,18.7083 18.9167,18.7083 L23.9167,18.7083 C24.1377,18.7083 24.3496,18.6205 24.5059,18.4642 C24.6622,18.3079 24.75,18.096 24.75,17.875 Z" id="Shape" fill="#FFFFFF" fill-rule="nonzero"></path>
        </g>
    </g>
</svg>