<svg fill="none" height="516" viewBox="0 0 512 516" width="512" xmlns="http://www.w3.org/2000/svg" xmlns:xlink="http://www.w3.org/1999/xlink"><filter id="a" color-interpolation-filters="sRGB" filterUnits="userSpaceOnUse" height="512" width="512" x="0" y="4"><feFlood flood-opacity="0" result="BackgroundImageFix"/><feColorMatrix in="SourceAlpha" type="matrix" values="0 0 0 0 0 0 0 0 0 0 0 0 0 0 0 0 0 0 127 0"/><feOffset dy="4"/><feGaussianBlur stdDeviation="8"/><feColorMatrix type="matrix" values="0 0 0 0 0.121569 0 0 0 0 0.184314 0 0 0 0 0.278431 0 0 0 0.35 0"/><feBlend in2="BackgroundImageFix" mode="normal" result="effect1_dropShadow"/><feBlend in="SourceGraphic" in2="effect1_dropShadow" mode="normal" result="shape"/></filter><g filter="url(#a)"><circle cx="256" cy="256" fill="#267edc" r="240"/></g><g clip-rule="evenodd" fill-rule="evenodd"><path d="m476.5 256c0 121.779-98.721 220.5-220.5 220.5s-220.5-98.721-220.5-220.5 98.721-220.4999 220.5-220.4999 220.5 98.7209 220.5 220.4999z" fill="#267edc"/><path d="m256 496c132.548 0 240-107.452 240-240s-107.452-240-240-240-240 107.452-240 240 107.452 240 240 240zm220.5-240c0 121.779-98.721 220.5-220.5 220.5s-220.5-98.721-220.5-220.5 98.721-220.5 220.5-220.5 220.5 98.721 220.5 220.5z" fill="#fff"/><path d="m195.687 241.923 14.955 25.904 99.854-57.651 3.726 1.012-6.727 45.003-.987 3.733-68.664 39.643.01.002-6.663 3.846.01.017-42.407 24.485-.01-.018-64.409 37.187-3.725-1.013 6.727-45.002.986-3.733 33.436-19.304-.01-.002 6.446-3.721-35.359-61.244.995-3.716 188.315-108.724 3.738.983-6.889 44.815-.93 3.678-121.422 70.104zm2.236 101.806 27.444 47.534 3.716.996 154.417-89.153 1.058-3.752 7.244-45.02-3.686-1.013-137.029 79.114-3.716-.996-7.04-12.194z" fill="#fff"/></g></svg>