<svg xmlns="http://www.w3.org/2000/svg" xmlns:xlink="http://www.w3.org/1999/xlink" viewBox="0 0 953.37 984"><defs><style>.cls-1{fill:url(#radial-gradient);}.cls-2{fill:url(#radial-gradient-2);}.cls-3{fill:url(#linear-gradient);}.cls-4{fill:url(#radial-gradient-3);}.cls-5{fill:url(#radial-gradient-4);}.cls-6{fill:url(#radial-gradient-5);}.cls-7{fill:url(#radial-gradient-6);}.cls-8{fill:url(#radial-gradient-7);}.cls-9{fill:url(#linear-gradient-2);}.cls-10{fill:url(#linear-gradient-3);}.cls-11{fill:url(#linear-gradient-4);}.cls-12{fill:url(#linear-gradient-5);}.cls-13{fill:url(#linear-gradient-6);}.cls-14{fill:url(#linear-gradient-7);}</style><radialGradient id="radial-gradient" cx="-14586.11" cy="9330.25" fx="-14614.867620377407" r="450.88" gradientTransform="matrix(0.76, 0.03, 0.05, -1.12, 11556.29, 11192.01)" gradientUnits="userSpaceOnUse"><stop offset="0.04" stop-color="#ffea00"/><stop offset="0.12" stop-color="#ffde00"/><stop offset="0.25" stop-color="#ffbf00"/><stop offset="0.43" stop-color="#ff8e00"/><stop offset="0.77" stop-color="#ff272d"/><stop offset="0.87" stop-color="#e0255a"/><stop offset="0.95" stop-color="#cc2477"/><stop offset="1" stop-color="#c42482"/></radialGradient><radialGradient id="radial-gradient-2" cx="663.12" cy="826.87" r="969.26" gradientTransform="matrix(1, 0, 0, -1, 0, 1020)" gradientUnits="userSpaceOnUse"><stop offset="0" stop-color="#00ccda"/><stop offset="0.22" stop-color="#0083ff"/><stop offset="0.26" stop-color="#007af9"/><stop offset="0.33" stop-color="#0060e8"/><stop offset="0.33" stop-color="#005fe7"/><stop offset="0.44" stop-color="#2639ad"/><stop offset="0.52" stop-color="#401e84"/><stop offset="0.57" stop-color="#4a1475"/></radialGradient><linearGradient id="linear-gradient" x1="540.65" y1="290.81" x2="349.21" y2="917.03" gradientTransform="matrix(1, 0, 0, -1, 0, 1020)" gradientUnits="userSpaceOnUse"><stop offset="0" stop-color="#000f43" stop-opacity="0.4"/><stop offset="0.48" stop-color="#001962" stop-opacity="0.17"/><stop offset="1" stop-color="#002079" stop-opacity="0"/></linearGradient><radialGradient id="radial-gradient-3" cx="-8266.73" cy="7499.88" r="266.89" gradientTransform="matrix(1.22, 0.12, 0.12, -1.22, 10147.38, 10794.61)" gradientUnits="userSpaceOnUse"><stop offset="0" stop-color="#ffea00"/><stop offset="0.5" stop-color="#ff272d"/><stop offset="1" stop-color="#c42482"/></radialGradient><radialGradient id="radial-gradient-4" cx="-8290.88" cy="7755.79" r="445.68" gradientTransform="matrix(1.22, 0.12, 0.12, -1.22, 10147.38, 10794.61)" gradientUnits="userSpaceOnUse"><stop offset="0" stop-color="#ffe900"/><stop offset="0.16" stop-color="#ffaf0e"/><stop offset="0.32" stop-color="#ff7a1b"/><stop offset="0.47" stop-color="#ff4e26"/><stop offset="0.62" stop-color="#ff2c2e"/><stop offset="0.76" stop-color="#ff1434"/><stop offset="0.89" stop-color="#ff0538"/><stop offset="1" stop-color="#ff0039"/></radialGradient><radialGradient id="radial-gradient-5" cx="-8227.84" cy="7342.65" r="408.96" gradientTransform="matrix(1.22, 0.12, 0.12, -1.22, 10147.38, 10794.61)" gradientUnits="userSpaceOnUse"><stop offset="0" stop-color="#ff272d"/><stop offset="0.5" stop-color="#c42482"/><stop offset="0.99" stop-color="#620700"/></radialGradient><radialGradient id="radial-gradient-6" cx="715.19" cy="625.96" fx="743.1664155865008" fy="612.1304472755393" r="782.18" gradientTransform="matrix(1, 0, 0, -1, 0, 1020)" gradientUnits="userSpaceOnUse"><stop offset="0.16" stop-color="#ffea00"/><stop offset="0.23" stop-color="#ffde00"/><stop offset="0.36" stop-color="#ffbf00"/><stop offset="0.54" stop-color="#ff8e00"/><stop offset="0.76" stop-color="#ff272d"/><stop offset="0.8" stop-color="#f92433"/><stop offset="0.84" stop-color="#e91c45"/><stop offset="0.89" stop-color="#cf0e62"/><stop offset="0.94" stop-color="#b5007f"/></radialGradient><radialGradient id="radial-gradient-7" cx="656.34" cy="1018.71" r="923.61" gradientTransform="matrix(1, 0, 0, -1, 0, 1020)" gradientUnits="userSpaceOnUse"><stop offset="0.28" stop-color="#ffea00"/><stop offset="0.4" stop-color="#fd0"/><stop offset="0.63" stop-color="#ffba00"/><stop offset="0.86" stop-color="#ff9100"/><stop offset="0.93" stop-color="#ff6711"/><stop offset="0.99" stop-color="#ff4a1d"/></radialGradient><linearGradient id="linear-gradient-2" x1="-8949.39" y1="7656.93" x2="-8665.03" y2="7729.41" gradientTransform="matrix(1.22, 0.12, 0.12, -1.22, 10147.38, 10794.61)" gradientUnits="userSpaceOnUse"><stop offset="0" stop-color="#c42482" stop-opacity="0.5"/><stop offset="0.47" stop-color="#ff272d" stop-opacity="0.5"/><stop offset="0.49" stop-color="#ff2c2c" stop-opacity="0.51"/><stop offset="0.68" stop-color="#ff7a1a" stop-opacity="0.72"/><stop offset="0.83" stop-color="#ffb20d" stop-opacity="0.87"/><stop offset="0.94" stop-color="#ffd605" stop-opacity="0.96"/><stop offset="1" stop-color="#ffe302"/></linearGradient><linearGradient id="linear-gradient-3" x1="199.86" y1="2082.86" x2="145.29" y2="2222.71" gradientTransform="matrix(1, 0.1, 0.1, -1, -263.44, 2312.31)" gradientUnits="userSpaceOnUse"><stop offset="0" stop-color="#891551" stop-opacity="0.6"/><stop offset="1" stop-color="#c42482" stop-opacity="0"/></linearGradient><linearGradient id="linear-gradient-4" x1="-23.57" y1="281.95" x2="70.54" y2="175.07" gradientTransform="matrix(1, 0.1, 0.1, -1, 215.69, 751.9)" gradientUnits="userSpaceOnUse"><stop offset="0.01" stop-color="#891551" stop-opacity="0.5"/><stop offset="0.48" stop-color="#ff272d" stop-opacity="0.5"/><stop offset="1" stop-color="#ff272d" stop-opacity="0"/></linearGradient><linearGradient id="linear-gradient-5" x1="154.45" y1="96.2" x2="154.52" y2="170.98" gradientTransform="matrix(1, 0.1, 0.1, -1, 215.69, 751.9)" gradientUnits="userSpaceOnUse"><stop offset="0" stop-color="#c42482"/><stop offset="0.08" stop-color="#c42482" stop-opacity="0.81"/><stop offset="0.21" stop-color="#c42482" stop-opacity="0.56"/><stop offset="0.33" stop-color="#c42482" stop-opacity="0.36"/><stop offset="0.45" stop-color="#c42482" stop-opacity="0.2"/><stop offset="0.56" stop-color="#c42482" stop-opacity="0.09"/><stop offset="0.67" stop-color="#c42482" stop-opacity="0.02"/><stop offset="0.77" stop-color="#c42482" stop-opacity="0"/></linearGradient><linearGradient id="linear-gradient-6" x1="620.53" y1="983.88" x2="926.19" y2="300.38" gradientTransform="matrix(1, 0, 0, -1, 0, 1020)" gradientUnits="userSpaceOnUse"><stop offset="0" stop-color="#fff14f"/><stop offset="0.27" stop-color="#ffee4c"/><stop offset="0.45" stop-color="#ffe643"/><stop offset="0.61" stop-color="#ffd834"/><stop offset="0.76" stop-color="#ffc41e"/><stop offset="0.89" stop-color="#ffab02"/><stop offset="0.9" stop-color="#ffa900"/><stop offset="0.95" stop-color="#ffa000"/><stop offset="1" stop-color="#ff9100"/></linearGradient><linearGradient id="linear-gradient-7" x1="680.89" y1="590.79" x2="536.1" y2="202.04" gradientTransform="matrix(1, 0, 0, -1, 0, 1020)" gradientUnits="userSpaceOnUse"><stop offset="0" stop-color="#ff8e00"/><stop offset="0.04" stop-color="#ff8e00" stop-opacity="0.86"/><stop offset="0.08" stop-color="#ff8e00" stop-opacity="0.73"/><stop offset="0.13" stop-color="#ff8e00" stop-opacity="0.63"/><stop offset="0.18" stop-color="#ff8e00" stop-opacity="0.56"/><stop offset="0.23" stop-color="#ff8e00" stop-opacity="0.51"/><stop offset="0.28" stop-color="#ff8e00" stop-opacity="0.5"/><stop offset="0.39" stop-color="#ff8e00" stop-opacity="0.48"/><stop offset="0.52" stop-color="#ff8e00" stop-opacity="0.42"/><stop offset="0.68" stop-color="#ff8e00" stop-opacity="0.31"/><stop offset="0.84" stop-color="#ff8e00" stop-opacity="0.17"/><stop offset="1" stop-color="#ff8e00" stop-opacity="0"/></linearGradient></defs><title>Asset 1</title><g id="Layer_2" data-name="Layer 2"><g id="Layer_1-2" data-name="Layer 1"><path class="cls-1" d="M770.28,91.56c-23.94,27.88-35.1,90.64-10.81,154.25s61.5,49.8,84.7,114.68c30.62,85.6,16.37,200.59,16.37,200.59s36.81,106.61,62.46-6.64c56.79-212.7-152.72-410.5-152.72-462.88Z"/><path class="cls-2" d="M478.07,974.64c245.24,0,443.9-199.74,443.9-446s-198.66-446-443.66-446S34.65,282.32,34.65,528.61C34.17,775.14,233.07,974.64,478.07,974.64Z"/><path class="cls-3" d="M810.67,803.64a246.8,246.8,0,0,1-30.12,18.18,703.24,703.24,0,0,0,38.3-63C828.31,748.39,837,738.21,844,727.2c3.44-5.4,7.31-12.07,11.42-19.81,24.92-44.9,52.4-117.57,53.17-192.2V515c0-1.84,0-3.68,0-5.52a257.94,257.94,0,0,0-5.71-55.75c.2,1.43.37,2.86.55,4.29-.22-1.1-.4-2.21-.64-3.31.37,2,.66,4,1,6,5.1,43.22,1.47,85.37-16.68,116.45-.28.46-.58.88-.87,1.33,9.41-47.24,12.56-99.39,2.09-151.6,0,0-4.19-25.39-35.37-102.45-18-44.35-49.84-80.71-78-107.2-24.69-30.55-47.12-51-59.48-64.06C689.69,126,678.87,105.6,674.42,92.3c-3.85-1.93-53.13-49.81-57-51.63-21.51,33.35-89.16,137.67-57,235.15,14.59,44.17,51.47,90,90.07,115.73,1.7,1.94,23,25,33.09,77.16,10.44,53.84,5,95.85-16.55,158-25.29,54.51-90.07,108.39-150.72,113.9-129.68,11.78-177.15-65.11-177.15-65.11,46.33,18.53,97.57,14.65,128.72-4.55,31.4-19.43,50.4-33.83,65.81-28.15C548.86,648.43,561,632,550.1,615a78.49,78.49,0,0,0-79.4-34.57c-31.43,5.11-60.22,30-101.41,5.89a84.81,84.81,0,0,1-7.73-5.06c-2.71-1.78,8.83,2.72,6.14.69-8-4.35-22.2-13.84-25.88-17.22-.62-.56,6.21,2.18,5.6,1.62-38.51-31.71-33.7-53.14-32.49-66.57,1-10.75,8-24.52,19.75-30.11,5.7,3.11,9.24,5.48,9.24,5.48s-2.43-5-3.74-7.58c.46-.2.9-.15,1.36-.34,4.66,2.25,15,8.1,20.41,11.67,7.07,5,9.32,9.43,9.32,9.43s1.86-1,.49-5.37c-.5-1.79-2.65-7.46-9.65-13.18l.43,0a81.07,81.07,0,0,1,11.87,8.24c2-7.18,5.53-14.68,4.75-28.09-.48-9.43-.26-11.87-1.92-15.51-1.49-3.13.83-4.35,3.42-1.1a33.38,33.38,0,0,0-2.21-7.4l0-.25c3.22-11.23,68.25-40.46,73-43.87a67.43,67.43,0,0,0,19.13-20.8c3.62-5.77,6.34-13.85,7-26.12.36-8.84-3.76-14.73-69.51-21.61-18-1.78-28.53-14.8-34.52-26.83-1.1-2.59-2.21-4.93-3.33-7.28a57.64,57.64,0,0,1-2.55-8.43c10.74-30.87,28.81-57,55.36-76.7,1.45-1.32-5.78.34-4.33-1,1.68-1.54,12.7-6,14.78-7,2.55-1.2-10.88-6.9-22.73-5.51-12.07,1.36-14.63,2.8-21.07,5.53,2.67-2.66,11.17-6.15,9.18-6.12-13,2-29.18,9.55-43,18.12a10.83,10.83,0,0,1,.83-4.35c-6.44,2.73-22.26,13.79-26.86,23.14a42.27,42.27,0,0,0,.26-5.4,85,85,0,0,0-13.19,13.82l-.24.22c-37.36-15.05-70.23-16-98.05-9.28-6.09-6.11-9.06-1.64-22.91-32.06-.94-1.84.72,1.8,0,0-2.28-5.9,1.39,7.87,0,0-23.29,18.37-53.92,39.19-68.63,53.89-.18.58,17.16-4.9,0,0-6,1.71-5.6,5.28-6.51,37.5-.22,2.44,0,5.17-.22,7.37-11.75,15-19.75,27.65-22.78,34.21-15.19,26.18-31.92,67-48.14,131.56A334.78,334.78,0,0,1,75.2,398.36c-13.49,34.27-26.53,88.08-29.13,170.95A482.08,482.08,0,0,1,58.6,518.65,472.91,472.91,0,0,0,93.34,719.71c9.33,22.82,24.76,57.46,51,95.4C226.9,902,343.31,956,472.22,956c134.57,0,255.41-58.88,338.45-152.37Z"/><path class="cls-4" d="M711.1,866.71c162.87-18.86,235-186.7,142.38-190C769.85,674,634,875.61,711.1,866.71Z"/><path class="cls-5" d="M865.21,642.42c112-65.21,82.84-206.08,82.84-206.08s-43.25,50.24-72.63,130.32C846.4,646,797.84,681.81,865.21,642.42Z"/><path class="cls-6" d="M509.47,950.06C665.7,999.91,800,876.84,717.21,835.74,642,798.68,435.32,926.49,509.47,950.06Z"/><path class="cls-7" d="M876.85,702.23c3.8-5.36,8.94-22.53,13.48-30.21,27.58-44.52,27.78-80,27.78-80.83C934.76,508,933.25,474,923,411.14c-8.26-50.6-44.33-123.09-75.57-158-32.2-36-9.52-24.24-40.7-50.51-27.32-30.3-53.82-60.29-68.25-72.36C634.21,43.09,636.57,24.58,638.58,21.42c-.34.37-.84.92-1.47,1.64C635.87,18.14,635,14,635,14s-57,57-69,152c-7.83,62,15.38,126.68,49,168a381.62,381.62,0,0,0,59,58v0c25.4,36.48,39.38,81.49,39.38,129.91,0,121.25-98.34,219.53-219.65,219.53a220.74,220.74,0,0,1-49.14-5.51c-57.23-10.91-90.28-39.79-106.77-59.39-9.45-11.23-13.46-19.42-13.46-19.42,51.28,18.37,108,14.53,142.47-4.52,34.74-19.26,55.77-33.54,72.83-27.91,16.82,5.6,30.21-10.67,18.2-27.54-11.77-16.84-42.4-41-87.88-34.28-34.78,5.06-66.65,29.76-112.24,5.84a97.54,97.54,0,0,1-8.55-5c-3-1.77,9.77,2.69,6.79.68-8.87-4.32-24.58-13.73-28.65-17.07-.67-.56,6.89,2.16,6.2,1.6-42.62-31.45-37.3-52.69-35.95-66,1.07-10.66,8.81-24.32,21.85-29.86,6.3,3.08,10.23,5.43,10.23,5.43s-2.69-4.92-4.14-7.51c.51-.19,1-.14,1.5-.34,5.16,2.23,16.58,8,22.59,11.57,7.82,4.95,10.32,9.36,10.32,9.36s2.06-1,.53-5.33c-.55-1.77-2.92-7.39-10.68-13.07l.49,0a90.83,90.83,0,0,1,13.13,8.18c2.19-7.12,6.12-14.56,5.25-27.86-.52-9.35-.28-11.78-2.12-15.39-1.65-3.1.92-4.31,3.78-1.09a29.73,29.73,0,0,0-2.44-7.34l0-.24c3.57-11.14,75.54-40.13,80.78-43.51a70.47,70.47,0,0,0,21.17-20.63c4-5.72,7-13.74,7.75-25.9.24-5.48-1.44-9.82-20.5-14-11.44-2.49-29.14-4.92-56.43-7.48-19.9-1.75-31.58-14.67-38.22-26.6-1.21-2.57-2.44-4.9-3.68-7.22a53.41,53.41,0,0,1-2.83-8.36,158.53,158.53,0,0,1,61.28-76.06c1.6-1.31-6.4.33-4.8-1,1.87-1.52,14.06-5.92,16.37-6.91,2.81-1.19-12-6.84-25.16-5.47-13.36,1.35-16.19,2.78-23.32,5.49,3-2.64,12.36-6.1,10.16-6.08-14.4,2-32.3,9.48-47.6,18a9.72,9.72,0,0,1,.92-4.31c-7.13,2.71-24.63,13.68-29.73,22.95a38.21,38.21,0,0,0,.29-5.35,88.52,88.52,0,0,0-14.6,13.7l-.26.22C258.13,196,221.74,195,191,201.72c-6.73-6.07-17.56-15.23-32.89-45.4-1-1.82-1.6,3.75-2.4,2-5.95-13.82-9.55-36.45-9-52,0,0-12.32,5.61-22.51,29.06-1.9,4.22-3.11,6.54-4.32,8.87-.56.67,1.26-7.7,1-7.25-1.77,3-6.36,7.19-8.37,12.62-1.39,4-3.33,6.27-4.56,11.29l-.3.46c-.1-1.48.37-6.08,0-5.14A235.81,235.81,0,0,0,95.33,186C89.84,204,83.45,228.59,82.44,260.55c-.24,2.42,0,5.13-.25,7.31-13,14.85-21.85,27.42-25.2,33.93-16.81,26-35.33,66.45-53.28,130.47a319.19,319.19,0,0,1,28.53-50C17.32,416.25,2.88,469.62,0,551.8a439,439,0,0,1,13.87-50.24C11.29,556.36,17.68,624.3,52.32,701,72.89,746,120.24,837.6,235.94,909.05h0s39.36,29.3,107,51.26c5,1.81,10.06,3.6,15.23,5.33-1.62-.65-3.19-1.34-4.71-2A485.12,485.12,0,0,0,492.27,984c175.18.15,226.84-70.2,226.84-70.2l-.51.38q3.71-3.49,7.14-7.26c-27.64,26.1-90.71,27.83-114.3,26,40.23-11.81,66.69-21.81,118.18-41.52q9-3.35,18.48-7.64c.68-.3,1.37-.62,2-.94,1.25-.58,2.49-1.13,3.75-1.74a349.26,349.26,0,0,0,70.26-44c51.7-41.3,63-81.55,68.83-108.1-.82,2.55-3.37,8.48-5.17,12.32-13.31,28.48-42.84,46-74.91,61a689.15,689.15,0,0,0,42.39-62.44c10.47-10.38,13.73-26.62,21.55-37.54Z"/><path class="cls-8" d="M813.92,801c21.08-23.24,40-49.82,54.35-80,36.9-77.58,94-206.58,49-341.3C881.77,273.22,833,215,771.11,158.12,670.56,65.76,642.48,24.52,642.48,0c0,0-116.09,129.41-65.74,264.38s153.46,130,221.68,270.88c80.27,165.74-64.95,346.61-185,397.23,7.36-1.63,267-60.38,280.62-208.88-.31,2.73-6.16,43.8-80.07,77.37Z"/><path class="cls-9" d="M477.59,319.37c.39-8.77-4.15-14.66-76.68-21.46-29.84-2.76-41.27-30.33-44.75-41.94-10.61,27.56-15,56.49-12.63,91.48,1.61,22.92,17,47.52,24.37,62,0,0,1.63-2.13,2.39-2.91,13.86-14.43,71.93-36.42,77.39-39.54,6-3.8,28.9-20.53,29.91-47.59Z"/><path class="cls-10" d="M158.31,156.47c-1-1.82-1.6,3.76-2.4,2-5.95-13.81-9.57-36.2-8.72-52,0,0-12.31,5.61-22.51,29.06-1.89,4.21-3.11,6.54-4.32,8.87-.56.67,1.27-7.7,1-7.25-1.77,3-6.35,7.19-8.34,12.38-1.65,4.24-3.35,6.51-4.61,11.77-.39,1.43.39-6.32.05-5.38C84.72,201.68,80.19,271,82.69,268,133.17,214.14,191,201.36,191,201.36c-6.15-4.53-19.52-17.62-32.7-44.89Z"/><path class="cls-11" d="M349.84,720.1c-69.72-29.77-149-71.76-146-167.14C207.92,427.34,321,452.17,321,452.17c-4.27,1-15.68,9.16-19.72,17.82-4.27,10.83-12.07,35.28,11.55,60.9,37.09,40.19-76.2,95.36,98.66,199.57,4.41,2.4-41-1.43-61.63-10.36Z"/><path class="cls-12" d="M325.07,657.5c49.45,17.21,107,14.19,141.53-4.86,23.08-12.85,52.7-33.43,70.92-28.35-15.78-6.24-27.73-9.15-42.1-9.86-2.45,0-5.38,0-8.05-.32a136.2,136.2,0,0,0-15.76.86c-8.9.82-18.76,6.43-27.73,5.53-.49,0,8.7-3.77,7.95-3.6-4.75,1-9.91,1.2-15.37,1.88-3.47.38-6.45.82-9.89,1-103,8.73-190-55.81-190-55.81-7.4,25,33.17,74.3,88.52,93.57Z"/><path class="cls-13" d="M813.74,801.65c104.16-102.27,156.86-226.59,134.58-366,0,0,8.9,71.5-24.85,144.63,16.22-71.4,18.1-160.12-25-252-57.5-122.63-152-187.16-188.15-214.08C655.66,73.4,633,31.87,632.57,23.3c-16.34,33.48-65.76,148.2-5.31,247,56.64,92.56,145.87,120,208.33,205C950.67,631.67,813.74,801.65,813.74,801.65Z"/><path class="cls-14" d="M798.81,535.55C762.41,460.35,717,427.55,674,392c5,7,6.23,9.47,9,14,37.83,40.32,93.61,138.66,53.11,262.11C659.88,900.48,355,791.06,323,760.32,335.93,894.81,561,959.16,707.6,872c83.4-79,150.87-213.16,91.21-336.4Z"/></g></g></svg>